999
"DXF R12 Output" (www.mydxf.blogspot.com)
 0 
SECTION
 2 
HEADER
 9 
$ACADVER
 1 
AC1009
 9 
$EXTMIN
 10 
 0 
 20 
 0 
 9 
$EXTMAX
 10 
 8.5 
 20 
 11 
 0 
ENDSEC
 0 
SECTION
 2 
ENTITIES
0
LINE
8
Layer 1
10
158.967000
20
105.343000
11
158.792172
21
104.920928
0
LINE
8
Layer 1
10
158.792172
20
104.920928
11
158.370100
21
104.746100
0
LINE
8
Layer 1
10
167.895000
20
196.161000
11
168.317072
21
195.986172
0
LINE
8
Layer 1
10
168.317072
20
195.986172
11
168.491900
21
195.564100
0
LINE
8
Layer 1
10
11.075300
20
193.900000
11
11.247378
21
194.765094
0
LINE
8
Layer 1
10
11.247378
20
194.765094
11
11.737414
21
195.498486
0
LINE
8
Layer 1
10
11.737414
20
195.498486
11
12.470806
21
195.988522
0
LINE
8
Layer 1
10
12.470806
20
195.988522
11
13.335900
21
196.160600
0
LINE
8
Layer 1
10
13.322900
20
104.746000
11
12.453930
21
104.920756
0
LINE
8
Layer 1
10
12.453930
20
104.920756
11
11.720069
21
105.417845
0
LINE
8
Layer 1
10
11.720069
20
105.417845
11
11.235418
21
106.159978
0
LINE
8
Layer 1
10
11.235418
20
106.159978
11
11.075330
21
107.031770
0
LINE
8
Layer 1
10
158.967000
20
131.695000
11
159.139078
21
132.560094
0
LINE
8
Layer 1
10
159.139078
20
132.560094
11
159.629114
21
133.293486
0
LINE
8
Layer 1
10
159.629114
20
133.293486
11
160.362506
21
133.783522
0
LINE
8
Layer 1
10
160.362506
20
133.783522
11
161.227600
21
133.955600
0
LINE
8
Layer 1
10
163.729000
20
136.217000
11
163.556922
21
135.351906
0
LINE
8
Layer 1
10
163.556922
20
135.351906
11
163.066886
21
134.618514
0
LINE
8
Layer 1
10
163.066886
20
134.618514
11
162.333494
21
134.128478
0
LINE
8
Layer 1
10
162.333494
20
134.128478
11
161.468400
21
133.956400
0
LINE
8
Layer 1
10
163.729000
20
150.745000
11
163.901078
21
151.610094
0
LINE
8
Layer 1
10
163.901078
20
151.610094
11
164.391114
21
152.343486
0
LINE
8
Layer 1
10
164.391114
20
152.343486
11
165.124506
21
152.833522
0
LINE
8
Layer 1
10
165.124506
20
152.833522
11
165.989600
21
153.005600
0
LINE
8
Layer 1
10
173.254000
20
155.267000
11
173.081922
21
154.401906
0
LINE
8
Layer 1
10
173.081922
20
154.401906
11
172.591886
21
153.668514
0
LINE
8
Layer 1
10
172.591886
20
153.668514
11
171.858494
21
153.178478
0
LINE
8
Layer 1
10
171.858494
20
153.178478
11
170.993400
21
153.006400
0
LINE
8
Layer 1
10
170.752000
20
172.056000
11
169.886906
21
172.228078
0
LINE
8
Layer 1
10
169.886906
20
172.228078
11
169.153514
21
172.718114
0
LINE
8
Layer 1
10
169.153514
20
172.718114
11
168.663478
21
173.451506
0
LINE
8
Layer 1
10
168.663478
20
173.451506
11
168.491400
21
174.316600
0
LINE
8
Layer 1
10
170.994000
20
172.056000
11
171.859094
21
171.883922
0
LINE
8
Layer 1
10
171.859094
20
171.883922
11
172.592486
21
171.393886
0
LINE
8
Layer 1
10
172.592486
20
171.393886
11
173.082522
21
170.660494
0
LINE
8
Layer 1
10
173.082522
20
170.660494
11
173.254600
21
169.795400
0
LINE
8
Layer 1
10
11.075300
20
107.032000
11
11.075300
21
193.900000
0
LINE
8
Layer 1
10
158.370000
20
104.746000
11
13.323200
21
104.746000
0
LINE
8
Layer 1
10
158.967000
20
131.695000
11
158.967000
21
105.342500
0
LINE
8
Layer 1
10
161.469000
20
133.956000
11
161.227700
21
133.956000
0
LINE
8
Layer 1
10
163.729000
20
150.745000
11
163.729000
21
136.216200
0
LINE
8
Layer 1
10
170.994000
20
153.006000
11
165.990200
21
153.006000
0
LINE
8
Layer 1
10
173.254000
20
169.795000
11
173.254000
21
155.266200
0
LINE
8
Layer 1
10
170.752000
20
172.056000
11
170.993300
21
172.056000
0
LINE
8
Layer 1
10
168.492000
20
195.564000
11
168.492000
21
174.316900
0
LINE
8
Layer 1
10
13.335900
20
196.161000
11
167.895000
21
196.161000
0
LINE
8
Layer 1
10
23.971700
20
6.337480
11
23.549628
21
6.512308
0
LINE
8
Layer 1
10
23.549628
20
6.512308
11
23.374800
21
6.934380
0
LINE
8
Layer 1
10
32.976000
20
97.142500
11
33.150828
21
97.564572
0
LINE
8
Layer 1
10
33.150828
20
97.564572
11
33.572900
21
97.739400
0
LINE
8
Layer 1
10
23.374800
20
33.286900
11
23.546878
21
34.151994
0
LINE
8
Layer 1
10
23.546878
20
34.151994
11
24.036914
21
34.885386
0
LINE
8
Layer 1
10
24.036914
20
34.885386
11
24.770306
21
35.375422
0
LINE
8
Layer 1
10
24.770306
20
35.375422
11
25.635400
21
35.547500
0
LINE
8
Layer 1
10
28.137300
20
37.808100
11
27.965222
21
36.943006
0
LINE
8
Layer 1
10
27.965222
20
36.943006
11
27.475186
21
36.209614
0
LINE
8
Layer 1
10
27.475186
20
36.209614
11
26.741794
21
35.719578
0
LINE
8
Layer 1
10
26.741794
20
35.719578
11
25.876700
21
35.547500
0
LINE
8
Layer 1
10
28.137300
20
52.336900
11
28.309378
21
53.201994
0
LINE
8
Layer 1
10
28.309378
20
53.201994
11
28.799414
21
53.935386
0
LINE
8
Layer 1
10
28.799414
20
53.935386
11
29.532806
21
54.425422
0
LINE
8
Layer 1
10
29.532806
20
54.425422
11
30.397900
21
54.597500
0
LINE
8
Layer 1
10
37.662300
20
56.858100
11
37.484651
21
55.978172
0
LINE
8
Layer 1
10
37.484651
20
55.978172
11
37.000186
21
55.259614
0
LINE
8
Layer 1
10
37.000186
20
55.259614
11
36.281628
21
54.775149
0
LINE
8
Layer 1
10
36.281628
20
54.775149
11
35.401700
21
54.597500
0
LINE
8
Layer 1
10
35.401700
20
73.647500
11
36.266794
21
73.475422
0
LINE
8
Layer 1
10
36.266794
20
73.475422
11
37.000186
21
72.985386
0
LINE
8
Layer 1
10
37.000186
20
72.985386
11
37.490222
21
72.251994
0
LINE
8
Layer 1
10
37.490222
20
72.251994
11
37.662300
21
71.386900
0
LINE
8
Layer 1
10
35.236600
20
73.647500
11
34.371506
21
73.819578
0
LINE
8
Layer 1
10
34.371506
20
73.819578
11
33.638114
21
74.309614
0
LINE
8
Layer 1
10
33.638114
20
74.309614
11
33.148078
21
75.043006
0
LINE
8
Layer 1
10
33.148078
20
75.043006
11
32.976000
21
75.908100
0
LINE
8
Layer 1
10
169.082000
20
97.739400
11
169.947094
21
97.567322
0
LINE
8
Layer 1
10
169.947094
20
97.567322
11
170.680486
21
97.077286
0
LINE
8
Layer 1
10
170.680486
20
97.077286
11
171.170522
21
96.343894
0
LINE
8
Layer 1
10
171.170522
20
96.343894
11
171.342600
21
95.478800
0
LINE
8
Layer 1
10
171.342000
20
8.598080
11
171.169922
21
7.732986
0
LINE
8
Layer 1
10
171.169922
20
7.732986
11
170.679886
21
6.999594
0
LINE
8
Layer 1
10
170.679886
20
6.999594
11
169.946494
21
6.509558
0
LINE
8
Layer 1
10
169.946494
20
6.509558
11
169.081400
21
6.337480
0
LINE
8
Layer 1
10
171.342000
20
8.598080
11
171.342000
21
95.478780
0
LINE
8
Layer 1
10
23.971700
20
6.337480
11
169.081700
21
6.337480
0
LINE
8
Layer 1
10
23.374800
20
16.497500
11
23.374800
21
6.934400
0
LINE
8
Layer 1
10
33.572900
20
97.739400
11
169.082000
21
97.739400
0
LINE
8
Layer 1
10
32.976000
20
92.697500
11
32.976000
21
97.142500
0
LINE
8
Layer 1
10
32.976000
20
75.908100
11
32.976000
21
92.697500
0
LINE
8
Layer 1
10
35.401700
20
73.647500
11
35.236600
21
73.647500
0
LINE
8
Layer 1
10
37.662300
20
56.858100
11
37.662300
21
71.386900
0
LINE
8
Layer 1
10
30.397900
20
54.597500
11
35.401700
21
54.597500
0
LINE
8
Layer 1
10
28.137300
20
37.808100
11
28.137300
21
52.336900
0
LINE
8
Layer 1
10
25.635400
20
35.547500
11
25.876700
21
35.547500
0
LINE
8
Layer 1
10
23.374800
20
16.497500
11
23.374800
21
33.286900
 0 
ENDSEC
 0 
EOF