999
"DXF R12 Output" (www.mydxf.blogspot.com)
 0 
SECTION
 2 
HEADER
 9 
$ACADVER
 1 
AC1009
 9 
$EXTMIN
 10 
 0 
 20 
 0 
 9 
$EXTMAX
 10 
 8.5 
 20 
 11 
 0 
ENDSEC
 0 
SECTION
 2 
ENTITIES
0
LINE
8
honban
10
83.007800
20
21.536300
11
81.776540
21
19.936680
0
LINE
8
honban
10
81.776540
20
19.936680
11
81.262910
21
19.332693
0
LINE
8
honban
10
81.262910
20
19.332693
11
80.973787
21
19.069269
0
LINE
8
honban
10
80.973787
20
19.069269
11
80.761763
21
18.670922
0
LINE
8
honban
10
80.761763
20
18.670922
11
80.633265
21
18.195475
0
LINE
8
honban
10
80.633265
20
18.195475
11
80.691085
21
17.713603
0
LINE
8
honban
10
80.691085
20
17.713603
11
80.858132
21
17.353805
0
LINE
8
honban
10
80.858132
20
17.353805
11
81.172955
21
17.013282
0
LINE
8
honban
10
81.172955
20
17.013282
11
81.606615
21
16.937372
0
LINE
8
honban
10
81.606615
20
16.937372
11
81.953071
21
16.868462
0
LINE
8
honban
10
81.953071
20
16.868462
11
82.299527
21
16.937372
0
LINE
8
honban
10
82.299527
20
16.937372
11
82.796599
21
17.077034
0
LINE
8
honban
10
82.796599
20
17.077034
11
83.055468
21
17.463064
0
LINE
8
honban
10
83.055468
20
17.463064
11
83.703131
21
17.979178
0
LINE
8
honban
10
83.703131
20
17.979178
11
85.110801
21
19.077528
0
LINE
8
honban
10
85.110801
20
19.077528
11
97.047501
21
19.024858
0
LINE
8
honban
10
97.047501
20
19.024858
11
97.114671
21
31.998558
0
LINE
8
honban
10
97.114671
20
31.998558
11
97.118371
21
38.090868
0
LINE
8
honban
10
97.118371
20
38.090868
11
101.872241
21
38.125048
0
LINE
8
honban
10
101.872241
20
38.125048
11
101.809941
21
52.070248
0
LINE
8
honban
10
101.809941
20
52.070248
11
87.874241
21
52.123008
0
LINE
8
honban
10
87.874241
20
52.123008
11
87.874241
21
40.124008
0
LINE
8
honban
10
87.874241
20
40.124008
11
87.272531
21
40.045268
0
LINE
8
honban
10
87.272531
20
40.045268
11
87.273325
21
33.017148
0
LINE
8
honban
10
87.273325
20
33.017148
11
83.049385
21
33.020248
0
LINE
8
honban
10
83.049385
20
33.020248
11
83.007800
21
21.536300
0
LINE
8
honban
10
77.997500
20
19.024800
11
78.687748
21
18.161744
0
LINE
8
honban
10
78.687748
20
18.161744
11
78.687748
21
8.184270
0
LINE
8
honban
10
78.687748
20
8.184270
11
76.713288
21
8.184270
0
LINE
8
honban
10
76.713288
20
8.184270
11
76.713288
21
18.161730
0
LINE
8
honban
10
76.713288
20
18.161730
11
76.682198
21
19.022020
0
LINE
8
honban
10
76.682198
20
19.022020
11
64.061798
21
19.077540
0
LINE
8
honban
10
64.061798
20
19.077540
11
63.999548
21
33.020140
0
LINE
8
honban
10
63.999548
20
33.020140
11
71.487408
21
33.012040
0
LINE
8
honban
10
71.487408
20
33.012040
11
71.496008
21
38.097420
0
LINE
8
honban
10
71.496008
20
38.097420
11
68.824308
21
38.125010
0
LINE
8
honban
10
68.824308
20
38.125010
11
68.762058
21
52.070210
0
LINE
8
honban
10
68.762058
20
52.070210
11
82.759958
21
52.070210
0
LINE
8
honban
10
82.759958
20
52.070210
11
82.759958
21
38.072310
0
LINE
8
honban
10
82.759958
20
38.072310
11
81.348898
21
38.054530
0
LINE
8
honban
10
81.348898
20
38.054530
11
81.331728
21
32.977740
0
LINE
8
honban
10
81.331728
20
32.977740
11
77.997468
21
33.020250
0
LINE
8
honban
10
77.997468
20
33.020250
11
77.997500
21
19.024800
0
LINE
8
honban
10
59.863400
20
31.998500
11
59.009700
21
31.074000
0
LINE
8
honban
10
59.009700
20
31.074000
11
59.009700
21
19.077500
0
LINE
8
honban
10
59.009700
20
19.077500
11
45.011800
21
19.077500
0
LINE
8
honban
10
45.011800
20
19.077500
11
44.949550
21
33.020100
0
LINE
8
honban
10
44.949550
20
33.020100
11
52.038560
21
33.017700
0
LINE
8
honban
10
52.038560
20
33.017700
11
52.038560
21
38.067380
0
LINE
8
honban
10
52.038560
20
38.067380
11
49.712040
21
38.072180
0
LINE
8
honban
10
49.712040
20
38.072180
11
49.712040
21
52.070080
0
LINE
8
honban
10
49.712040
20
52.070080
11
63.709940
21
52.070080
0
LINE
8
honban
10
63.709940
20
52.070080
11
63.709940
21
38.072180
0
LINE
8
honban
10
63.709940
20
38.072180
11
61.894230
21
38.085360
0
LINE
8
honban
10
61.894230
20
38.085360
11
61.890030
21
31.998450
0
LINE
8
honban
10
61.890030
20
31.998450
11
59.863400
21
31.998500
0
LINE
8
honban
10
42.822100
20
31.655500
11
39.959700
21
31.074000
0
LINE
8
honban
10
39.959700
20
31.074000
11
39.897500
21
19.024800
0
LINE
8
honban
10
39.897500
20
19.024800
11
25.961800
21
19.077500
0
LINE
8
honban
10
25.961800
20
19.077500
11
25.899550
21
33.020100
0
LINE
8
honban
10
25.899550
20
33.020100
11
32.951180
21
33.032850
0
LINE
8
honban
10
32.951180
20
33.032850
11
32.976870
21
38.087720
0
LINE
8
honban
10
32.976870
20
38.087720
11
30.662030
21
38.072140
0
LINE
8
honban
10
30.662030
20
38.072140
11
30.662030
21
52.070040
0
LINE
8
honban
10
30.662030
20
52.070040
11
44.659930
21
52.070040
0
LINE
8
honban
10
44.659930
20
52.070040
11
44.659930
21
38.072140
0
LINE
8
honban
10
44.659930
20
38.072140
11
42.723210
21
38.124900
0
LINE
8
honban
10
42.723210
20
38.124900
11
42.822100
21
31.655500
0
LINE
8
honban
10
40.249300
20
57.175000
11
40.187050
21
71.120200
0
LINE
8
honban
10
40.187050
20
71.120200
11
47.015240
21
71.186840
0
LINE
8
honban
10
47.015240
20
71.186840
11
47.023540
21
73.090440
0
LINE
8
honban
10
47.023540
20
73.090440
11
49.117510
21
73.055990
0
LINE
8
honban
10
49.117510
20
73.055990
11
49.107710
21
71.173000
0
LINE
8
honban
10
49.107710
20
71.173000
11
54.184990
21
71.120180
0
LINE
8
honban
10
54.184990
20
71.120180
11
54.247240
21
57.174980
0
LINE
8
honban
10
54.247240
20
57.174980
11
40.249300
21
57.175000
0
LINE
8
honban
10
54.836800
20
71.096300
11
56.932680
21
71.088600
0
LINE
8
honban
10
56.932680
20
71.088600
11
56.902040
21
73.134220
0
LINE
8
honban
10
56.902040
20
73.134220
11
54.828260
21
73.173000
0
LINE
8
honban
10
54.828260
20
73.173000
11
54.836800
21
71.096300
0
LINE
8
honban
10
73.235000
20
71.120200
11
73.235000
21
57.122200
0
LINE
8
honban
10
73.235000
20
57.122200
11
59.299300
21
57.175000
0
LINE
8
honban
10
59.299300
20
57.175000
11
59.237050
21
71.120200
0
LINE
8
honban
10
59.237050
20
71.120200
11
66.265130
21
71.176100
0
LINE
8
honban
10
66.265130
20
71.176100
11
66.225840
21
73.114290
0
LINE
8
honban
10
66.225840
20
73.114290
11
68.327420
21
73.143830
0
LINE
8
honban
10
68.327420
20
73.143830
11
68.338830
21
71.173590
0
LINE
8
honban
10
68.338830
20
71.173590
11
73.235000
21
71.120200
0
LINE
8
honban
10
73.132600
20
86.417700
11
73.132600
21
88.427590
0
LINE
8
honban
10
73.132600
20
88.427590
11
75.089200
21
88.435190
0
LINE
8
honban
10
75.089200
20
88.435190
11
75.066370
21
86.410070
0
LINE
8
honban
10
75.066370
20
86.410070
11
73.132600
21
86.417700
0
LINE
8
honban
10
73.246800
20
78.606500
11
73.239200
21
80.639230
0
LINE
8
honban
10
73.239200
20
80.639230
11
75.150120
21
80.639230
0
LINE
8
honban
10
75.150120
20
80.639230
11
75.127290
21
78.606500
0
LINE
8
honban
10
75.127290
20
78.606500
11
73.246800
21
78.606500
0
LINE
8
honban
10
78.287000
20
71.120200
11
78.349300
21
57.175000
0
LINE
8
honban
10
78.349300
20
57.175000
11
92.285000
21
57.122200
0
LINE
8
honban
10
92.285000
20
57.122200
11
92.347200
21
76.225000
0
LINE
8
honban
10
92.347200
20
76.225000
11
92.285000
21
90.170200
0
LINE
8
honban
10
92.285000
20
90.170200
11
78.287000
21
90.170200
0
LINE
8
honban
10
78.287000
20
90.170200
11
78.349300
21
76.225000
0
LINE
8
honban
10
78.349300
20
76.225000
11
82.321100
21
76.122400
0
LINE
8
honban
10
82.321100
20
76.122400
11
82.306600
21
71.082300
0
LINE
8
honban
10
82.306600
20
71.082300
11
78.287000
21
71.120200
0
LINE
8
honban
10
97.337100
20
90.170200
11
97.399300
21
76.225000
0
LINE
8
honban
10
97.399300
20
76.225000
11
100.452000
21
76.182600
0
LINE
8
honban
10
100.452000
20
76.182600
11
100.452000
21
71.130620
0
LINE
8
honban
10
100.452000
20
71.130620
11
97.337320
21
71.120170
0
LINE
8
honban
10
97.337320
20
71.120170
11
97.337320
21
57.122200
0
LINE
8
honban
10
97.337320
20
57.122200
11
111.335220
21
57.122200
0
LINE
8
honban
10
111.335220
20
57.122200
11
111.335220
21
71.120100
0
LINE
8
honban
10
111.335220
20
71.120100
11
110.294620
21
71.152330
0
LINE
8
honban
10
110.294620
20
71.152330
11
110.261920
21
76.160760
0
LINE
8
honban
10
110.261920
20
76.160760
11
111.335180
21
76.172160
0
LINE
8
honban
10
111.335180
20
76.172160
11
111.335180
21
90.170200
0
LINE
8
honban
10
111.335180
20
90.170200
11
97.337100
21
90.170200
0
LINE
8
honban
10
116.387000
20
90.170200
11
116.449200
21
76.225000
0
LINE
8
honban
10
116.449200
20
76.225000
11
119.325950
21
76.161780
0
LINE
8
honban
10
119.325950
20
76.161780
11
119.315950
21
71.108020
0
LINE
8
honban
10
119.315950
20
71.108020
11
116.386820
21
71.120170
0
LINE
8
honban
10
116.386820
20
71.120170
11
116.449020
21
57.174970
0
LINE
8
honban
10
116.449020
20
57.174970
11
130.384720
21
57.122210
0
LINE
8
honban
10
130.384720
20
57.122210
11
130.384720
21
71.120110
0
LINE
8
honban
10
130.384720
20
71.120110
11
129.147070
21
71.127710
0
LINE
8
honban
10
129.147070
20
71.127710
11
129.166770
21
76.191340
0
LINE
8
honban
10
129.166770
20
76.191340
11
130.384670
21
76.172180
0
LINE
8
honban
10
130.384670
20
76.172180
11
130.384670
21
90.170080
0
LINE
8
honban
10
130.384670
20
90.170080
11
116.387000
21
90.170200
0
LINE
8
honban
10
140.105000
20
76.178000
11
140.125100
21
71.118360
0
LINE
8
honban
10
140.125100
20
71.118360
11
137.816980
21
71.120260
0
LINE
8
honban
10
137.816980
20
71.120260
11
137.816980
21
57.122300
0
LINE
8
honban
10
137.816980
20
57.122300
11
151.817480
21
57.122300
0
LINE
8
honban
10
151.817480
20
57.122300
11
151.817480
21
71.120200
0
LINE
8
honban
10
151.817480
20
71.120200
11
149.961880
21
71.133750
0
LINE
8
honban
10
149.961880
20
71.133750
11
149.950580
21
76.192120
0
LINE
8
honban
10
149.950580
20
76.192120
11
149.434960
21
76.172250
0
LINE
8
honban
10
149.434960
20
76.172250
11
149.434960
21
90.170200
0
LINE
8
honban
10
149.434960
20
90.170200
11
135.437060
21
90.170200
0
LINE
8
honban
10
135.437060
20
90.170200
11
135.499360
21
76.225000
0
LINE
8
honban
10
135.499360
20
76.225000
11
140.105000
21
76.178000
0
LINE
8
Layer 1
10
23.971700
20
6.337480
11
23.549628
21
6.512308
0
LINE
8
Layer 1
10
23.549628
20
6.512308
11
23.374800
21
6.934380
0
LINE
8
Layer 1
10
32.976000
20
97.142500
11
33.150828
21
97.564572
0
LINE
8
Layer 1
10
33.150828
20
97.564572
11
33.572900
21
97.739400
0
LINE
8
Layer 1
10
23.374800
20
33.286900
11
23.546878
21
34.151994
0
LINE
8
Layer 1
10
23.546878
20
34.151994
11
24.036914
21
34.885386
0
LINE
8
Layer 1
10
24.036914
20
34.885386
11
24.770306
21
35.375422
0
LINE
8
Layer 1
10
24.770306
20
35.375422
11
25.635400
21
35.547500
0
LINE
8
Layer 1
10
28.137300
20
37.808100
11
27.965222
21
36.943006
0
LINE
8
Layer 1
10
27.965222
20
36.943006
11
27.475186
21
36.209614
0
LINE
8
Layer 1
10
27.475186
20
36.209614
11
26.741794
21
35.719578
0
LINE
8
Layer 1
10
26.741794
20
35.719578
11
25.876700
21
35.547500
0
LINE
8
Layer 1
10
28.137300
20
52.336900
11
28.309378
21
53.201994
0
LINE
8
Layer 1
10
28.309378
20
53.201994
11
28.799414
21
53.935386
0
LINE
8
Layer 1
10
28.799414
20
53.935386
11
29.532806
21
54.425422
0
LINE
8
Layer 1
10
29.532806
20
54.425422
11
30.397900
21
54.597500
0
LINE
8
Layer 1
10
37.662300
20
56.858100
11
37.484651
21
55.978172
0
LINE
8
Layer 1
10
37.484651
20
55.978172
11
37.000186
21
55.259614
0
LINE
8
Layer 1
10
37.000186
20
55.259614
11
36.281628
21
54.775149
0
LINE
8
Layer 1
10
36.281628
20
54.775149
11
35.401700
21
54.597500
0
LINE
8
Layer 1
10
35.401700
20
73.647500
11
36.266794
21
73.475422
0
LINE
8
Layer 1
10
36.266794
20
73.475422
11
37.000186
21
72.985386
0
LINE
8
Layer 1
10
37.000186
20
72.985386
11
37.490222
21
72.251994
0
LINE
8
Layer 1
10
37.490222
20
72.251994
11
37.662300
21
71.386900
0
LINE
8
Layer 1
10
35.236600
20
73.647500
11
34.371506
21
73.819578
0
LINE
8
Layer 1
10
34.371506
20
73.819578
11
33.638114
21
74.309614
0
LINE
8
Layer 1
10
33.638114
20
74.309614
11
33.148078
21
75.043006
0
LINE
8
Layer 1
10
33.148078
20
75.043006
11
32.976000
21
75.908100
0
LINE
8
Layer 1
10
169.082000
20
97.739400
11
169.947094
21
97.567322
0
LINE
8
Layer 1
10
169.947094
20
97.567322
11
170.680486
21
97.077286
0
LINE
8
Layer 1
10
170.680486
20
97.077286
11
171.170522
21
96.343894
0
LINE
8
Layer 1
10
171.170522
20
96.343894
11
171.342600
21
95.478800
0
LINE
8
Layer 1
10
171.342000
20
8.598080
11
171.169922
21
7.732986
0
LINE
8
Layer 1
10
171.169922
20
7.732986
11
170.679886
21
6.999594
0
LINE
8
Layer 1
10
170.679886
20
6.999594
11
169.946494
21
6.509558
0
LINE
8
Layer 1
10
169.946494
20
6.509558
11
169.081400
21
6.337480
0
LINE
8
Layer 1
10
171.342000
20
8.598080
11
171.342000
21
95.478780
0
LINE
8
Layer 1
10
23.971700
20
6.337480
11
169.081700
21
6.337480
0
LINE
8
Layer 1
10
23.374800
20
16.497500
11
23.374800
21
6.934400
0
LINE
8
Layer 1
10
33.572900
20
97.739400
11
169.082000
21
97.739400
0
LINE
8
Layer 1
10
32.976000
20
92.697500
11
32.976000
21
97.142500
0
LINE
8
Layer 1
10
32.976000
20
75.908100
11
32.976000
21
92.697500
0
LINE
8
Layer 1
10
35.401700
20
73.647500
11
35.236600
21
73.647500
0
LINE
8
Layer 1
10
37.662300
20
56.858100
11
37.662300
21
71.386900
0
LINE
8
Layer 1
10
30.397900
20
54.597500
11
35.401700
21
54.597500
0
LINE
8
Layer 1
10
28.137300
20
37.808100
11
28.137300
21
52.336900
0
LINE
8
Layer 1
10
25.635400
20
35.547500
11
25.876700
21
35.547500
0
LINE
8
Layer 1
10
23.374800
20
16.497500
11
23.374800
21
33.286900
0
LINE
8
Layer 1
10
158.967000
20
105.343000
11
158.792172
21
104.920928
0
LINE
8
Layer 1
10
158.792172
20
104.920928
11
158.370100
21
104.746100
0
LINE
8
Layer 1
10
167.895000
20
196.161000
11
168.317072
21
195.986172
0
LINE
8
Layer 1
10
168.317072
20
195.986172
11
168.491900
21
195.564100
0
LINE
8
Layer 1
10
11.075300
20
193.900000
11
11.247378
21
194.765094
0
LINE
8
Layer 1
10
11.247378
20
194.765094
11
11.737414
21
195.498486
0
LINE
8
Layer 1
10
11.737414
20
195.498486
11
12.470806
21
195.988522
0
LINE
8
Layer 1
10
12.470806
20
195.988522
11
13.335900
21
196.160600
0
LINE
8
Layer 1
10
13.322900
20
104.746000
11
12.453930
21
104.920756
0
LINE
8
Layer 1
10
12.453930
20
104.920756
11
11.720069
21
105.417845
0
LINE
8
Layer 1
10
11.720069
20
105.417845
11
11.235418
21
106.159978
0
LINE
8
Layer 1
10
11.235418
20
106.159978
11
11.075330
21
107.031770
0
LINE
8
Layer 1
10
158.967000
20
131.695000
11
159.139078
21
132.560094
0
LINE
8
Layer 1
10
159.139078
20
132.560094
11
159.629114
21
133.293486
0
LINE
8
Layer 1
10
159.629114
20
133.293486
11
160.362506
21
133.783522
0
LINE
8
Layer 1
10
160.362506
20
133.783522
11
161.227600
21
133.955600
0
LINE
8
Layer 1
10
163.729000
20
136.217000
11
163.556922
21
135.351906
0
LINE
8
Layer 1
10
163.556922
20
135.351906
11
163.066886
21
134.618514
0
LINE
8
Layer 1
10
163.066886
20
134.618514
11
162.333494
21
134.128478
0
LINE
8
Layer 1
10
162.333494
20
134.128478
11
161.468400
21
133.956400
0
LINE
8
Layer 1
10
163.729000
20
150.745000
11
163.901078
21
151.610094
0
LINE
8
Layer 1
10
163.901078
20
151.610094
11
164.391114
21
152.343486
0
LINE
8
Layer 1
10
164.391114
20
152.343486
11
165.124506
21
152.833522
0
LINE
8
Layer 1
10
165.124506
20
152.833522
11
165.989600
21
153.005600
0
LINE
8
Layer 1
10
173.254000
20
155.267000
11
173.081922
21
154.401906
0
LINE
8
Layer 1
10
173.081922
20
154.401906
11
172.591886
21
153.668514
0
LINE
8
Layer 1
10
172.591886
20
153.668514
11
171.858494
21
153.178478
0
LINE
8
Layer 1
10
171.858494
20
153.178478
11
170.993400
21
153.006400
0
LINE
8
Layer 1
10
170.752000
20
172.056000
11
169.886906
21
172.228078
0
LINE
8
Layer 1
10
169.886906
20
172.228078
11
169.153514
21
172.718114
0
LINE
8
Layer 1
10
169.153514
20
172.718114
11
168.663478
21
173.451506
0
LINE
8
Layer 1
10
168.663478
20
173.451506
11
168.491400
21
174.316600
0
LINE
8
Layer 1
10
170.994000
20
172.056000
11
171.859094
21
171.883922
0
LINE
8
Layer 1
10
171.859094
20
171.883922
11
172.592486
21
171.393886
0
LINE
8
Layer 1
10
172.592486
20
171.393886
11
173.082522
21
170.660494
0
LINE
8
Layer 1
10
173.082522
20
170.660494
11
173.254600
21
169.795400
0
LINE
8
Layer 1
10
11.075300
20
107.032000
11
11.075300
21
193.900000
0
LINE
8
Layer 1
10
158.370000
20
104.746000
11
13.323200
21
104.746000
0
LINE
8
Layer 1
10
158.967000
20
131.695000
11
158.967000
21
105.342500
0
LINE
8
Layer 1
10
161.469000
20
133.956000
11
161.227700
21
133.956000
0
LINE
8
Layer 1
10
163.729000
20
150.745000
11
163.729000
21
136.216200
0
LINE
8
Layer 1
10
170.994000
20
153.006000
11
165.990200
21
153.006000
0
LINE
8
Layer 1
10
173.254000
20
169.795000
11
173.254000
21
155.266200
0
LINE
8
Layer 1
10
170.752000
20
172.056000
11
170.993300
21
172.056000
0
LINE
8
Layer 1
10
168.492000
20
195.564000
11
168.492000
21
174.316900
0
LINE
8
Layer 1
10
13.335900
20
196.161000
11
167.895000
21
196.161000
0
LINE
8
honban
10
161.202000
20
136.481000
11
154.628200
21
136.477000
0
LINE
8
honban
10
154.628200
20
136.477000
11
154.631200
21
134.749350
0
LINE
8
honban
10
154.631200
20
134.749350
11
152.592930
21
134.749350
0
LINE
8
honban
10
152.592930
20
134.749350
11
152.592930
21
136.510490
0
LINE
8
honban
10
152.592930
20
136.510490
11
146.844640
21
136.456890
0
LINE
8
honban
10
146.844640
20
136.456890
11
146.826740
21
134.624230
0
LINE
8
honban
10
146.826740
20
134.624230
11
144.779530
21
134.633230
0
LINE
8
honban
10
144.779530
20
134.633230
11
144.770530
21
136.492700
0
LINE
8
honban
10
144.770530
20
136.492700
11
147.184280
21
137.887310
0
LINE
8
honban
10
147.184280
20
137.887310
11
147.203680
21
150.478810
0
LINE
8
honban
10
147.203680
20
150.478810
11
161.201580
21
150.478810
0
LINE
8
honban
10
161.201580
20
150.478810
11
161.202000
21
136.481000
0
LINE
8
honban
10
152.570000
20
133.393000
11
154.608150
21
133.419500
0
LINE
8
honban
10
154.608150
20
133.419500
11
154.622450
21
131.442370
0
LINE
8
honban
10
154.622450
20
131.442370
11
156.439670
21
131.428970
0
LINE
8
honban
10
156.439670
20
131.428970
11
156.462870
21
117.477770
0
LINE
8
honban
10
156.462870
20
117.477770
11
142.465000
21
117.477770
0
LINE
8
honban
10
142.465000
20
117.477770
11
142.465000
21
131.473170
0
LINE
8
honban
10
142.465000
20
131.473170
11
144.785830
21
131.451670
0
LINE
8
honban
10
144.785830
20
131.451670
11
144.777830
21
133.541890
0
LINE
8
honban
10
144.777830
20
133.541890
11
146.803980
21
133.541890
0
LINE
8
honban
10
146.803980
20
133.541890
11
146.827980
21
131.443660
0
LINE
8
honban
10
146.827980
20
131.443660
11
152.594090
21
131.427660
0
LINE
8
honban
10
152.594090
20
131.427660
11
152.570000
21
133.393000
0
LINE
8
honban
10
133.595000
20
133.396000
11
135.703070
21
133.450300
0
LINE
8
honban
10
135.703070
20
133.450300
11
135.762370
21
131.490680
0
LINE
8
honban
10
135.762370
20
131.490680
11
137.366240
21
131.384870
0
LINE
8
honban
10
137.366240
20
131.384870
11
137.389440
21
117.433670
0
LINE
8
honban
10
137.389440
20
117.433670
11
123.392000
21
117.433670
0
LINE
8
honban
10
123.392000
20
117.433670
11
123.392000
21
131.429070
0
LINE
8
honban
10
123.392000
20
131.429070
11
125.887180
21
131.407570
0
LINE
8
honban
10
125.887180
20
131.407570
11
125.983780
21
133.497790
0
LINE
8
honban
10
125.983780
20
133.497790
11
127.887880
21
133.497790
0
LINE
8
honban
10
127.887880
20
133.497790
11
128.109100
21
131.623110
0
LINE
8
honban
10
128.109100
20
131.623110
11
133.506600
21
131.623110
0
LINE
8
honban
10
133.506600
20
131.623110
11
133.595000
21
133.396000
0
LINE
8
honban
10
126.295000
20
134.592000
11
126.308000
21
136.994040
0
LINE
8
honban
10
126.308000
20
136.994040
11
128.177690
21
137.565340
0
LINE
8
honban
10
128.177690
20
137.565340
11
128.153890
21
150.478740
0
LINE
8
honban
10
128.153890
20
150.478740
11
142.151790
21
150.478740
0
LINE
8
honban
10
142.151790
20
150.478740
11
142.151790
21
136.480840
0
LINE
8
honban
10
142.151790
20
136.480840
11
135.639570
21
136.473840
0
LINE
8
honban
10
135.639570
20
136.473840
11
135.674570
21
134.740700
0
LINE
8
honban
10
135.674570
20
134.740700
11
133.765760
21
134.776800
0
LINE
8
honban
10
133.765760
20
134.776800
11
133.765760
21
136.479250
0
LINE
8
honban
10
133.765760
20
136.479250
11
128.153840
21
136.480250
0
LINE
8
honban
10
128.153840
20
136.480250
11
127.910370
21
134.740480
0
LINE
8
honban
10
127.910370
20
134.740480
11
126.295000
21
134.592000
0
LINE
8
honban
10
119.019000
20
131.609000
11
120.797620
21
131.618000
0
LINE
8
honban
10
120.797620
20
131.618000
11
120.806620
21
133.614590
0
LINE
8
honban
10
120.806620
20
133.614590
11
119.028000
21
133.623590
0
LINE
8
honban
10
119.028000
20
133.623590
11
119.019000
21
131.609000
0
LINE
8
honban
10
118.340000
20
131.429000
11
118.363200
21
117.477800
0
LINE
8
honban
10
118.363200
20
117.477800
11
105.854400
21
117.441400
0
LINE
8
honban
10
105.854400
20
117.441400
11
104.075790
21
115.854590
0
LINE
8
honban
10
104.075790
20
115.854590
11
103.673380
21
115.579460
0
LINE
8
honban
10
103.673380
20
115.579460
11
103.205250
21
115.327970
0
LINE
8
honban
10
103.205250
20
115.327970
11
102.525800
21
115.463150
0
LINE
8
honban
10
102.525800
20
115.463150
11
101.939700
21
115.933060
0
LINE
8
honban
10
101.939700
20
115.933060
11
101.721730
21
116.543370
0
LINE
8
honban
10
101.721730
20
116.543370
11
101.800230
21
117.188550
0
LINE
8
honban
10
101.800230
20
117.188550
11
102.131540
21
117.641930
0
LINE
8
honban
10
102.131540
20
117.641930
11
104.365300
21
119.476810
0
LINE
8
honban
10
104.365300
20
119.476810
11
104.342100
21
131.429010
0
LINE
8
honban
10
104.342100
20
131.429010
11
111.207720
21
131.443610
0
LINE
8
honban
10
111.207720
20
131.443610
11
111.207720
21
133.475070
0
LINE
8
honban
10
111.207720
20
133.475070
11
113.230460
21
133.466070
0
LINE
8
honban
10
113.230460
20
133.466070
11
113.230460
21
131.425890
0
LINE
8
honban
10
113.230460
20
131.425890
11
118.340000
21
131.429000
0
LINE
8
honban
10
121.025000
20
134.565000
11
119.054570
21
134.574000
0
LINE
8
honban
10
119.054570
20
134.574000
11
119.028370
21
136.492120
0
LINE
8
honban
10
119.028370
20
136.492120
11
113.239150
21
136.492120
0
LINE
8
honban
10
113.239150
20
136.492120
11
113.239150
21
134.463970
0
LINE
8
honban
10
113.239150
20
134.463970
11
111.133570
21
134.464940
0
LINE
8
honban
10
111.133570
20
134.464940
11
111.126570
21
136.525620
0
LINE
8
honban
10
111.126570
20
136.525620
11
109.127590
21
136.525620
0
LINE
8
honban
10
109.127590
20
136.525620
11
109.104390
21
150.479420
0
LINE
8
honban
10
109.104390
20
150.479420
11
123.102290
21
150.479420
0
LINE
8
honban
10
123.102290
20
150.479420
11
123.125490
21
136.525620
0
LINE
8
honban
10
123.125490
20
136.525620
11
121.126510
21
136.525620
0
LINE
8
honban
10
121.126510
20
136.525620
11
121.025000
21
134.565000
0
LINE
8
honban
10
101.546000
20
133.501000
11
101.542000
21
131.393370
0
LINE
8
honban
10
101.542000
20
131.393370
11
99.310450
21
130.028950
0
LINE
8
honban
10
99.310450
20
130.028950
11
99.313250
21
117.477750
0
LINE
8
honban
10
99.313250
20
117.477750
11
85.315350
21
117.477750
0
LINE
8
honban
10
85.315350
20
117.477750
11
85.292150
21
131.428950
0
LINE
8
honban
10
85.292150
20
131.428950
11
91.697770
21
131.431950
0
LINE
8
honban
10
91.697770
20
131.431950
11
91.723280
21
133.484970
0
LINE
8
honban
10
91.723280
20
133.484970
11
93.725290
21
133.484970
0
LINE
8
honban
10
93.725290
20
133.484970
11
93.750800
21
131.406450
0
LINE
8
honban
10
93.750800
20
131.406450
11
99.290100
21
131.429350
0
LINE
8
honban
10
99.290100
20
131.429350
11
99.419803
21
133.484810
0
LINE
8
honban
10
99.419803
20
133.484810
11
101.546000
21
133.501000
0
LINE
8
honban
10
99.508300
20
134.488000
11
101.527600
21
134.513400
0
LINE
8
honban
10
101.527600
20
134.513400
11
101.541500
21
136.481150
0
LINE
8
honban
10
101.541500
20
136.481150
11
104.075230
21
136.525050
0
LINE
8
honban
10
104.075230
20
136.525050
11
104.052030
21
150.478850
0
LINE
8
honban
10
104.052030
20
150.478850
11
90.077330
21
150.523050
0
LINE
8
honban
10
90.077330
20
150.523050
11
90.077330
21
136.525000
0
LINE
8
honban
10
90.077330
20
136.525000
11
91.697250
21
136.493800
0
LINE
8
honban
10
91.697250
20
136.493800
11
91.722760
21
134.466280
0
LINE
8
honban
10
91.722760
20
134.466280
11
93.903290
21
134.479080
0
LINE
8
honban
10
93.903290
20
134.479080
11
93.877780
21
136.481090
0
LINE
8
honban
10
93.877780
20
136.481090
11
99.565020
21
136.493890
0
LINE
8
honban
10
99.565020
20
136.493890
11
99.508300
21
134.488000
0
LINE
8
honban
10
80.618300
20
134.381000
11
82.769680
21
134.487680
0
LINE
8
honban
10
82.769680
20
134.487680
11
82.718100
21
136.482030
0
LINE
8
honban
10
82.718100
20
136.482030
11
85.002000
21
136.481030
0
LINE
8
honban
10
85.002000
20
136.481030
11
85.002000
21
150.478930
0
LINE
8
honban
10
85.002000
20
150.478930
11
71.004100
21
150.478930
0
LINE
8
honban
10
71.004100
20
150.478930
11
71.027300
21
136.525000
0
LINE
8
honban
10
71.027300
20
136.525000
11
73.026280
21
136.525000
0
LINE
8
honban
10
73.026280
20
136.525000
11
73.038480
21
134.378460
0
LINE
8
honban
10
73.038480
20
134.378460
11
75.131670
21
134.399760
0
LINE
8
honban
10
75.131670
20
134.399760
11
75.099790
21
136.492940
0
LINE
8
honban
10
75.099790
20
136.492940
11
80.603710
21
136.471740
0
LINE
8
honban
10
80.603710
20
136.471740
11
80.618300
21
134.381000
0
LINE
8
honban
10
80.679700
20
133.377000
11
82.683720
21
133.298100
0
LINE
8
honban
10
82.683720
20
133.298100
11
82.707550
21
131.222980
0
LINE
8
honban
10
82.707550
20
131.222980
11
80.221230
21
130.394200
0
LINE
8
honban
10
80.221230
20
130.394200
11
80.239590
21
117.433600
0
LINE
8
honban
10
80.239590
20
117.433600
11
66.264890
21
117.477800
0
LINE
8
honban
10
66.264890
20
117.477800
11
66.241690
21
131.429000
0
LINE
8
honban
10
66.241690
20
131.429000
11
73.070440
21
131.435000
0
LINE
8
honban
10
73.070440
20
131.435000
11
73.070440
21
133.358190
0
LINE
8
honban
10
73.070440
20
133.358190
11
75.131750
21
133.368790
0
LINE
8
honban
10
75.131750
20
133.368790
11
75.120240
21
131.436370
0
LINE
8
honban
10
75.120240
20
131.436370
11
80.239630
21
131.428370
0
LINE
8
honban
10
80.239630
20
131.428370
11
80.666847
21
131.903980
0
LINE
8
honban
10
80.666847
20
131.903980
11
80.679700
21
133.377000
0
LINE
8
honban
10
57.780800
20
133.491000
11
59.825220
21
133.498000
0
LINE
8
honban
10
59.825220
20
133.498000
11
59.825220
21
131.438870
0
LINE
8
honban
10
59.825220
20
131.438870
11
61.189570
21
131.428670
0
LINE
8
honban
10
61.189570
20
131.428670
11
61.212770
21
117.477470
0
LINE
8
honban
10
61.212770
20
117.477470
11
47.214870
21
117.477470
0
LINE
8
honban
10
47.214870
20
117.477470
11
47.191670
21
131.428670
0
LINE
8
honban
10
47.191670
20
131.428670
11
49.968810
21
131.441070
0
LINE
8
honban
10
49.968810
20
131.441070
11
49.968810
21
133.614160
0
LINE
8
honban
10
49.968810
20
133.614160
11
51.992890
21
133.626560
0
LINE
8
honban
10
51.992890
20
133.626560
11
52.005300
21
131.416210
0
LINE
8
honban
10
52.005300
20
131.416210
11
57.742270
21
131.453510
0
LINE
8
honban
10
57.742270
20
131.453510
11
57.780800
21
133.491000
0
LINE
8
honban
10
59.866500
20
134.381000
11
59.853190
21
136.494900
0
LINE
8
honban
10
59.853190
20
136.494900
11
61.192060
21
136.480600
0
LINE
8
honban
10
61.192060
20
136.480600
11
61.192060
21
150.478500
0
LINE
8
honban
10
61.192060
20
150.478500
11
47.191560
21
150.478500
0
LINE
8
honban
10
47.191560
20
150.478500
11
47.214740
21
136.524700
0
LINE
8
honban
10
47.214740
20
136.524700
11
49.981100
21
136.569300
0
LINE
8
honban
10
49.981100
20
136.569300
11
49.981100
21
134.520390
0
LINE
8
honban
10
49.981100
20
134.520390
11
52.007730
21
134.522390
0
LINE
8
honban
10
52.007730
20
134.522390
11
52.007730
21
136.502640
0
LINE
8
honban
10
52.007730
20
136.502640
11
57.801360
21
136.502640
0
LINE
8
honban
10
57.801360
20
136.502640
11
57.791760
21
134.416350
0
LINE
8
honban
10
57.791760
20
134.416350
11
59.866500
21
134.381000
0
LINE
8
honban
10
44.238400
20
133.521000
11
44.238400
21
130.709230
0
LINE
8
honban
10
44.238400
20
130.709230
11
32.623700
21
130.734430
0
LINE
8
honban
10
32.623700
20
130.734430
11
32.615000
21
118.492830
0
LINE
8
honban
10
32.615000
20
118.492830
11
44.201200
21
118.479330
0
LINE
8
honban
10
44.201200
20
118.479330
11
44.201200
21
115.668000
0
LINE
8
honban
10
44.201200
20
115.668000
11
13.446800
21
115.668000
0
LINE
8
honban
10
13.446800
20
115.668000
11
13.446800
21
118.479780
0
LINE
8
honban
10
13.446800
20
118.479780
11
18.622730
21
118.505880
0
LINE
8
honban
10
18.622730
20
118.505880
11
18.622730
21
130.723880
0
LINE
8
honban
10
18.622730
20
130.723880
11
13.484080
21
130.709680
0
LINE
8
honban
10
13.484080
20
130.709680
11
13.484080
21
133.521460
0
LINE
8
honban
10
13.484080
20
133.521460
11
44.238400
21
133.521000
0
LINE
8
honban
10
18.642300
20
136.525000
11
32.637700
21
136.525000
0
LINE
8
honban
10
32.637700
20
136.525000
11
32.637700
21
150.522900
0
LINE
8
honban
10
32.637700
20
150.522900
11
18.619100
21
150.478700
0
LINE
8
honban
10
18.619100
20
150.478700
11
18.642300
21
136.525000
0
LINE
8
honban
10
18.642300
20
155.575000
11
18.619100
21
169.528800
0
LINE
8
honban
10
18.619100
20
169.528800
11
23.122560
21
169.558600
0
LINE
8
honban
10
23.122560
20
169.558600
11
23.116760
21
171.523940
0
LINE
8
honban
10
23.116760
20
171.523940
11
25.126180
21
171.532940
0
LINE
8
honban
10
25.126180
20
171.532940
11
25.151720
21
169.523530
0
LINE
8
honban
10
25.151720
20
169.523530
11
30.898980
21
169.540530
0
LINE
8
honban
10
30.898980
20
169.540530
11
30.924540
21
171.507370
0
LINE
8
honban
10
30.924540
20
171.507370
11
32.933950
21
171.507370
0
LINE
8
honban
10
32.933950
20
171.507370
11
32.968010
21
169.506470
0
LINE
8
honban
10
32.968010
20
169.506470
11
32.652976
21
168.263360
0
LINE
8
honban
10
32.652976
20
168.263360
11
32.637726
21
155.575460
0
LINE
8
honban
10
32.637726
20
155.575460
11
18.642300
21
155.575000
0
LINE
8
honban
10
23.086900
20
172.664000
11
25.145770
21
172.671000
0
LINE
8
honban
10
25.145770
20
172.671000
11
25.129820
21
174.593030
0
LINE
8
honban
10
25.129820
20
174.593030
11
30.911840
21
174.577030
0
LINE
8
honban
10
30.911840
20
174.577030
11
30.903840
21
172.702860
0
LINE
8
honban
10
30.903840
20
172.702860
11
32.961440
21
172.694860
0
LINE
8
honban
10
32.961440
20
172.694860
11
32.961440
21
174.816260
0
LINE
8
honban
10
32.961440
20
174.816260
11
32.626483
21
175.127290
0
LINE
8
honban
10
32.626483
20
175.127290
11
32.614493
21
188.578790
0
LINE
8
honban
10
32.614493
20
188.578790
11
18.619093
21
188.578790
0
LINE
8
honban
10
18.619093
20
188.578790
11
18.619093
21
174.580890
0
LINE
8
honban
10
18.619093
20
174.580890
11
23.088133
21
174.569090
0
LINE
8
honban
10
23.088133
20
174.569090
11
23.086900
21
172.664000
0
LINE
8
honban
10
42.147200
20
184.011000
11
42.147200
21
186.003170
0
LINE
8
honban
10
42.147200
20
186.003170
11
44.437510
21
186.030270
0
LINE
8
honban
10
44.437510
20
186.030270
11
44.410410
21
183.970350
0
LINE
8
honban
10
44.410410
20
183.970350
11
42.147200
21
184.011000
0
LINE
8
honban
10
42.296200
20
176.422000
11
42.302500
21
178.337610
0
LINE
8
honban
10
42.302500
20
178.337610
11
44.239090
21
178.354010
0
LINE
8
honban
10
44.239090
20
178.354010
11
44.222720
21
176.433760
0
LINE
8
honban
10
44.222720
20
176.433760
11
42.296200
21
176.422000
0
LINE
8
honban
10
92.551300
20
169.573000
11
94.527090
21
169.528800
0
LINE
8
honban
10
94.527090
20
169.528800
11
94.527090
21
155.531000
0
LINE
8
honban
10
94.527090
20
155.531000
11
80.552390
21
155.575200
0
LINE
8
honban
10
80.552390
20
155.575200
11
80.529190
21
169.529000
0
LINE
8
honban
10
80.529190
20
169.529000
11
82.952150
21
169.541700
0
LINE
8
honban
10
82.952150
20
169.541700
11
82.970170
21
174.567330
0
LINE
8
honban
10
82.970170
20
174.567330
11
73.407360
21
174.625230
0
LINE
8
honban
10
73.407360
20
174.625230
11
73.384160
21
188.579030
0
LINE
8
honban
10
73.384160
20
188.579030
11
87.384660
21
188.579030
0
LINE
8
honban
10
87.384660
20
188.579030
11
87.407880
21
174.625230
0
LINE
8
honban
10
87.407880
20
174.625230
11
84.862310
21
174.609430
0
LINE
8
honban
10
84.862310
20
174.609430
11
84.888050
21
169.527140
0
LINE
8
honban
10
84.888050
20
169.527140
11
90.511190
21
169.544340
0
LINE
8
honban
10
90.511190
20
169.544340
11
90.511190
21
174.729650
0
LINE
8
honban
10
90.511190
20
174.729650
11
92.537240
21
174.755350
0
LINE
8
honban
10
92.537240
20
174.755350
11
92.551300
21
169.573000
0
LINE
8
honban
10
97.219800
20
174.625000
11
97.196600
21
188.578800
0
LINE
8
honban
10
97.196600
20
188.578800
11
111.197100
21
188.578800
0
LINE
8
honban
10
111.197100
20
188.578800
11
111.197100
21
174.580900
0
LINE
8
honban
10
111.197100
20
174.580900
11
112.177160
21
174.589900
0
LINE
8
honban
10
112.177160
20
174.589900
11
112.156960
21
172.645600
0
LINE
8
honban
10
112.156960
20
172.645600
11
110.128850
21
172.632000
0
LINE
8
honban
10
110.128850
20
172.632000
11
110.128850
21
174.572820
0
LINE
8
honban
10
110.128850
20
174.572820
11
104.351670
21
174.584120
0
LINE
8
honban
10
104.351670
20
174.584120
11
104.336570
21
172.760340
0
LINE
8
honban
10
104.336570
20
172.760340
11
102.308890
21
172.771640
0
LINE
8
honban
10
102.308890
20
172.771640
11
102.312890
21
174.580310
0
LINE
8
honban
10
102.312890
20
174.580310
11
97.219800
21
174.625000
0
LINE
8
honban
10
104.345000
20
171.253000
11
102.294540
21
171.253000
0
LINE
8
honban
10
102.294540
20
171.253000
11
102.310440
21
169.531050
0
LINE
8
honban
10
102.310440
20
169.531050
11
99.578810
21
169.529050
0
LINE
8
honban
10
99.578810
20
169.529050
11
99.602010
21
155.575250
0
LINE
8
honban
10
99.602010
20
155.575250
11
113.576710
21
155.531050
0
LINE
8
honban
10
113.576710
20
155.531050
11
113.576710
21
169.528950
0
LINE
8
honban
10
113.576710
20
169.528950
11
112.134850
21
169.527950
0
LINE
8
honban
10
112.134850
20
169.527950
11
112.160450
21
171.389530
0
LINE
8
honban
10
112.160450
20
171.389530
11
110.120180
21
171.389530
0
LINE
8
honban
10
110.120180
20
171.389530
11
110.120180
21
169.542420
0
LINE
8
honban
10
110.120180
20
169.542420
11
104.343420
21
169.518220
0
LINE
8
honban
10
104.343420
20
169.518220
11
104.345000
21
171.253000
0
LINE
8
honban
10
115.968000
20
169.610000
11
117.800060
21
169.608000
0
LINE
8
honban
10
117.800060
20
169.608000
11
117.805060
21
171.286270
0
LINE
8
honban
10
117.805060
20
171.286270
11
115.964590
21
171.302870
0
LINE
8
honban
10
115.964590
20
171.302870
11
115.968000
21
169.610000
0
LINE
8
honban
10
118.629000
20
169.529000
11
123.685720
21
169.528000
0
LINE
8
honban
10
123.685720
20
169.528000
11
123.687720
21
171.603860
0
LINE
8
honban
10
123.687720
20
171.603860
11
125.714380
21
171.603860
0
LINE
8
honban
10
125.714380
20
171.603860
11
125.718380
21
169.522890
0
LINE
8
honban
10
125.718380
20
169.522890
11
132.627490
21
169.529890
0
LINE
8
honban
10
132.627490
20
169.529890
11
132.650690
21
155.576090
0
LINE
8
honban
10
132.650690
20
155.576090
11
118.652000
21
155.576090
0
LINE
8
honban
10
118.652000
20
155.576090
11
118.629000
21
169.529000
0
LINE
8
honban
10
116.441000
20
176.067000
11
118.273060
21
176.065000
0
LINE
8
honban
10
118.273060
20
176.065000
11
118.278060
21
177.743270
0
LINE
8
honban
10
118.278060
20
177.743270
11
116.437590
21
177.759870
0
LINE
8
honban
10
116.437590
20
177.759870
11
116.441000
21
176.067000
0
LINE
8
honban
10
116.499000
20
183.738000
11
118.331060
21
183.736000
0
LINE
8
honban
10
118.331060
20
183.736000
11
118.336060
21
185.414270
0
LINE
8
honban
10
118.336060
20
185.414270
11
116.495590
21
185.430870
0
LINE
8
honban
10
116.495590
20
185.430870
11
116.499000
21
183.738000
0
LINE
8
honban
10
140.386000
20
171.416000
11
142.272170
21
171.415000
0
LINE
8
honban
10
142.272170
20
171.415000
11
142.276170
21
169.542190
0
LINE
8
honban
10
142.276170
20
169.542190
11
148.088950
21
169.528890
0
LINE
8
honban
10
148.088950
20
169.528890
11
148.075650
21
171.543050
0
LINE
8
honban
10
148.075650
20
171.543050
11
149.882210
21
171.552050
0
LINE
8
honban
10
149.882210
20
171.552050
11
149.882210
21
169.533480
0
LINE
8
honban
10
149.882210
20
169.533480
11
151.676830
21
169.528480
0
LINE
8
honban
10
151.676830
20
169.528480
11
151.676830
21
155.530580
0
LINE
8
honban
10
151.676830
20
155.530580
11
137.678930
21
155.530580
0
LINE
8
honban
10
137.678930
20
155.530580
11
137.702130
21
169.572680
0
LINE
8
honban
10
137.702130
20
169.572680
11
140.414740
21
169.538880
0
LINE
8
honban
10
140.414740
20
169.538880
11
140.386000
21
171.416000
0
LINE
8
honban
10
156.634000
20
171.306000
11
158.443530
21
171.320500
0
LINE
8
honban
10
158.443530
20
171.320500
11
158.447530
21
169.536250
0
LINE
8
honban
10
158.447530
20
169.536250
11
164.233690
21
169.532250
0
LINE
8
honban
10
164.233690
20
169.532250
11
164.244490
21
171.442920
0
LINE
8
honban
10
164.244490
20
171.442920
11
166.061240
21
171.428520
0
LINE
8
honban
10
166.061240
20
171.428520
11
166.054240
21
169.532310
0
LINE
8
honban
10
166.054240
20
169.532310
11
170.727200
21
169.528310
0
LINE
8
honban
10
170.727200
20
169.528310
11
170.727200
21
155.530410
0
LINE
8
honban
10
170.727200
20
155.530410
11
156.752500
21
155.574610
0
LINE
8
honban
10
156.752500
20
155.574610
11
156.729300
21
169.528410
0
LINE
8
honban
10
156.729300
20
169.528410
11
156.634000
21
171.306000
0
LINE
8
honban
10
153.203000
20
56.626000
11
160.270730
21
56.626000
0
LINE
8
honban
10
160.270730
20
56.626000
11
160.270730
21
35.328800
0
LINE
8
honban
10
160.270730
20
35.328800
11
169.016810
21
35.043799
0
LINE
8
honban
10
169.016810
20
35.043799
11
169.016810
21
32.232019
0
LINE
8
honban
10
169.016810
20
32.232019
11
154.197010
21
32.253029
0
LINE
8
honban
10
154.197010
20
32.253029
11
154.162010
21
19.989429
0
LINE
8
honban
10
154.162010
20
19.989429
11
168.979410
21
20.002109
0
LINE
8
honban
10
168.979410
20
20.002109
11
168.979400
21
17.190329
0
LINE
8
honban
10
168.979400
20
17.190329
11
138.225100
21
17.190330
0
LINE
8
honban
10
138.225100
20
17.190330
11
138.225100
21
20.002110
0
LINE
8
honban
10
138.225100
20
20.002110
11
140.262190
21
21.076530
0
LINE
8
honban
10
140.262190
20
21.076530
11
140.262190
21
31.073970
0
LINE
8
honban
10
140.262190
20
31.073970
11
138.262380
21
32.232010
0
LINE
8
honban
10
138.262380
20
32.232010
11
138.262380
21
35.043790
0
LINE
8
honban
10
138.262380
20
35.043790
11
153.202980
21
35.328796
0
LINE
8
honban
10
153.202980
20
35.328796
11
153.179480
21
52.097496
0
LINE
8
honban
10
153.179480
20
52.097496
11
151.891590
21
52.070166
0
LINE
8
honban
10
151.891590
20
52.070166
11
151.891590
21
38.072266
0
LINE
8
honban
10
151.891590
20
38.072266
11
137.891090
21
38.072266
0
LINE
8
honban
10
137.891090
20
38.072266
11
137.891090
21
52.070166
0
LINE
8
honban
10
137.891090
20
52.070166
11
136.409590
21
52.035846
0
LINE
8
honban
10
136.409590
20
52.035846
11
136.451790
21
35.355946
0
LINE
8
honban
10
136.451790
20
35.355946
11
129.383280
21
35.355946
0
LINE
8
honban
10
129.383280
20
35.355946
11
129.350980
21
40.196316
0
LINE
8
honban
10
129.350980
20
40.196316
11
121.113040
21
40.209836
0
LINE
8
honban
10
121.113040
20
40.209836
11
120.860430
21
38.072206
0
LINE
8
honban
10
120.860430
20
38.072206
11
118.754300
21
38.065106
0
LINE
8
honban
10
118.754300
20
38.065106
11
118.635900
21
33.033166
0
LINE
8
honban
10
118.635900
20
33.033166
11
116.097930
21
33.020126
0
LINE
8
honban
10
116.097930
20
33.020126
11
116.097930
21
19.024800
0
LINE
8
honban
10
116.097930
20
19.024800
11
102.100030
21
19.024800
0
LINE
8
honban
10
102.100030
20
19.024800
11
102.100030
21
33.020200
0
LINE
8
honban
10
102.100030
20
33.020200
11
108.808850
21
33.033240
0
LINE
8
honban
10
108.808850
20
33.033240
11
108.808850
21
38.124380
0
LINE
8
honban
10
108.808850
20
38.124380
11
106.862530
21
38.072250
0
LINE
8
honban
10
106.862530
20
38.072250
11
106.862530
21
52.070150
0
LINE
8
honban
10
106.862530
20
52.070150
11
120.860430
21
52.070150
0
LINE
8
honban
10
120.860430
20
52.070150
11
121.113030
21
50.034160
0
LINE
8
honban
10
121.113030
20
50.034160
11
129.291780
21
50.082600
0
LINE
8
honban
10
129.291780
20
50.082600
11
129.383280
21
56.653170
0
LINE
8
honban
10
129.383280
20
56.653170
11
136.451790
21
56.653170
0
LINE
8
honban
10
136.451790
20
56.653170
11
136.440490
21
55.470200
0
LINE
8
honban
10
136.440490
20
55.470200
11
153.145490
21
55.519330
0
LINE
8
honban
10
153.145490
20
55.519330
11
153.203000
21
56.626000
0
LINE
8
honban
10
38.923800
20
73.710300
11
45.992310
21
73.710300
0
LINE
8
honban
10
45.992310
20
73.710300
11
45.918030
21
89.716700
0
LINE
8
honban
10
45.918030
20
89.716700
11
47.403150
21
89.786530
0
LINE
8
honban
10
47.403150
20
89.786530
11
47.465400
21
76.165830
0
LINE
8
honban
10
47.465400
20
76.165830
11
61.403600
21
76.114300
0
LINE
8
honban
10
61.403600
20
76.114300
11
61.403600
21
89.786500
0
LINE
8
honban
10
61.403600
20
89.786500
11
62.671890
21
89.777300
0
LINE
8
honban
10
62.671890
20
89.777300
11
62.743490
21
73.683800
0
LINE
8
honban
10
62.743490
20
73.683800
11
69.811220
21
73.683800
0
LINE
8
honban
10
69.811220
20
73.683800
11
69.811220
21
94.485400
0
LINE
8
honban
10
69.811220
20
94.485400
11
38.923820
21
94.511960
0
LINE
8
honban
10
38.923820
20
94.511960
11
38.923800
21
73.710300
0
LINE
8
honban
10
126.775000
20
172.178000
11
133.843500
21
172.178000
0
LINE
8
honban
10
133.843500
20
172.178000
11
133.769200
21
188.184400
0
LINE
8
honban
10
133.769200
20
188.184400
11
135.254330
21
188.254200
0
LINE
8
honban
10
135.254330
20
188.254200
11
135.316630
21
174.633500
0
LINE
8
honban
10
135.316630
20
174.633500
11
149.254830
21
174.582000
0
LINE
8
honban
10
149.254830
20
174.582000
11
149.254830
21
188.254200
0
LINE
8
honban
10
149.254830
20
188.254200
11
150.523120
21
188.245200
0
LINE
8
honban
10
150.523120
20
188.245200
11
150.594720
21
172.151700
0
LINE
8
honban
10
150.594720
20
172.151700
11
157.662450
21
172.151700
0
LINE
8
honban
10
157.662450
20
172.151700
11
157.662450
21
192.953300
0
LINE
8
honban
10
157.662450
20
192.953300
11
126.775050
21
192.979900
0
LINE
8
honban
10
126.775050
20
192.979900
11
126.775000
21
172.178000
0
LINE
8
honban
10
43.426900
20
152.627000
11
50.495410
21
152.627000
0
LINE
8
honban
10
50.495410
20
152.627000
11
50.458440
21
169.450700
0
LINE
8
honban
10
50.458440
20
169.450700
11
51.954150
21
169.528800
0
LINE
8
honban
10
51.954150
20
169.528800
11
51.954150
21
155.530900
0
LINE
8
honban
10
51.954150
20
155.530900
11
65.952050
21
155.530900
0
LINE
8
honban
10
65.952050
20
155.530900
11
65.952050
21
169.528800
0
LINE
8
honban
10
65.952050
20
169.528800
11
67.168650
21
169.505300
0
LINE
8
honban
10
67.168650
20
169.505300
11
67.246560
21
152.599900
0
LINE
8
honban
10
67.246560
20
152.599900
11
74.314290
21
152.599900
0
LINE
8
honban
10
74.314290
20
152.599900
11
74.236490
21
157.545580
0
LINE
8
honban
10
74.236490
20
157.545580
11
77.915540
21
157.506080
0
LINE
8
honban
10
77.915540
20
157.506080
11
77.915540
21
159.532750
0
LINE
8
honban
10
77.915540
20
159.532750
11
74.236490
21
159.517850
0
LINE
8
honban
10
74.236490
20
159.517850
11
74.236490
21
165.276890
0
LINE
8
honban
10
74.236490
20
165.276890
11
77.915540
21
165.321490
0
LINE
8
honban
10
77.915540
20
165.321490
11
77.862440
21
167.518160
0
LINE
8
honban
10
77.862440
20
167.518160
11
74.394270
21
167.328030
0
LINE
8
honban
10
74.394270
20
167.328030
11
74.322900
21
173.300990
0
LINE
8
honban
10
74.322900
20
173.300990
11
67.237080
21
173.278590
0
LINE
8
honban
10
67.237080
20
173.278590
11
50.472980
21
173.214590
0
LINE
8
honban
10
50.472980
20
173.214590
11
43.422390
21
173.137990
0
LINE
8
honban
10
43.422390
20
173.137990
11
43.426900
21
152.627000
 0 
ENDSEC
 0 
EOF