<?xml version="1.0" encoding="UTF-8" standalone="no"?>
<svg
   xmlns:dc="http://purl.org/dc/elements/1.1/"
   xmlns:cc="http://creativecommons.org/ns#"
   xmlns:rdf="http://www.w3.org/1999/02/22-rdf-syntax-ns#"
   xmlns:svg="http://www.w3.org/2000/svg"
   xmlns="http://www.w3.org/2000/svg"
   xmlns:sodipodi="http://sodipodi.sourceforge.net/DTD/sodipodi-0.dtd"
   xmlns:inkscape="http://www.inkscape.org/namespaces/inkscape"
   sodipodi:docname="topplateunder.svg"
   inkscape:version="1.0 (4035a4f, 2020-05-01)"
   id="svg8"
   version="1.1"
   viewBox="0 0 200 200"
   height="200mm"
   width="200mm">
  <defs
     id="defs2" />
  <sodipodi:namedview
     inkscape:window-maximized="0"
     inkscape:window-y="25"
     inkscape:window-x="0"
     inkscape:window-height="747"
     inkscape:window-width="1280"
     showgrid="false"
     inkscape:document-rotation="0"
     inkscape:current-layer="layer6"
     inkscape:document-units="mm"
     inkscape:cy="325.50005"
     inkscape:cx="486.53585"
     inkscape:zoom="1.6728349"
     inkscape:pageshadow="2"
     inkscape:pageopacity="0.0"
     borderopacity="1.0"
     bordercolor="#666666"
     pagecolor="#ffffff"
     id="base" />
  <metadata
     id="metadata5">
    <rdf:RDF>
      <cc:Work
         rdf:about="">
        <dc:format>image/svg+xml</dc:format>
        <dc:type
           rdf:resource="http://purl.org/dc/dcmitype/StillImage" />
        <dc:title></dc:title>
      </cc:Work>
    </rdf:RDF>
  </metadata>
  <g
     sodipodi:insensitive="true"
     style="display:inline"
     inkscape:label="honban"
     id="layer6"
     inkscape:groupmode="layer">
    <path
       sodipodi:nodetypes="ccccccccccccccccccccccccccc"
       id="path211796"
       d="m 83.007785,21.536311 -1.231264,-1.59962 -0.51363,-0.603987 -0.289123,-0.263424 -0.212024,-0.398347 -0.128498,-0.475447 0.05782,-0.481872 0.167047,-0.359798 0.314823,-0.340523 0.43366,-0.07591 0.346456,-0.06891 0.346456,0.06891 0.497072,0.139662 0.258869,0.38603 0.647663,0.516114 1.407668,1.098347 11.9367,-0.05267 0.06717,12.973726 0.0037,6.092312 4.75387,0.03418 -0.0623,13.945182 -13.935681,0.05276 v -11.99896 l -0.60171,-0.07874 7.94e-4,-7.028122 -4.223941,0.0031 z"
       style="fill:none;stroke:#ff0000;stroke-width:0.264583px;stroke-linecap:butt;stroke-linejoin:miter;stroke-opacity:1" />
    <path
       id="path211798"
       d="m 77.99748,19.024784 0.690248,-0.863056 V 8.1842725 h -1.974456 v 9.9774555 l -0.03109,0.86029 -12.620378,0.05552 -0.06225,13.942642 7.487861,-0.0081 0.0086,5.085382 -2.671699,0.02759 -0.06225,13.945182 h 13.997939 v -13.99794 l -1.411059,-0.01778 -0.01717,-5.076791 -3.334263,0.04251 z"
       style="fill:none;stroke:#ff0000;stroke-width:0.264583px;stroke-linecap:butt;stroke-linejoin:miter;stroke-opacity:1" />
    <path
       id="path211800"
       d="M 59.863405,31.998509 59.00974,31.07396 V 19.07754 H 45.0118 l -0.06225,13.942642 7.089013,-0.0024 v 5.049681 l -2.326516,0.0048 v 13.99794 h 13.99794 v -13.99794 l -1.815706,0.01318 -0.0042,-6.086906 z"
       style="fill:none;stroke:#ff0000;stroke-width:0.264583px;stroke-linecap:butt;stroke-linejoin:miter;stroke-opacity:1" />
    <path
       id="path211802"
       d="M 42.822063,31.65548 39.95974,31.07396 39.897483,19.024784 25.9618,19.07754 l -0.06225,13.942642 7.05163,0.01275 0.02569,5.054873 -2.314837,-0.01558 v 13.997939 h 13.99794 v -13.99794 l -1.936724,0.05276 z"
       style="fill:none;stroke:#ff0000;stroke-width:0.264583px;stroke-linecap:butt;stroke-linejoin:miter;stroke-opacity:1" />
    <path
       sodipodi:nodetypes="ccccccccc"
       id="path211804"
       d="m 40.2493,57.175 -0.06225,13.945176 6.828189,0.06664 0.0083,1.903604 2.09397,-0.03445 -0.0098,-1.882987 5.077284,-0.05282 0.06225,-13.945176 z"
       style="fill:none;stroke:#ff0000;stroke-width:0.264583px;stroke-linecap:butt;stroke-linejoin:miter;stroke-opacity:1" />
    <path
       sodipodi:nodetypes="ccccc"
       id="path211806"
       d="m 54.836759,71.096333 2.095882,-0.0077 -0.03064,2.045621 -2.07378,0.03878 z"
       style="fill:none;stroke:#ff0000;stroke-width:0.285906px;stroke-linecap:butt;stroke-linejoin:miter;stroke-opacity:1" />
    <path
       sodipodi:nodetypes="ccccccccc"
       id="path211808"
       d="M 73.234986,71.120176 V 57.122242 L 59.2993,57.175 l -0.06225,13.945176 7.028079,0.0559 -0.03929,1.938189 2.101584,0.02954 0.01141,-1.970237 z"
       style="fill:none;stroke:#ff0000;stroke-width:0.264583px;stroke-linecap:butt;stroke-linejoin:miter;stroke-opacity:1" />
    <path
       id="path211814"
       d="m 73.13264,86.417718 v 2.009891 l 1.956599,0.0076 -0.02283,-2.025118 z"
       style="fill:none;stroke:#ff0000;stroke-width:0.264583px;stroke-linecap:butt;stroke-linejoin:miter;stroke-opacity:1" />
    <path
       id="path211816"
       d="m 73.246839,78.606548 -0.0076,2.032731 h 1.910919 l -0.02283,-2.032731 z"
       style="fill:none;stroke:#ff0000;stroke-width:0.264583px;stroke-linecap:butt;stroke-linejoin:miter;stroke-opacity:1" />
    <path
       id="path211818"
       d="M 78.287048,71.120176 78.349299,57.175 92.284988,57.122242 92.347239,76.225 92.284988,90.170181 H 78.287048 L 78.349299,76.225 82.3211,76.122397 82.306627,71.08233 Z"
       style="fill:none;stroke:#ff0000;stroke-width:0.264583px;stroke-linecap:butt;stroke-linejoin:miter;stroke-opacity:1" />
    <path
       id="path211820"
       d="M 97.337051,90.170181 97.399301,76.225 100.45173,76.18261 v -5.051984 l -3.114677,-0.01045 V 57.122242 h 13.997937 v 13.997934 l -1.0406,0.03223 -0.0327,5.008432 1.07326,0.0114 V 90.17018 Z"
       style="fill:none;stroke:#ff0000;stroke-width:0.264583px;stroke-linecap:butt;stroke-linejoin:miter;stroke-opacity:1" />
    <path
       id="path211822"
       d="m 116.38705,90.170181 0.0622,-13.945181 2.87675,-0.06322 -0.01,-5.053762 -2.92913,0.01215 0.0622,-13.945177 13.93568,-0.05276 v 13.997935 l -1.23765,0.0076 0.0197,5.063633 1.2179,-0.01916 v 13.997943 z"
       style="fill:none;stroke:#ff0000;stroke-width:0.264583px;stroke-linecap:butt;stroke-linejoin:miter;stroke-opacity:1" />
    <path
       id="path211824"
       d="m 140.10506,76.178012 0.0201,-5.059635 -2.30812,0.0019 V 57.122295 h 14.00048 v 13.997934 l -1.8556,0.01355 -0.0113,5.058368 -0.51562,-0.01987 V 90.17022 h -13.99794 l 0.0623,-13.945182 z"
       style="fill:none;stroke:#ff0000;stroke-width:0.264583px;stroke-linecap:butt;stroke-linejoin:miter;stroke-opacity:1" />
    <g
       id="g64528"
       style="display:inline;fill:none;stroke:#000000;stroke-opacity:1">
      <path
         style="fill:none;fill-opacity:0;stroke:#000000;stroke-width:0.15;stroke-linecap:round;stroke-linejoin:round;stroke-opacity:1"
         id="path38518"
         d="m 23.97169,6.337484 a 0.5969,0.5969 0 0 0 -0.5969,0.5969" />
      <path
         style="fill:none;fill-opacity:0;stroke:#000000;stroke-width:0.15;stroke-linecap:round;stroke-linejoin:round;stroke-opacity:1"
         id="path38520"
         d="m 32.975986,97.142484 a 0.5969,0.5969 0 0 0 0.5969,0.5969" />
      <path
         style="fill:none;fill-opacity:0;stroke:#000000;stroke-width:0.15;stroke-linecap:round;stroke-linejoin:round;stroke-opacity:1"
         id="path38540"
         d="m 23.37479,33.286884 a 2.2606,2.2606 0 0 0 2.2606,2.2606" />
      <path
         style="fill:none;fill-opacity:0;stroke:#000000;stroke-width:0.15;stroke-linecap:round;stroke-linejoin:round;stroke-opacity:1"
         id="path38542"
         d="m 28.13729,37.808084 a 2.2606,2.2606 0 0 0 -2.2606,-2.2606" />
      <path
         style="fill:none;fill-opacity:0;stroke:#000000;stroke-width:0.15;stroke-linecap:round;stroke-linejoin:round;stroke-opacity:1"
         id="path38544"
         d="m 28.13729,52.336884 a 2.2606,2.2606 0 0 0 2.2606,2.2606" />
      <path
         style="fill:none;fill-opacity:0;stroke:#000000;stroke-width:0.15;stroke-linecap:round;stroke-linejoin:round;stroke-opacity:1"
         id="path38546"
         d="m 37.662286,56.858084 a 2.2606,2.2606 0 0 0 -2.2606,-2.2606" />
      <path
         style="fill:none;fill-opacity:0;stroke:#000000;stroke-width:0.15;stroke-linecap:round;stroke-linejoin:round;stroke-opacity:1"
         id="path38548"
         d="m 35.401686,73.647484 a 2.2606,2.2606 0 0 0 2.2606,-2.2606" />
      <path
         style="fill:none;fill-opacity:0;stroke:#000000;stroke-width:0.15;stroke-linecap:round;stroke-linejoin:round;stroke-opacity:1"
         id="path38550"
         d="m 35.236586,73.647484 a 2.2606,2.2606 0 0 0 -2.2606,2.2606" />
      <path
         style="fill:none;fill-opacity:0;stroke:#000000;stroke-width:0.15;stroke-linecap:round;stroke-linejoin:round;stroke-opacity:1"
         id="path38552"
         d="m 169.08189,97.739384 a 2.2606,2.2606 0 0 0 2.2606,-2.2606" />
      <path
         style="fill:none;fill-opacity:0;stroke:#000000;stroke-width:0.15;stroke-linecap:round;stroke-linejoin:round;stroke-opacity:1"
         id="path38554"
         d="m 171.34249,8.598084 a 2.2606,2.2606 0 0 0 -2.2606,-2.2606" />
      <path
         style="fill:none;fill-opacity:0;stroke:#000000;stroke-width:0.15;stroke-linecap:round;stroke-linejoin:round;stroke-opacity:1"
         id="path38556"
         d="m 171.34249,8.598084 v 86.8807" />
      <path
         style="fill:none;fill-opacity:0;stroke:#000000;stroke-width:0.15;stroke-linecap:round;stroke-linejoin:round;stroke-opacity:1"
         id="path38558"
         d="m 23.97169,6.337484 h 145.1102" />
      <path
         style="fill:none;fill-opacity:0;stroke:#000000;stroke-width:0.15;stroke-linecap:round;stroke-linejoin:round;stroke-opacity:1"
         id="path38560"
         d="m 23.37479,16.497484 v -9.5631" />
      <path
         style="fill:none;fill-opacity:0;stroke:#000000;stroke-width:0.15;stroke-linecap:round;stroke-linejoin:round;stroke-opacity:1"
         id="path38562"
         d="M 33.572886,97.739384 H 169.08189" />
      <path
         style="fill:none;fill-opacity:0;stroke:#000000;stroke-width:0.15;stroke-linecap:round;stroke-linejoin:round;stroke-opacity:1"
         id="path38564"
         d="m 32.975986,92.697484 v 4.445" />
      <path
         style="fill:none;fill-opacity:0;stroke:#000000;stroke-width:0.15;stroke-linecap:round;stroke-linejoin:round;stroke-opacity:1"
         id="path38586"
         d="m 32.975986,75.908084 v 16.7894" />
      <path
         style="fill:none;fill-opacity:0;stroke:#000000;stroke-width:0.15;stroke-linecap:round;stroke-linejoin:round;stroke-opacity:1"
         id="path38588"
         d="m 35.401686,73.647484 h -0.1651" />
      <path
         style="fill:none;fill-opacity:0;stroke:#000000;stroke-width:0.15;stroke-linecap:round;stroke-linejoin:round;stroke-opacity:1"
         id="path38590"
         d="m 37.662286,56.858084 v 14.5288" />
      <path
         style="fill:none;fill-opacity:0;stroke:#000000;stroke-width:0.15;stroke-linecap:round;stroke-linejoin:round;stroke-opacity:1"
         id="path38592"
         d="m 30.39789,54.597484 h 5.003796" />
      <path
         style="fill:none;fill-opacity:0;stroke:#000000;stroke-width:0.15;stroke-linecap:round;stroke-linejoin:round;stroke-opacity:1"
         id="path38594"
         d="m 28.13729,37.808084 v 14.5288" />
      <path
         style="fill:none;fill-opacity:0;stroke:#000000;stroke-width:0.15;stroke-linecap:round;stroke-linejoin:round;stroke-opacity:1"
         id="path38596"
         d="m 25.63539,35.547484 h 0.2413" />
      <path
         style="fill:none;fill-opacity:0;stroke:#000000;stroke-width:0.15;stroke-linecap:round;stroke-linejoin:round;stroke-opacity:1"
         id="path38598"
         d="m 23.37479,16.497484 v 16.7894" />
    </g>
    <g
       id="g64927"
       style="display:inline;fill:none;stroke:#000000;stroke-opacity:1">
      <path
         style="fill:none;fill-opacity:0;stroke:#000000;stroke-width:0.15;stroke-linecap:round;stroke-linejoin:round;stroke-opacity:1"
         id="path38516"
         d="m 158.96684,105.34297 a 0.5969,0.5969 0 0 0 -0.5969,-0.5969" />
      <path
         style="fill:none;fill-opacity:0;stroke:#000000;stroke-width:0.15;stroke-linecap:round;stroke-linejoin:round;stroke-opacity:1"
         id="path38522"
         d="m 167.89494,196.16067 a 0.5969,0.5969 0 0 0 0.5969,-0.5969" />
      <path
         style="fill:none;fill-opacity:0;stroke:#000000;stroke-width:0.15;stroke-linecap:round;stroke-linejoin:round;stroke-opacity:1"
         id="path38524"
         d="m 11.075343,193.90007 a 2.2606,2.2606 0 0 0 2.2606,2.2606" />
      <path
         style="fill:none;fill-opacity:0;stroke:#000000;stroke-width:0.15;stroke-linecap:round;stroke-linejoin:round;stroke-opacity:1"
         id="path38526"
         d="m 13.322913,104.74607 a 2.2479,2.2479 0 0 0 -2.24757,2.28577" />
      <path
         style="fill:none;fill-opacity:0;stroke:#000000;stroke-width:0.15;stroke-linecap:round;stroke-linejoin:round;stroke-opacity:1"
         id="path38528"
         d="m 158.96684,131.69547 a 2.2606,2.2606 0 0 0 2.2606,2.2606" />
      <path
         style="fill:none;fill-opacity:0;stroke:#000000;stroke-width:0.15;stroke-linecap:round;stroke-linejoin:round;stroke-opacity:1"
         id="path38530"
         d="m 163.72934,136.21667 a 2.2606,2.2606 0 0 0 -2.2606,-2.2606" />
      <path
         style="fill:none;fill-opacity:0;stroke:#000000;stroke-width:0.15;stroke-linecap:round;stroke-linejoin:round;stroke-opacity:1"
         id="path38532"
         d="m 163.72934,150.74547 a 2.2606,2.2606 0 0 0 2.2606,2.2606" />
      <path
         style="fill:none;fill-opacity:0;stroke:#000000;stroke-width:0.15;stroke-linecap:round;stroke-linejoin:round;stroke-opacity:1"
         id="path38534"
         d="m 173.25434,155.26667 a 2.2606,2.2606 0 0 0 -2.2606,-2.2606" />
      <path
         style="fill:none;fill-opacity:0;stroke:#000000;stroke-width:0.15;stroke-linecap:round;stroke-linejoin:round;stroke-opacity:1"
         id="path38536"
         d="m 170.75244,172.05607 a 2.2606,2.2606 0 0 0 -2.2606,2.2606" />
      <path
         style="fill:none;fill-opacity:0;stroke:#000000;stroke-width:0.15;stroke-linecap:round;stroke-linejoin:round;stroke-opacity:1"
         id="path38538"
         d="m 170.99374,172.05607 a 2.2606,2.2606 0 0 0 2.2606,-2.2606" />
      <path
         style="fill:none;fill-opacity:0;stroke:#000000;stroke-width:0.15;stroke-linecap:round;stroke-linejoin:round;stroke-opacity:1"
         id="path38566"
         d="m 11.075343,107.03207 v 86.868" />
      <path
         style="fill:none;fill-opacity:0;stroke:#000000;stroke-width:0.15;stroke-linecap:round;stroke-linejoin:round;stroke-opacity:1"
         id="path38568"
         d="M 158.36994,104.74607 H 13.323243" />
      <path
         style="fill:none;fill-opacity:0;stroke:#000000;stroke-width:0.15;stroke-linecap:round;stroke-linejoin:round;stroke-opacity:1"
         id="path38570"
         d="m 158.96684,131.69547 v -26.3525" />
      <path
         style="fill:none;fill-opacity:0;stroke:#000000;stroke-width:0.15;stroke-linecap:round;stroke-linejoin:round;stroke-opacity:1"
         id="path38572"
         d="m 161.46874,133.95607 h -0.2413" />
      <path
         style="fill:none;fill-opacity:0;stroke:#000000;stroke-width:0.15;stroke-linecap:round;stroke-linejoin:round;stroke-opacity:1"
         id="path38574"
         d="m 163.72934,150.74547 v -14.5288" />
      <path
         style="fill:none;fill-opacity:0;stroke:#000000;stroke-width:0.15;stroke-linecap:round;stroke-linejoin:round;stroke-opacity:1"
         id="path38576"
         d="m 170.99374,153.00607 h -5.0038" />
      <path
         style="fill:none;fill-opacity:0;stroke:#000000;stroke-width:0.15;stroke-linecap:round;stroke-linejoin:round;stroke-opacity:1"
         id="path38578"
         d="m 173.25434,169.79547 v -14.5288" />
      <path
         style="fill:none;fill-opacity:0;stroke:#000000;stroke-width:0.15;stroke-linecap:round;stroke-linejoin:round;stroke-opacity:1"
         id="path38580"
         d="m 170.75244,172.05607 h 0.2413" />
      <path
         style="fill:none;fill-opacity:0;stroke:#000000;stroke-width:0.15;stroke-linecap:round;stroke-linejoin:round;stroke-opacity:1"
         id="path38582"
         d="m 168.49184,195.56377 v -21.2471" />
      <path
         style="fill:none;fill-opacity:0;stroke:#000000;stroke-width:0.15;stroke-linecap:round;stroke-linejoin:round;stroke-opacity:1"
         id="path38584"
         d="M 13.335943,196.16067 H 167.89494" />
    </g>
    <rect
       ry="0.086138807"
       y="19.024784"
       x="121.14955"
       height="13.995399"
       width="13.99794"
       id="rect44595"
       style="display:inline;fill:none;fill-opacity:0;stroke:#ff0000;stroke-width:0.2;stroke-opacity:1" />
    <circle
       cx="94.824989"
       cy="90.309883"
       r="1.0500004"
       id="circle38500"
       style="display:inline;fill:none;fill-opacity:0;stroke:#ff0000;stroke-width:0.15;stroke-linecap:round;stroke-linejoin:round;stroke-opacity:1" />
    <circle
       cx="93.745491"
       cy="11.569882"
       r="1.0500004"
       id="circle38494"
       style="display:inline;fill:none;fill-opacity:0;stroke:#ff0000;stroke-width:0.15;stroke-linecap:round;stroke-linejoin:round;stroke-opacity:1" />
    <circle
       cx="166.88733"
       cy="11.569882"
       r="1.0500004"
       id="circle38496"
       style="display:inline;fill:none;fill-opacity:0;stroke:#ff0000;stroke-width:0.15;stroke-linecap:round;stroke-linejoin:round;stroke-opacity:1" />
    <circle
       cx="163.69708"
       cy="90.309883"
       r="1.0500004"
       id="circle38498"
       style="display:inline;fill:none;fill-opacity:0;stroke:#ff0000;stroke-width:0.15;stroke-linecap:round;stroke-linejoin:round;stroke-opacity:1" />
    <circle
       cx="29.064388"
       cy="11.569882"
       r="1.0500004"
       id="circle38492"
       style="display:inline;fill:none;fill-opacity:0;stroke:#ff0000;stroke-width:0.15;stroke-linecap:round;stroke-linejoin:round;stroke-opacity:1" />
    <circle
       cx="35.84"
       cy="83.502686"
       r="1.0500004"
       id="circle38502"
       style="display:inline;fill:none;fill-opacity:0;stroke:#ff0000;stroke-width:0.15;stroke-linecap:round;stroke-linejoin:round;stroke-opacity:1" />
    <path
       id="path212020"
       d="m 161.20204,136.48083 -6.5738,-0.004 0.003,-1.72765 h -2.03827 v 1.76114 l -5.74829,-0.0536 -0.0179,-1.83266 -2.04721,0.009 -0.009,1.85947 2.41375,1.39461 0.0194,12.59145 h 13.99794 z"
       style="fill:none;stroke:#ff0000;stroke-width:0.264583px;stroke-linecap:butt;stroke-linejoin:miter;stroke-opacity:1" />
    <path
       id="path212022"
       d="m 152.56987,133.39276 2.03815,0.0265 0.0143,-1.97713 1.81722,-0.0134 0.0232,-13.95121 H 142.4648 v 13.9954 l 2.32083,-0.0215 -0.008,2.09022 h 2.02615 l 0.024,-2.09823 5.76611,-0.016 z"
       style="fill:none;stroke:#ff0000;stroke-width:0.264583px;stroke-linecap:butt;stroke-linejoin:miter;stroke-opacity:1" />
    <path
       sodipodi:nodetypes="ccccccccccccc"
       style="fill:none;stroke:#ff0000;stroke-width:0.264583px;stroke-linecap:butt;stroke-linejoin:miter;stroke-opacity:1"
       d="m 133.59512,133.39572 2.10807,0.0543 0.0593,-1.95962 1.60387,-0.10581 0.0232,-13.95121 H 123.3916 v 13.9954 l 2.49518,-0.0215 0.0966,2.09022 h 1.9041 l 0.22122,-1.87468 h 5.3975 z"
       id="path212024" />
    <path
       id="path212026"
       d="m 126.29522,134.59198 0.013,2.40204 1.86969,0.5713 -0.0238,12.91345 h 13.99794 v -13.99794 l -6.51222,-0.007 0.035,-1.73314 -1.90881,0.0361 v 1.70245 l -5.61192,0.001 -0.24347,-1.73977 z"
       style="fill:none;stroke:#ff0000;stroke-width:0.264583px;stroke-linecap:butt;stroke-linejoin:miter;stroke-opacity:1" />
    <path
       id="path212028"
       d="m 119.01919,131.60902 1.77862,0.009 0.009,1.99659 -1.77862,0.009 z"
       style="fill:none;stroke:#ff0000;stroke-width:0.264583px;stroke-linecap:butt;stroke-linejoin:miter;stroke-opacity:1" />
    <path
       id="path212030"
       d="m 118.33955,131.42876 0.0232,-13.95122 -12.50881,-0.0364 -1.77861,-1.58681 -0.40241,-0.27513 -0.46813,-0.25149 -0.67945,0.13518 -0.5861,0.46991 -0.21797,0.61031 0.0785,0.64518 0.33131,0.45338 2.23376,1.83488 -0.0232,11.95224 6.86562,0.0146 v 2.03146 l 2.02274,-0.009 v -2.04018 z"
       style="fill:none;stroke:#ff0000;stroke-width:0.264583px;stroke-linecap:butt;stroke-linejoin:miter;stroke-opacity:1" />
    <path
       sodipodi:nodetypes="ccccccccccccc"
       id="path212032"
       d="m 121.0245,134.56466 -1.97043,0.009 -0.0262,1.91812 h -5.78922 v -2.02815 l -2.10558,9.7e-4 -0.007,2.06068 h -1.99898 l -0.0232,13.95377 h 13.99794 l 0.0232,-13.95378 h -1.99898 z"
       style="fill:none;stroke:#ff0000;stroke-width:0.264583px;stroke-linecap:butt;stroke-linejoin:miter;stroke-opacity:1" />
    <path
       sodipodi:nodetypes="ccccccccccccc"
       id="path212036"
       d="m 101.54565,133.50078 -0.004,-2.10763 -2.231546,-1.36442 0.0028,-12.55119 h -13.99794 l -0.0232,13.95122 6.40562,0.003 0.02551,2.05302 h 2.002012 l 0.02551,-2.07852 5.539301,0.0229 0.129703,2.05546 z"
       style="fill:none;stroke:#ff0000;stroke-width:0.264583px;stroke-linecap:butt;stroke-linejoin:miter;stroke-opacity:1" />
    <path
       id="path212038"
       d="m 99.508319,134.48792 2.019301,0.0254 0.0139,1.96775 2.53373,0.0439 -0.0232,13.95377 -13.974741,0.0442 V 136.525 l 1.619922,-0.0312 0.02551,-2.02752 2.180535,0.0128 -0.02551,2.00201 5.687242,0.0128 z"
       style="fill:none;stroke:#ff0000;stroke-width:0.264583px;stroke-linecap:butt;stroke-linejoin:miter;stroke-opacity:1" />
    <path
       id="path212042"
       d="m 80.61834,134.38124 2.15138,0.10668 -0.05158,1.99435 2.283904,-0.001 v 13.99794 H 71.004104 L 71.0273,136.525 h 1.99898 l 0.0122,-2.14654 2.093187,0.0213 -0.03188,2.09318 5.503918,-0.0212 z"
       style="fill:none;stroke:#ff0000;stroke-width:0.264583px;stroke-linecap:butt;stroke-linejoin:miter;stroke-opacity:1" />
    <path
       sodipodi:nodetypes="cccccccccccccc"
       id="path212044"
       d="m 80.679653,133.3767 2.004019,-0.0789 0.02383,-2.07512 -2.486324,-0.82878 0.01836,-12.96061 -13.974739,0.0442 -0.0232,13.95122 6.828748,0.006 v 1.92319 l 2.061313,0.0106 -0.01151,-1.93242 5.119391,-0.008 0.427217,0.47561 z"
       style="fill:none;stroke:#ff0000;stroke-width:0.264583px;stroke-linecap:butt;stroke-linejoin:miter;stroke-opacity:1" />
    <path
       id="path212046"
       d="m 57.780769,133.49071 2.044424,0.007 v -2.05913 l 1.364351,-0.0102 0.0232,-13.95121 h -13.99794 l -0.0232,13.95121 2.777141,0.0124 v 2.17309 l 2.024081,0.0124 0.01241,-2.21035 5.736968,0.0373 z"
       style="fill:none;stroke:#ff0000;stroke-width:0.264583px;stroke-linecap:butt;stroke-linejoin:miter;stroke-opacity:1" />
    <path
       id="path212048"
       d="m 59.86654,134.38124 -0.01331,2.1139 1.338866,-0.0143 v 13.99794 h -14.00048 l 0.02318,-13.95376 2.766362,0.0446 v -2.04891 l 2.026634,0.002 v 1.98025 h 5.793629 l -0.0096,-2.08629 z"
       style="fill:none;stroke:#ff0000;stroke-width:0.264583px;stroke-linecap:butt;stroke-linejoin:miter;stroke-opacity:1" />
    <rect
       transform="rotate(90)"
       ry="0.055459935"
       y="-40.104839"
       x="138.76199"
       height="5.1808376"
       width="2.0266547"
       id="rect211974"
       style="display:inline;fill:none;fill-opacity:0;stroke:#ff0000;stroke-width:0.16048;stroke-opacity:1" />
    <rect
       transform="rotate(90)"
       style="display:inline;fill:none;fill-opacity:0;stroke:#ff0000;stroke-width:0.162189;stroke-opacity:1"
       id="rect211976"
       width="2.0266547"
       height="5.2917924"
       x="146.3484"
       y="-40.21579"
       ry="0.056647684" />
    <path
       id="path212054"
       d="m 44.23837,133.52145 v -2.81177 l -11.614729,0.0252 -0.0087,-12.24165 11.586194,-0.0135 V 115.668 H 13.446776 v 2.81178 l 5.175929,0.0261 v 12.21801 l -5.138652,-0.0142 v 2.81178 z"
       style="fill:none;stroke:#ff0000;stroke-width:0.264583px;stroke-linecap:butt;stroke-linejoin:miter;stroke-opacity:1" />
    <path
       id="path212056"
       d="m 18.64234,136.525 h 13.9954 v 13.99794 l -14.018598,-0.0442 z"
       style="fill:none;stroke:#ff0000;stroke-width:0.264583px;stroke-linecap:butt;stroke-linejoin:miter;stroke-opacity:1" />
    <path
       id="path212058"
       d="m 18.64234,155.575 -0.0232,13.95378 4.503459,0.0298 -0.0058,1.96534 2.009415,0.009 0.02554,-2.00941 5.747263,0.017 0.02556,1.96684 h 2.009413 l 0.03406,-2.0009 -0.315034,-1.24311 -0.01525,-12.68791 z"
       style="fill:none;stroke:#ff0000;stroke-width:0.264583px;stroke-linecap:butt;stroke-linejoin:miter;stroke-opacity:1" />
    <path
       id="path212060"
       d="m 23.086917,172.66368 2.058868,0.007 -0.01595,1.92203 5.782015,-0.016 -0.008,-1.87417 2.057598,-0.008 v 2.1214 l -0.334957,0.31103 -0.01199,13.4515 h -13.9954 v -13.99794 l 4.469043,-0.0118 z"
       style="fill:none;stroke:#ff0000;stroke-width:0.264583px;stroke-linecap:butt;stroke-linejoin:miter;stroke-opacity:1" />
    <path
       id="path212062"
       d="m 42.147175,184.01104 v 1.99217 l 2.290312,0.0271 -0.0271,-2.05992 z"
       style="fill:none;stroke:#ff0000;stroke-width:0.264583px;stroke-linecap:butt;stroke-linejoin:miter;stroke-opacity:1" />
    <path
       sodipodi:nodetypes="ccccc"
       id="path212064"
       d="m 42.296249,176.42184 0.0063,1.91561 1.936586,0.0164 -0.01637,-1.92025 z"
       style="fill:none;stroke:#ff0000;stroke-width:0.264583px;stroke-linecap:butt;stroke-linejoin:miter;stroke-opacity:1" />
    <rect
       ry="0.086138807"
       y="174.58083"
       x="49.571583"
       height="13.99794"
       width="14.00048"
       id="rect44549"
       style="display:inline;fill:none;fill-opacity:0;stroke:#ff0000;stroke-width:0.2;stroke-opacity:1" />
    <g
       style="display:inline;fill:none;stroke:#ff0000;stroke-opacity:1"
       id="g210575">
      <ellipse
         style="fill:none;fill-opacity:0;stroke:#ff0000;stroke-width:0.248748;stroke-opacity:1"
         id="path210569"
         cx="118.76691"
         cy="22.914667"
         rx="1.3582386"
         ry="1.2938012" />
      <ellipse
         ry="1.2938012"
         rx="1.3582386"
         cy="29.420528"
         cx="118.72662"
         id="ellipse210571"
         style="fill:none;fill-opacity:0;stroke:#ff0000;stroke-width:0.248748;stroke-opacity:1" />
    </g>
    <path
       style="fill:none;stroke:#ff0000;stroke-width:0.264583px;stroke-linecap:butt;stroke-linejoin:miter;stroke-opacity:1"
       d="m 92.551259,169.57294 1.975787,-0.0442 V 155.5308 l -13.974746,0.0442 -0.0232,13.95378 2.422956,0.0127 0.01802,5.02563 -9.562812,0.0579 -0.0232,13.95377 h 14.000479 l 0.02322,-13.95377 -2.545566,-0.0158 0.02574,-5.08229 5.623139,0.0172 v 5.18531 l 2.026049,0.0257 z"
       id="path12289" />
    <path
       style="fill:none;stroke:#ff0000;stroke-width:0.264583px;stroke-linecap:butt;stroke-linejoin:miter;stroke-opacity:1"
       d="m 97.219779,174.625 -0.0232,13.95376 h 14.000481 v -13.99794 l 0.98006,0.009 -0.0202,-1.9443 -2.02811,-0.0136 v 1.94082 l -5.77718,0.0113 -0.0151,-1.82378 -2.02768,0.0113 0.004,1.80867 z"
       id="path12291" />
    <path
       style="fill:none;stroke:#ff0000;stroke-width:0.264583px;stroke-linecap:butt;stroke-linejoin:miter;stroke-opacity:1"
       d="m 104.34529,171.25258 h -2.05046 l 0.0159,-1.72195 -2.731634,-0.002 0.0232,-13.95378 13.974744,-0.0442 v 13.99794 l -1.44186,-0.001 0.0256,1.86158 h -2.04027 v -1.84711 l -5.77676,-0.0242 z"
       id="path12293" />
    <path
       style="fill:none;stroke:#ff0000;stroke-width:0.2529px;stroke-linecap:butt;stroke-linejoin:miter;stroke-opacity:1"
       d="m 115.96812,169.60988 1.83206,-0.002 0.005,1.67827 -1.84047,0.0166 z"
       id="path12295" />
    <path
       style="fill:none;stroke:#ff0000;stroke-width:0.264583px;stroke-linecap:butt;stroke-linejoin:miter;stroke-opacity:1"
       d="m 118.6291,169.52878 5.05672,-0.001 0.002,2.07586 h 2.02666 l 0.004,-2.08097 6.90911,0.007 0.0232,-13.95385 H 118.6523 Z"
       id="path12297" />
    <path
       id="path12299"
       d="m 116.44112,176.06658 1.83206,-0.002 0.005,1.67827 -1.84047,0.0166 z"
       style="fill:none;stroke:#ff0000;stroke-width:0.2529px;stroke-linecap:butt;stroke-linejoin:miter;stroke-opacity:1" />
    <path
       style="fill:none;stroke:#ff0000;stroke-width:0.2529px;stroke-linecap:butt;stroke-linejoin:miter;stroke-opacity:1"
       d="m 116.49912,183.73759 1.83206,-0.002 0.005,1.67827 -1.84047,0.0166 z"
       id="path12301" />
    <path
       style="fill:none;stroke:#ff0000;stroke-width:0.264583px;stroke-linecap:butt;stroke-linejoin:miter;stroke-opacity:1"
       d="m 140.38574,171.41648 1.88617,-0.001 0.004,-1.87281 5.81278,-0.0133 -0.0133,2.01416 1.80656,0.009 v -2.01857 l 1.79462,-0.005 v -13.99794 h -13.99794 l 0.0232,14.0421 2.71261,-0.0338 z"
       id="path12303" />
    <path
       style="fill:none;stroke:#ff0000;stroke-width:0.264583px;stroke-linecap:butt;stroke-linejoin:miter;stroke-opacity:1"
       d="m 156.63441,171.30568 1.80953,0.0145 0.004,-1.78425 5.78616,-0.004 0.0108,1.91067 1.81675,-0.0144 -0.007,-1.89621 4.67296,-0.004 v -13.99794 l -13.97471,0.0442 -0.0232,13.95378 z"
       id="path12305" />
    <circle
       cx="153.91225"
       cy="109.97846"
       r="1.0500004"
       id="circle38514"
       style="display:inline;fill:none;fill-opacity:0;stroke:#ff0000;stroke-width:0.15;stroke-linecap:round;stroke-linejoin:round;stroke-opacity:1" />
    <circle
       cx="82.703346"
       cy="109.97846"
       r="1.0500004"
       id="circle38512"
       style="display:inline;fill:none;fill-opacity:0;stroke:#ff0000;stroke-width:0.15;stroke-linecap:round;stroke-linejoin:round;stroke-opacity:1" />
    <circle
       cx="92.317245"
       cy="188.71846"
       r="1.0500004"
       id="circle38506"
       style="display:inline;fill:none;fill-opacity:0;stroke:#ff0000;stroke-width:0.15;stroke-linecap:round;stroke-linejoin:round;stroke-opacity:1" />
    <circle
       cx="163.81824"
       cy="181.91127"
       r="1.0500004"
       id="circle38504"
       style="display:inline;fill:none;fill-opacity:0;stroke:#ff0000;stroke-width:0.15;stroke-linecap:round;stroke-linejoin:round;stroke-opacity:1" />
    <circle
       cx="15.888639"
       cy="109.97846"
       r="1.0500004"
       id="circle38510"
       style="display:inline;fill:none;fill-opacity:0;stroke:#ff0000;stroke-width:0.15;stroke-linecap:round;stroke-linejoin:round;stroke-opacity:1" />
    <circle
       cx="16.066442"
       cy="188.71846"
       r="1.0500004"
       id="circle38508"
       style="display:inline;fill:none;fill-opacity:0;stroke:#ff0000;stroke-width:0.15;stroke-linecap:round;stroke-linejoin:round;stroke-opacity:1" />
    <g
       style="display:inline;fill:none;stroke:#ff0000;stroke-opacity:1"
       transform="translate(-54.856012,98.108508)"
       id="g212002">
      <ellipse
         ry="1.2938012"
         rx="1.3582386"
         cy="22.914667"
         cx="118.76691"
         id="ellipse211998"
         style="fill:none;fill-opacity:0;stroke:#ff0000;stroke-width:0.248748;stroke-opacity:1" />
      <ellipse
         style="fill:none;fill-opacity:0;stroke:#ff0000;stroke-width:0.248748;stroke-opacity:1"
         id="ellipse212000"
         cx="118.72662"
         cy="29.420528"
         rx="1.3582386"
         ry="1.2938012" />
    </g>
    <rect
       ry="0.10592776"
       y="106.73728"
       x="97.646675"
       height="9.8953333"
       width="2.006001"
       id="rect212004"
       style="display:inline;fill:none;fill-opacity:0;stroke:#ff0000;stroke-width:0.220654;stroke-opacity:1" />
    <path
       id="path142"
       d="m 153.20255,56.626016 h 7.06773 V 35.328783 l 8.74608,-0.285001 v -2.811778 l -14.81977,0.02101 -0.035,-12.263596 14.81745,0.01268 -1e-5,-2.811779 -30.75432,1e-6 v 2.811781 l 2.03709,1.074418 v 9.997441 l -1.99981,1.158039 v 2.811778 l 14.94056,0.285006 -0.0235,16.768733 -1.28789,-0.02733 v -13.99794 h -14.00047 v 13.99794 l -1.4815,-0.03432 0.0422,-16.679891 h -7.06851 l -0.0323,4.840375 -8.23794,0.01352 -0.25261,-2.137635 -2.10613,-0.0071 -0.1184,-5.031944 -2.53797,-0.01304 V 19.024784 h -13.99794 v 13.995398 l 6.70882,0.01304 v 5.091144 l -1.94632,-0.05213 v 13.99794 h 13.99794 l 0.2526,-2.035993 8.17875,0.04844 0.0915,6.570575 h 7.06851 l -0.0113,-1.182965 16.70495,0.04913 z"
       style="opacity:1;fill:none;stroke:#ff0000;stroke-width:0.264583px;stroke-linecap:butt;stroke-linejoin:miter;stroke-opacity:1" />
    <path
       id="path144"
       d="m 38.923841,73.71034 h 7.068505 l -0.07428,16.006356 1.485122,0.06983 0.06225,-13.620661 13.938226,-0.05153 v 13.672194 l 1.268285,-0.0092 0.0716,-16.093521 h 7.067735 V 94.4854 l -30.887442,0.02656 z"
       style="opacity:1;fill:none;stroke:#ff0000;stroke-width:0.261487px;stroke-linecap:butt;stroke-linejoin:miter;stroke-opacity:1" />
    <path
       style="opacity:1;fill:none;stroke:#fb0000;stroke-width:0.261487px;stroke-linecap:butt;stroke-linejoin:miter;stroke-opacity:1"
       d="m 126.77484,172.17808 h 7.0685 l -0.0743,16.00635 1.48513,0.0698 0.0623,-13.62066 13.93822,-0.0515 v 13.6722 l 1.26829,-0.009 0.0716,-16.09353 h 7.06773 v 20.8016 l -30.88744,0.0266 z"
       id="path148" />
    <path
       id="path146"
       d="m 43.426856,152.62697 h 7.068505 l -0.03697,16.82368 1.495708,0.0781 v -13.99794 h 13.997937 v 13.99794 l 1.216605,-0.0235 0.07791,-16.90544 h 7.067733 l -0.0778,4.94568 3.679052,-0.0395 v 2.02667 l -3.679052,-0.0149 v 5.75904 l 3.679049,0.0446 -0.0531,2.19667 -3.468166,-0.19013 -0.07137,5.97296 -7.085822,-0.0224 -16.764066,-0.064 -7.05059,-0.0766 z"
       style="opacity:1;fill:none;stroke:#ff0000;stroke-width:0.26458300000000001px;stroke-linecap:butt;stroke-linejoin:miter;stroke-opacity:1" />
  </g>
</svg>
