999
"DXF R12 Output" (www.mydxf.blogspot.com)
 0 
SECTION
 2 
HEADER
 9 
$ACADVER
 1 
AC1009
 9 
$EXTMIN
 10 
 0 
 20 
 0 
 9 
$EXTMAX
 10 
 8.5 
 20 
 11 
 0 
ENDSEC
 0 
SECTION
 2 
ENTITIES
0
LINE
8
Layer 1
10
139431.000000
20
54219.400000
11
139453.099158
21
54219.125920
0
LINE
8
Layer 1
10
139453.099158
20
54219.125920
11
139475.132550
21
54218.306197
0
LINE
8
Layer 1
10
139475.132550
20
54218.306197
11
139497.091059
21
54216.944609
0
LINE
8
Layer 1
10
139497.091059
20
54216.944609
11
139518.965565
21
54215.044933
0
LINE
8
Layer 1
10
139518.965565
20
54215.044933
11
139540.746950
21
54212.610946
0
LINE
8
Layer 1
10
139540.746950
20
54212.610946
11
139562.426095
21
54209.646424
0
LINE
8
Layer 1
10
139562.426095
20
54209.646424
11
139583.993881
21
54206.155145
0
LINE
8
Layer 1
10
139583.993881
20
54206.155145
11
139605.441191
21
54202.140887
0
LINE
8
Layer 1
10
139605.441191
20
54202.140887
11
139626.758905
21
54197.607425
0
LINE
8
Layer 1
10
139626.758905
20
54197.607425
11
139647.937904
21
54192.558537
0
LINE
8
Layer 1
10
139647.937904
20
54192.558537
11
139668.969070
21
54186.998001
0
LINE
8
Layer 1
10
139668.969070
20
54186.998001
11
139689.843285
21
54180.929593
0
LINE
8
Layer 1
10
139689.843285
20
54180.929593
11
139710.551429
21
54174.357090
0
LINE
8
Layer 1
10
139710.551429
20
54174.357090
11
139731.084385
21
54167.284270
0
LINE
8
Layer 1
10
139731.084385
20
54167.284270
11
139751.433033
21
54159.714909
0
LINE
8
Layer 1
10
139751.433033
20
54159.714909
11
139771.588255
21
54151.652784
0
LINE
8
Layer 1
10
139771.588255
20
54151.652784
11
139791.540932
21
54143.101673
0
LINE
8
Layer 1
10
139791.540932
20
54143.101673
11
139811.281945
21
54134.065352
0
LINE
8
Layer 1
10
139811.281945
20
54134.065352
11
139830.802177
21
54124.547600
0
LINE
8
Layer 1
10
139830.802177
20
54124.547600
11
139850.092507
21
54114.552192
0
LINE
8
Layer 1
10
139850.092507
20
54114.552192
11
139869.143819
21
54104.082905
0
LINE
8
Layer 1
10
139869.143819
20
54104.082905
11
139887.946992
21
54093.143518
0
LINE
8
Layer 1
10
139887.946992
20
54093.143518
11
139906.492909
21
54081.737807
0
LINE
8
Layer 1
10
139906.492909
20
54081.737807
11
139924.772450
21
54069.869548
0
LINE
8
Layer 1
10
139924.772450
20
54069.869548
11
139942.776498
21
54057.542520
0
LINE
8
Layer 1
10
139942.776498
20
54057.542520
11
139960.495933
21
54044.760498
0
LINE
8
Layer 1
10
139960.495933
20
54044.760498
11
139977.921636
21
54031.527261
0
LINE
8
Layer 1
10
139977.921636
20
54031.527261
11
139995.044490
21
54017.846585
0
LINE
8
Layer 1
10
139995.044490
20
54017.846585
11
140011.855376
21
54003.722248
0
LINE
8
Layer 1
10
140011.855376
20
54003.722248
11
140028.345174
21
53989.158025
0
LINE
8
Layer 1
10
140028.345174
20
53989.158025
11
140044.504767
21
53974.157696
0
LINE
8
Layer 1
10
140044.504767
20
53974.157696
11
140060.325035
21
53958.725035
0
LINE
8
Layer 1
10
140060.325035
20
53958.725035
11
140075.757696
21
53942.904767
0
LINE
8
Layer 1
10
140075.757696
20
53942.904767
11
140090.758025
21
53926.745174
0
LINE
8
Layer 1
10
140090.758025
20
53926.745174
11
140105.322248
21
53910.255376
0
LINE
8
Layer 1
10
140105.322248
20
53910.255376
11
140119.446585
21
53893.444490
0
LINE
8
Layer 1
10
140119.446585
20
53893.444490
11
140133.127261
21
53876.321636
0
LINE
8
Layer 1
10
140133.127261
20
53876.321636
11
140146.360498
21
53858.895933
0
LINE
8
Layer 1
10
140146.360498
20
53858.895933
11
140159.142520
21
53841.176498
0
LINE
8
Layer 1
10
140159.142520
20
53841.176498
11
140171.469548
21
53823.172450
0
LINE
8
Layer 1
10
140171.469548
20
53823.172450
11
140183.337807
21
53804.892909
0
LINE
8
Layer 1
10
140183.337807
20
53804.892909
11
140194.743518
21
53786.346992
0
LINE
8
Layer 1
10
140194.743518
20
53786.346992
11
140205.682905
21
53767.543819
0
LINE
8
Layer 1
10
140205.682905
20
53767.543819
11
140216.152192
21
53748.492507
0
LINE
8
Layer 1
10
140216.152192
20
53748.492507
11
140226.147600
21
53729.202177
0
LINE
8
Layer 1
10
140226.147600
20
53729.202177
11
140235.665352
21
53709.681945
0
LINE
8
Layer 1
10
140235.665352
20
53709.681945
11
140244.701673
21
53689.940932
0
LINE
8
Layer 1
10
140244.701673
20
53689.940932
11
140253.252784
21
53669.988255
0
LINE
8
Layer 1
10
140253.252784
20
53669.988255
11
140261.314909
21
53649.833033
0
LINE
8
Layer 1
10
140261.314909
20
53649.833033
11
140268.884270
21
53629.484385
0
LINE
8
Layer 1
10
140268.884270
20
53629.484385
11
140275.957090
21
53608.951429
0
LINE
8
Layer 1
10
140275.957090
20
53608.951429
11
140282.529593
21
53588.243285
0
LINE
8
Layer 1
10
140282.529593
20
53588.243285
11
140288.598001
21
53567.369070
0
LINE
8
Layer 1
10
140288.598001
20
53567.369070
11
140294.158537
21
53546.337904
0
LINE
8
Layer 1
10
140294.158537
20
53546.337904
11
140299.207425
21
53525.158905
0
LINE
8
Layer 1
10
140299.207425
20
53525.158905
11
140303.740887
21
53503.841191
0
LINE
8
Layer 1
10
140303.740887
20
53503.841191
11
140307.755145
21
53482.393881
0
LINE
8
Layer 1
10
140307.755145
20
53482.393881
11
140311.246424
21
53460.826095
0
LINE
8
Layer 1
10
140311.246424
20
53460.826095
11
140314.210946
21
53439.146950
0
LINE
8
Layer 1
10
140314.210946
20
53439.146950
11
140316.644933
21
53417.365565
0
LINE
8
Layer 1
10
140316.644933
20
53417.365565
11
140318.544609
21
53395.491059
0
LINE
8
Layer 1
10
140318.544609
20
53395.491059
11
140319.906197
21
53373.532550
0
LINE
8
Layer 1
10
140319.906197
20
53373.532550
11
140320.725920
21
53351.499158
0
LINE
8
Layer 1
10
140320.725920
20
53351.499158
11
140321.000000
21
53329.400000
0
LINE
8
Layer 1
10
140321.000000
20
29694.400000
11
140321.000000
21
53329.400000
0
LINE
8
Layer 1
10
140321.000000
20
22309.400000
11
140321.000000
21
19124.400000
0
LINE
8
Layer 1
10
140321.000000
20
19124.400000
11
140320.725920
21
19102.300842
0
LINE
8
Layer 1
10
140320.725920
20
19102.300842
11
140319.906197
21
19080.267450
0
LINE
8
Layer 1
10
140319.906197
20
19080.267450
11
140318.544609
21
19058.308941
0
LINE
8
Layer 1
10
140318.544609
20
19058.308941
11
140316.644933
21
19036.434435
0
LINE
8
Layer 1
10
140316.644933
20
19036.434435
11
140314.210946
21
19014.653050
0
LINE
8
Layer 1
10
140314.210946
20
19014.653050
11
140311.246424
21
18992.973905
0
LINE
8
Layer 1
10
140311.246424
20
18992.973905
11
140307.755145
21
18971.406119
0
LINE
8
Layer 1
10
140307.755145
20
18971.406119
11
140303.740887
21
18949.958809
0
LINE
8
Layer 1
10
140303.740887
20
18949.958809
11
140299.207425
21
18928.641095
0
LINE
8
Layer 1
10
140299.207425
20
18928.641095
11
140294.158537
21
18907.462096
0
LINE
8
Layer 1
10
140294.158537
20
18907.462096
11
140288.598001
21
18886.430930
0
LINE
8
Layer 1
10
140288.598001
20
18886.430930
11
140282.529593
21
18865.556715
0
LINE
8
Layer 1
10
140282.529593
20
18865.556715
11
140275.957090
21
18844.848571
0
LINE
8
Layer 1
10
140275.957090
20
18844.848571
11
140268.884270
21
18824.315615
0
LINE
8
Layer 1
10
140268.884270
20
18824.315615
11
140261.314909
21
18803.966967
0
LINE
8
Layer 1
10
140261.314909
20
18803.966967
11
140253.252784
21
18783.811745
0
LINE
8
Layer 1
10
140253.252784
20
18783.811745
11
140244.701673
21
18763.859068
0
LINE
8
Layer 1
10
140244.701673
20
18763.859068
11
140235.665352
21
18744.118055
0
LINE
8
Layer 1
10
140235.665352
20
18744.118055
11
140226.147600
21
18724.597823
0
LINE
8
Layer 1
10
140226.147600
20
18724.597823
11
140216.152192
21
18705.307493
0
LINE
8
Layer 1
10
140216.152192
20
18705.307493
11
140205.682905
21
18686.256181
0
LINE
8
Layer 1
10
140205.682905
20
18686.256181
11
140194.743518
21
18667.453008
0
LINE
8
Layer 1
10
140194.743518
20
18667.453008
11
140183.337807
21
18648.907091
0
LINE
8
Layer 1
10
140183.337807
20
18648.907091
11
140171.469548
21
18630.627550
0
LINE
8
Layer 1
10
140171.469548
20
18630.627550
11
140159.142520
21
18612.623502
0
LINE
8
Layer 1
10
140159.142520
20
18612.623502
11
140146.360498
21
18594.904067
0
LINE
8
Layer 1
10
140146.360498
20
18594.904067
11
140133.127261
21
18577.478364
0
LINE
8
Layer 1
10
140133.127261
20
18577.478364
11
140119.446585
21
18560.355510
0
LINE
8
Layer 1
10
140119.446585
20
18560.355510
11
140105.322248
21
18543.544624
0
LINE
8
Layer 1
10
140105.322248
20
18543.544624
11
140090.758025
21
18527.054826
0
LINE
8
Layer 1
10
140090.758025
20
18527.054826
11
140075.757696
21
18510.895233
0
LINE
8
Layer 1
10
140075.757696
20
18510.895233
11
140060.325035
21
18495.074965
0
LINE
8
Layer 1
10
140060.325035
20
18495.074965
11
140044.504767
21
18479.642304
0
LINE
8
Layer 1
10
140044.504767
20
18479.642304
11
140028.345174
21
18464.641975
0
LINE
8
Layer 1
10
140028.345174
20
18464.641975
11
140011.855376
21
18450.077752
0
LINE
8
Layer 1
10
140011.855376
20
18450.077752
11
139995.044490
21
18435.953415
0
LINE
8
Layer 1
10
139995.044490
20
18435.953415
11
139977.921636
21
18422.272739
0
LINE
8
Layer 1
10
139977.921636
20
18422.272739
11
139960.495933
21
18409.039502
0
LINE
8
Layer 1
10
139960.495933
20
18409.039502
11
139942.776498
21
18396.257480
0
LINE
8
Layer 1
10
139942.776498
20
18396.257480
11
139924.772450
21
18383.930452
0
LINE
8
Layer 1
10
139924.772450
20
18383.930452
11
139906.492909
21
18372.062193
0
LINE
8
Layer 1
10
139906.492909
20
18372.062193
11
139887.946992
21
18360.656482
0
LINE
8
Layer 1
10
139887.946992
20
18360.656482
11
139869.143819
21
18349.717095
0
LINE
8
Layer 1
10
139869.143819
20
18349.717095
11
139850.092507
21
18339.247808
0
LINE
8
Layer 1
10
139850.092507
20
18339.247808
11
139830.802177
21
18329.252400
0
LINE
8
Layer 1
10
139830.802177
20
18329.252400
11
139811.281945
21
18319.734648
0
LINE
8
Layer 1
10
139811.281945
20
18319.734648
11
139791.540932
21
18310.698327
0
LINE
8
Layer 1
10
139791.540932
20
18310.698327
11
139771.588255
21
18302.147216
0
LINE
8
Layer 1
10
139771.588255
20
18302.147216
11
139751.433033
21
18294.085091
0
LINE
8
Layer 1
10
139751.433033
20
18294.085091
11
139731.084385
21
18286.515730
0
LINE
8
Layer 1
10
139731.084385
20
18286.515730
11
139710.551429
21
18279.442910
0
LINE
8
Layer 1
10
139710.551429
20
18279.442910
11
139689.843285
21
18272.870407
0
LINE
8
Layer 1
10
139689.843285
20
18272.870407
11
139668.969070
21
18266.801999
0
LINE
8
Layer 1
10
139668.969070
20
18266.801999
11
139647.937904
21
18261.241463
0
LINE
8
Layer 1
10
139647.937904
20
18261.241463
11
139626.758905
21
18256.192575
0
LINE
8
Layer 1
10
139626.758905
20
18256.192575
11
139605.441191
21
18251.659113
0
LINE
8
Layer 1
10
139605.441191
20
18251.659113
11
139583.993881
21
18247.644855
0
LINE
8
Layer 1
10
139583.993881
20
18247.644855
11
139562.426095
21
18244.153576
0
LINE
8
Layer 1
10
139562.426095
20
18244.153576
11
139540.746950
21
18241.189054
0
LINE
8
Layer 1
10
139540.746950
20
18241.189054
11
139518.965565
21
18238.755067
0
LINE
8
Layer 1
10
139518.965565
20
18238.755067
11
139497.091059
21
18236.855391
0
LINE
8
Layer 1
10
139497.091059
20
18236.855391
11
139475.132550
21
18235.493803
0
LINE
8
Layer 1
10
139475.132550
20
18235.493803
11
139453.099158
21
18234.674080
0
LINE
8
Layer 1
10
139453.099158
20
18234.674080
11
139431.000000
21
18234.400000
0
LINE
8
Layer 1
10
106371.000000
20
18234.400000
11
139431.000000
21
18234.400000
0
LINE
8
Layer 1
10
82301.200000
20
18234.400000
11
102881.000000
21
18234.400000
0
LINE
8
Layer 1
10
82301.200000
20
18234.400000
11
82289.547023
21
18234.688813
0
LINE
8
Layer 1
10
82289.547023
20
18234.688813
11
82277.973137
21
18235.549933
0
LINE
8
Layer 1
10
82277.973137
20
18235.549933
11
82266.497604
21
18236.975382
0
LINE
8
Layer 1
10
82266.497604
20
18236.975382
11
82255.139686
21
18238.957182
0
LINE
8
Layer 1
10
82255.139686
20
18238.957182
11
82243.918643
21
18241.487352
0
LINE
8
Layer 1
10
82243.918643
20
18241.487352
11
82232.853739
21
18244.557916
0
LINE
8
Layer 1
10
82232.853739
20
18244.557916
11
82221.964235
21
18248.160895
0
LINE
8
Layer 1
10
82221.964235
20
18248.160895
11
82211.269393
21
18252.288310
0
LINE
8
Layer 1
10
82211.269393
20
18252.288310
11
82200.788475
21
18256.932182
0
LINE
8
Layer 1
10
82200.788475
20
18256.932182
11
82190.540742
21
18262.084534
0
LINE
8
Layer 1
10
82190.540742
20
18262.084534
11
82180.545457
21
18267.737386
0
LINE
8
Layer 1
10
82180.545457
20
18267.737386
11
82170.821881
21
18273.882760
0
LINE
8
Layer 1
10
82170.821881
20
18273.882760
11
82161.389276
21
18280.512677
0
LINE
8
Layer 1
10
82161.389276
20
18280.512677
11
82152.266904
21
18287.619160
0
LINE
8
Layer 1
10
82152.266904
20
18287.619160
11
82143.474027
21
18295.194229
0
LINE
8
Layer 1
10
82143.474027
20
18295.194229
11
82135.029906
21
18303.229906
0
LINE
8
Layer 1
10
82135.029906
20
18303.229906
11
82126.994229
21
18311.674027
0
LINE
8
Layer 1
10
82126.994229
20
18311.674027
11
82119.419160
21
18320.466904
0
LINE
8
Layer 1
10
82119.419160
20
18320.466904
11
82112.312677
21
18329.589276
0
LINE
8
Layer 1
10
82112.312677
20
18329.589276
11
82105.682760
21
18339.021881
0
LINE
8
Layer 1
10
82105.682760
20
18339.021881
11
82099.537386
21
18348.745457
0
LINE
8
Layer 1
10
82099.537386
20
18348.745457
11
82093.884534
21
18358.740742
0
LINE
8
Layer 1
10
82093.884534
20
18358.740742
11
82088.732182
21
18368.988475
0
LINE
8
Layer 1
10
82088.732182
20
18368.988475
11
82084.088310
21
18379.469393
0
LINE
8
Layer 1
10
82084.088310
20
18379.469393
11
82079.960895
21
18390.164235
0
LINE
8
Layer 1
10
82079.960895
20
18390.164235
11
82076.357916
21
18401.053739
0
LINE
8
Layer 1
10
82076.357916
20
18401.053739
11
82073.287352
21
18412.118643
0
LINE
8
Layer 1
10
82073.287352
20
18412.118643
11
82070.757182
21
18423.339686
0
LINE
8
Layer 1
10
82070.757182
20
18423.339686
11
82068.775382
21
18434.697604
0
LINE
8
Layer 1
10
82068.775382
20
18434.697604
11
82067.349933
21
18446.173137
0
LINE
8
Layer 1
10
82067.349933
20
18446.173137
11
82066.488813
21
18457.747023
0
LINE
8
Layer 1
10
82066.488813
20
18457.747023
11
82066.200000
21
18469.400000
0
LINE
8
Layer 1
10
82066.200000
20
18469.400000
11
82066.200000
21
19129.400000
0
LINE
8
Layer 1
10
82066.200000
20
22234.400000
11
82066.200000
21
19129.400000
0
LINE
8
Layer 1
10
82066.200000
20
22234.400000
11
82066.200000
21
28844.400000
0
LINE
8
Layer 1
10
82956.200000
20
29734.400000
11
83051.200000
21
29734.400000
0
LINE
8
Layer 1
10
82066.200000
20
28844.400000
11
82066.474080
21
28866.499158
0
LINE
8
Layer 1
10
82066.474080
20
28866.499158
11
82067.293803
21
28888.532550
0
LINE
8
Layer 1
10
82067.293803
20
28888.532550
11
82068.655391
21
28910.491059
0
LINE
8
Layer 1
10
82068.655391
20
28910.491059
11
82070.555067
21
28932.365565
0
LINE
8
Layer 1
10
82070.555067
20
28932.365565
11
82072.989054
21
28954.146950
0
LINE
8
Layer 1
10
82072.989054
20
28954.146950
11
82075.953576
21
28975.826095
0
LINE
8
Layer 1
10
82075.953576
20
28975.826095
11
82079.444855
21
28997.393881
0
LINE
8
Layer 1
10
82079.444855
20
28997.393881
11
82083.459113
21
29018.841191
0
LINE
8
Layer 1
10
82083.459113
20
29018.841191
11
82087.992575
21
29040.158905
0
LINE
8
Layer 1
10
82087.992575
20
29040.158905
11
82093.041463
21
29061.337904
0
LINE
8
Layer 1
10
82093.041463
20
29061.337904
11
82098.601999
21
29082.369070
0
LINE
8
Layer 1
10
82098.601999
20
29082.369070
11
82104.670407
21
29103.243285
0
LINE
8
Layer 1
10
82104.670407
20
29103.243285
11
82111.242910
21
29123.951429
0
LINE
8
Layer 1
10
82111.242910
20
29123.951429
11
82118.315730
21
29144.484385
0
LINE
8
Layer 1
10
82118.315730
20
29144.484385
11
82125.885091
21
29164.833033
0
LINE
8
Layer 1
10
82125.885091
20
29164.833033
11
82133.947216
21
29184.988255
0
LINE
8
Layer 1
10
82133.947216
20
29184.988255
11
82142.498327
21
29204.940932
0
LINE
8
Layer 1
10
82142.498327
20
29204.940932
11
82151.534648
21
29224.681945
0
LINE
8
Layer 1
10
82151.534648
20
29224.681945
11
82161.052400
21
29244.202177
0
LINE
8
Layer 1
10
82161.052400
20
29244.202177
11
82171.047808
21
29263.492507
0
LINE
8
Layer 1
10
82171.047808
20
29263.492507
11
82181.517095
21
29282.543819
0
LINE
8
Layer 1
10
82181.517095
20
29282.543819
11
82192.456482
21
29301.346992
0
LINE
8
Layer 1
10
82192.456482
20
29301.346992
11
82203.862193
21
29319.892909
0
LINE
8
Layer 1
10
82203.862193
20
29319.892909
11
82215.730452
21
29338.172450
0
LINE
8
Layer 1
10
82215.730452
20
29338.172450
11
82228.057480
21
29356.176498
0
LINE
8
Layer 1
10
82228.057480
20
29356.176498
11
82240.839502
21
29373.895933
0
LINE
8
Layer 1
10
82240.839502
20
29373.895933
11
82254.072739
21
29391.321636
0
LINE
8
Layer 1
10
82254.072739
20
29391.321636
11
82267.753415
21
29408.444490
0
LINE
8
Layer 1
10
82267.753415
20
29408.444490
11
82281.877752
21
29425.255376
0
LINE
8
Layer 1
10
82281.877752
20
29425.255376
11
82296.441975
21
29441.745174
0
LINE
8
Layer 1
10
82296.441975
20
29441.745174
11
82311.442304
21
29457.904767
0
LINE
8
Layer 1
10
82311.442304
20
29457.904767
11
82326.874965
21
29473.725035
0
LINE
8
Layer 1
10
82326.874965
20
29473.725035
11
82342.695233
21
29489.157696
0
LINE
8
Layer 1
10
82342.695233
20
29489.157696
11
82358.854826
21
29504.158025
0
LINE
8
Layer 1
10
82358.854826
20
29504.158025
11
82375.344624
21
29518.722248
0
LINE
8
Layer 1
10
82375.344624
20
29518.722248
11
82392.155510
21
29532.846585
0
LINE
8
Layer 1
10
82392.155510
20
29532.846585
11
82409.278364
21
29546.527261
0
LINE
8
Layer 1
10
82409.278364
20
29546.527261
11
82426.704067
21
29559.760498
0
LINE
8
Layer 1
10
82426.704067
20
29559.760498
11
82444.423502
21
29572.542520
0
LINE
8
Layer 1
10
82444.423502
20
29572.542520
11
82462.427550
21
29584.869548
0
LINE
8
Layer 1
10
82462.427550
20
29584.869548
11
82480.707091
21
29596.737807
0
LINE
8
Layer 1
10
82480.707091
20
29596.737807
11
82499.253008
21
29608.143518
0
LINE
8
Layer 1
10
82499.253008
20
29608.143518
11
82518.056181
21
29619.082905
0
LINE
8
Layer 1
10
82518.056181
20
29619.082905
11
82537.107493
21
29629.552192
0
LINE
8
Layer 1
10
82537.107493
20
29629.552192
11
82556.397823
21
29639.547600
0
LINE
8
Layer 1
10
82556.397823
20
29639.547600
11
82575.918055
21
29649.065352
0
LINE
8
Layer 1
10
82575.918055
20
29649.065352
11
82595.659068
21
29658.101673
0
LINE
8
Layer 1
10
82595.659068
20
29658.101673
11
82615.611745
21
29666.652784
0
LINE
8
Layer 1
10
82615.611745
20
29666.652784
11
82635.766967
21
29674.714909
0
LINE
8
Layer 1
10
82635.766967
20
29674.714909
11
82656.115615
21
29682.284270
0
LINE
8
Layer 1
10
82656.115615
20
29682.284270
11
82676.648571
21
29689.357090
0
LINE
8
Layer 1
10
82676.648571
20
29689.357090
11
82697.356715
21
29695.929593
0
LINE
8
Layer 1
10
82697.356715
20
29695.929593
11
82718.230930
21
29701.998001
0
LINE
8
Layer 1
10
82718.230930
20
29701.998001
11
82739.262096
21
29707.558537
0
LINE
8
Layer 1
10
82739.262096
20
29707.558537
11
82760.441095
21
29712.607425
0
LINE
8
Layer 1
10
82760.441095
20
29712.607425
11
82781.758809
21
29717.140887
0
LINE
8
Layer 1
10
82781.758809
20
29717.140887
11
82803.206119
21
29721.155145
0
LINE
8
Layer 1
10
82803.206119
20
29721.155145
11
82824.773905
21
29724.646424
0
LINE
8
Layer 1
10
82824.773905
20
29724.646424
11
82846.453050
21
29727.610946
0
LINE
8
Layer 1
10
82846.453050
20
29727.610946
11
82868.234435
21
29730.044933
0
LINE
8
Layer 1
10
82868.234435
20
29730.044933
11
82890.108941
21
29731.944609
0
LINE
8
Layer 1
10
82890.108941
20
29731.944609
11
82912.067450
21
29733.306197
0
LINE
8
Layer 1
10
82912.067450
20
29733.306197
11
82934.100842
21
29734.125920
0
LINE
8
Layer 1
10
82934.100842
20
29734.125920
11
82956.200000
21
29734.400000
0
LINE
8
Layer 1
10
83941.200000
20
30624.400000
11
83940.925920
21
30602.300842
0
LINE
8
Layer 1
10
83940.925920
20
30602.300842
11
83940.106197
21
30580.267450
0
LINE
8
Layer 1
10
83940.106197
20
30580.267450
11
83938.744609
21
30558.308941
0
LINE
8
Layer 1
10
83938.744609
20
30558.308941
11
83936.844933
21
30536.434435
0
LINE
8
Layer 1
10
83936.844933
20
30536.434435
11
83934.410946
21
30514.653050
0
LINE
8
Layer 1
10
83934.410946
20
30514.653050
11
83931.446424
21
30492.973905
0
LINE
8
Layer 1
10
83931.446424
20
30492.973905
11
83927.955145
21
30471.406119
0
LINE
8
Layer 1
10
83927.955145
20
30471.406119
11
83923.940887
21
30449.958809
0
LINE
8
Layer 1
10
83923.940887
20
30449.958809
11
83919.407425
21
30428.641095
0
LINE
8
Layer 1
10
83919.407425
20
30428.641095
11
83914.358537
21
30407.462096
0
LINE
8
Layer 1
10
83914.358537
20
30407.462096
11
83908.798001
21
30386.430930
0
LINE
8
Layer 1
10
83908.798001
20
30386.430930
11
83902.729593
21
30365.556715
0
LINE
8
Layer 1
10
83902.729593
20
30365.556715
11
83896.157090
21
30344.848571
0
LINE
8
Layer 1
10
83896.157090
20
30344.848571
11
83889.084270
21
30324.315615
0
LINE
8
Layer 1
10
83889.084270
20
30324.315615
11
83881.514909
21
30303.966967
0
LINE
8
Layer 1
10
83881.514909
20
30303.966967
11
83873.452784
21
30283.811745
0
LINE
8
Layer 1
10
83873.452784
20
30283.811745
11
83864.901673
21
30263.859068
0
LINE
8
Layer 1
10
83864.901673
20
30263.859068
11
83855.865352
21
30244.118055
0
LINE
8
Layer 1
10
83855.865352
20
30244.118055
11
83846.347600
21
30224.597823
0
LINE
8
Layer 1
10
83846.347600
20
30224.597823
11
83836.352192
21
30205.307493
0
LINE
8
Layer 1
10
83836.352192
20
30205.307493
11
83825.882905
21
30186.256181
0
LINE
8
Layer 1
10
83825.882905
20
30186.256181
11
83814.943518
21
30167.453008
0
LINE
8
Layer 1
10
83814.943518
20
30167.453008
11
83803.537807
21
30148.907091
0
LINE
8
Layer 1
10
83803.537807
20
30148.907091
11
83791.669548
21
30130.627550
0
LINE
8
Layer 1
10
83791.669548
20
30130.627550
11
83779.342520
21
30112.623502
0
LINE
8
Layer 1
10
83779.342520
20
30112.623502
11
83766.560498
21
30094.904067
0
LINE
8
Layer 1
10
83766.560498
20
30094.904067
11
83753.327261
21
30077.478364
0
LINE
8
Layer 1
10
83753.327261
20
30077.478364
11
83739.646585
21
30060.355510
0
LINE
8
Layer 1
10
83739.646585
20
30060.355510
11
83725.522248
21
30043.544624
0
LINE
8
Layer 1
10
83725.522248
20
30043.544624
11
83710.958025
21
30027.054826
0
LINE
8
Layer 1
10
83710.958025
20
30027.054826
11
83695.957696
21
30010.895233
0
LINE
8
Layer 1
10
83695.957696
20
30010.895233
11
83680.525035
21
29995.074965
0
LINE
8
Layer 1
10
83680.525035
20
29995.074965
11
83664.704767
21
29979.642304
0
LINE
8
Layer 1
10
83664.704767
20
29979.642304
11
83648.545174
21
29964.641975
0
LINE
8
Layer 1
10
83648.545174
20
29964.641975
11
83632.055376
21
29950.077752
0
LINE
8
Layer 1
10
83632.055376
20
29950.077752
11
83615.244490
21
29935.953415
0
LINE
8
Layer 1
10
83615.244490
20
29935.953415
11
83598.121636
21
29922.272739
0
LINE
8
Layer 1
10
83598.121636
20
29922.272739
11
83580.695933
21
29909.039502
0
LINE
8
Layer 1
10
83580.695933
20
29909.039502
11
83562.976498
21
29896.257480
0
LINE
8
Layer 1
10
83562.976498
20
29896.257480
11
83544.972450
21
29883.930452
0
LINE
8
Layer 1
10
83544.972450
20
29883.930452
11
83526.692909
21
29872.062193
0
LINE
8
Layer 1
10
83526.692909
20
29872.062193
11
83508.146992
21
29860.656482
0
LINE
8
Layer 1
10
83508.146992
20
29860.656482
11
83489.343819
21
29849.717095
0
LINE
8
Layer 1
10
83489.343819
20
29849.717095
11
83470.292507
21
29839.247808
0
LINE
8
Layer 1
10
83470.292507
20
29839.247808
11
83451.002177
21
29829.252400
0
LINE
8
Layer 1
10
83451.002177
20
29829.252400
11
83431.481945
21
29819.734648
0
LINE
8
Layer 1
10
83431.481945
20
29819.734648
11
83411.740932
21
29810.698327
0
LINE
8
Layer 1
10
83411.740932
20
29810.698327
11
83391.788255
21
29802.147216
0
LINE
8
Layer 1
10
83391.788255
20
29802.147216
11
83371.633033
21
29794.085091
0
LINE
8
Layer 1
10
83371.633033
20
29794.085091
11
83351.284385
21
29786.515730
0
LINE
8
Layer 1
10
83351.284385
20
29786.515730
11
83330.751429
21
29779.442910
0
LINE
8
Layer 1
10
83330.751429
20
29779.442910
11
83310.043285
21
29772.870407
0
LINE
8
Layer 1
10
83310.043285
20
29772.870407
11
83289.169070
21
29766.801999
0
LINE
8
Layer 1
10
83289.169070
20
29766.801999
11
83268.137904
21
29761.241463
0
LINE
8
Layer 1
10
83268.137904
20
29761.241463
11
83246.958905
21
29756.192575
0
LINE
8
Layer 1
10
83246.958905
20
29756.192575
11
83225.641191
21
29751.659113
0
LINE
8
Layer 1
10
83225.641191
20
29751.659113
11
83204.193881
21
29747.644855
0
LINE
8
Layer 1
10
83204.193881
20
29747.644855
11
83182.626095
21
29744.153576
0
LINE
8
Layer 1
10
83182.626095
20
29744.153576
11
83160.946950
21
29741.189054
0
LINE
8
Layer 1
10
83160.946950
20
29741.189054
11
83139.165565
21
29738.755067
0
LINE
8
Layer 1
10
83139.165565
20
29738.755067
11
83117.291059
21
29736.855391
0
LINE
8
Layer 1
10
83117.291059
20
29736.855391
11
83095.332550
21
29735.493803
0
LINE
8
Layer 1
10
83095.332550
20
29735.493803
11
83073.299158
21
29734.674080
0
LINE
8
Layer 1
10
83073.299158
20
29734.674080
11
83051.200000
21
29734.400000
0
LINE
8
Layer 1
10
83941.200000
20
30624.400000
11
83941.200000
21
36344.400000
0
LINE
8
Layer 1
10
83941.200000
20
36344.400000
11
83941.474080
21
36366.499158
0
LINE
8
Layer 1
10
83941.474080
20
36366.499158
11
83942.293803
21
36388.532550
0
LINE
8
Layer 1
10
83942.293803
20
36388.532550
11
83943.655391
21
36410.491059
0
LINE
8
Layer 1
10
83943.655391
20
36410.491059
11
83945.555067
21
36432.365565
0
LINE
8
Layer 1
10
83945.555067
20
36432.365565
11
83947.989054
21
36454.146950
0
LINE
8
Layer 1
10
83947.989054
20
36454.146950
11
83950.953576
21
36475.826095
0
LINE
8
Layer 1
10
83950.953576
20
36475.826095
11
83954.444855
21
36497.393881
0
LINE
8
Layer 1
10
83954.444855
20
36497.393881
11
83958.459113
21
36518.841191
0
LINE
8
Layer 1
10
83958.459113
20
36518.841191
11
83962.992575
21
36540.158905
0
LINE
8
Layer 1
10
83962.992575
20
36540.158905
11
83968.041463
21
36561.337904
0
LINE
8
Layer 1
10
83968.041463
20
36561.337904
11
83973.601999
21
36582.369070
0
LINE
8
Layer 1
10
83973.601999
20
36582.369070
11
83979.670407
21
36603.243285
0
LINE
8
Layer 1
10
83979.670407
20
36603.243285
11
83986.242910
21
36623.951429
0
LINE
8
Layer 1
10
83986.242910
20
36623.951429
11
83993.315730
21
36644.484385
0
LINE
8
Layer 1
10
83993.315730
20
36644.484385
11
84000.885091
21
36664.833033
0
LINE
8
Layer 1
10
84000.885091
20
36664.833033
11
84008.947216
21
36684.988255
0
LINE
8
Layer 1
10
84008.947216
20
36684.988255
11
84017.498327
21
36704.940932
0
LINE
8
Layer 1
10
84017.498327
20
36704.940932
11
84026.534648
21
36724.681945
0
LINE
8
Layer 1
10
84026.534648
20
36724.681945
11
84036.052400
21
36744.202177
0
LINE
8
Layer 1
10
84036.052400
20
36744.202177
11
84046.047808
21
36763.492507
0
LINE
8
Layer 1
10
84046.047808
20
36763.492507
11
84056.517095
21
36782.543819
0
LINE
8
Layer 1
10
84056.517095
20
36782.543819
11
84067.456482
21
36801.346992
0
LINE
8
Layer 1
10
84067.456482
20
36801.346992
11
84078.862193
21
36819.892909
0
LINE
8
Layer 1
10
84078.862193
20
36819.892909
11
84090.730452
21
36838.172450
0
LINE
8
Layer 1
10
84090.730452
20
36838.172450
11
84103.057480
21
36856.176498
0
LINE
8
Layer 1
10
84103.057480
20
36856.176498
11
84115.839502
21
36873.895933
0
LINE
8
Layer 1
10
84115.839502
20
36873.895933
11
84129.072739
21
36891.321636
0
LINE
8
Layer 1
10
84129.072739
20
36891.321636
11
84142.753415
21
36908.444490
0
LINE
8
Layer 1
10
84142.753415
20
36908.444490
11
84156.877752
21
36925.255376
0
LINE
8
Layer 1
10
84156.877752
20
36925.255376
11
84171.441975
21
36941.745174
0
LINE
8
Layer 1
10
84171.441975
20
36941.745174
11
84186.442304
21
36957.904767
0
LINE
8
Layer 1
10
84186.442304
20
36957.904767
11
84201.874965
21
36973.725035
0
LINE
8
Layer 1
10
84201.874965
20
36973.725035
11
84217.695233
21
36989.157696
0
LINE
8
Layer 1
10
84217.695233
20
36989.157696
11
84233.854826
21
37004.158025
0
LINE
8
Layer 1
10
84233.854826
20
37004.158025
11
84250.344624
21
37018.722248
0
LINE
8
Layer 1
10
84250.344624
20
37018.722248
11
84267.155510
21
37032.846585
0
LINE
8
Layer 1
10
84267.155510
20
37032.846585
11
84284.278364
21
37046.527261
0
LINE
8
Layer 1
10
84284.278364
20
37046.527261
11
84301.704067
21
37059.760498
0
LINE
8
Layer 1
10
84301.704067
20
37059.760498
11
84319.423502
21
37072.542520
0
LINE
8
Layer 1
10
84319.423502
20
37072.542520
11
84337.427550
21
37084.869548
0
LINE
8
Layer 1
10
84337.427550
20
37084.869548
11
84355.707091
21
37096.737807
0
LINE
8
Layer 1
10
84355.707091
20
37096.737807
11
84374.253008
21
37108.143518
0
LINE
8
Layer 1
10
84374.253008
20
37108.143518
11
84393.056181
21
37119.082905
0
LINE
8
Layer 1
10
84393.056181
20
37119.082905
11
84412.107493
21
37129.552192
0
LINE
8
Layer 1
10
84412.107493
20
37129.552192
11
84431.397823
21
37139.547600
0
LINE
8
Layer 1
10
84431.397823
20
37139.547600
11
84450.918055
21
37149.065352
0
LINE
8
Layer 1
10
84450.918055
20
37149.065352
11
84470.659068
21
37158.101673
0
LINE
8
Layer 1
10
84470.659068
20
37158.101673
11
84490.611745
21
37166.652784
0
LINE
8
Layer 1
10
84490.611745
20
37166.652784
11
84510.766967
21
37174.714909
0
LINE
8
Layer 1
10
84510.766967
20
37174.714909
11
84531.115615
21
37182.284270
0
LINE
8
Layer 1
10
84531.115615
20
37182.284270
11
84551.648571
21
37189.357090
0
LINE
8
Layer 1
10
84551.648571
20
37189.357090
11
84572.356715
21
37195.929593
0
LINE
8
Layer 1
10
84572.356715
20
37195.929593
11
84593.230930
21
37201.998001
0
LINE
8
Layer 1
10
84593.230930
20
37201.998001
11
84614.262096
21
37207.558537
0
LINE
8
Layer 1
10
84614.262096
20
37207.558537
11
84635.441095
21
37212.607425
0
LINE
8
Layer 1
10
84635.441095
20
37212.607425
11
84656.758809
21
37217.140887
0
LINE
8
Layer 1
10
84656.758809
20
37217.140887
11
84678.206119
21
37221.155145
0
LINE
8
Layer 1
10
84678.206119
20
37221.155145
11
84699.773905
21
37224.646424
0
LINE
8
Layer 1
10
84699.773905
20
37224.646424
11
84721.453050
21
37227.610946
0
LINE
8
Layer 1
10
84721.453050
20
37227.610946
11
84743.234435
21
37230.044933
0
LINE
8
Layer 1
10
84743.234435
20
37230.044933
11
84765.108941
21
37231.944609
0
LINE
8
Layer 1
10
84765.108941
20
37231.944609
11
84787.067450
21
37233.306197
0
LINE
8
Layer 1
10
84787.067450
20
37233.306197
11
84809.100842
21
37234.125920
0
LINE
8
Layer 1
10
84809.100842
20
37234.125920
11
84831.200000
21
37234.400000
0
LINE
8
Layer 1
10
84831.200000
20
37234.400000
11
86801.200000
21
37234.400000
0
LINE
8
Layer 1
10
87691.200000
20
38124.400000
11
87690.925920
21
38102.300842
0
LINE
8
Layer 1
10
87690.925920
20
38102.300842
11
87690.106197
21
38080.267450
0
LINE
8
Layer 1
10
87690.106197
20
38080.267450
11
87688.744609
21
38058.308941
0
LINE
8
Layer 1
10
87688.744609
20
38058.308941
11
87686.844933
21
38036.434435
0
LINE
8
Layer 1
10
87686.844933
20
38036.434435
11
87684.410946
21
38014.653050
0
LINE
8
Layer 1
10
87684.410946
20
38014.653050
11
87681.446424
21
37992.973905
0
LINE
8
Layer 1
10
87681.446424
20
37992.973905
11
87677.955145
21
37971.406119
0
LINE
8
Layer 1
10
87677.955145
20
37971.406119
11
87673.940887
21
37949.958809
0
LINE
8
Layer 1
10
87673.940887
20
37949.958809
11
87669.407425
21
37928.641095
0
LINE
8
Layer 1
10
87669.407425
20
37928.641095
11
87664.358537
21
37907.462096
0
LINE
8
Layer 1
10
87664.358537
20
37907.462096
11
87658.798001
21
37886.430930
0
LINE
8
Layer 1
10
87658.798001
20
37886.430930
11
87652.729593
21
37865.556715
0
LINE
8
Layer 1
10
87652.729593
20
37865.556715
11
87646.157090
21
37844.848571
0
LINE
8
Layer 1
10
87646.157090
20
37844.848571
11
87639.084270
21
37824.315615
0
LINE
8
Layer 1
10
87639.084270
20
37824.315615
11
87631.514909
21
37803.966967
0
LINE
8
Layer 1
10
87631.514909
20
37803.966967
11
87623.452784
21
37783.811745
0
LINE
8
Layer 1
10
87623.452784
20
37783.811745
11
87614.901673
21
37763.859068
0
LINE
8
Layer 1
10
87614.901673
20
37763.859068
11
87605.865352
21
37744.118055
0
LINE
8
Layer 1
10
87605.865352
20
37744.118055
11
87596.347600
21
37724.597823
0
LINE
8
Layer 1
10
87596.347600
20
37724.597823
11
87586.352192
21
37705.307493
0
LINE
8
Layer 1
10
87586.352192
20
37705.307493
11
87575.882905
21
37686.256181
0
LINE
8
Layer 1
10
87575.882905
20
37686.256181
11
87564.943518
21
37667.453008
0
LINE
8
Layer 1
10
87564.943518
20
37667.453008
11
87553.537807
21
37648.907091
0
LINE
8
Layer 1
10
87553.537807
20
37648.907091
11
87541.669548
21
37630.627550
0
LINE
8
Layer 1
10
87541.669548
20
37630.627550
11
87529.342520
21
37612.623502
0
LINE
8
Layer 1
10
87529.342520
20
37612.623502
11
87516.560498
21
37594.904067
0
LINE
8
Layer 1
10
87516.560498
20
37594.904067
11
87503.327261
21
37577.478364
0
LINE
8
Layer 1
10
87503.327261
20
37577.478364
11
87489.646585
21
37560.355510
0
LINE
8
Layer 1
10
87489.646585
20
37560.355510
11
87475.522248
21
37543.544624
0
LINE
8
Layer 1
10
87475.522248
20
37543.544624
11
87460.958025
21
37527.054826
0
LINE
8
Layer 1
10
87460.958025
20
37527.054826
11
87445.957696
21
37510.895233
0
LINE
8
Layer 1
10
87445.957696
20
37510.895233
11
87430.525035
21
37495.074965
0
LINE
8
Layer 1
10
87430.525035
20
37495.074965
11
87414.704767
21
37479.642304
0
LINE
8
Layer 1
10
87414.704767
20
37479.642304
11
87398.545174
21
37464.641975
0
LINE
8
Layer 1
10
87398.545174
20
37464.641975
11
87382.055376
21
37450.077752
0
LINE
8
Layer 1
10
87382.055376
20
37450.077752
11
87365.244490
21
37435.953415
0
LINE
8
Layer 1
10
87365.244490
20
37435.953415
11
87348.121636
21
37422.272739
0
LINE
8
Layer 1
10
87348.121636
20
37422.272739
11
87330.695933
21
37409.039502
0
LINE
8
Layer 1
10
87330.695933
20
37409.039502
11
87312.976498
21
37396.257480
0
LINE
8
Layer 1
10
87312.976498
20
37396.257480
11
87294.972450
21
37383.930452
0
LINE
8
Layer 1
10
87294.972450
20
37383.930452
11
87276.692909
21
37372.062193
0
LINE
8
Layer 1
10
87276.692909
20
37372.062193
11
87258.146992
21
37360.656482
0
LINE
8
Layer 1
10
87258.146992
20
37360.656482
11
87239.343819
21
37349.717095
0
LINE
8
Layer 1
10
87239.343819
20
37349.717095
11
87220.292507
21
37339.247808
0
LINE
8
Layer 1
10
87220.292507
20
37339.247808
11
87201.002177
21
37329.252400
0
LINE
8
Layer 1
10
87201.002177
20
37329.252400
11
87181.481945
21
37319.734648
0
LINE
8
Layer 1
10
87181.481945
20
37319.734648
11
87161.740932
21
37310.698327
0
LINE
8
Layer 1
10
87161.740932
20
37310.698327
11
87141.788255
21
37302.147216
0
LINE
8
Layer 1
10
87141.788255
20
37302.147216
11
87121.633033
21
37294.085091
0
LINE
8
Layer 1
10
87121.633033
20
37294.085091
11
87101.284385
21
37286.515730
0
LINE
8
Layer 1
10
87101.284385
20
37286.515730
11
87080.751429
21
37279.442910
0
LINE
8
Layer 1
10
87080.751429
20
37279.442910
11
87060.043285
21
37272.870407
0
LINE
8
Layer 1
10
87060.043285
20
37272.870407
11
87039.169070
21
37266.801999
0
LINE
8
Layer 1
10
87039.169070
20
37266.801999
11
87018.137904
21
37261.241463
0
LINE
8
Layer 1
10
87018.137904
20
37261.241463
11
86996.958905
21
37256.192575
0
LINE
8
Layer 1
10
86996.958905
20
37256.192575
11
86975.641191
21
37251.659113
0
LINE
8
Layer 1
10
86975.641191
20
37251.659113
11
86954.193881
21
37247.644855
0
LINE
8
Layer 1
10
86954.193881
20
37247.644855
11
86932.626095
21
37244.153576
0
LINE
8
Layer 1
10
86932.626095
20
37244.153576
11
86910.946950
21
37241.189054
0
LINE
8
Layer 1
10
86910.946950
20
37241.189054
11
86889.165565
21
37238.755067
0
LINE
8
Layer 1
10
86889.165565
20
37238.755067
11
86867.291059
21
37236.855391
0
LINE
8
Layer 1
10
86867.291059
20
37236.855391
11
86845.332550
21
37235.493803
0
LINE
8
Layer 1
10
86845.332550
20
37235.493803
11
86823.299158
21
37234.674080
0
LINE
8
Layer 1
10
86823.299158
20
37234.674080
11
86801.200000
21
37234.400000
0
LINE
8
Layer 1
10
87691.200000
20
38124.400000
11
87691.200000
21
43844.400000
0
LINE
8
Layer 1
10
86801.200000
20
44734.400000
11
86736.200000
21
44734.400000
0
LINE
8
Layer 1
10
86801.200000
20
44734.400000
11
86823.299158
21
44734.125920
0
LINE
8
Layer 1
10
86823.299158
20
44734.125920
11
86845.332550
21
44733.306197
0
LINE
8
Layer 1
10
86845.332550
20
44733.306197
11
86867.291059
21
44731.944609
0
LINE
8
Layer 1
10
86867.291059
20
44731.944609
11
86889.165565
21
44730.044933
0
LINE
8
Layer 1
10
86889.165565
20
44730.044933
11
86910.946950
21
44727.610946
0
LINE
8
Layer 1
10
86910.946950
20
44727.610946
11
86932.626095
21
44724.646424
0
LINE
8
Layer 1
10
86932.626095
20
44724.646424
11
86954.193881
21
44721.155145
0
LINE
8
Layer 1
10
86954.193881
20
44721.155145
11
86975.641191
21
44717.140887
0
LINE
8
Layer 1
10
86975.641191
20
44717.140887
11
86996.958905
21
44712.607425
0
LINE
8
Layer 1
10
86996.958905
20
44712.607425
11
87018.137904
21
44707.558537
0
LINE
8
Layer 1
10
87018.137904
20
44707.558537
11
87039.169070
21
44701.998001
0
LINE
8
Layer 1
10
87039.169070
20
44701.998001
11
87060.043285
21
44695.929593
0
LINE
8
Layer 1
10
87060.043285
20
44695.929593
11
87080.751429
21
44689.357090
0
LINE
8
Layer 1
10
87080.751429
20
44689.357090
11
87101.284385
21
44682.284270
0
LINE
8
Layer 1
10
87101.284385
20
44682.284270
11
87121.633033
21
44674.714909
0
LINE
8
Layer 1
10
87121.633033
20
44674.714909
11
87141.788255
21
44666.652784
0
LINE
8
Layer 1
10
87141.788255
20
44666.652784
11
87161.740932
21
44658.101673
0
LINE
8
Layer 1
10
87161.740932
20
44658.101673
11
87181.481945
21
44649.065352
0
LINE
8
Layer 1
10
87181.481945
20
44649.065352
11
87201.002177
21
44639.547600
0
LINE
8
Layer 1
10
87201.002177
20
44639.547600
11
87220.292507
21
44629.552192
0
LINE
8
Layer 1
10
87220.292507
20
44629.552192
11
87239.343819
21
44619.082905
0
LINE
8
Layer 1
10
87239.343819
20
44619.082905
11
87258.146992
21
44608.143518
0
LINE
8
Layer 1
10
87258.146992
20
44608.143518
11
87276.692909
21
44596.737807
0
LINE
8
Layer 1
10
87276.692909
20
44596.737807
11
87294.972450
21
44584.869548
0
LINE
8
Layer 1
10
87294.972450
20
44584.869548
11
87312.976498
21
44572.542520
0
LINE
8
Layer 1
10
87312.976498
20
44572.542520
11
87330.695933
21
44559.760498
0
LINE
8
Layer 1
10
87330.695933
20
44559.760498
11
87348.121636
21
44546.527261
0
LINE
8
Layer 1
10
87348.121636
20
44546.527261
11
87365.244490
21
44532.846585
0
LINE
8
Layer 1
10
87365.244490
20
44532.846585
11
87382.055376
21
44518.722248
0
LINE
8
Layer 1
10
87382.055376
20
44518.722248
11
87398.545174
21
44504.158025
0
LINE
8
Layer 1
10
87398.545174
20
44504.158025
11
87414.704767
21
44489.157696
0
LINE
8
Layer 1
10
87414.704767
20
44489.157696
11
87430.525035
21
44473.725035
0
LINE
8
Layer 1
10
87430.525035
20
44473.725035
11
87445.957696
21
44457.904767
0
LINE
8
Layer 1
10
87445.957696
20
44457.904767
11
87460.958025
21
44441.745174
0
LINE
8
Layer 1
10
87460.958025
20
44441.745174
11
87475.522248
21
44425.255376
0
LINE
8
Layer 1
10
87475.522248
20
44425.255376
11
87489.646585
21
44408.444490
0
LINE
8
Layer 1
10
87489.646585
20
44408.444490
11
87503.327261
21
44391.321636
0
LINE
8
Layer 1
10
87503.327261
20
44391.321636
11
87516.560498
21
44373.895933
0
LINE
8
Layer 1
10
87516.560498
20
44373.895933
11
87529.342520
21
44356.176498
0
LINE
8
Layer 1
10
87529.342520
20
44356.176498
11
87541.669548
21
44338.172450
0
LINE
8
Layer 1
10
87541.669548
20
44338.172450
11
87553.537807
21
44319.892909
0
LINE
8
Layer 1
10
87553.537807
20
44319.892909
11
87564.943518
21
44301.346992
0
LINE
8
Layer 1
10
87564.943518
20
44301.346992
11
87575.882905
21
44282.543819
0
LINE
8
Layer 1
10
87575.882905
20
44282.543819
11
87586.352192
21
44263.492507
0
LINE
8
Layer 1
10
87586.352192
20
44263.492507
11
87596.347600
21
44244.202177
0
LINE
8
Layer 1
10
87596.347600
20
44244.202177
11
87605.865352
21
44224.681945
0
LINE
8
Layer 1
10
87605.865352
20
44224.681945
11
87614.901673
21
44204.940932
0
LINE
8
Layer 1
10
87614.901673
20
44204.940932
11
87623.452784
21
44184.988255
0
LINE
8
Layer 1
10
87623.452784
20
44184.988255
11
87631.514909
21
44164.833033
0
LINE
8
Layer 1
10
87631.514909
20
44164.833033
11
87639.084270
21
44144.484385
0
LINE
8
Layer 1
10
87639.084270
20
44144.484385
11
87646.157090
21
44123.951429
0
LINE
8
Layer 1
10
87646.157090
20
44123.951429
11
87652.729593
21
44103.243285
0
LINE
8
Layer 1
10
87652.729593
20
44103.243285
11
87658.798001
21
44082.369070
0
LINE
8
Layer 1
10
87658.798001
20
44082.369070
11
87664.358537
21
44061.337904
0
LINE
8
Layer 1
10
87664.358537
20
44061.337904
11
87669.407425
21
44040.158905
0
LINE
8
Layer 1
10
87669.407425
20
44040.158905
11
87673.940887
21
44018.841191
0
LINE
8
Layer 1
10
87673.940887
20
44018.841191
11
87677.955145
21
43997.393881
0
LINE
8
Layer 1
10
87677.955145
20
43997.393881
11
87681.446424
21
43975.826095
0
LINE
8
Layer 1
10
87681.446424
20
43975.826095
11
87684.410946
21
43954.146950
0
LINE
8
Layer 1
10
87684.410946
20
43954.146950
11
87686.844933
21
43932.365565
0
LINE
8
Layer 1
10
87686.844933
20
43932.365565
11
87688.744609
21
43910.491059
0
LINE
8
Layer 1
10
87688.744609
20
43910.491059
11
87690.106197
21
43888.532550
0
LINE
8
Layer 1
10
87690.106197
20
43888.532550
11
87690.925920
21
43866.499158
0
LINE
8
Layer 1
10
87690.925920
20
43866.499158
11
87691.200000
21
43844.400000
0
LINE
8
Layer 1
10
86736.200000
20
44734.400000
11
86714.100842
21
44734.674080
0
LINE
8
Layer 1
10
86714.100842
20
44734.674080
11
86692.067450
21
44735.493803
0
LINE
8
Layer 1
10
86692.067450
20
44735.493803
11
86670.108941
21
44736.855391
0
LINE
8
Layer 1
10
86670.108941
20
44736.855391
11
86648.234435
21
44738.755067
0
LINE
8
Layer 1
10
86648.234435
20
44738.755067
11
86626.453050
21
44741.189054
0
LINE
8
Layer 1
10
86626.453050
20
44741.189054
11
86604.773905
21
44744.153576
0
LINE
8
Layer 1
10
86604.773905
20
44744.153576
11
86583.206119
21
44747.644855
0
LINE
8
Layer 1
10
86583.206119
20
44747.644855
11
86561.758809
21
44751.659113
0
LINE
8
Layer 1
10
86561.758809
20
44751.659113
11
86540.441095
21
44756.192575
0
LINE
8
Layer 1
10
86540.441095
20
44756.192575
11
86519.262096
21
44761.241463
0
LINE
8
Layer 1
10
86519.262096
20
44761.241463
11
86498.230930
21
44766.801999
0
LINE
8
Layer 1
10
86498.230930
20
44766.801999
11
86477.356715
21
44772.870407
0
LINE
8
Layer 1
10
86477.356715
20
44772.870407
11
86456.648571
21
44779.442910
0
LINE
8
Layer 1
10
86456.648571
20
44779.442910
11
86436.115615
21
44786.515730
0
LINE
8
Layer 1
10
86436.115615
20
44786.515730
11
86415.766967
21
44794.085091
0
LINE
8
Layer 1
10
86415.766967
20
44794.085091
11
86395.611745
21
44802.147216
0
LINE
8
Layer 1
10
86395.611745
20
44802.147216
11
86375.659068
21
44810.698327
0
LINE
8
Layer 1
10
86375.659068
20
44810.698327
11
86355.918055
21
44819.734648
0
LINE
8
Layer 1
10
86355.918055
20
44819.734648
11
86336.397823
21
44829.252400
0
LINE
8
Layer 1
10
86336.397823
20
44829.252400
11
86317.107493
21
44839.247808
0
LINE
8
Layer 1
10
86317.107493
20
44839.247808
11
86298.056181
21
44849.717095
0
LINE
8
Layer 1
10
86298.056181
20
44849.717095
11
86279.253008
21
44860.656482
0
LINE
8
Layer 1
10
86279.253008
20
44860.656482
11
86260.707091
21
44872.062193
0
LINE
8
Layer 1
10
86260.707091
20
44872.062193
11
86242.427550
21
44883.930452
0
LINE
8
Layer 1
10
86242.427550
20
44883.930452
11
86224.423502
21
44896.257480
0
LINE
8
Layer 1
10
86224.423502
20
44896.257480
11
86206.704067
21
44909.039502
0
LINE
8
Layer 1
10
86206.704067
20
44909.039502
11
86189.278364
21
44922.272739
0
LINE
8
Layer 1
10
86189.278364
20
44922.272739
11
86172.155510
21
44935.953415
0
LINE
8
Layer 1
10
86172.155510
20
44935.953415
11
86155.344624
21
44950.077752
0
LINE
8
Layer 1
10
86155.344624
20
44950.077752
11
86138.854826
21
44964.641975
0
LINE
8
Layer 1
10
86138.854826
20
44964.641975
11
86122.695233
21
44979.642304
0
LINE
8
Layer 1
10
86122.695233
20
44979.642304
11
86106.874965
21
44995.074965
0
LINE
8
Layer 1
10
86106.874965
20
44995.074965
11
86091.442304
21
45010.895233
0
LINE
8
Layer 1
10
86091.442304
20
45010.895233
11
86076.441975
21
45027.054826
0
LINE
8
Layer 1
10
86076.441975
20
45027.054826
11
86061.877752
21
45043.544624
0
LINE
8
Layer 1
10
86061.877752
20
45043.544624
11
86047.753415
21
45060.355510
0
LINE
8
Layer 1
10
86047.753415
20
45060.355510
11
86034.072739
21
45077.478364
0
LINE
8
Layer 1
10
86034.072739
20
45077.478364
11
86020.839502
21
45094.904067
0
LINE
8
Layer 1
10
86020.839502
20
45094.904067
11
86008.057480
21
45112.623502
0
LINE
8
Layer 1
10
86008.057480
20
45112.623502
11
85995.730452
21
45130.627550
0
LINE
8
Layer 1
10
85995.730452
20
45130.627550
11
85983.862193
21
45148.907091
0
LINE
8
Layer 1
10
85983.862193
20
45148.907091
11
85972.456482
21
45167.453008
0
LINE
8
Layer 1
10
85972.456482
20
45167.453008
11
85961.517095
21
45186.256181
0
LINE
8
Layer 1
10
85961.517095
20
45186.256181
11
85951.047808
21
45205.307493
0
LINE
8
Layer 1
10
85951.047808
20
45205.307493
11
85941.052400
21
45224.597823
0
LINE
8
Layer 1
10
85941.052400
20
45224.597823
11
85931.534648
21
45244.118055
0
LINE
8
Layer 1
10
85931.534648
20
45244.118055
11
85922.498327
21
45263.859068
0
LINE
8
Layer 1
10
85922.498327
20
45263.859068
11
85913.947216
21
45283.811745
0
LINE
8
Layer 1
10
85913.947216
20
45283.811745
11
85905.885091
21
45303.966967
0
LINE
8
Layer 1
10
85905.885091
20
45303.966967
11
85898.315730
21
45324.315615
0
LINE
8
Layer 1
10
85898.315730
20
45324.315615
11
85891.242910
21
45344.848571
0
LINE
8
Layer 1
10
85891.242910
20
45344.848571
11
85884.670407
21
45365.556715
0
LINE
8
Layer 1
10
85884.670407
20
45365.556715
11
85878.601999
21
45386.430930
0
LINE
8
Layer 1
10
85878.601999
20
45386.430930
11
85873.041463
21
45407.462096
0
LINE
8
Layer 1
10
85873.041463
20
45407.462096
11
85867.992575
21
45428.641095
0
LINE
8
Layer 1
10
85867.992575
20
45428.641095
11
85863.459113
21
45449.958809
0
LINE
8
Layer 1
10
85863.459113
20
45449.958809
11
85859.444855
21
45471.406119
0
LINE
8
Layer 1
10
85859.444855
20
45471.406119
11
85855.953576
21
45492.973905
0
LINE
8
Layer 1
10
85855.953576
20
45492.973905
11
85852.989054
21
45514.653050
0
LINE
8
Layer 1
10
85852.989054
20
45514.653050
11
85850.555067
21
45536.434435
0
LINE
8
Layer 1
10
85850.555067
20
45536.434435
11
85848.655391
21
45558.308941
0
LINE
8
Layer 1
10
85848.655391
20
45558.308941
11
85847.293803
21
45580.267450
0
LINE
8
Layer 1
10
85847.293803
20
45580.267450
11
85846.474080
21
45602.300842
0
LINE
8
Layer 1
10
85846.474080
20
45602.300842
11
85846.200000
21
45624.400000
0
LINE
8
Layer 1
10
85846.200000
20
45624.400000
11
85846.200000
21
51159.400000
0
LINE
8
Layer 1
10
86081.200000
20
54219.400000
11
139431.000000
21
54219.400000
0
LINE
8
Layer 1
10
85846.200000
20
53984.400000
11
85846.200000
21
51159.400000
0
LINE
8
Layer 1
10
85846.200000
20
53984.400000
11
85846.488813
21
53996.052977
0
LINE
8
Layer 1
10
85846.488813
20
53996.052977
11
85847.349933
21
54007.626863
0
LINE
8
Layer 1
10
85847.349933
20
54007.626863
11
85848.775382
21
54019.102396
0
LINE
8
Layer 1
10
85848.775382
20
54019.102396
11
85850.757182
21
54030.460314
0
LINE
8
Layer 1
10
85850.757182
20
54030.460314
11
85853.287352
21
54041.681357
0
LINE
8
Layer 1
10
85853.287352
20
54041.681357
11
85856.357916
21
54052.746261
0
LINE
8
Layer 1
10
85856.357916
20
54052.746261
11
85859.960895
21
54063.635765
0
LINE
8
Layer 1
10
85859.960895
20
54063.635765
11
85864.088310
21
54074.330607
0
LINE
8
Layer 1
10
85864.088310
20
54074.330607
11
85868.732182
21
54084.811525
0
LINE
8
Layer 1
10
85868.732182
20
54084.811525
11
85873.884534
21
54095.059258
0
LINE
8
Layer 1
10
85873.884534
20
54095.059258
11
85879.537386
21
54105.054543
0
LINE
8
Layer 1
10
85879.537386
20
54105.054543
11
85885.682760
21
54114.778119
0
LINE
8
Layer 1
10
85885.682760
20
54114.778119
11
85892.312677
21
54124.210724
0
LINE
8
Layer 1
10
85892.312677
20
54124.210724
11
85899.419160
21
54133.333096
0
LINE
8
Layer 1
10
85899.419160
20
54133.333096
11
85906.994229
21
54142.125973
0
LINE
8
Layer 1
10
85906.994229
20
54142.125973
11
85915.029906
21
54150.570094
0
LINE
8
Layer 1
10
85915.029906
20
54150.570094
11
85923.474027
21
54158.605771
0
LINE
8
Layer 1
10
85923.474027
20
54158.605771
11
85932.266904
21
54166.180840
0
LINE
8
Layer 1
10
85932.266904
20
54166.180840
11
85941.389276
21
54173.287323
0
LINE
8
Layer 1
10
85941.389276
20
54173.287323
11
85950.821881
21
54179.917240
0
LINE
8
Layer 1
10
85950.821881
20
54179.917240
11
85960.545457
21
54186.062614
0
LINE
8
Layer 1
10
85960.545457
20
54186.062614
11
85970.540742
21
54191.715466
0
LINE
8
Layer 1
10
85970.540742
20
54191.715466
11
85980.788475
21
54196.867818
0
LINE
8
Layer 1
10
85980.788475
20
54196.867818
11
85991.269393
21
54201.511690
0
LINE
8
Layer 1
10
85991.269393
20
54201.511690
11
86001.964235
21
54205.639105
0
LINE
8
Layer 1
10
86001.964235
20
54205.639105
11
86012.853739
21
54209.242084
0
LINE
8
Layer 1
10
86012.853739
20
54209.242084
11
86023.918643
21
54212.312648
0
LINE
8
Layer 1
10
86023.918643
20
54212.312648
11
86035.139686
21
54214.842818
0
LINE
8
Layer 1
10
86035.139686
20
54214.842818
11
86046.497604
21
54216.824618
0
LINE
8
Layer 1
10
86046.497604
20
54216.824618
11
86057.973137
21
54218.250067
0
LINE
8
Layer 1
10
86057.973137
20
54218.250067
11
86069.547023
21
54219.111187
0
LINE
8
Layer 1
10
86069.547023
20
54219.111187
11
86081.200000
21
54219.400000
0
LINE
8
Layer 1
10
118431.000000
20
27899.400000
11
118431.000000
21
23364.400000
0
LINE
8
Layer 1
10
118431.000000
20
23364.400000
11
120571.000000
21
23364.400000
0
LINE
8
Layer 1
10
120571.000000
20
27899.400000
11
120571.000000
21
23364.400000
0
LINE
8
Layer 1
10
118431.000000
20
27899.400000
11
120571.000000
21
27899.400000
0
LINE
8
Layer 1
10
135706.000000
20
29694.400000
11
140321.000000
21
29694.400000
0
LINE
8
Layer 1
10
135706.000000
20
29779.400000
11
135706.000000
21
29694.400000
0
LINE
8
Layer 1
10
126851.000000
20
29779.400000
11
126851.000000
21
22309.400000
0
LINE
8
Layer 1
10
126851.000000
20
29779.400000
11
135706.000000
21
29779.400000
0
LINE
8
Layer 1
10
140321.000000
20
22309.400000
11
126851.000000
21
22309.400000
0
LINE
8
Layer 1
10
106371.000000
20
18234.400000
11
106371.000000
21
23779.400000
0
LINE
8
Layer 1
10
102881.000000
20
23779.400000
11
102881.000000
21
18234.400000
0
LINE
8
Layer 1
10
102881.000000
20
23779.400000
11
106371.000000
21
23779.400000
0
LINE
8
Layer 1
10
16341.200000
20
53334.400000
11
16341.474080
21
53356.499158
0
LINE
8
Layer 1
10
16341.474080
20
53356.499158
11
16342.293803
21
53378.532550
0
LINE
8
Layer 1
10
16342.293803
20
53378.532550
11
16343.655391
21
53400.491059
0
LINE
8
Layer 1
10
16343.655391
20
53400.491059
11
16345.555067
21
53422.365565
0
LINE
8
Layer 1
10
16345.555067
20
53422.365565
11
16347.989054
21
53444.146950
0
LINE
8
Layer 1
10
16347.989054
20
53444.146950
11
16350.953576
21
53465.826095
0
LINE
8
Layer 1
10
16350.953576
20
53465.826095
11
16354.444855
21
53487.393881
0
LINE
8
Layer 1
10
16354.444855
20
53487.393881
11
16358.459113
21
53508.841191
0
LINE
8
Layer 1
10
16358.459113
20
53508.841191
11
16362.992575
21
53530.158905
0
LINE
8
Layer 1
10
16362.992575
20
53530.158905
11
16368.041463
21
53551.337904
0
LINE
8
Layer 1
10
16368.041463
20
53551.337904
11
16373.601999
21
53572.369070
0
LINE
8
Layer 1
10
16373.601999
20
53572.369070
11
16379.670407
21
53593.243285
0
LINE
8
Layer 1
10
16379.670407
20
53593.243285
11
16386.242910
21
53613.951429
0
LINE
8
Layer 1
10
16386.242910
20
53613.951429
11
16393.315730
21
53634.484385
0
LINE
8
Layer 1
10
16393.315730
20
53634.484385
11
16400.885091
21
53654.833033
0
LINE
8
Layer 1
10
16400.885091
20
53654.833033
11
16408.947216
21
53674.988255
0
LINE
8
Layer 1
10
16408.947216
20
53674.988255
11
16417.498327
21
53694.940932
0
LINE
8
Layer 1
10
16417.498327
20
53694.940932
11
16426.534648
21
53714.681945
0
LINE
8
Layer 1
10
16426.534648
20
53714.681945
11
16436.052400
21
53734.202177
0
LINE
8
Layer 1
10
16436.052400
20
53734.202177
11
16446.047808
21
53753.492507
0
LINE
8
Layer 1
10
16446.047808
20
53753.492507
11
16456.517095
21
53772.543819
0
LINE
8
Layer 1
10
16456.517095
20
53772.543819
11
16467.456482
21
53791.346992
0
LINE
8
Layer 1
10
16467.456482
20
53791.346992
11
16478.862193
21
53809.892909
0
LINE
8
Layer 1
10
16478.862193
20
53809.892909
11
16490.730452
21
53828.172450
0
LINE
8
Layer 1
10
16490.730452
20
53828.172450
11
16503.057480
21
53846.176498
0
LINE
8
Layer 1
10
16503.057480
20
53846.176498
11
16515.839502
21
53863.895933
0
LINE
8
Layer 1
10
16515.839502
20
53863.895933
11
16529.072739
21
53881.321636
0
LINE
8
Layer 1
10
16529.072739
20
53881.321636
11
16542.753415
21
53898.444490
0
LINE
8
Layer 1
10
16542.753415
20
53898.444490
11
16556.877752
21
53915.255376
0
LINE
8
Layer 1
10
16556.877752
20
53915.255376
11
16571.441975
21
53931.745174
0
LINE
8
Layer 1
10
16571.441975
20
53931.745174
11
16586.442304
21
53947.904767
0
LINE
8
Layer 1
10
16586.442304
20
53947.904767
11
16601.874965
21
53963.725035
0
LINE
8
Layer 1
10
16601.874965
20
53963.725035
11
16617.695233
21
53979.157696
0
LINE
8
Layer 1
10
16617.695233
20
53979.157696
11
16633.854826
21
53994.158025
0
LINE
8
Layer 1
10
16633.854826
20
53994.158025
11
16650.344624
21
54008.722248
0
LINE
8
Layer 1
10
16650.344624
20
54008.722248
11
16667.155510
21
54022.846585
0
LINE
8
Layer 1
10
16667.155510
20
54022.846585
11
16684.278364
21
54036.527261
0
LINE
8
Layer 1
10
16684.278364
20
54036.527261
11
16701.704067
21
54049.760498
0
LINE
8
Layer 1
10
16701.704067
20
54049.760498
11
16719.423502
21
54062.542520
0
LINE
8
Layer 1
10
16719.423502
20
54062.542520
11
16737.427550
21
54074.869548
0
LINE
8
Layer 1
10
16737.427550
20
54074.869548
11
16755.707091
21
54086.737807
0
LINE
8
Layer 1
10
16755.707091
20
54086.737807
11
16774.253008
21
54098.143518
0
LINE
8
Layer 1
10
16774.253008
20
54098.143518
11
16793.056181
21
54109.082905
0
LINE
8
Layer 1
10
16793.056181
20
54109.082905
11
16812.107493
21
54119.552192
0
LINE
8
Layer 1
10
16812.107493
20
54119.552192
11
16831.397823
21
54129.547600
0
LINE
8
Layer 1
10
16831.397823
20
54129.547600
11
16850.918055
21
54139.065352
0
LINE
8
Layer 1
10
16850.918055
20
54139.065352
11
16870.659068
21
54148.101673
0
LINE
8
Layer 1
10
16870.659068
20
54148.101673
11
16890.611745
21
54156.652784
0
LINE
8
Layer 1
10
16890.611745
20
54156.652784
11
16910.766967
21
54164.714909
0
LINE
8
Layer 1
10
16910.766967
20
54164.714909
11
16931.115615
21
54172.284270
0
LINE
8
Layer 1
10
16931.115615
20
54172.284270
11
16951.648571
21
54179.357090
0
LINE
8
Layer 1
10
16951.648571
20
54179.357090
11
16972.356715
21
54185.929593
0
LINE
8
Layer 1
10
16972.356715
20
54185.929593
11
16993.230930
21
54191.998001
0
LINE
8
Layer 1
10
16993.230930
20
54191.998001
11
17014.262096
21
54197.558537
0
LINE
8
Layer 1
10
17014.262096
20
54197.558537
11
17035.441095
21
54202.607425
0
LINE
8
Layer 1
10
17035.441095
20
54202.607425
11
17056.758809
21
54207.140887
0
LINE
8
Layer 1
10
17056.758809
20
54207.140887
11
17078.206119
21
54211.155145
0
LINE
8
Layer 1
10
17078.206119
20
54211.155145
11
17099.773905
21
54214.646424
0
LINE
8
Layer 1
10
17099.773905
20
54214.646424
11
17121.453050
21
54217.610946
0
LINE
8
Layer 1
10
17121.453050
20
54217.610946
11
17143.234435
21
54220.044933
0
LINE
8
Layer 1
10
17143.234435
20
54220.044933
11
17165.108941
21
54221.944609
0
LINE
8
Layer 1
10
17165.108941
20
54221.944609
11
17187.067450
21
54223.306197
0
LINE
8
Layer 1
10
17187.067450
20
54223.306197
11
17209.100842
21
54224.125920
0
LINE
8
Layer 1
10
17209.100842
20
54224.125920
11
17231.200000
21
54224.400000
0
LINE
8
Layer 1
10
78081.200000
20
54224.400000
11
17231.200000
21
54224.400000
0
LINE
8
Layer 1
10
78081.200000
20
54224.400000
11
78092.852977
21
54224.111187
0
LINE
8
Layer 1
10
78092.852977
20
54224.111187
11
78104.426863
21
54223.250067
0
LINE
8
Layer 1
10
78104.426863
20
54223.250067
11
78115.902396
21
54221.824618
0
LINE
8
Layer 1
10
78115.902396
20
54221.824618
11
78127.260314
21
54219.842818
0
LINE
8
Layer 1
10
78127.260314
20
54219.842818
11
78138.481357
21
54217.312648
0
LINE
8
Layer 1
10
78138.481357
20
54217.312648
11
78149.546261
21
54214.242084
0
LINE
8
Layer 1
10
78149.546261
20
54214.242084
11
78160.435765
21
54210.639105
0
LINE
8
Layer 1
10
78160.435765
20
54210.639105
11
78171.130607
21
54206.511690
0
LINE
8
Layer 1
10
78171.130607
20
54206.511690
11
78181.611525
21
54201.867818
0
LINE
8
Layer 1
10
78181.611525
20
54201.867818
11
78191.859258
21
54196.715466
0
LINE
8
Layer 1
10
78191.859258
20
54196.715466
11
78201.854543
21
54191.062614
0
LINE
8
Layer 1
10
78201.854543
20
54191.062614
11
78211.578119
21
54184.917240
0
LINE
8
Layer 1
10
78211.578119
20
54184.917240
11
78221.010724
21
54178.287323
0
LINE
8
Layer 1
10
78221.010724
20
54178.287323
11
78230.133096
21
54171.180840
0
LINE
8
Layer 1
10
78230.133096
20
54171.180840
11
78238.925973
21
54163.605771
0
LINE
8
Layer 1
10
78238.925973
20
54163.605771
11
78247.370094
21
54155.570094
0
LINE
8
Layer 1
10
78247.370094
20
54155.570094
11
78255.405771
21
54147.125973
0
LINE
8
Layer 1
10
78255.405771
20
54147.125973
11
78262.980840
21
54138.333096
0
LINE
8
Layer 1
10
78262.980840
20
54138.333096
11
78270.087323
21
54129.210724
0
LINE
8
Layer 1
10
78270.087323
20
54129.210724
11
78276.717240
21
54119.778119
0
LINE
8
Layer 1
10
78276.717240
20
54119.778119
11
78282.862614
21
54110.054543
0
LINE
8
Layer 1
10
78282.862614
20
54110.054543
11
78288.515466
21
54100.059258
0
LINE
8
Layer 1
10
78288.515466
20
54100.059258
11
78293.667818
21
54089.811525
0
LINE
8
Layer 1
10
78293.667818
20
54089.811525
11
78298.311690
21
54079.330607
0
LINE
8
Layer 1
10
78298.311690
20
54079.330607
11
78302.439105
21
54068.635765
0
LINE
8
Layer 1
10
78302.439105
20
54068.635765
11
78306.042084
21
54057.746261
0
LINE
8
Layer 1
10
78306.042084
20
54057.746261
11
78309.112648
21
54046.681357
0
LINE
8
Layer 1
10
78309.112648
20
54046.681357
11
78311.642818
21
54035.460314
0
LINE
8
Layer 1
10
78311.642818
20
54035.460314
11
78313.624618
21
54024.102396
0
LINE
8
Layer 1
10
78313.624618
20
54024.102396
11
78315.050067
21
54012.626863
0
LINE
8
Layer 1
10
78315.050067
20
54012.626863
11
78315.911187
21
54001.052977
0
LINE
8
Layer 1
10
78315.911187
20
54001.052977
11
78316.200000
21
53989.400000
0
LINE
8
Layer 1
10
78316.200000
20
45624.400000
11
78316.200000
21
53989.400000
0
LINE
8
Layer 1
10
79301.200000
20
44734.400000
11
79206.200000
21
44734.400000
0
LINE
8
Layer 1
10
79206.200000
20
44734.400000
11
79184.100842
21
44734.674080
0
LINE
8
Layer 1
10
79184.100842
20
44734.674080
11
79162.067450
21
44735.493803
0
LINE
8
Layer 1
10
79162.067450
20
44735.493803
11
79140.108941
21
44736.855391
0
LINE
8
Layer 1
10
79140.108941
20
44736.855391
11
79118.234435
21
44738.755067
0
LINE
8
Layer 1
10
79118.234435
20
44738.755067
11
79096.453050
21
44741.189054
0
LINE
8
Layer 1
10
79096.453050
20
44741.189054
11
79074.773905
21
44744.153576
0
LINE
8
Layer 1
10
79074.773905
20
44744.153576
11
79053.206119
21
44747.644855
0
LINE
8
Layer 1
10
79053.206119
20
44747.644855
11
79031.758809
21
44751.659113
0
LINE
8
Layer 1
10
79031.758809
20
44751.659113
11
79010.441095
21
44756.192575
0
LINE
8
Layer 1
10
79010.441095
20
44756.192575
11
78989.262096
21
44761.241463
0
LINE
8
Layer 1
10
78989.262096
20
44761.241463
11
78968.230930
21
44766.801999
0
LINE
8
Layer 1
10
78968.230930
20
44766.801999
11
78947.356715
21
44772.870407
0
LINE
8
Layer 1
10
78947.356715
20
44772.870407
11
78926.648571
21
44779.442910
0
LINE
8
Layer 1
10
78926.648571
20
44779.442910
11
78906.115615
21
44786.515730
0
LINE
8
Layer 1
10
78906.115615
20
44786.515730
11
78885.766967
21
44794.085091
0
LINE
8
Layer 1
10
78885.766967
20
44794.085091
11
78865.611745
21
44802.147216
0
LINE
8
Layer 1
10
78865.611745
20
44802.147216
11
78845.659068
21
44810.698327
0
LINE
8
Layer 1
10
78845.659068
20
44810.698327
11
78825.918055
21
44819.734648
0
LINE
8
Layer 1
10
78825.918055
20
44819.734648
11
78806.397823
21
44829.252400
0
LINE
8
Layer 1
10
78806.397823
20
44829.252400
11
78787.107493
21
44839.247808
0
LINE
8
Layer 1
10
78787.107493
20
44839.247808
11
78768.056181
21
44849.717095
0
LINE
8
Layer 1
10
78768.056181
20
44849.717095
11
78749.253008
21
44860.656482
0
LINE
8
Layer 1
10
78749.253008
20
44860.656482
11
78730.707091
21
44872.062193
0
LINE
8
Layer 1
10
78730.707091
20
44872.062193
11
78712.427550
21
44883.930452
0
LINE
8
Layer 1
10
78712.427550
20
44883.930452
11
78694.423502
21
44896.257480
0
LINE
8
Layer 1
10
78694.423502
20
44896.257480
11
78676.704067
21
44909.039502
0
LINE
8
Layer 1
10
78676.704067
20
44909.039502
11
78659.278364
21
44922.272739
0
LINE
8
Layer 1
10
78659.278364
20
44922.272739
11
78642.155510
21
44935.953415
0
LINE
8
Layer 1
10
78642.155510
20
44935.953415
11
78625.344624
21
44950.077752
0
LINE
8
Layer 1
10
78625.344624
20
44950.077752
11
78608.854826
21
44964.641975
0
LINE
8
Layer 1
10
78608.854826
20
44964.641975
11
78592.695233
21
44979.642304
0
LINE
8
Layer 1
10
78592.695233
20
44979.642304
11
78576.874965
21
44995.074965
0
LINE
8
Layer 1
10
78576.874965
20
44995.074965
11
78561.442304
21
45010.895233
0
LINE
8
Layer 1
10
78561.442304
20
45010.895233
11
78546.441975
21
45027.054826
0
LINE
8
Layer 1
10
78546.441975
20
45027.054826
11
78531.877752
21
45043.544624
0
LINE
8
Layer 1
10
78531.877752
20
45043.544624
11
78517.753415
21
45060.355510
0
LINE
8
Layer 1
10
78517.753415
20
45060.355510
11
78504.072739
21
45077.478364
0
LINE
8
Layer 1
10
78504.072739
20
45077.478364
11
78490.839502
21
45094.904067
0
LINE
8
Layer 1
10
78490.839502
20
45094.904067
11
78478.057480
21
45112.623502
0
LINE
8
Layer 1
10
78478.057480
20
45112.623502
11
78465.730452
21
45130.627550
0
LINE
8
Layer 1
10
78465.730452
20
45130.627550
11
78453.862193
21
45148.907091
0
LINE
8
Layer 1
10
78453.862193
20
45148.907091
11
78442.456482
21
45167.453008
0
LINE
8
Layer 1
10
78442.456482
20
45167.453008
11
78431.517095
21
45186.256181
0
LINE
8
Layer 1
10
78431.517095
20
45186.256181
11
78421.047808
21
45205.307493
0
LINE
8
Layer 1
10
78421.047808
20
45205.307493
11
78411.052400
21
45224.597823
0
LINE
8
Layer 1
10
78411.052400
20
45224.597823
11
78401.534648
21
45244.118055
0
LINE
8
Layer 1
10
78401.534648
20
45244.118055
11
78392.498327
21
45263.859068
0
LINE
8
Layer 1
10
78392.498327
20
45263.859068
11
78383.947216
21
45283.811745
0
LINE
8
Layer 1
10
78383.947216
20
45283.811745
11
78375.885091
21
45303.966967
0
LINE
8
Layer 1
10
78375.885091
20
45303.966967
11
78368.315730
21
45324.315615
0
LINE
8
Layer 1
10
78368.315730
20
45324.315615
11
78361.242910
21
45344.848571
0
LINE
8
Layer 1
10
78361.242910
20
45344.848571
11
78354.670407
21
45365.556715
0
LINE
8
Layer 1
10
78354.670407
20
45365.556715
11
78348.601999
21
45386.430930
0
LINE
8
Layer 1
10
78348.601999
20
45386.430930
11
78343.041463
21
45407.462096
0
LINE
8
Layer 1
10
78343.041463
20
45407.462096
11
78337.992575
21
45428.641095
0
LINE
8
Layer 1
10
78337.992575
20
45428.641095
11
78333.459113
21
45449.958809
0
LINE
8
Layer 1
10
78333.459113
20
45449.958809
11
78329.444855
21
45471.406119
0
LINE
8
Layer 1
10
78329.444855
20
45471.406119
11
78325.953576
21
45492.973905
0
LINE
8
Layer 1
10
78325.953576
20
45492.973905
11
78322.989054
21
45514.653050
0
LINE
8
Layer 1
10
78322.989054
20
45514.653050
11
78320.555067
21
45536.434435
0
LINE
8
Layer 1
10
78320.555067
20
45536.434435
11
78318.655391
21
45558.308941
0
LINE
8
Layer 1
10
78318.655391
20
45558.308941
11
78317.293803
21
45580.267450
0
LINE
8
Layer 1
10
78317.293803
20
45580.267450
11
78316.474080
21
45602.300842
0
LINE
8
Layer 1
10
78316.474080
20
45602.300842
11
78316.200000
21
45624.400000
0
LINE
8
Layer 1
10
79301.200000
20
44734.400000
11
79323.299158
21
44734.125920
0
LINE
8
Layer 1
10
79323.299158
20
44734.125920
11
79345.332550
21
44733.306197
0
LINE
8
Layer 1
10
79345.332550
20
44733.306197
11
79367.291059
21
44731.944609
0
LINE
8
Layer 1
10
79367.291059
20
44731.944609
11
79389.165565
21
44730.044933
0
LINE
8
Layer 1
10
79389.165565
20
44730.044933
11
79410.946950
21
44727.610946
0
LINE
8
Layer 1
10
79410.946950
20
44727.610946
11
79432.626095
21
44724.646424
0
LINE
8
Layer 1
10
79432.626095
20
44724.646424
11
79454.193881
21
44721.155145
0
LINE
8
Layer 1
10
79454.193881
20
44721.155145
11
79475.641191
21
44717.140887
0
LINE
8
Layer 1
10
79475.641191
20
44717.140887
11
79496.958905
21
44712.607425
0
LINE
8
Layer 1
10
79496.958905
20
44712.607425
11
79518.137904
21
44707.558537
0
LINE
8
Layer 1
10
79518.137904
20
44707.558537
11
79539.169070
21
44701.998001
0
LINE
8
Layer 1
10
79539.169070
20
44701.998001
11
79560.043285
21
44695.929593
0
LINE
8
Layer 1
10
79560.043285
20
44695.929593
11
79580.751429
21
44689.357090
0
LINE
8
Layer 1
10
79580.751429
20
44689.357090
11
79601.284385
21
44682.284270
0
LINE
8
Layer 1
10
79601.284385
20
44682.284270
11
79621.633033
21
44674.714909
0
LINE
8
Layer 1
10
79621.633033
20
44674.714909
11
79641.788255
21
44666.652784
0
LINE
8
Layer 1
10
79641.788255
20
44666.652784
11
79661.740932
21
44658.101673
0
LINE
8
Layer 1
10
79661.740932
20
44658.101673
11
79681.481945
21
44649.065352
0
LINE
8
Layer 1
10
79681.481945
20
44649.065352
11
79701.002177
21
44639.547600
0
LINE
8
Layer 1
10
79701.002177
20
44639.547600
11
79720.292507
21
44629.552192
0
LINE
8
Layer 1
10
79720.292507
20
44629.552192
11
79739.343819
21
44619.082905
0
LINE
8
Layer 1
10
79739.343819
20
44619.082905
11
79758.146992
21
44608.143518
0
LINE
8
Layer 1
10
79758.146992
20
44608.143518
11
79776.692909
21
44596.737807
0
LINE
8
Layer 1
10
79776.692909
20
44596.737807
11
79794.972450
21
44584.869548
0
LINE
8
Layer 1
10
79794.972450
20
44584.869548
11
79812.976498
21
44572.542520
0
LINE
8
Layer 1
10
79812.976498
20
44572.542520
11
79830.695933
21
44559.760498
0
LINE
8
Layer 1
10
79830.695933
20
44559.760498
11
79848.121636
21
44546.527261
0
LINE
8
Layer 1
10
79848.121636
20
44546.527261
11
79865.244490
21
44532.846585
0
LINE
8
Layer 1
10
79865.244490
20
44532.846585
11
79882.055376
21
44518.722248
0
LINE
8
Layer 1
10
79882.055376
20
44518.722248
11
79898.545174
21
44504.158025
0
LINE
8
Layer 1
10
79898.545174
20
44504.158025
11
79914.704767
21
44489.157696
0
LINE
8
Layer 1
10
79914.704767
20
44489.157696
11
79930.525035
21
44473.725035
0
LINE
8
Layer 1
10
79930.525035
20
44473.725035
11
79945.957696
21
44457.904767
0
LINE
8
Layer 1
10
79945.957696
20
44457.904767
11
79960.958025
21
44441.745174
0
LINE
8
Layer 1
10
79960.958025
20
44441.745174
11
79975.522248
21
44425.255376
0
LINE
8
Layer 1
10
79975.522248
20
44425.255376
11
79989.646585
21
44408.444490
0
LINE
8
Layer 1
10
79989.646585
20
44408.444490
11
80003.327261
21
44391.321636
0
LINE
8
Layer 1
10
80003.327261
20
44391.321636
11
80016.560498
21
44373.895933
0
LINE
8
Layer 1
10
80016.560498
20
44373.895933
11
80029.342520
21
44356.176498
0
LINE
8
Layer 1
10
80029.342520
20
44356.176498
11
80041.669548
21
44338.172450
0
LINE
8
Layer 1
10
80041.669548
20
44338.172450
11
80053.537807
21
44319.892909
0
LINE
8
Layer 1
10
80053.537807
20
44319.892909
11
80064.943518
21
44301.346992
0
LINE
8
Layer 1
10
80064.943518
20
44301.346992
11
80075.882905
21
44282.543819
0
LINE
8
Layer 1
10
80075.882905
20
44282.543819
11
80086.352192
21
44263.492507
0
LINE
8
Layer 1
10
80086.352192
20
44263.492507
11
80096.347600
21
44244.202177
0
LINE
8
Layer 1
10
80096.347600
20
44244.202177
11
80105.865352
21
44224.681945
0
LINE
8
Layer 1
10
80105.865352
20
44224.681945
11
80114.901673
21
44204.940932
0
LINE
8
Layer 1
10
80114.901673
20
44204.940932
11
80123.452784
21
44184.988255
0
LINE
8
Layer 1
10
80123.452784
20
44184.988255
11
80131.514909
21
44164.833033
0
LINE
8
Layer 1
10
80131.514909
20
44164.833033
11
80139.084270
21
44144.484385
0
LINE
8
Layer 1
10
80139.084270
20
44144.484385
11
80146.157090
21
44123.951429
0
LINE
8
Layer 1
10
80146.157090
20
44123.951429
11
80152.729593
21
44103.243285
0
LINE
8
Layer 1
10
80152.729593
20
44103.243285
11
80158.798001
21
44082.369070
0
LINE
8
Layer 1
10
80158.798001
20
44082.369070
11
80164.358537
21
44061.337904
0
LINE
8
Layer 1
10
80164.358537
20
44061.337904
11
80169.407425
21
44040.158905
0
LINE
8
Layer 1
10
80169.407425
20
44040.158905
11
80173.940887
21
44018.841191
0
LINE
8
Layer 1
10
80173.940887
20
44018.841191
11
80177.955145
21
43997.393881
0
LINE
8
Layer 1
10
80177.955145
20
43997.393881
11
80181.446424
21
43975.826095
0
LINE
8
Layer 1
10
80181.446424
20
43975.826095
11
80184.410946
21
43954.146950
0
LINE
8
Layer 1
10
80184.410946
20
43954.146950
11
80186.844933
21
43932.365565
0
LINE
8
Layer 1
10
80186.844933
20
43932.365565
11
80188.744609
21
43910.491059
0
LINE
8
Layer 1
10
80188.744609
20
43910.491059
11
80190.106197
21
43888.532550
0
LINE
8
Layer 1
10
80190.106197
20
43888.532550
11
80190.925920
21
43866.499158
0
LINE
8
Layer 1
10
80190.925920
20
43866.499158
11
80191.200000
21
43844.400000
0
LINE
8
Layer 1
10
80191.200000
20
38124.400000
11
80191.200000
21
43844.400000
0
LINE
8
Layer 1
10
80191.200000
20
38124.400000
11
80190.925920
21
38102.300842
0
LINE
8
Layer 1
10
80190.925920
20
38102.300842
11
80190.106197
21
38080.267450
0
LINE
8
Layer 1
10
80190.106197
20
38080.267450
11
80188.744609
21
38058.308941
0
LINE
8
Layer 1
10
80188.744609
20
38058.308941
11
80186.844933
21
38036.434435
0
LINE
8
Layer 1
10
80186.844933
20
38036.434435
11
80184.410946
21
38014.653050
0
LINE
8
Layer 1
10
80184.410946
20
38014.653050
11
80181.446424
21
37992.973905
0
LINE
8
Layer 1
10
80181.446424
20
37992.973905
11
80177.955145
21
37971.406119
0
LINE
8
Layer 1
10
80177.955145
20
37971.406119
11
80173.940887
21
37949.958809
0
LINE
8
Layer 1
10
80173.940887
20
37949.958809
11
80169.407425
21
37928.641095
0
LINE
8
Layer 1
10
80169.407425
20
37928.641095
11
80164.358537
21
37907.462096
0
LINE
8
Layer 1
10
80164.358537
20
37907.462096
11
80158.798001
21
37886.430930
0
LINE
8
Layer 1
10
80158.798001
20
37886.430930
11
80152.729593
21
37865.556715
0
LINE
8
Layer 1
10
80152.729593
20
37865.556715
11
80146.157090
21
37844.848571
0
LINE
8
Layer 1
10
80146.157090
20
37844.848571
11
80139.084270
21
37824.315615
0
LINE
8
Layer 1
10
80139.084270
20
37824.315615
11
80131.514909
21
37803.966967
0
LINE
8
Layer 1
10
80131.514909
20
37803.966967
11
80123.452784
21
37783.811745
0
LINE
8
Layer 1
10
80123.452784
20
37783.811745
11
80114.901673
21
37763.859068
0
LINE
8
Layer 1
10
80114.901673
20
37763.859068
11
80105.865352
21
37744.118055
0
LINE
8
Layer 1
10
80105.865352
20
37744.118055
11
80096.347600
21
37724.597823
0
LINE
8
Layer 1
10
80096.347600
20
37724.597823
11
80086.352192
21
37705.307493
0
LINE
8
Layer 1
10
80086.352192
20
37705.307493
11
80075.882905
21
37686.256181
0
LINE
8
Layer 1
10
80075.882905
20
37686.256181
11
80064.943518
21
37667.453008
0
LINE
8
Layer 1
10
80064.943518
20
37667.453008
11
80053.537807
21
37648.907091
0
LINE
8
Layer 1
10
80053.537807
20
37648.907091
11
80041.669548
21
37630.627550
0
LINE
8
Layer 1
10
80041.669548
20
37630.627550
11
80029.342520
21
37612.623502
0
LINE
8
Layer 1
10
80029.342520
20
37612.623502
11
80016.560498
21
37594.904067
0
LINE
8
Layer 1
10
80016.560498
20
37594.904067
11
80003.327261
21
37577.478364
0
LINE
8
Layer 1
10
80003.327261
20
37577.478364
11
79989.646585
21
37560.355510
0
LINE
8
Layer 1
10
79989.646585
20
37560.355510
11
79975.522248
21
37543.544624
0
LINE
8
Layer 1
10
79975.522248
20
37543.544624
11
79960.958025
21
37527.054826
0
LINE
8
Layer 1
10
79960.958025
20
37527.054826
11
79945.957696
21
37510.895233
0
LINE
8
Layer 1
10
79945.957696
20
37510.895233
11
79930.525035
21
37495.074965
0
LINE
8
Layer 1
10
79930.525035
20
37495.074965
11
79914.704767
21
37479.642304
0
LINE
8
Layer 1
10
79914.704767
20
37479.642304
11
79898.545174
21
37464.641975
0
LINE
8
Layer 1
10
79898.545174
20
37464.641975
11
79882.055376
21
37450.077752
0
LINE
8
Layer 1
10
79882.055376
20
37450.077752
11
79865.244490
21
37435.953415
0
LINE
8
Layer 1
10
79865.244490
20
37435.953415
11
79848.121636
21
37422.272739
0
LINE
8
Layer 1
10
79848.121636
20
37422.272739
11
79830.695933
21
37409.039502
0
LINE
8
Layer 1
10
79830.695933
20
37409.039502
11
79812.976498
21
37396.257480
0
LINE
8
Layer 1
10
79812.976498
20
37396.257480
11
79794.972450
21
37383.930452
0
LINE
8
Layer 1
10
79794.972450
20
37383.930452
11
79776.692909
21
37372.062193
0
LINE
8
Layer 1
10
79776.692909
20
37372.062193
11
79758.146992
21
37360.656482
0
LINE
8
Layer 1
10
79758.146992
20
37360.656482
11
79739.343819
21
37349.717095
0
LINE
8
Layer 1
10
79739.343819
20
37349.717095
11
79720.292507
21
37339.247808
0
LINE
8
Layer 1
10
79720.292507
20
37339.247808
11
79701.002177
21
37329.252400
0
LINE
8
Layer 1
10
79701.002177
20
37329.252400
11
79681.481945
21
37319.734648
0
LINE
8
Layer 1
10
79681.481945
20
37319.734648
11
79661.740932
21
37310.698327
0
LINE
8
Layer 1
10
79661.740932
20
37310.698327
11
79641.788255
21
37302.147216
0
LINE
8
Layer 1
10
79641.788255
20
37302.147216
11
79621.633033
21
37294.085091
0
LINE
8
Layer 1
10
79621.633033
20
37294.085091
11
79601.284385
21
37286.515730
0
LINE
8
Layer 1
10
79601.284385
20
37286.515730
11
79580.751429
21
37279.442910
0
LINE
8
Layer 1
10
79580.751429
20
37279.442910
11
79560.043285
21
37272.870407
0
LINE
8
Layer 1
10
79560.043285
20
37272.870407
11
79539.169070
21
37266.801999
0
LINE
8
Layer 1
10
79539.169070
20
37266.801999
11
79518.137904
21
37261.241463
0
LINE
8
Layer 1
10
79518.137904
20
37261.241463
11
79496.958905
21
37256.192575
0
LINE
8
Layer 1
10
79496.958905
20
37256.192575
11
79475.641191
21
37251.659113
0
LINE
8
Layer 1
10
79475.641191
20
37251.659113
11
79454.193881
21
37247.644855
0
LINE
8
Layer 1
10
79454.193881
20
37247.644855
11
79432.626095
21
37244.153576
0
LINE
8
Layer 1
10
79432.626095
20
37244.153576
11
79410.946950
21
37241.189054
0
LINE
8
Layer 1
10
79410.946950
20
37241.189054
11
79389.165565
21
37238.755067
0
LINE
8
Layer 1
10
79389.165565
20
37238.755067
11
79367.291059
21
37236.855391
0
LINE
8
Layer 1
10
79367.291059
20
37236.855391
11
79345.332550
21
37235.493803
0
LINE
8
Layer 1
10
79345.332550
20
37235.493803
11
79323.299158
21
37234.674080
0
LINE
8
Layer 1
10
79323.299158
20
37234.674080
11
79301.200000
21
37234.400000
0
LINE
8
Layer 1
10
77331.200000
20
37234.400000
11
79301.200000
21
37234.400000
0
LINE
8
Layer 1
10
76441.200000
20
36344.400000
11
76441.474080
21
36366.499158
0
LINE
8
Layer 1
10
76441.474080
20
36366.499158
11
76442.293803
21
36388.532550
0
LINE
8
Layer 1
10
76442.293803
20
36388.532550
11
76443.655391
21
36410.491059
0
LINE
8
Layer 1
10
76443.655391
20
36410.491059
11
76445.555067
21
36432.365565
0
LINE
8
Layer 1
10
76445.555067
20
36432.365565
11
76447.989054
21
36454.146950
0
LINE
8
Layer 1
10
76447.989054
20
36454.146950
11
76450.953576
21
36475.826095
0
LINE
8
Layer 1
10
76450.953576
20
36475.826095
11
76454.444855
21
36497.393881
0
LINE
8
Layer 1
10
76454.444855
20
36497.393881
11
76458.459113
21
36518.841191
0
LINE
8
Layer 1
10
76458.459113
20
36518.841191
11
76462.992575
21
36540.158905
0
LINE
8
Layer 1
10
76462.992575
20
36540.158905
11
76468.041463
21
36561.337904
0
LINE
8
Layer 1
10
76468.041463
20
36561.337904
11
76473.601999
21
36582.369070
0
LINE
8
Layer 1
10
76473.601999
20
36582.369070
11
76479.670407
21
36603.243285
0
LINE
8
Layer 1
10
76479.670407
20
36603.243285
11
76486.242910
21
36623.951429
0
LINE
8
Layer 1
10
76486.242910
20
36623.951429
11
76493.315730
21
36644.484385
0
LINE
8
Layer 1
10
76493.315730
20
36644.484385
11
76500.885091
21
36664.833033
0
LINE
8
Layer 1
10
76500.885091
20
36664.833033
11
76508.947216
21
36684.988255
0
LINE
8
Layer 1
10
76508.947216
20
36684.988255
11
76517.498327
21
36704.940932
0
LINE
8
Layer 1
10
76517.498327
20
36704.940932
11
76526.534648
21
36724.681945
0
LINE
8
Layer 1
10
76526.534648
20
36724.681945
11
76536.052400
21
36744.202177
0
LINE
8
Layer 1
10
76536.052400
20
36744.202177
11
76546.047808
21
36763.492507
0
LINE
8
Layer 1
10
76546.047808
20
36763.492507
11
76556.517095
21
36782.543819
0
LINE
8
Layer 1
10
76556.517095
20
36782.543819
11
76567.456482
21
36801.346992
0
LINE
8
Layer 1
10
76567.456482
20
36801.346992
11
76578.862193
21
36819.892909
0
LINE
8
Layer 1
10
76578.862193
20
36819.892909
11
76590.730452
21
36838.172450
0
LINE
8
Layer 1
10
76590.730452
20
36838.172450
11
76603.057480
21
36856.176498
0
LINE
8
Layer 1
10
76603.057480
20
36856.176498
11
76615.839502
21
36873.895933
0
LINE
8
Layer 1
10
76615.839502
20
36873.895933
11
76629.072739
21
36891.321636
0
LINE
8
Layer 1
10
76629.072739
20
36891.321636
11
76642.753415
21
36908.444490
0
LINE
8
Layer 1
10
76642.753415
20
36908.444490
11
76656.877752
21
36925.255376
0
LINE
8
Layer 1
10
76656.877752
20
36925.255376
11
76671.441975
21
36941.745174
0
LINE
8
Layer 1
10
76671.441975
20
36941.745174
11
76686.442304
21
36957.904767
0
LINE
8
Layer 1
10
76686.442304
20
36957.904767
11
76701.874965
21
36973.725035
0
LINE
8
Layer 1
10
76701.874965
20
36973.725035
11
76717.695233
21
36989.157696
0
LINE
8
Layer 1
10
76717.695233
20
36989.157696
11
76733.854826
21
37004.158025
0
LINE
8
Layer 1
10
76733.854826
20
37004.158025
11
76750.344624
21
37018.722248
0
LINE
8
Layer 1
10
76750.344624
20
37018.722248
11
76767.155510
21
37032.846585
0
LINE
8
Layer 1
10
76767.155510
20
37032.846585
11
76784.278364
21
37046.527261
0
LINE
8
Layer 1
10
76784.278364
20
37046.527261
11
76801.704067
21
37059.760498
0
LINE
8
Layer 1
10
76801.704067
20
37059.760498
11
76819.423502
21
37072.542520
0
LINE
8
Layer 1
10
76819.423502
20
37072.542520
11
76837.427550
21
37084.869548
0
LINE
8
Layer 1
10
76837.427550
20
37084.869548
11
76855.707091
21
37096.737807
0
LINE
8
Layer 1
10
76855.707091
20
37096.737807
11
76874.253008
21
37108.143518
0
LINE
8
Layer 1
10
76874.253008
20
37108.143518
11
76893.056181
21
37119.082905
0
LINE
8
Layer 1
10
76893.056181
20
37119.082905
11
76912.107493
21
37129.552192
0
LINE
8
Layer 1
10
76912.107493
20
37129.552192
11
76931.397823
21
37139.547600
0
LINE
8
Layer 1
10
76931.397823
20
37139.547600
11
76950.918055
21
37149.065352
0
LINE
8
Layer 1
10
76950.918055
20
37149.065352
11
76970.659068
21
37158.101673
0
LINE
8
Layer 1
10
76970.659068
20
37158.101673
11
76990.611745
21
37166.652784
0
LINE
8
Layer 1
10
76990.611745
20
37166.652784
11
77010.766967
21
37174.714909
0
LINE
8
Layer 1
10
77010.766967
20
37174.714909
11
77031.115615
21
37182.284270
0
LINE
8
Layer 1
10
77031.115615
20
37182.284270
11
77051.648571
21
37189.357090
0
LINE
8
Layer 1
10
77051.648571
20
37189.357090
11
77072.356715
21
37195.929593
0
LINE
8
Layer 1
10
77072.356715
20
37195.929593
11
77093.230930
21
37201.998001
0
LINE
8
Layer 1
10
77093.230930
20
37201.998001
11
77114.262096
21
37207.558537
0
LINE
8
Layer 1
10
77114.262096
20
37207.558537
11
77135.441095
21
37212.607425
0
LINE
8
Layer 1
10
77135.441095
20
37212.607425
11
77156.758809
21
37217.140887
0
LINE
8
Layer 1
10
77156.758809
20
37217.140887
11
77178.206119
21
37221.155145
0
LINE
8
Layer 1
10
77178.206119
20
37221.155145
11
77199.773905
21
37224.646424
0
LINE
8
Layer 1
10
77199.773905
20
37224.646424
11
77221.453050
21
37227.610946
0
LINE
8
Layer 1
10
77221.453050
20
37227.610946
11
77243.234435
21
37230.044933
0
LINE
8
Layer 1
10
77243.234435
20
37230.044933
11
77265.108941
21
37231.944609
0
LINE
8
Layer 1
10
77265.108941
20
37231.944609
11
77287.067450
21
37233.306197
0
LINE
8
Layer 1
10
77287.067450
20
37233.306197
11
77309.100842
21
37234.125920
0
LINE
8
Layer 1
10
77309.100842
20
37234.125920
11
77331.200000
21
37234.400000
0
LINE
8
Layer 1
10
76441.200000
20
30624.400000
11
76441.200000
21
36344.400000
0
LINE
8
Layer 1
10
75551.200000
20
29734.400000
11
75456.200000
21
29734.400000
0
LINE
8
Layer 1
10
76441.200000
20
30624.400000
11
76440.925920
21
30602.300842
0
LINE
8
Layer 1
10
76440.925920
20
30602.300842
11
76440.106197
21
30580.267450
0
LINE
8
Layer 1
10
76440.106197
20
30580.267450
11
76438.744609
21
30558.308941
0
LINE
8
Layer 1
10
76438.744609
20
30558.308941
11
76436.844933
21
30536.434435
0
LINE
8
Layer 1
10
76436.844933
20
30536.434435
11
76434.410946
21
30514.653050
0
LINE
8
Layer 1
10
76434.410946
20
30514.653050
11
76431.446424
21
30492.973905
0
LINE
8
Layer 1
10
76431.446424
20
30492.973905
11
76427.955145
21
30471.406119
0
LINE
8
Layer 1
10
76427.955145
20
30471.406119
11
76423.940887
21
30449.958809
0
LINE
8
Layer 1
10
76423.940887
20
30449.958809
11
76419.407425
21
30428.641095
0
LINE
8
Layer 1
10
76419.407425
20
30428.641095
11
76414.358537
21
30407.462096
0
LINE
8
Layer 1
10
76414.358537
20
30407.462096
11
76408.798001
21
30386.430930
0
LINE
8
Layer 1
10
76408.798001
20
30386.430930
11
76402.729593
21
30365.556715
0
LINE
8
Layer 1
10
76402.729593
20
30365.556715
11
76396.157090
21
30344.848571
0
LINE
8
Layer 1
10
76396.157090
20
30344.848571
11
76389.084270
21
30324.315615
0
LINE
8
Layer 1
10
76389.084270
20
30324.315615
11
76381.514909
21
30303.966967
0
LINE
8
Layer 1
10
76381.514909
20
30303.966967
11
76373.452784
21
30283.811745
0
LINE
8
Layer 1
10
76373.452784
20
30283.811745
11
76364.901673
21
30263.859068
0
LINE
8
Layer 1
10
76364.901673
20
30263.859068
11
76355.865352
21
30244.118055
0
LINE
8
Layer 1
10
76355.865352
20
30244.118055
11
76346.347600
21
30224.597823
0
LINE
8
Layer 1
10
76346.347600
20
30224.597823
11
76336.352192
21
30205.307493
0
LINE
8
Layer 1
10
76336.352192
20
30205.307493
11
76325.882905
21
30186.256181
0
LINE
8
Layer 1
10
76325.882905
20
30186.256181
11
76314.943518
21
30167.453008
0
LINE
8
Layer 1
10
76314.943518
20
30167.453008
11
76303.537807
21
30148.907091
0
LINE
8
Layer 1
10
76303.537807
20
30148.907091
11
76291.669548
21
30130.627550
0
LINE
8
Layer 1
10
76291.669548
20
30130.627550
11
76279.342520
21
30112.623502
0
LINE
8
Layer 1
10
76279.342520
20
30112.623502
11
76266.560498
21
30094.904067
0
LINE
8
Layer 1
10
76266.560498
20
30094.904067
11
76253.327261
21
30077.478364
0
LINE
8
Layer 1
10
76253.327261
20
30077.478364
11
76239.646585
21
30060.355510
0
LINE
8
Layer 1
10
76239.646585
20
30060.355510
11
76225.522248
21
30043.544624
0
LINE
8
Layer 1
10
76225.522248
20
30043.544624
11
76210.958025
21
30027.054826
0
LINE
8
Layer 1
10
76210.958025
20
30027.054826
11
76195.957696
21
30010.895233
0
LINE
8
Layer 1
10
76195.957696
20
30010.895233
11
76180.525035
21
29995.074965
0
LINE
8
Layer 1
10
76180.525035
20
29995.074965
11
76164.704767
21
29979.642304
0
LINE
8
Layer 1
10
76164.704767
20
29979.642304
11
76148.545174
21
29964.641975
0
LINE
8
Layer 1
10
76148.545174
20
29964.641975
11
76132.055376
21
29950.077752
0
LINE
8
Layer 1
10
76132.055376
20
29950.077752
11
76115.244490
21
29935.953415
0
LINE
8
Layer 1
10
76115.244490
20
29935.953415
11
76098.121636
21
29922.272739
0
LINE
8
Layer 1
10
76098.121636
20
29922.272739
11
76080.695933
21
29909.039502
0
LINE
8
Layer 1
10
76080.695933
20
29909.039502
11
76062.976498
21
29896.257480
0
LINE
8
Layer 1
10
76062.976498
20
29896.257480
11
76044.972450
21
29883.930452
0
LINE
8
Layer 1
10
76044.972450
20
29883.930452
11
76026.692909
21
29872.062193
0
LINE
8
Layer 1
10
76026.692909
20
29872.062193
11
76008.146992
21
29860.656482
0
LINE
8
Layer 1
10
76008.146992
20
29860.656482
11
75989.343819
21
29849.717095
0
LINE
8
Layer 1
10
75989.343819
20
29849.717095
11
75970.292507
21
29839.247808
0
LINE
8
Layer 1
10
75970.292507
20
29839.247808
11
75951.002177
21
29829.252400
0
LINE
8
Layer 1
10
75951.002177
20
29829.252400
11
75931.481945
21
29819.734648
0
LINE
8
Layer 1
10
75931.481945
20
29819.734648
11
75911.740932
21
29810.698327
0
LINE
8
Layer 1
10
75911.740932
20
29810.698327
11
75891.788255
21
29802.147216
0
LINE
8
Layer 1
10
75891.788255
20
29802.147216
11
75871.633033
21
29794.085091
0
LINE
8
Layer 1
10
75871.633033
20
29794.085091
11
75851.284385
21
29786.515730
0
LINE
8
Layer 1
10
75851.284385
20
29786.515730
11
75830.751429
21
29779.442910
0
LINE
8
Layer 1
10
75830.751429
20
29779.442910
11
75810.043285
21
29772.870407
0
LINE
8
Layer 1
10
75810.043285
20
29772.870407
11
75789.169070
21
29766.801999
0
LINE
8
Layer 1
10
75789.169070
20
29766.801999
11
75768.137904
21
29761.241463
0
LINE
8
Layer 1
10
75768.137904
20
29761.241463
11
75746.958905
21
29756.192575
0
LINE
8
Layer 1
10
75746.958905
20
29756.192575
11
75725.641191
21
29751.659113
0
LINE
8
Layer 1
10
75725.641191
20
29751.659113
11
75704.193881
21
29747.644855
0
LINE
8
Layer 1
10
75704.193881
20
29747.644855
11
75682.626095
21
29744.153576
0
LINE
8
Layer 1
10
75682.626095
20
29744.153576
11
75660.946950
21
29741.189054
0
LINE
8
Layer 1
10
75660.946950
20
29741.189054
11
75639.165565
21
29738.755067
0
LINE
8
Layer 1
10
75639.165565
20
29738.755067
11
75617.291059
21
29736.855391
0
LINE
8
Layer 1
10
75617.291059
20
29736.855391
11
75595.332550
21
29735.493803
0
LINE
8
Layer 1
10
75595.332550
20
29735.493803
11
75573.299158
21
29734.674080
0
LINE
8
Layer 1
10
75573.299158
20
29734.674080
11
75551.200000
21
29734.400000
0
LINE
8
Layer 1
10
74566.200000
20
18469.400000
11
74566.200000
21
28844.400000
0
LINE
8
Layer 1
10
74566.200000
20
18469.400000
11
74565.911187
21
18457.747023
0
LINE
8
Layer 1
10
74565.911187
20
18457.747023
11
74565.050067
21
18446.173137
0
LINE
8
Layer 1
10
74565.050067
20
18446.173137
11
74563.624618
21
18434.697604
0
LINE
8
Layer 1
10
74563.624618
20
18434.697604
11
74561.642818
21
18423.339686
0
LINE
8
Layer 1
10
74561.642818
20
18423.339686
11
74559.112648
21
18412.118643
0
LINE
8
Layer 1
10
74559.112648
20
18412.118643
11
74556.042084
21
18401.053739
0
LINE
8
Layer 1
10
74556.042084
20
18401.053739
11
74552.439105
21
18390.164235
0
LINE
8
Layer 1
10
74552.439105
20
18390.164235
11
74548.311690
21
18379.469393
0
LINE
8
Layer 1
10
74548.311690
20
18379.469393
11
74543.667818
21
18368.988475
0
LINE
8
Layer 1
10
74543.667818
20
18368.988475
11
74538.515466
21
18358.740742
0
LINE
8
Layer 1
10
74538.515466
20
18358.740742
11
74532.862614
21
18348.745457
0
LINE
8
Layer 1
10
74532.862614
20
18348.745457
11
74526.717240
21
18339.021881
0
LINE
8
Layer 1
10
74526.717240
20
18339.021881
11
74520.087323
21
18329.589276
0
LINE
8
Layer 1
10
74520.087323
20
18329.589276
11
74512.980840
21
18320.466904
0
LINE
8
Layer 1
10
74512.980840
20
18320.466904
11
74505.405771
21
18311.674027
0
LINE
8
Layer 1
10
74505.405771
20
18311.674027
11
74497.370094
21
18303.229906
0
LINE
8
Layer 1
10
74497.370094
20
18303.229906
11
74488.925973
21
18295.194229
0
LINE
8
Layer 1
10
74488.925973
20
18295.194229
11
74480.133096
21
18287.619160
0
LINE
8
Layer 1
10
74480.133096
20
18287.619160
11
74471.010724
21
18280.512677
0
LINE
8
Layer 1
10
74471.010724
20
18280.512677
11
74461.578119
21
18273.882760
0
LINE
8
Layer 1
10
74461.578119
20
18273.882760
11
74451.854543
21
18267.737386
0
LINE
8
Layer 1
10
74451.854543
20
18267.737386
11
74441.859258
21
18262.084534
0
LINE
8
Layer 1
10
74441.859258
20
18262.084534
11
74431.611525
21
18256.932182
0
LINE
8
Layer 1
10
74431.611525
20
18256.932182
11
74421.130607
21
18252.288310
0
LINE
8
Layer 1
10
74421.130607
20
18252.288310
11
74410.435765
21
18248.160895
0
LINE
8
Layer 1
10
74410.435765
20
18248.160895
11
74399.546261
21
18244.557916
0
LINE
8
Layer 1
10
74399.546261
20
18244.557916
11
74388.481357
21
18241.487352
0
LINE
8
Layer 1
10
74388.481357
20
18241.487352
11
74377.260314
21
18238.957182
0
LINE
8
Layer 1
10
74377.260314
20
18238.957182
11
74365.902396
21
18236.975382
0
LINE
8
Layer 1
10
74365.902396
20
18236.975382
11
74354.426863
21
18235.549933
0
LINE
8
Layer 1
10
74354.426863
20
18235.549933
11
74342.852977
21
18234.688813
0
LINE
8
Layer 1
10
74342.852977
20
18234.688813
11
74331.200000
21
18234.400000
0
LINE
8
Layer 1
10
53816.200000
20
18234.400000
11
74331.200000
21
18234.400000
0
LINE
8
Layer 1
10
17221.200000
20
18234.400000
11
50251.200000
21
18234.400000
0
LINE
8
Layer 1
10
17221.000000
20
18234.400000
11
17198.775043
21
18234.678891
0
LINE
8
Layer 1
10
17198.775043
20
18234.678891
11
17176.617763
21
18235.512689
0
LINE
8
Layer 1
10
17176.617763
20
18235.512689
11
17154.537516
21
18236.897471
0
LINE
8
Layer 1
10
17154.537516
20
18236.897471
11
17132.543659
21
18238.829314
0
LINE
8
Layer 1
10
17132.543659
20
18238.829314
11
17110.645546
21
18241.304295
0
LINE
8
Layer 1
10
17110.645546
20
18241.304295
11
17088.852535
21
18244.318490
0
LINE
8
Layer 1
10
17088.852535
20
18244.318490
11
17067.173982
21
18247.867975
0
LINE
8
Layer 1
10
17067.173982
20
18247.867975
11
17045.619241
21
18251.948828
0
LINE
8
Layer 1
10
17045.619241
20
18251.948828
11
17024.197670
21
18256.557125
0
LINE
8
Layer 1
10
17024.197670
20
18256.557125
11
17002.918624
21
18261.688943
0
LINE
8
Layer 1
10
17002.918624
20
18261.688943
11
16981.791459
21
18267.340358
0
LINE
8
Layer 1
10
16981.791459
20
18267.340358
11
16960.825532
21
18273.507447
0
LINE
8
Layer 1
10
16960.825532
20
18273.507447
11
16940.030198
21
18280.186286
0
LINE
8
Layer 1
10
16940.030198
20
18280.186286
11
16919.414813
21
18287.372953
0
LINE
8
Layer 1
10
16919.414813
20
18287.372953
11
16898.988733
21
18295.063523
0
LINE
8
Layer 1
10
16898.988733
20
18295.063523
11
16878.761315
21
18303.254075
0
LINE
8
Layer 1
10
16878.761315
20
18303.254075
11
16858.741914
21
18311.940683
0
LINE
8
Layer 1
10
16858.741914
20
18311.940683
11
16838.939887
21
18321.119425
0
LINE
8
Layer 1
10
16838.939887
20
18321.119425
11
16819.364589
21
18330.786377
0
LINE
8
Layer 1
10
16819.364589
20
18330.786377
11
16800.025376
21
18340.937617
0
LINE
8
Layer 1
10
16800.025376
20
18340.937617
11
16780.931604
21
18351.569220
0
LINE
8
Layer 1
10
16780.931604
20
18351.569220
11
16762.092630
21
18362.677264
0
LINE
8
Layer 1
10
16762.092630
20
18362.677264
11
16743.517810
21
18374.257824
0
LINE
8
Layer 1
10
16743.517810
20
18374.257824
11
16725.216498
21
18386.306978
0
LINE
8
Layer 1
10
16725.216498
20
18386.306978
11
16707.198052
21
18398.820803
0
LINE
8
Layer 1
10
16707.198052
20
18398.820803
11
16689.471827
21
18411.795374
0
LINE
8
Layer 1
10
16689.471827
20
18411.795374
11
16672.047180
21
18425.226769
0
LINE
8
Layer 1
10
16672.047180
20
18425.226769
11
16654.933466
21
18439.111064
0
LINE
8
Layer 1
10
16654.933466
20
18439.111064
11
16638.140042
21
18453.444336
0
LINE
8
Layer 1
10
16638.140042
20
18453.444336
11
16621.676263
21
18468.222661
0
LINE
8
Layer 1
10
16621.676263
20
18468.222661
11
16605.551485
21
18483.442116
0
LINE
8
Layer 1
10
16605.551485
20
18483.442116
11
16589.775065
21
18499.098778
0
LINE
8
Layer 1
10
16589.775065
20
18499.098778
11
16574.396301
21
18515.146212
0
LINE
8
Layer 1
10
16574.396301
20
18515.146212
11
16559.460760
21
18531.534314
0
LINE
8
Layer 1
10
16559.460760
20
18531.534314
11
16544.972202
21
18548.253663
0
LINE
8
Layer 1
10
16544.972202
20
18548.253663
11
16530.934387
21
18565.294834
0
LINE
8
Layer 1
10
16530.934387
20
18565.294834
11
16517.351073
21
18582.648405
0
LINE
8
Layer 1
10
16517.351073
20
18582.648405
11
16504.226021
21
18600.304954
0
LINE
8
Layer 1
10
16504.226021
20
18600.304954
11
16491.562989
21
18618.255056
0
LINE
8
Layer 1
10
16491.562989
20
18618.255056
11
16479.365736
21
18636.489288
0
LINE
8
Layer 1
10
16479.365736
20
18636.489288
11
16467.638023
21
18654.998228
0
LINE
8
Layer 1
10
16467.638023
20
18654.998228
11
16456.383608
21
18673.772452
0
LINE
8
Layer 1
10
16456.383608
20
18673.772452
11
16445.606252
21
18692.802538
0
LINE
8
Layer 1
10
16445.606252
20
18692.802538
11
16435.309712
21
18712.079062
0
LINE
8
Layer 1
10
16435.309712
20
18712.079062
11
16425.497750
21
18731.592601
0
LINE
8
Layer 1
10
16425.497750
20
18731.592601
11
16416.174123
21
18751.333732
0
LINE
8
Layer 1
10
16416.174123
20
18751.333732
11
16407.342592
21
18771.293032
0
LINE
8
Layer 1
10
16407.342592
20
18771.293032
11
16399.006916
21
18791.461078
0
LINE
8
Layer 1
10
16399.006916
20
18791.461078
11
16391.170854
21
18811.828447
0
LINE
8
Layer 1
10
16391.170854
20
18811.828447
11
16383.838165
21
18832.385715
0
LINE
8
Layer 1
10
16383.838165
20
18832.385715
11
16377.012610
21
18853.123460
0
LINE
8
Layer 1
10
16377.012610
20
18853.123460
11
16370.697946
21
18874.032258
0
LINE
8
Layer 1
10
16370.697946
20
18874.032258
11
16364.897935
21
18895.102686
0
LINE
8
Layer 1
10
16364.897935
20
18895.102686
11
16359.616334
21
18916.325322
0
LINE
8
Layer 1
10
16359.616334
20
18916.325322
11
16354.856904
21
18937.690742
0
LINE
8
Layer 1
10
16354.856904
20
18937.690742
11
16350.623404
21
18959.189523
0
LINE
8
Layer 1
10
16350.623404
20
18959.189523
11
16346.919593
21
18980.812243
0
LINE
8
Layer 1
10
16346.919593
20
18980.812243
11
16343.749230
21
19002.549477
0
LINE
8
Layer 1
10
16343.749230
20
19002.549477
11
16341.116076
21
19024.391802
0
LINE
8
Layer 1
10
16341.116076
20
19024.391802
11
16339.023888
21
19046.329797
0
LINE
8
Layer 1
10
16339.023888
20
19046.329797
11
16337.476428
21
19068.354037
0
LINE
8
Layer 1
10
16337.476428
20
19068.354037
11
16336.477453
21
19090.455100
0
LINE
8
Layer 1
10
16336.477453
20
19090.455100
11
16336.030724
21
19112.623562
0
LINE
8
Layer 1
10
16336.030724
20
19112.623562
11
16336.140000
21
19134.850000
0
LINE
8
Layer 1
10
16337.200000
20
19135.400000
11
16336.200000
21
22004.400000
0
LINE
8
Layer 1
10
16341.200000
20
53334.400000
11
16341.200000
21
29909.400000
0
LINE
8
Layer 1
10
29861.200000
20
23414.400000
11
29866.200000
21
29909.400000
0
LINE
8
Layer 1
10
29861.200000
20
21994.400000
11
29861.200000
21
23414.400000
0
LINE
8
Layer 1
10
29866.200000
20
29909.400000
11
16341.200000
21
29909.400000
0
LINE
8
Layer 1
10
16336.200000
20
21994.400000
11
29861.200000
21
21994.400000
0
LINE
8
Layer 1
10
36111.200000
20
23414.400000
11
36111.200000
21
27249.400000
0
LINE
8
Layer 1
10
38211.200000
20
23414.400000
11
38211.200000
21
27029.400000
0
LINE
8
Layer 1
10
36756.200000
20
27894.400000
11
36111.200000
21
27249.400000
0
LINE
8
Layer 1
10
38211.200000
20
27029.400000
11
37346.200000
21
27894.400000
0
LINE
8
Layer 1
10
36111.200000
20
23414.400000
11
38211.200000
21
23414.400000
0
LINE
8
Layer 1
10
37346.200000
20
27894.400000
11
36756.200000
21
27894.400000
0
LINE
8
Layer 1
10
53816.200000
20
18234.400000
11
53816.200000
21
24174.400000
0
LINE
8
Layer 1
10
50251.200000
20
18234.400000
11
50251.200000
21
24174.400000
0
LINE
8
Layer 1
10
50251.200000
20
24174.400000
11
53816.200000
21
24174.400000
0
LINE
8
Layer 1
10
74566.200000
20
28844.400000
11
74566.474080
21
28866.499158
0
LINE
8
Layer 1
10
74566.474080
20
28866.499158
11
74567.293803
21
28888.532550
0
LINE
8
Layer 1
10
74567.293803
20
28888.532550
11
74568.655391
21
28910.491059
0
LINE
8
Layer 1
10
74568.655391
20
28910.491059
11
74570.555067
21
28932.365565
0
LINE
8
Layer 1
10
74570.555067
20
28932.365565
11
74572.989054
21
28954.146950
0
LINE
8
Layer 1
10
74572.989054
20
28954.146950
11
74575.953576
21
28975.826095
0
LINE
8
Layer 1
10
74575.953576
20
28975.826095
11
74579.444855
21
28997.393881
0
LINE
8
Layer 1
10
74579.444855
20
28997.393881
11
74583.459113
21
29018.841191
0
LINE
8
Layer 1
10
74583.459113
20
29018.841191
11
74587.992575
21
29040.158905
0
LINE
8
Layer 1
10
74587.992575
20
29040.158905
11
74593.041463
21
29061.337904
0
LINE
8
Layer 1
10
74593.041463
20
29061.337904
11
74598.601999
21
29082.369070
0
LINE
8
Layer 1
10
74598.601999
20
29082.369070
11
74604.670407
21
29103.243285
0
LINE
8
Layer 1
10
74604.670407
20
29103.243285
11
74611.242910
21
29123.951429
0
LINE
8
Layer 1
10
74611.242910
20
29123.951429
11
74618.315730
21
29144.484385
0
LINE
8
Layer 1
10
74618.315730
20
29144.484385
11
74625.885091
21
29164.833033
0
LINE
8
Layer 1
10
74625.885091
20
29164.833033
11
74633.947216
21
29184.988255
0
LINE
8
Layer 1
10
74633.947216
20
29184.988255
11
74642.498327
21
29204.940932
0
LINE
8
Layer 1
10
74642.498327
20
29204.940932
11
74651.534648
21
29224.681945
0
LINE
8
Layer 1
10
74651.534648
20
29224.681945
11
74661.052400
21
29244.202177
0
LINE
8
Layer 1
10
74661.052400
20
29244.202177
11
74671.047808
21
29263.492507
0
LINE
8
Layer 1
10
74671.047808
20
29263.492507
11
74681.517095
21
29282.543819
0
LINE
8
Layer 1
10
74681.517095
20
29282.543819
11
74692.456482
21
29301.346992
0
LINE
8
Layer 1
10
74692.456482
20
29301.346992
11
74703.862193
21
29319.892909
0
LINE
8
Layer 1
10
74703.862193
20
29319.892909
11
74715.730452
21
29338.172450
0
LINE
8
Layer 1
10
74715.730452
20
29338.172450
11
74728.057480
21
29356.176498
0
LINE
8
Layer 1
10
74728.057480
20
29356.176498
11
74740.839502
21
29373.895933
0
LINE
8
Layer 1
10
74740.839502
20
29373.895933
11
74754.072739
21
29391.321636
0
LINE
8
Layer 1
10
74754.072739
20
29391.321636
11
74767.753415
21
29408.444490
0
LINE
8
Layer 1
10
74767.753415
20
29408.444490
11
74781.877752
21
29425.255376
0
LINE
8
Layer 1
10
74781.877752
20
29425.255376
11
74796.441975
21
29441.745174
0
LINE
8
Layer 1
10
74796.441975
20
29441.745174
11
74811.442304
21
29457.904767
0
LINE
8
Layer 1
10
74811.442304
20
29457.904767
11
74826.874965
21
29473.725035
0
LINE
8
Layer 1
10
74826.874965
20
29473.725035
11
74842.695233
21
29489.157696
0
LINE
8
Layer 1
10
74842.695233
20
29489.157696
11
74858.854826
21
29504.158025
0
LINE
8
Layer 1
10
74858.854826
20
29504.158025
11
74875.344624
21
29518.722248
0
LINE
8
Layer 1
10
74875.344624
20
29518.722248
11
74892.155510
21
29532.846585
0
LINE
8
Layer 1
10
74892.155510
20
29532.846585
11
74909.278364
21
29546.527261
0
LINE
8
Layer 1
10
74909.278364
20
29546.527261
11
74926.704067
21
29559.760498
0
LINE
8
Layer 1
10
74926.704067
20
29559.760498
11
74944.423502
21
29572.542520
0
LINE
8
Layer 1
10
74944.423502
20
29572.542520
11
74962.427550
21
29584.869548
0
LINE
8
Layer 1
10
74962.427550
20
29584.869548
11
74980.707091
21
29596.737807
0
LINE
8
Layer 1
10
74980.707091
20
29596.737807
11
74999.253008
21
29608.143518
0
LINE
8
Layer 1
10
74999.253008
20
29608.143518
11
75018.056181
21
29619.082905
0
LINE
8
Layer 1
10
75018.056181
20
29619.082905
11
75037.107493
21
29629.552192
0
LINE
8
Layer 1
10
75037.107493
20
29629.552192
11
75056.397823
21
29639.547600
0
LINE
8
Layer 1
10
75056.397823
20
29639.547600
11
75075.918055
21
29649.065352
0
LINE
8
Layer 1
10
75075.918055
20
29649.065352
11
75095.659068
21
29658.101673
0
LINE
8
Layer 1
10
75095.659068
20
29658.101673
11
75115.611745
21
29666.652784
0
LINE
8
Layer 1
10
75115.611745
20
29666.652784
11
75135.766967
21
29674.714909
0
LINE
8
Layer 1
10
75135.766967
20
29674.714909
11
75156.115615
21
29682.284270
0
LINE
8
Layer 1
10
75156.115615
20
29682.284270
11
75176.648571
21
29689.357090
0
LINE
8
Layer 1
10
75176.648571
20
29689.357090
11
75197.356715
21
29695.929593
0
LINE
8
Layer 1
10
75197.356715
20
29695.929593
11
75218.230930
21
29701.998001
0
LINE
8
Layer 1
10
75218.230930
20
29701.998001
11
75239.262096
21
29707.558537
0
LINE
8
Layer 1
10
75239.262096
20
29707.558537
11
75260.441095
21
29712.607425
0
LINE
8
Layer 1
10
75260.441095
20
29712.607425
11
75281.758809
21
29717.140887
0
LINE
8
Layer 1
10
75281.758809
20
29717.140887
11
75303.206119
21
29721.155145
0
LINE
8
Layer 1
10
75303.206119
20
29721.155145
11
75324.773905
21
29724.646424
0
LINE
8
Layer 1
10
75324.773905
20
29724.646424
11
75346.453050
21
29727.610946
0
LINE
8
Layer 1
10
75346.453050
20
29727.610946
11
75368.234435
21
29730.044933
0
LINE
8
Layer 1
10
75368.234435
20
29730.044933
11
75390.108941
21
29731.944609
0
LINE
8
Layer 1
10
75390.108941
20
29731.944609
11
75412.067450
21
29733.306197
0
LINE
8
Layer 1
10
75412.067450
20
29733.306197
11
75434.100842
21
29734.125920
0
LINE
8
Layer 1
10
75434.100842
20
29734.125920
11
75456.200000
21
29734.400000
0
LINE
8
Layer 1
10
95982.100000
20
27643.400000
11
95970.447023
21
27643.688813
0
LINE
8
Layer 1
10
95970.447023
20
27643.688813
11
95958.873137
21
27644.549933
0
LINE
8
Layer 1
10
95958.873137
20
27644.549933
11
95947.397604
21
27645.975382
0
LINE
8
Layer 1
10
95947.397604
20
27645.975382
11
95936.039686
21
27647.957182
0
LINE
8
Layer 1
10
95936.039686
20
27647.957182
11
95924.818643
21
27650.487352
0
LINE
8
Layer 1
10
95924.818643
20
27650.487352
11
95913.753739
21
27653.557916
0
LINE
8
Layer 1
10
95913.753739
20
27653.557916
11
95902.864235
21
27657.160895
0
LINE
8
Layer 1
10
95902.864235
20
27657.160895
11
95892.169393
21
27661.288310
0
LINE
8
Layer 1
10
95892.169393
20
27661.288310
11
95881.688475
21
27665.932182
0
LINE
8
Layer 1
10
95881.688475
20
27665.932182
11
95871.440742
21
27671.084534
0
LINE
8
Layer 1
10
95871.440742
20
27671.084534
11
95861.445457
21
27676.737386
0
LINE
8
Layer 1
10
95861.445457
20
27676.737386
11
95851.721881
21
27682.882760
0
LINE
8
Layer 1
10
95851.721881
20
27682.882760
11
95842.289276
21
27689.512677
0
LINE
8
Layer 1
10
95842.289276
20
27689.512677
11
95833.166904
21
27696.619160
0
LINE
8
Layer 1
10
95833.166904
20
27696.619160
11
95824.374027
21
27704.194229
0
LINE
8
Layer 1
10
95824.374027
20
27704.194229
11
95815.929906
21
27712.229906
0
LINE
8
Layer 1
10
95815.929906
20
27712.229906
11
95807.894229
21
27720.674027
0
LINE
8
Layer 1
10
95807.894229
20
27720.674027
11
95800.319160
21
27729.466904
0
LINE
8
Layer 1
10
95800.319160
20
27729.466904
11
95793.212677
21
27738.589276
0
LINE
8
Layer 1
10
95793.212677
20
27738.589276
11
95786.582760
21
27748.021881
0
LINE
8
Layer 1
10
95786.582760
20
27748.021881
11
95780.437386
21
27757.745457
0
LINE
8
Layer 1
10
95780.437386
20
27757.745457
11
95774.784534
21
27767.740742
0
LINE
8
Layer 1
10
95774.784534
20
27767.740742
11
95769.632182
21
27777.988475
0
LINE
8
Layer 1
10
95769.632182
20
27777.988475
11
95764.988310
21
27788.469393
0
LINE
8
Layer 1
10
95764.988310
20
27788.469393
11
95760.860895
21
27799.164235
0
LINE
8
Layer 1
10
95760.860895
20
27799.164235
11
95757.257916
21
27810.053739
0
LINE
8
Layer 1
10
95757.257916
20
27810.053739
11
95754.187352
21
27821.118643
0
LINE
8
Layer 1
10
95754.187352
20
27821.118643
11
95751.657182
21
27832.339686
0
LINE
8
Layer 1
10
95751.657182
20
27832.339686
11
95749.675382
21
27843.697604
0
LINE
8
Layer 1
10
95749.675382
20
27843.697604
11
95748.249933
21
27855.173137
0
LINE
8
Layer 1
10
95748.249933
20
27855.173137
11
95747.388813
21
27866.747023
0
LINE
8
Layer 1
10
95747.388813
20
27866.747023
11
95747.100000
21
27878.400000
0
LINE
8
Layer 1
10
95747.100000
20
83133.400000
11
95747.374080
21
83155.499158
0
LINE
8
Layer 1
10
95747.374080
20
83155.499158
11
95748.193803
21
83177.532550
0
LINE
8
Layer 1
10
95748.193803
20
83177.532550
11
95749.555391
21
83199.491059
0
LINE
8
Layer 1
10
95749.555391
20
83199.491059
11
95751.455067
21
83221.365565
0
LINE
8
Layer 1
10
95751.455067
20
83221.365565
11
95753.889054
21
83243.146950
0
LINE
8
Layer 1
10
95753.889054
20
83243.146950
11
95756.853576
21
83264.826095
0
LINE
8
Layer 1
10
95756.853576
20
83264.826095
11
95760.344855
21
83286.393881
0
LINE
8
Layer 1
10
95760.344855
20
83286.393881
11
95764.359113
21
83307.841191
0
LINE
8
Layer 1
10
95764.359113
20
83307.841191
11
95768.892575
21
83329.158905
0
LINE
8
Layer 1
10
95768.892575
20
83329.158905
11
95773.941463
21
83350.337904
0
LINE
8
Layer 1
10
95773.941463
20
83350.337904
11
95779.501999
21
83371.369070
0
LINE
8
Layer 1
10
95779.501999
20
83371.369070
11
95785.570407
21
83392.243285
0
LINE
8
Layer 1
10
95785.570407
20
83392.243285
11
95792.142910
21
83412.951429
0
LINE
8
Layer 1
10
95792.142910
20
83412.951429
11
95799.215730
21
83433.484385
0
LINE
8
Layer 1
10
95799.215730
20
83433.484385
11
95806.785091
21
83453.833033
0
LINE
8
Layer 1
10
95806.785091
20
83453.833033
11
95814.847216
21
83473.988255
0
LINE
8
Layer 1
10
95814.847216
20
83473.988255
11
95823.398327
21
83493.940932
0
LINE
8
Layer 1
10
95823.398327
20
83493.940932
11
95832.434648
21
83513.681945
0
LINE
8
Layer 1
10
95832.434648
20
83513.681945
11
95841.952400
21
83533.202177
0
LINE
8
Layer 1
10
95841.952400
20
83533.202177
11
95851.947808
21
83552.492507
0
LINE
8
Layer 1
10
95851.947808
20
83552.492507
11
95862.417095
21
83571.543819
0
LINE
8
Layer 1
10
95862.417095
20
83571.543819
11
95873.356482
21
83590.346992
0
LINE
8
Layer 1
10
95873.356482
20
83590.346992
11
95884.762193
21
83608.892909
0
LINE
8
Layer 1
10
95884.762193
20
83608.892909
11
95896.630452
21
83627.172450
0
LINE
8
Layer 1
10
95896.630452
20
83627.172450
11
95908.957480
21
83645.176498
0
LINE
8
Layer 1
10
95908.957480
20
83645.176498
11
95921.739502
21
83662.895933
0
LINE
8
Layer 1
10
95921.739502
20
83662.895933
11
95934.972739
21
83680.321636
0
LINE
8
Layer 1
10
95934.972739
20
83680.321636
11
95948.653415
21
83697.444490
0
LINE
8
Layer 1
10
95948.653415
20
83697.444490
11
95962.777752
21
83714.255376
0
LINE
8
Layer 1
10
95962.777752
20
83714.255376
11
95977.341975
21
83730.745174
0
LINE
8
Layer 1
10
95977.341975
20
83730.745174
11
95992.342304
21
83746.904767
0
LINE
8
Layer 1
10
95992.342304
20
83746.904767
11
96007.774965
21
83762.725035
0
LINE
8
Layer 1
10
96007.774965
20
83762.725035
11
96023.595233
21
83778.157696
0
LINE
8
Layer 1
10
96023.595233
20
83778.157696
11
96039.754826
21
83793.158025
0
LINE
8
Layer 1
10
96039.754826
20
83793.158025
11
96056.244624
21
83807.722248
0
LINE
8
Layer 1
10
96056.244624
20
83807.722248
11
96073.055510
21
83821.846585
0
LINE
8
Layer 1
10
96073.055510
20
83821.846585
11
96090.178364
21
83835.527261
0
LINE
8
Layer 1
10
96090.178364
20
83835.527261
11
96107.604067
21
83848.760498
0
LINE
8
Layer 1
10
96107.604067
20
83848.760498
11
96125.323502
21
83861.542520
0
LINE
8
Layer 1
10
96125.323502
20
83861.542520
11
96143.327550
21
83873.869548
0
LINE
8
Layer 1
10
96143.327550
20
83873.869548
11
96161.607091
21
83885.737807
0
LINE
8
Layer 1
10
96161.607091
20
83885.737807
11
96180.153008
21
83897.143518
0
LINE
8
Layer 1
10
96180.153008
20
83897.143518
11
96198.956181
21
83908.082905
0
LINE
8
Layer 1
10
96198.956181
20
83908.082905
11
96218.007493
21
83918.552192
0
LINE
8
Layer 1
10
96218.007493
20
83918.552192
11
96237.297823
21
83928.547600
0
LINE
8
Layer 1
10
96237.297823
20
83928.547600
11
96256.818055
21
83938.065352
0
LINE
8
Layer 1
10
96256.818055
20
83938.065352
11
96276.559068
21
83947.101673
0
LINE
8
Layer 1
10
96276.559068
20
83947.101673
11
96296.511745
21
83955.652784
0
LINE
8
Layer 1
10
96296.511745
20
83955.652784
11
96316.666967
21
83963.714909
0
LINE
8
Layer 1
10
96316.666967
20
83963.714909
11
96337.015615
21
83971.284270
0
LINE
8
Layer 1
10
96337.015615
20
83971.284270
11
96357.548571
21
83978.357090
0
LINE
8
Layer 1
10
96357.548571
20
83978.357090
11
96378.256715
21
83984.929593
0
LINE
8
Layer 1
10
96378.256715
20
83984.929593
11
96399.130930
21
83990.998001
0
LINE
8
Layer 1
10
96399.130930
20
83990.998001
11
96420.162096
21
83996.558537
0
LINE
8
Layer 1
10
96420.162096
20
83996.558537
11
96441.341095
21
84001.607425
0
LINE
8
Layer 1
10
96441.341095
20
84001.607425
11
96462.658809
21
84006.140887
0
LINE
8
Layer 1
10
96462.658809
20
84006.140887
11
96484.106119
21
84010.155145
0
LINE
8
Layer 1
10
96484.106119
20
84010.155145
11
96505.673905
21
84013.646424
0
LINE
8
Layer 1
10
96505.673905
20
84013.646424
11
96527.353050
21
84016.610946
0
LINE
8
Layer 1
10
96527.353050
20
84016.610946
11
96549.134435
21
84019.044933
0
LINE
8
Layer 1
10
96549.134435
20
84019.044933
11
96571.008941
21
84020.944609
0
LINE
8
Layer 1
10
96571.008941
20
84020.944609
11
96592.967450
21
84022.306197
0
LINE
8
Layer 1
10
96592.967450
20
84022.306197
11
96615.000842
21
84023.125920
0
LINE
8
Layer 1
10
96615.000842
20
84023.125920
11
96637.100000
21
84023.400000
0
LINE
8
Layer 1
10
96637.100000
20
84023.400000
11
110917.100000
21
84023.400000
0
LINE
8
Layer 1
10
95747.100000
20
27878.400000
11
95747.100000
21
83133.400000
0
LINE
8
Layer 1
10
99417.100000
20
27643.400000
11
95982.100000
21
27643.400000
0
LINE
8
Layer 1
10
100307.000000
20
26658.400000
11
100307.000000
21
26753.400000
0
LINE
8
Layer 1
10
99417.100000
20
27643.400000
11
99439.199158
21
27643.125920
0
LINE
8
Layer 1
10
99439.199158
20
27643.125920
11
99461.232550
21
27642.306197
0
LINE
8
Layer 1
10
99461.232550
20
27642.306197
11
99483.191059
21
27640.944609
0
LINE
8
Layer 1
10
99483.191059
20
27640.944609
11
99505.065565
21
27639.044933
0
LINE
8
Layer 1
10
99505.065565
20
27639.044933
11
99526.846950
21
27636.610946
0
LINE
8
Layer 1
10
99526.846950
20
27636.610946
11
99548.526095
21
27633.646424
0
LINE
8
Layer 1
10
99548.526095
20
27633.646424
11
99570.093881
21
27630.155145
0
LINE
8
Layer 1
10
99570.093881
20
27630.155145
11
99591.541191
21
27626.140887
0
LINE
8
Layer 1
10
99591.541191
20
27626.140887
11
99612.858905
21
27621.607425
0
LINE
8
Layer 1
10
99612.858905
20
27621.607425
11
99634.037904
21
27616.558537
0
LINE
8
Layer 1
10
99634.037904
20
27616.558537
11
99655.069070
21
27610.998001
0
LINE
8
Layer 1
10
99655.069070
20
27610.998001
11
99675.943285
21
27604.929593
0
LINE
8
Layer 1
10
99675.943285
20
27604.929593
11
99696.651429
21
27598.357090
0
LINE
8
Layer 1
10
99696.651429
20
27598.357090
11
99717.184385
21
27591.284270
0
LINE
8
Layer 1
10
99717.184385
20
27591.284270
11
99737.533033
21
27583.714909
0
LINE
8
Layer 1
10
99737.533033
20
27583.714909
11
99757.688255
21
27575.652784
0
LINE
8
Layer 1
10
99757.688255
20
27575.652784
11
99777.640932
21
27567.101673
0
LINE
8
Layer 1
10
99777.640932
20
27567.101673
11
99797.381945
21
27558.065352
0
LINE
8
Layer 1
10
99797.381945
20
27558.065352
11
99816.902177
21
27548.547600
0
LINE
8
Layer 1
10
99816.902177
20
27548.547600
11
99836.192507
21
27538.552192
0
LINE
8
Layer 1
10
99836.192507
20
27538.552192
11
99855.243819
21
27528.082905
0
LINE
8
Layer 1
10
99855.243819
20
27528.082905
11
99874.046992
21
27517.143518
0
LINE
8
Layer 1
10
99874.046992
20
27517.143518
11
99892.592909
21
27505.737807
0
LINE
8
Layer 1
10
99892.592909
20
27505.737807
11
99910.872450
21
27493.869548
0
LINE
8
Layer 1
10
99910.872450
20
27493.869548
11
99928.876498
21
27481.542520
0
LINE
8
Layer 1
10
99928.876498
20
27481.542520
11
99946.595933
21
27468.760498
0
LINE
8
Layer 1
10
99946.595933
20
27468.760498
11
99964.021636
21
27455.527261
0
LINE
8
Layer 1
10
99964.021636
20
27455.527261
11
99981.144490
21
27441.846585
0
LINE
8
Layer 1
10
99981.144490
20
27441.846585
11
99997.955376
21
27427.722248
0
LINE
8
Layer 1
10
99997.955376
20
27427.722248
11
100014.445174
21
27413.158025
0
LINE
8
Layer 1
10
100014.445174
20
27413.158025
11
100030.604767
21
27398.157696
0
LINE
8
Layer 1
10
100030.604767
20
27398.157696
11
100046.425035
21
27382.725035
0
LINE
8
Layer 1
10
100046.425035
20
27382.725035
11
100061.857696
21
27366.904767
0
LINE
8
Layer 1
10
100061.857696
20
27366.904767
11
100076.858025
21
27350.745174
0
LINE
8
Layer 1
10
100076.858025
20
27350.745174
11
100091.422248
21
27334.255376
0
LINE
8
Layer 1
10
100091.422248
20
27334.255376
11
100105.546585
21
27317.444490
0
LINE
8
Layer 1
10
100105.546585
20
27317.444490
11
100119.227261
21
27300.321636
0
LINE
8
Layer 1
10
100119.227261
20
27300.321636
11
100132.460498
21
27282.895933
0
LINE
8
Layer 1
10
100132.460498
20
27282.895933
11
100145.242520
21
27265.176498
0
LINE
8
Layer 1
10
100145.242520
20
27265.176498
11
100157.569548
21
27247.172450
0
LINE
8
Layer 1
10
100157.569548
20
27247.172450
11
100169.437807
21
27228.892909
0
LINE
8
Layer 1
10
100169.437807
20
27228.892909
11
100180.843518
21
27210.346992
0
LINE
8
Layer 1
10
100180.843518
20
27210.346992
11
100191.782905
21
27191.543819
0
LINE
8
Layer 1
10
100191.782905
20
27191.543819
11
100202.252192
21
27172.492507
0
LINE
8
Layer 1
10
100202.252192
20
27172.492507
11
100212.247600
21
27153.202177
0
LINE
8
Layer 1
10
100212.247600
20
27153.202177
11
100221.765352
21
27133.681945
0
LINE
8
Layer 1
10
100221.765352
20
27133.681945
11
100230.801673
21
27113.940932
0
LINE
8
Layer 1
10
100230.801673
20
27113.940932
11
100239.352784
21
27093.988255
0
LINE
8
Layer 1
10
100239.352784
20
27093.988255
11
100247.414909
21
27073.833033
0
LINE
8
Layer 1
10
100247.414909
20
27073.833033
11
100254.984270
21
27053.484385
0
LINE
8
Layer 1
10
100254.984270
20
27053.484385
11
100262.057090
21
27032.951429
0
LINE
8
Layer 1
10
100262.057090
20
27032.951429
11
100268.629593
21
27012.243285
0
LINE
8
Layer 1
10
100268.629593
20
27012.243285
11
100274.698001
21
26991.369070
0
LINE
8
Layer 1
10
100274.698001
20
26991.369070
11
100280.258537
21
26970.337904
0
LINE
8
Layer 1
10
100280.258537
20
26970.337904
11
100285.307425
21
26949.158905
0
LINE
8
Layer 1
10
100285.307425
20
26949.158905
11
100289.840887
21
26927.841191
0
LINE
8
Layer 1
10
100289.840887
20
26927.841191
11
100293.855145
21
26906.393881
0
LINE
8
Layer 1
10
100293.855145
20
26906.393881
11
100297.346424
21
26884.826095
0
LINE
8
Layer 1
10
100297.346424
20
26884.826095
11
100300.310946
21
26863.146950
0
LINE
8
Layer 1
10
100300.310946
20
26863.146950
11
100302.744933
21
26841.365565
0
LINE
8
Layer 1
10
100302.744933
20
26841.365565
11
100304.644609
21
26819.491059
0
LINE
8
Layer 1
10
100304.644609
20
26819.491059
11
100306.006197
21
26797.532550
0
LINE
8
Layer 1
10
100306.006197
20
26797.532550
11
100306.825920
21
26775.499158
0
LINE
8
Layer 1
10
100306.825920
20
26775.499158
11
100307.100000
21
26753.400000
0
LINE
8
Layer 1
10
101197.000000
20
25768.400000
11
101174.900842
21
25768.674080
0
LINE
8
Layer 1
10
101174.900842
20
25768.674080
11
101152.867450
21
25769.493803
0
LINE
8
Layer 1
10
101152.867450
20
25769.493803
11
101130.908941
21
25770.855391
0
LINE
8
Layer 1
10
101130.908941
20
25770.855391
11
101109.034435
21
25772.755067
0
LINE
8
Layer 1
10
101109.034435
20
25772.755067
11
101087.253050
21
25775.189054
0
LINE
8
Layer 1
10
101087.253050
20
25775.189054
11
101065.573905
21
25778.153576
0
LINE
8
Layer 1
10
101065.573905
20
25778.153576
11
101044.006119
21
25781.644855
0
LINE
8
Layer 1
10
101044.006119
20
25781.644855
11
101022.558809
21
25785.659113
0
LINE
8
Layer 1
10
101022.558809
20
25785.659113
11
101001.241095
21
25790.192575
0
LINE
8
Layer 1
10
101001.241095
20
25790.192575
11
100980.062096
21
25795.241463
0
LINE
8
Layer 1
10
100980.062096
20
25795.241463
11
100959.030930
21
25800.801999
0
LINE
8
Layer 1
10
100959.030930
20
25800.801999
11
100938.156715
21
25806.870407
0
LINE
8
Layer 1
10
100938.156715
20
25806.870407
11
100917.448571
21
25813.442910
0
LINE
8
Layer 1
10
100917.448571
20
25813.442910
11
100896.915615
21
25820.515730
0
LINE
8
Layer 1
10
100896.915615
20
25820.515730
11
100876.566967
21
25828.085091
0
LINE
8
Layer 1
10
100876.566967
20
25828.085091
11
100856.411745
21
25836.147216
0
LINE
8
Layer 1
10
100856.411745
20
25836.147216
11
100836.459068
21
25844.698327
0
LINE
8
Layer 1
10
100836.459068
20
25844.698327
11
100816.718055
21
25853.734648
0
LINE
8
Layer 1
10
100816.718055
20
25853.734648
11
100797.197823
21
25863.252400
0
LINE
8
Layer 1
10
100797.197823
20
25863.252400
11
100777.907493
21
25873.247808
0
LINE
8
Layer 1
10
100777.907493
20
25873.247808
11
100758.856181
21
25883.717095
0
LINE
8
Layer 1
10
100758.856181
20
25883.717095
11
100740.053008
21
25894.656482
0
LINE
8
Layer 1
10
100740.053008
20
25894.656482
11
100721.507091
21
25906.062193
0
LINE
8
Layer 1
10
100721.507091
20
25906.062193
11
100703.227550
21
25917.930452
0
LINE
8
Layer 1
10
100703.227550
20
25917.930452
11
100685.223502
21
25930.257480
0
LINE
8
Layer 1
10
100685.223502
20
25930.257480
11
100667.504067
21
25943.039502
0
LINE
8
Layer 1
10
100667.504067
20
25943.039502
11
100650.078364
21
25956.272739
0
LINE
8
Layer 1
10
100650.078364
20
25956.272739
11
100632.955510
21
25969.953415
0
LINE
8
Layer 1
10
100632.955510
20
25969.953415
11
100616.144624
21
25984.077752
0
LINE
8
Layer 1
10
100616.144624
20
25984.077752
11
100599.654826
21
25998.641975
0
LINE
8
Layer 1
10
100599.654826
20
25998.641975
11
100583.495233
21
26013.642304
0
LINE
8
Layer 1
10
100583.495233
20
26013.642304
11
100567.674965
21
26029.074965
0
LINE
8
Layer 1
10
100567.674965
20
26029.074965
11
100552.242304
21
26044.895233
0
LINE
8
Layer 1
10
100552.242304
20
26044.895233
11
100537.241975
21
26061.054826
0
LINE
8
Layer 1
10
100537.241975
20
26061.054826
11
100522.677752
21
26077.544624
0
LINE
8
Layer 1
10
100522.677752
20
26077.544624
11
100508.553415
21
26094.355510
0
LINE
8
Layer 1
10
100508.553415
20
26094.355510
11
100494.872739
21
26111.478364
0
LINE
8
Layer 1
10
100494.872739
20
26111.478364
11
100481.639502
21
26128.904067
0
LINE
8
Layer 1
10
100481.639502
20
26128.904067
11
100468.857480
21
26146.623502
0
LINE
8
Layer 1
10
100468.857480
20
26146.623502
11
100456.530452
21
26164.627550
0
LINE
8
Layer 1
10
100456.530452
20
26164.627550
11
100444.662193
21
26182.907091
0
LINE
8
Layer 1
10
100444.662193
20
26182.907091
11
100433.256482
21
26201.453008
0
LINE
8
Layer 1
10
100433.256482
20
26201.453008
11
100422.317095
21
26220.256181
0
LINE
8
Layer 1
10
100422.317095
20
26220.256181
11
100411.847808
21
26239.307493
0
LINE
8
Layer 1
10
100411.847808
20
26239.307493
11
100401.852400
21
26258.597823
0
LINE
8
Layer 1
10
100401.852400
20
26258.597823
11
100392.334648
21
26278.118055
0
LINE
8
Layer 1
10
100392.334648
20
26278.118055
11
100383.298327
21
26297.859068
0
LINE
8
Layer 1
10
100383.298327
20
26297.859068
11
100374.747216
21
26317.811745
0
LINE
8
Layer 1
10
100374.747216
20
26317.811745
11
100366.685091
21
26337.966967
0
LINE
8
Layer 1
10
100366.685091
20
26337.966967
11
100359.115730
21
26358.315615
0
LINE
8
Layer 1
10
100359.115730
20
26358.315615
11
100352.042910
21
26378.848571
0
LINE
8
Layer 1
10
100352.042910
20
26378.848571
11
100345.470407
21
26399.556715
0
LINE
8
Layer 1
10
100345.470407
20
26399.556715
11
100339.401999
21
26420.430930
0
LINE
8
Layer 1
10
100339.401999
20
26420.430930
11
100333.841463
21
26441.462096
0
LINE
8
Layer 1
10
100333.841463
20
26441.462096
11
100328.792575
21
26462.641095
0
LINE
8
Layer 1
10
100328.792575
20
26462.641095
11
100324.259113
21
26483.958809
0
LINE
8
Layer 1
10
100324.259113
20
26483.958809
11
100320.244855
21
26505.406119
0
LINE
8
Layer 1
10
100320.244855
20
26505.406119
11
100316.753576
21
26526.973905
0
LINE
8
Layer 1
10
100316.753576
20
26526.973905
11
100313.789054
21
26548.653050
0
LINE
8
Layer 1
10
100313.789054
20
26548.653050
11
100311.355067
21
26570.434435
0
LINE
8
Layer 1
10
100311.355067
20
26570.434435
11
100309.455391
21
26592.308941
0
LINE
8
Layer 1
10
100309.455391
20
26592.308941
11
100308.093803
21
26614.267450
0
LINE
8
Layer 1
10
100308.093803
20
26614.267450
11
100307.274080
21
26636.300842
0
LINE
8
Layer 1
10
100307.274080
20
26636.300842
11
100307.000000
21
26658.400000
0
LINE
8
Layer 1
10
107807.000000
20
25768.400000
11
101197.000000
21
25768.400000
0
LINE
8
Layer 1
10
107807.000000
20
25768.400000
11
110912.000000
21
25768.400000
0
LINE
8
Layer 1
10
111572.000000
20
25768.400000
11
110912.000000
21
25768.400000
0
LINE
8
Layer 1
10
111807.000000
20
26003.400000
11
111806.711187
21
25991.747023
0
LINE
8
Layer 1
10
111806.711187
20
25991.747023
11
111805.850067
21
25980.173137
0
LINE
8
Layer 1
10
111805.850067
20
25980.173137
11
111804.424618
21
25968.697604
0
LINE
8
Layer 1
10
111804.424618
20
25968.697604
11
111802.442818
21
25957.339686
0
LINE
8
Layer 1
10
111802.442818
20
25957.339686
11
111799.912648
21
25946.118643
0
LINE
8
Layer 1
10
111799.912648
20
25946.118643
11
111796.842084
21
25935.053739
0
LINE
8
Layer 1
10
111796.842084
20
25935.053739
11
111793.239105
21
25924.164235
0
LINE
8
Layer 1
10
111793.239105
20
25924.164235
11
111789.111690
21
25913.469393
0
LINE
8
Layer 1
10
111789.111690
20
25913.469393
11
111784.467818
21
25902.988475
0
LINE
8
Layer 1
10
111784.467818
20
25902.988475
11
111779.315466
21
25892.740742
0
LINE
8
Layer 1
10
111779.315466
20
25892.740742
11
111773.662614
21
25882.745457
0
LINE
8
Layer 1
10
111773.662614
20
25882.745457
11
111767.517240
21
25873.021881
0
LINE
8
Layer 1
10
111767.517240
20
25873.021881
11
111760.887323
21
25863.589276
0
LINE
8
Layer 1
10
111760.887323
20
25863.589276
11
111753.780840
21
25854.466904
0
LINE
8
Layer 1
10
111753.780840
20
25854.466904
11
111746.205771
21
25845.674027
0
LINE
8
Layer 1
10
111746.205771
20
25845.674027
11
111738.170094
21
25837.229906
0
LINE
8
Layer 1
10
111738.170094
20
25837.229906
11
111729.725973
21
25829.194229
0
LINE
8
Layer 1
10
111729.725973
20
25829.194229
11
111720.933096
21
25821.619160
0
LINE
8
Layer 1
10
111720.933096
20
25821.619160
11
111711.810724
21
25814.512677
0
LINE
8
Layer 1
10
111711.810724
20
25814.512677
11
111702.378119
21
25807.882760
0
LINE
8
Layer 1
10
111702.378119
20
25807.882760
11
111692.654543
21
25801.737386
0
LINE
8
Layer 1
10
111692.654543
20
25801.737386
11
111682.659258
21
25796.084534
0
LINE
8
Layer 1
10
111682.659258
20
25796.084534
11
111672.411525
21
25790.932182
0
LINE
8
Layer 1
10
111672.411525
20
25790.932182
11
111661.930607
21
25786.288310
0
LINE
8
Layer 1
10
111661.930607
20
25786.288310
11
111651.235765
21
25782.160895
0
LINE
8
Layer 1
10
111651.235765
20
25782.160895
11
111640.346261
21
25778.557916
0
LINE
8
Layer 1
10
111640.346261
20
25778.557916
11
111629.281357
21
25775.487352
0
LINE
8
Layer 1
10
111629.281357
20
25775.487352
11
111618.060314
21
25772.957182
0
LINE
8
Layer 1
10
111618.060314
20
25772.957182
11
111606.702396
21
25770.975382
0
LINE
8
Layer 1
10
111606.702396
20
25770.975382
11
111595.226863
21
25769.549933
0
LINE
8
Layer 1
10
111595.226863
20
25769.549933
11
111583.652977
21
25768.688813
0
LINE
8
Layer 1
10
111583.652977
20
25768.688813
11
111572.000000
21
25768.400000
0
LINE
8
Layer 1
10
111807.000000
20
26003.400000
11
111807.000000
21
83133.400000
0
LINE
8
Layer 1
10
110917.000000
20
84023.400000
11
110939.099158
21
84023.125920
0
LINE
8
Layer 1
10
110939.099158
20
84023.125920
11
110961.132550
21
84022.306197
0
LINE
8
Layer 1
10
110961.132550
20
84022.306197
11
110983.091059
21
84020.944609
0
LINE
8
Layer 1
10
110983.091059
20
84020.944609
11
111004.965565
21
84019.044933
0
LINE
8
Layer 1
10
111004.965565
20
84019.044933
11
111026.746950
21
84016.610946
0
LINE
8
Layer 1
10
111026.746950
20
84016.610946
11
111048.426095
21
84013.646424
0
LINE
8
Layer 1
10
111048.426095
20
84013.646424
11
111069.993881
21
84010.155145
0
LINE
8
Layer 1
10
111069.993881
20
84010.155145
11
111091.441191
21
84006.140887
0
LINE
8
Layer 1
10
111091.441191
20
84006.140887
11
111112.758905
21
84001.607425
0
LINE
8
Layer 1
10
111112.758905
20
84001.607425
11
111133.937904
21
83996.558537
0
LINE
8
Layer 1
10
111133.937904
20
83996.558537
11
111154.969070
21
83990.998001
0
LINE
8
Layer 1
10
111154.969070
20
83990.998001
11
111175.843285
21
83984.929593
0
LINE
8
Layer 1
10
111175.843285
20
83984.929593
11
111196.551429
21
83978.357090
0
LINE
8
Layer 1
10
111196.551429
20
83978.357090
11
111217.084385
21
83971.284270
0
LINE
8
Layer 1
10
111217.084385
20
83971.284270
11
111237.433033
21
83963.714909
0
LINE
8
Layer 1
10
111237.433033
20
83963.714909
11
111257.588255
21
83955.652784
0
LINE
8
Layer 1
10
111257.588255
20
83955.652784
11
111277.540932
21
83947.101673
0
LINE
8
Layer 1
10
111277.540932
20
83947.101673
11
111297.281945
21
83938.065352
0
LINE
8
Layer 1
10
111297.281945
20
83938.065352
11
111316.802177
21
83928.547600
0
LINE
8
Layer 1
10
111316.802177
20
83928.547600
11
111336.092507
21
83918.552192
0
LINE
8
Layer 1
10
111336.092507
20
83918.552192
11
111355.143819
21
83908.082905
0
LINE
8
Layer 1
10
111355.143819
20
83908.082905
11
111373.946992
21
83897.143518
0
LINE
8
Layer 1
10
111373.946992
20
83897.143518
11
111392.492909
21
83885.737807
0
LINE
8
Layer 1
10
111392.492909
20
83885.737807
11
111410.772450
21
83873.869548
0
LINE
8
Layer 1
10
111410.772450
20
83873.869548
11
111428.776498
21
83861.542520
0
LINE
8
Layer 1
10
111428.776498
20
83861.542520
11
111446.495933
21
83848.760498
0
LINE
8
Layer 1
10
111446.495933
20
83848.760498
11
111463.921636
21
83835.527261
0
LINE
8
Layer 1
10
111463.921636
20
83835.527261
11
111481.044490
21
83821.846585
0
LINE
8
Layer 1
10
111481.044490
20
83821.846585
11
111497.855376
21
83807.722248
0
LINE
8
Layer 1
10
111497.855376
20
83807.722248
11
111514.345174
21
83793.158025
0
LINE
8
Layer 1
10
111514.345174
20
83793.158025
11
111530.504767
21
83778.157696
0
LINE
8
Layer 1
10
111530.504767
20
83778.157696
11
111546.325035
21
83762.725035
0
LINE
8
Layer 1
10
111546.325035
20
83762.725035
11
111561.757696
21
83746.904767
0
LINE
8
Layer 1
10
111561.757696
20
83746.904767
11
111576.758025
21
83730.745174
0
LINE
8
Layer 1
10
111576.758025
20
83730.745174
11
111591.322248
21
83714.255376
0
LINE
8
Layer 1
10
111591.322248
20
83714.255376
11
111605.446585
21
83697.444490
0
LINE
8
Layer 1
10
111605.446585
20
83697.444490
11
111619.127261
21
83680.321636
0
LINE
8
Layer 1
10
111619.127261
20
83680.321636
11
111632.360498
21
83662.895933
0
LINE
8
Layer 1
10
111632.360498
20
83662.895933
11
111645.142520
21
83645.176498
0
LINE
8
Layer 1
10
111645.142520
20
83645.176498
11
111657.469548
21
83627.172450
0
LINE
8
Layer 1
10
111657.469548
20
83627.172450
11
111669.337807
21
83608.892909
0
LINE
8
Layer 1
10
111669.337807
20
83608.892909
11
111680.743518
21
83590.346992
0
LINE
8
Layer 1
10
111680.743518
20
83590.346992
11
111691.682905
21
83571.543819
0
LINE
8
Layer 1
10
111691.682905
20
83571.543819
11
111702.152192
21
83552.492507
0
LINE
8
Layer 1
10
111702.152192
20
83552.492507
11
111712.147600
21
83533.202177
0
LINE
8
Layer 1
10
111712.147600
20
83533.202177
11
111721.665352
21
83513.681945
0
LINE
8
Layer 1
10
111721.665352
20
83513.681945
11
111730.701673
21
83493.940932
0
LINE
8
Layer 1
10
111730.701673
20
83493.940932
11
111739.252784
21
83473.988255
0
LINE
8
Layer 1
10
111739.252784
20
83473.988255
11
111747.314909
21
83453.833033
0
LINE
8
Layer 1
10
111747.314909
20
83453.833033
11
111754.884270
21
83433.484385
0
LINE
8
Layer 1
10
111754.884270
20
83433.484385
11
111761.957090
21
83412.951429
0
LINE
8
Layer 1
10
111761.957090
20
83412.951429
11
111768.529593
21
83392.243285
0
LINE
8
Layer 1
10
111768.529593
20
83392.243285
11
111774.598001
21
83371.369070
0
LINE
8
Layer 1
10
111774.598001
20
83371.369070
11
111780.158537
21
83350.337904
0
LINE
8
Layer 1
10
111780.158537
20
83350.337904
11
111785.207425
21
83329.158905
0
LINE
8
Layer 1
10
111785.207425
20
83329.158905
11
111789.740887
21
83307.841191
0
LINE
8
Layer 1
10
111789.740887
20
83307.841191
11
111793.755145
21
83286.393881
0
LINE
8
Layer 1
10
111793.755145
20
83286.393881
11
111797.246424
21
83264.826095
0
LINE
8
Layer 1
10
111797.246424
20
83264.826095
11
111800.210946
21
83243.146950
0
LINE
8
Layer 1
10
111800.210946
20
83243.146950
11
111802.644933
21
83221.365565
0
LINE
8
Layer 1
10
111802.644933
20
83221.365565
11
111804.544609
21
83199.491059
0
LINE
8
Layer 1
10
111804.544609
20
83199.491059
11
111805.906197
21
83177.532550
0
LINE
8
Layer 1
10
111805.906197
20
83177.532550
11
111806.725920
21
83155.499158
0
LINE
8
Layer 1
10
111806.725920
20
83155.499158
11
111807.000000
21
83133.400000
 0 
ENDSEC
 0 
EOF