999
"DXF R12 Output" (www.mydxf.blogspot.com)
 0 
SECTION
 2 
HEADER
 9 
$ACADVER
 1 
AC1009
 9 
$EXTMIN
 10 
 0 
 20 
 0 
 9 
$EXTMAX
 10 
 8.5 
 20 
 11 
 0 
ENDSEC
 0 
SECTION
 2 
ENTITIES
0
LINE
8
Layer 1
10
114141.000000
20
10943.700000
11
114141.000000
21
7293.660000
0
LINE
8
Layer 1
10
108786.000000
20
10943.700000
11
114141.000000
21
10943.700000
0
LINE
8
Layer 1
10
108786.000000
20
11828.700000
11
108786.000000
21
10943.700000
0
LINE
8
Layer 1
10
107786.000000
20
13678.700000
11
107786.000000
21
12588.700000
0
LINE
8
Layer 1
10
113977.000000
20
13683.100000
11
107785.620000
21
13678.620000
0
LINE
8
Layer 1
10
114291.000000
20
14768.700000
11
113977.380000
21
13683.180000
0
LINE
8
Layer 1
10
115101.000000
20
14768.700000
11
114291.000000
21
14768.700000
0
LINE
8
Layer 1
10
120711.000000
20
14768.700000
11
115101.000000
21
14768.700000
0
LINE
8
Layer 1
10
120711.000000
20
18283.700000
11
120711.000000
21
14768.700000
0
LINE
8
Layer 1
10
119016.000000
20
18283.700000
11
120711.000000
21
18283.700000
0
LINE
8
Layer 1
10
119016.000000
20
22268.700000
11
119016.000000
21
18283.700000
0
LINE
8
Layer 1
10
121779.000000
20
13708.700000
11
121779.000000
21
15789.340000
0
LINE
8
Layer 1
10
115066.000000
20
13708.700000
11
121779.260000
21
13708.700000
0
LINE
8
Layer 1
10
104776.000000
20
22903.700000
11
107061.000000
21
22903.700000
0
LINE
8
Layer 1
10
97285.800000
20
22903.700000
11
99535.800000
21
22903.700000
0
LINE
8
Layer 1
10
89750.800000
20
22888.700000
11
92045.800000
21
22888.700000
0
LINE
8
Layer 1
10
82265.800000
20
22888.700000
11
84510.800000
21
22888.700000
0
LINE
8
Layer 1
10
74295.800000
20
38148.700000
11
127646.000000
21
38148.700000
0
LINE
8
Layer 1
10
74060.800000
20
37913.700000
11
74061.088813
21
37925.352977
0
LINE
8
Layer 1
10
74061.088813
20
37925.352977
11
74061.949933
21
37936.926863
0
LINE
8
Layer 1
10
74061.949933
20
37936.926863
11
74063.375382
21
37948.402396
0
LINE
8
Layer 1
10
74063.375382
20
37948.402396
11
74065.357182
21
37959.760314
0
LINE
8
Layer 1
10
74065.357182
20
37959.760314
11
74067.887352
21
37970.981357
0
LINE
8
Layer 1
10
74067.887352
20
37970.981357
11
74070.957916
21
37982.046261
0
LINE
8
Layer 1
10
74070.957916
20
37982.046261
11
74074.560895
21
37992.935765
0
LINE
8
Layer 1
10
74074.560895
20
37992.935765
11
74078.688310
21
38003.630607
0
LINE
8
Layer 1
10
74078.688310
20
38003.630607
11
74083.332182
21
38014.111525
0
LINE
8
Layer 1
10
74083.332182
20
38014.111525
11
74088.484534
21
38024.359258
0
LINE
8
Layer 1
10
74088.484534
20
38024.359258
11
74094.137386
21
38034.354543
0
LINE
8
Layer 1
10
74094.137386
20
38034.354543
11
74100.282760
21
38044.078119
0
LINE
8
Layer 1
10
74100.282760
20
38044.078119
11
74106.912677
21
38053.510724
0
LINE
8
Layer 1
10
74106.912677
20
38053.510724
11
74114.019160
21
38062.633096
0
LINE
8
Layer 1
10
74114.019160
20
38062.633096
11
74121.594229
21
38071.425973
0
LINE
8
Layer 1
10
74121.594229
20
38071.425973
11
74129.629906
21
38079.870094
0
LINE
8
Layer 1
10
74129.629906
20
38079.870094
11
74138.074027
21
38087.905771
0
LINE
8
Layer 1
10
74138.074027
20
38087.905771
11
74146.866904
21
38095.480840
0
LINE
8
Layer 1
10
74146.866904
20
38095.480840
11
74155.989276
21
38102.587323
0
LINE
8
Layer 1
10
74155.989276
20
38102.587323
11
74165.421881
21
38109.217240
0
LINE
8
Layer 1
10
74165.421881
20
38109.217240
11
74175.145457
21
38115.362614
0
LINE
8
Layer 1
10
74175.145457
20
38115.362614
11
74185.140742
21
38121.015466
0
LINE
8
Layer 1
10
74185.140742
20
38121.015466
11
74195.388475
21
38126.167818
0
LINE
8
Layer 1
10
74195.388475
20
38126.167818
11
74205.869393
21
38130.811690
0
LINE
8
Layer 1
10
74205.869393
20
38130.811690
11
74216.564235
21
38134.939105
0
LINE
8
Layer 1
10
74216.564235
20
38134.939105
11
74227.453739
21
38138.542084
0
LINE
8
Layer 1
10
74227.453739
20
38138.542084
11
74238.518643
21
38141.612648
0
LINE
8
Layer 1
10
74238.518643
20
38141.612648
11
74249.739686
21
38144.142818
0
LINE
8
Layer 1
10
74249.739686
20
38144.142818
11
74261.097604
21
38146.124618
0
LINE
8
Layer 1
10
74261.097604
20
38146.124618
11
74272.573137
21
38147.550067
0
LINE
8
Layer 1
10
74272.573137
20
38147.550067
11
74284.147023
21
38148.411187
0
LINE
8
Layer 1
10
74284.147023
20
38148.411187
11
74295.800000
21
38148.700000
0
LINE
8
Layer 1
10
74060.800000
20
37913.700000
11
74060.800000
21
35088.700000
0
LINE
8
Layer 1
10
74060.800000
20
29553.700000
11
74060.800000
21
35088.700000
0
LINE
8
Layer 1
10
75015.800000
20
28663.700000
11
74950.800000
21
28663.700000
0
LINE
8
Layer 1
10
74950.800000
20
28663.700000
11
74928.700842
21
28663.974080
0
LINE
8
Layer 1
10
74928.700842
20
28663.974080
11
74906.667450
21
28664.793803
0
LINE
8
Layer 1
10
74906.667450
20
28664.793803
11
74884.708941
21
28666.155391
0
LINE
8
Layer 1
10
74884.708941
20
28666.155391
11
74862.834435
21
28668.055067
0
LINE
8
Layer 1
10
74862.834435
20
28668.055067
11
74841.053050
21
28670.489054
0
LINE
8
Layer 1
10
74841.053050
20
28670.489054
11
74819.373905
21
28673.453576
0
LINE
8
Layer 1
10
74819.373905
20
28673.453576
11
74797.806119
21
28676.944855
0
LINE
8
Layer 1
10
74797.806119
20
28676.944855
11
74776.358809
21
28680.959113
0
LINE
8
Layer 1
10
74776.358809
20
28680.959113
11
74755.041095
21
28685.492575
0
LINE
8
Layer 1
10
74755.041095
20
28685.492575
11
74733.862096
21
28690.541463
0
LINE
8
Layer 1
10
74733.862096
20
28690.541463
11
74712.830930
21
28696.101999
0
LINE
8
Layer 1
10
74712.830930
20
28696.101999
11
74691.956715
21
28702.170407
0
LINE
8
Layer 1
10
74691.956715
20
28702.170407
11
74671.248571
21
28708.742910
0
LINE
8
Layer 1
10
74671.248571
20
28708.742910
11
74650.715615
21
28715.815730
0
LINE
8
Layer 1
10
74650.715615
20
28715.815730
11
74630.366967
21
28723.385091
0
LINE
8
Layer 1
10
74630.366967
20
28723.385091
11
74610.211745
21
28731.447216
0
LINE
8
Layer 1
10
74610.211745
20
28731.447216
11
74590.259068
21
28739.998327
0
LINE
8
Layer 1
10
74590.259068
20
28739.998327
11
74570.518055
21
28749.034648
0
LINE
8
Layer 1
10
74570.518055
20
28749.034648
11
74550.997823
21
28758.552400
0
LINE
8
Layer 1
10
74550.997823
20
28758.552400
11
74531.707493
21
28768.547808
0
LINE
8
Layer 1
10
74531.707493
20
28768.547808
11
74512.656181
21
28779.017095
0
LINE
8
Layer 1
10
74512.656181
20
28779.017095
11
74493.853008
21
28789.956482
0
LINE
8
Layer 1
10
74493.853008
20
28789.956482
11
74475.307091
21
28801.362193
0
LINE
8
Layer 1
10
74475.307091
20
28801.362193
11
74457.027550
21
28813.230452
0
LINE
8
Layer 1
10
74457.027550
20
28813.230452
11
74439.023502
21
28825.557480
0
LINE
8
Layer 1
10
74439.023502
20
28825.557480
11
74421.304067
21
28838.339502
0
LINE
8
Layer 1
10
74421.304067
20
28838.339502
11
74403.878364
21
28851.572739
0
LINE
8
Layer 1
10
74403.878364
20
28851.572739
11
74386.755510
21
28865.253415
0
LINE
8
Layer 1
10
74386.755510
20
28865.253415
11
74369.944624
21
28879.377752
0
LINE
8
Layer 1
10
74369.944624
20
28879.377752
11
74353.454826
21
28893.941975
0
LINE
8
Layer 1
10
74353.454826
20
28893.941975
11
74337.295233
21
28908.942304
0
LINE
8
Layer 1
10
74337.295233
20
28908.942304
11
74321.474965
21
28924.374965
0
LINE
8
Layer 1
10
74321.474965
20
28924.374965
11
74306.042304
21
28940.195233
0
LINE
8
Layer 1
10
74306.042304
20
28940.195233
11
74291.041975
21
28956.354826
0
LINE
8
Layer 1
10
74291.041975
20
28956.354826
11
74276.477752
21
28972.844624
0
LINE
8
Layer 1
10
74276.477752
20
28972.844624
11
74262.353415
21
28989.655510
0
LINE
8
Layer 1
10
74262.353415
20
28989.655510
11
74248.672739
21
29006.778364
0
LINE
8
Layer 1
10
74248.672739
20
29006.778364
11
74235.439502
21
29024.204067
0
LINE
8
Layer 1
10
74235.439502
20
29024.204067
11
74222.657480
21
29041.923502
0
LINE
8
Layer 1
10
74222.657480
20
29041.923502
11
74210.330452
21
29059.927550
0
LINE
8
Layer 1
10
74210.330452
20
29059.927550
11
74198.462193
21
29078.207091
0
LINE
8
Layer 1
10
74198.462193
20
29078.207091
11
74187.056482
21
29096.753008
0
LINE
8
Layer 1
10
74187.056482
20
29096.753008
11
74176.117095
21
29115.556181
0
LINE
8
Layer 1
10
74176.117095
20
29115.556181
11
74165.647808
21
29134.607493
0
LINE
8
Layer 1
10
74165.647808
20
29134.607493
11
74155.652400
21
29153.897823
0
LINE
8
Layer 1
10
74155.652400
20
29153.897823
11
74146.134648
21
29173.418055
0
LINE
8
Layer 1
10
74146.134648
20
29173.418055
11
74137.098327
21
29193.159068
0
LINE
8
Layer 1
10
74137.098327
20
29193.159068
11
74128.547216
21
29213.111745
0
LINE
8
Layer 1
10
74128.547216
20
29213.111745
11
74120.485091
21
29233.266967
0
LINE
8
Layer 1
10
74120.485091
20
29233.266967
11
74112.915730
21
29253.615615
0
LINE
8
Layer 1
10
74112.915730
20
29253.615615
11
74105.842910
21
29274.148571
0
LINE
8
Layer 1
10
74105.842910
20
29274.148571
11
74099.270407
21
29294.856715
0
LINE
8
Layer 1
10
74099.270407
20
29294.856715
11
74093.201999
21
29315.730930
0
LINE
8
Layer 1
10
74093.201999
20
29315.730930
11
74087.641463
21
29336.762096
0
LINE
8
Layer 1
10
74087.641463
20
29336.762096
11
74082.592575
21
29357.941095
0
LINE
8
Layer 1
10
74082.592575
20
29357.941095
11
74078.059113
21
29379.258809
0
LINE
8
Layer 1
10
74078.059113
20
29379.258809
11
74074.044855
21
29400.706119
0
LINE
8
Layer 1
10
74074.044855
20
29400.706119
11
74070.553576
21
29422.273905
0
LINE
8
Layer 1
10
74070.553576
20
29422.273905
11
74067.589054
21
29443.953050
0
LINE
8
Layer 1
10
74067.589054
20
29443.953050
11
74065.155067
21
29465.734435
0
LINE
8
Layer 1
10
74065.155067
20
29465.734435
11
74063.255391
21
29487.608941
0
LINE
8
Layer 1
10
74063.255391
20
29487.608941
11
74061.893803
21
29509.567450
0
LINE
8
Layer 1
10
74061.893803
20
29509.567450
11
74061.074080
21
29531.600842
0
LINE
8
Layer 1
10
74061.074080
20
29531.600842
11
74060.800000
21
29553.700000
0
LINE
8
Layer 1
10
75015.800000
20
28663.700000
11
75037.899158
21
28663.425920
0
LINE
8
Layer 1
10
75037.899158
20
28663.425920
11
75059.932550
21
28662.606197
0
LINE
8
Layer 1
10
75059.932550
20
28662.606197
11
75081.891059
21
28661.244609
0
LINE
8
Layer 1
10
75081.891059
20
28661.244609
11
75103.765565
21
28659.344933
0
LINE
8
Layer 1
10
75103.765565
20
28659.344933
11
75125.546950
21
28656.910946
0
LINE
8
Layer 1
10
75125.546950
20
28656.910946
11
75147.226095
21
28653.946424
0
LINE
8
Layer 1
10
75147.226095
20
28653.946424
11
75168.793881
21
28650.455145
0
LINE
8
Layer 1
10
75168.793881
20
28650.455145
11
75190.241191
21
28646.440887
0
LINE
8
Layer 1
10
75190.241191
20
28646.440887
11
75211.558905
21
28641.907425
0
LINE
8
Layer 1
10
75211.558905
20
28641.907425
11
75232.737904
21
28636.858537
0
LINE
8
Layer 1
10
75232.737904
20
28636.858537
11
75253.769070
21
28631.298001
0
LINE
8
Layer 1
10
75253.769070
20
28631.298001
11
75274.643285
21
28625.229593
0
LINE
8
Layer 1
10
75274.643285
20
28625.229593
11
75295.351429
21
28618.657090
0
LINE
8
Layer 1
10
75295.351429
20
28618.657090
11
75315.884385
21
28611.584270
0
LINE
8
Layer 1
10
75315.884385
20
28611.584270
11
75336.233033
21
28604.014909
0
LINE
8
Layer 1
10
75336.233033
20
28604.014909
11
75356.388255
21
28595.952784
0
LINE
8
Layer 1
10
75356.388255
20
28595.952784
11
75376.340932
21
28587.401673
0
LINE
8
Layer 1
10
75376.340932
20
28587.401673
11
75396.081945
21
28578.365352
0
LINE
8
Layer 1
10
75396.081945
20
28578.365352
11
75415.602177
21
28568.847600
0
LINE
8
Layer 1
10
75415.602177
20
28568.847600
11
75434.892507
21
28558.852192
0
LINE
8
Layer 1
10
75434.892507
20
28558.852192
11
75453.943819
21
28548.382905
0
LINE
8
Layer 1
10
75453.943819
20
28548.382905
11
75472.746992
21
28537.443518
0
LINE
8
Layer 1
10
75472.746992
20
28537.443518
11
75491.292909
21
28526.037807
0
LINE
8
Layer 1
10
75491.292909
20
28526.037807
11
75509.572450
21
28514.169548
0
LINE
8
Layer 1
10
75509.572450
20
28514.169548
11
75527.576498
21
28501.842520
0
LINE
8
Layer 1
10
75527.576498
20
28501.842520
11
75545.295933
21
28489.060498
0
LINE
8
Layer 1
10
75545.295933
20
28489.060498
11
75562.721636
21
28475.827261
0
LINE
8
Layer 1
10
75562.721636
20
28475.827261
11
75579.844490
21
28462.146585
0
LINE
8
Layer 1
10
75579.844490
20
28462.146585
11
75596.655376
21
28448.022248
0
LINE
8
Layer 1
10
75596.655376
20
28448.022248
11
75613.145174
21
28433.458025
0
LINE
8
Layer 1
10
75613.145174
20
28433.458025
11
75629.304767
21
28418.457696
0
LINE
8
Layer 1
10
75629.304767
20
28418.457696
11
75645.125035
21
28403.025035
0
LINE
8
Layer 1
10
75645.125035
20
28403.025035
11
75660.557696
21
28387.204767
0
LINE
8
Layer 1
10
75660.557696
20
28387.204767
11
75675.558025
21
28371.045174
0
LINE
8
Layer 1
10
75675.558025
20
28371.045174
11
75690.122248
21
28354.555376
0
LINE
8
Layer 1
10
75690.122248
20
28354.555376
11
75704.246585
21
28337.744490
0
LINE
8
Layer 1
10
75704.246585
20
28337.744490
11
75717.927261
21
28320.621636
0
LINE
8
Layer 1
10
75717.927261
20
28320.621636
11
75731.160498
21
28303.195933
0
LINE
8
Layer 1
10
75731.160498
20
28303.195933
11
75743.942520
21
28285.476498
0
LINE
8
Layer 1
10
75743.942520
20
28285.476498
11
75756.269548
21
28267.472450
0
LINE
8
Layer 1
10
75756.269548
20
28267.472450
11
75768.137807
21
28249.192909
0
LINE
8
Layer 1
10
75768.137807
20
28249.192909
11
75779.543518
21
28230.646992
0
LINE
8
Layer 1
10
75779.543518
20
28230.646992
11
75790.482905
21
28211.843819
0
LINE
8
Layer 1
10
75790.482905
20
28211.843819
11
75800.952192
21
28192.792507
0
LINE
8
Layer 1
10
75800.952192
20
28192.792507
11
75810.947600
21
28173.502177
0
LINE
8
Layer 1
10
75810.947600
20
28173.502177
11
75820.465352
21
28153.981945
0
LINE
8
Layer 1
10
75820.465352
20
28153.981945
11
75829.501673
21
28134.240932
0
LINE
8
Layer 1
10
75829.501673
20
28134.240932
11
75838.052784
21
28114.288255
0
LINE
8
Layer 1
10
75838.052784
20
28114.288255
11
75846.114909
21
28094.133033
0
LINE
8
Layer 1
10
75846.114909
20
28094.133033
11
75853.684270
21
28073.784385
0
LINE
8
Layer 1
10
75853.684270
20
28073.784385
11
75860.757090
21
28053.251429
0
LINE
8
Layer 1
10
75860.757090
20
28053.251429
11
75867.329593
21
28032.543285
0
LINE
8
Layer 1
10
75867.329593
20
28032.543285
11
75873.398001
21
28011.669070
0
LINE
8
Layer 1
10
75873.398001
20
28011.669070
11
75878.958537
21
27990.637904
0
LINE
8
Layer 1
10
75878.958537
20
27990.637904
11
75884.007425
21
27969.458905
0
LINE
8
Layer 1
10
75884.007425
20
27969.458905
11
75888.540887
21
27948.141191
0
LINE
8
Layer 1
10
75888.540887
20
27948.141191
11
75892.555145
21
27926.693881
0
LINE
8
Layer 1
10
75892.555145
20
27926.693881
11
75896.046424
21
27905.126095
0
LINE
8
Layer 1
10
75896.046424
20
27905.126095
11
75899.010946
21
27883.446950
0
LINE
8
Layer 1
10
75899.010946
20
27883.446950
11
75901.444933
21
27861.665565
0
LINE
8
Layer 1
10
75901.444933
20
27861.665565
11
75903.344609
21
27839.791059
0
LINE
8
Layer 1
10
75903.344609
20
27839.791059
11
75904.706197
21
27817.832550
0
LINE
8
Layer 1
10
75904.706197
20
27817.832550
11
75905.525920
21
27795.799158
0
LINE
8
Layer 1
10
75905.525920
20
27795.799158
11
75905.800000
21
27773.700000
0
LINE
8
Layer 1
10
75905.800000
20
22053.700000
11
75905.800000
21
27773.700000
0
LINE
8
Layer 1
10
75905.800000
20
22053.700000
11
75905.525920
21
22031.600842
0
LINE
8
Layer 1
10
75905.525920
20
22031.600842
11
75904.706197
21
22009.567450
0
LINE
8
Layer 1
10
75904.706197
20
22009.567450
11
75903.344609
21
21987.608941
0
LINE
8
Layer 1
10
75903.344609
20
21987.608941
11
75901.444933
21
21965.734435
0
LINE
8
Layer 1
10
75901.444933
20
21965.734435
11
75899.010946
21
21943.953050
0
LINE
8
Layer 1
10
75899.010946
20
21943.953050
11
75896.046424
21
21922.273905
0
LINE
8
Layer 1
10
75896.046424
20
21922.273905
11
75892.555145
21
21900.706119
0
LINE
8
Layer 1
10
75892.555145
20
21900.706119
11
75888.540887
21
21879.258809
0
LINE
8
Layer 1
10
75888.540887
20
21879.258809
11
75884.007425
21
21857.941095
0
LINE
8
Layer 1
10
75884.007425
20
21857.941095
11
75878.958537
21
21836.762096
0
LINE
8
Layer 1
10
75878.958537
20
21836.762096
11
75873.398001
21
21815.730930
0
LINE
8
Layer 1
10
75873.398001
20
21815.730930
11
75867.329593
21
21794.856715
0
LINE
8
Layer 1
10
75867.329593
20
21794.856715
11
75860.757090
21
21774.148571
0
LINE
8
Layer 1
10
75860.757090
20
21774.148571
11
75853.684270
21
21753.615615
0
LINE
8
Layer 1
10
75853.684270
20
21753.615615
11
75846.114909
21
21733.266967
0
LINE
8
Layer 1
10
75846.114909
20
21733.266967
11
75838.052784
21
21713.111745
0
LINE
8
Layer 1
10
75838.052784
20
21713.111745
11
75829.501673
21
21693.159068
0
LINE
8
Layer 1
10
75829.501673
20
21693.159068
11
75820.465352
21
21673.418055
0
LINE
8
Layer 1
10
75820.465352
20
21673.418055
11
75810.947600
21
21653.897823
0
LINE
8
Layer 1
10
75810.947600
20
21653.897823
11
75800.952192
21
21634.607493
0
LINE
8
Layer 1
10
75800.952192
20
21634.607493
11
75790.482905
21
21615.556181
0
LINE
8
Layer 1
10
75790.482905
20
21615.556181
11
75779.543518
21
21596.753008
0
LINE
8
Layer 1
10
75779.543518
20
21596.753008
11
75768.137807
21
21578.207091
0
LINE
8
Layer 1
10
75768.137807
20
21578.207091
11
75756.269548
21
21559.927550
0
LINE
8
Layer 1
10
75756.269548
20
21559.927550
11
75743.942520
21
21541.923502
0
LINE
8
Layer 1
10
75743.942520
20
21541.923502
11
75731.160498
21
21524.204067
0
LINE
8
Layer 1
10
75731.160498
20
21524.204067
11
75717.927261
21
21506.778364
0
LINE
8
Layer 1
10
75717.927261
20
21506.778364
11
75704.246585
21
21489.655510
0
LINE
8
Layer 1
10
75704.246585
20
21489.655510
11
75690.122248
21
21472.844624
0
LINE
8
Layer 1
10
75690.122248
20
21472.844624
11
75675.558025
21
21456.354826
0
LINE
8
Layer 1
10
75675.558025
20
21456.354826
11
75660.557696
21
21440.195233
0
LINE
8
Layer 1
10
75660.557696
20
21440.195233
11
75645.125035
21
21424.374965
0
LINE
8
Layer 1
10
75645.125035
20
21424.374965
11
75629.304767
21
21408.942304
0
LINE
8
Layer 1
10
75629.304767
20
21408.942304
11
75613.145174
21
21393.941975
0
LINE
8
Layer 1
10
75613.145174
20
21393.941975
11
75596.655376
21
21379.377752
0
LINE
8
Layer 1
10
75596.655376
20
21379.377752
11
75579.844490
21
21365.253415
0
LINE
8
Layer 1
10
75579.844490
20
21365.253415
11
75562.721636
21
21351.572739
0
LINE
8
Layer 1
10
75562.721636
20
21351.572739
11
75545.295933
21
21338.339502
0
LINE
8
Layer 1
10
75545.295933
20
21338.339502
11
75527.576498
21
21325.557480
0
LINE
8
Layer 1
10
75527.576498
20
21325.557480
11
75509.572450
21
21313.230452
0
LINE
8
Layer 1
10
75509.572450
20
21313.230452
11
75491.292909
21
21301.362193
0
LINE
8
Layer 1
10
75491.292909
20
21301.362193
11
75472.746992
21
21289.956482
0
LINE
8
Layer 1
10
75472.746992
20
21289.956482
11
75453.943819
21
21279.017095
0
LINE
8
Layer 1
10
75453.943819
20
21279.017095
11
75434.892507
21
21268.547808
0
LINE
8
Layer 1
10
75434.892507
20
21268.547808
11
75415.602177
21
21258.552400
0
LINE
8
Layer 1
10
75415.602177
20
21258.552400
11
75396.081945
21
21249.034648
0
LINE
8
Layer 1
10
75396.081945
20
21249.034648
11
75376.340932
21
21239.998327
0
LINE
8
Layer 1
10
75376.340932
20
21239.998327
11
75356.388255
21
21231.447216
0
LINE
8
Layer 1
10
75356.388255
20
21231.447216
11
75336.233033
21
21223.385091
0
LINE
8
Layer 1
10
75336.233033
20
21223.385091
11
75315.884385
21
21215.815730
0
LINE
8
Layer 1
10
75315.884385
20
21215.815730
11
75295.351429
21
21208.742910
0
LINE
8
Layer 1
10
75295.351429
20
21208.742910
11
75274.643285
21
21202.170407
0
LINE
8
Layer 1
10
75274.643285
20
21202.170407
11
75253.769070
21
21196.101999
0
LINE
8
Layer 1
10
75253.769070
20
21196.101999
11
75232.737904
21
21190.541463
0
LINE
8
Layer 1
10
75232.737904
20
21190.541463
11
75211.558905
21
21185.492575
0
LINE
8
Layer 1
10
75211.558905
20
21185.492575
11
75190.241191
21
21180.959113
0
LINE
8
Layer 1
10
75190.241191
20
21180.959113
11
75168.793881
21
21176.944855
0
LINE
8
Layer 1
10
75168.793881
20
21176.944855
11
75147.226095
21
21173.453576
0
LINE
8
Layer 1
10
75147.226095
20
21173.453576
11
75125.546950
21
21170.489054
0
LINE
8
Layer 1
10
75125.546950
20
21170.489054
11
75103.765565
21
21168.055067
0
LINE
8
Layer 1
10
75103.765565
20
21168.055067
11
75081.891059
21
21166.155391
0
LINE
8
Layer 1
10
75081.891059
20
21166.155391
11
75059.932550
21
21164.793803
0
LINE
8
Layer 1
10
75059.932550
20
21164.793803
11
75037.899158
21
21163.974080
0
LINE
8
Layer 1
10
75037.899158
20
21163.974080
11
75015.800000
21
21163.700000
0
LINE
8
Layer 1
10
73045.800000
20
21163.700000
11
75015.800000
21
21163.700000
0
LINE
8
Layer 1
10
72155.800000
20
20273.700000
11
72156.074080
21
20295.799158
0
LINE
8
Layer 1
10
72156.074080
20
20295.799158
11
72156.893803
21
20317.832550
0
LINE
8
Layer 1
10
72156.893803
20
20317.832550
11
72158.255391
21
20339.791059
0
LINE
8
Layer 1
10
72158.255391
20
20339.791059
11
72160.155067
21
20361.665565
0
LINE
8
Layer 1
10
72160.155067
20
20361.665565
11
72162.589054
21
20383.446950
0
LINE
8
Layer 1
10
72162.589054
20
20383.446950
11
72165.553576
21
20405.126095
0
LINE
8
Layer 1
10
72165.553576
20
20405.126095
11
72169.044855
21
20426.693881
0
LINE
8
Layer 1
10
72169.044855
20
20426.693881
11
72173.059113
21
20448.141191
0
LINE
8
Layer 1
10
72173.059113
20
20448.141191
11
72177.592575
21
20469.458905
0
LINE
8
Layer 1
10
72177.592575
20
20469.458905
11
72182.641463
21
20490.637904
0
LINE
8
Layer 1
10
72182.641463
20
20490.637904
11
72188.201999
21
20511.669070
0
LINE
8
Layer 1
10
72188.201999
20
20511.669070
11
72194.270407
21
20532.543285
0
LINE
8
Layer 1
10
72194.270407
20
20532.543285
11
72200.842910
21
20553.251429
0
LINE
8
Layer 1
10
72200.842910
20
20553.251429
11
72207.915730
21
20573.784385
0
LINE
8
Layer 1
10
72207.915730
20
20573.784385
11
72215.485091
21
20594.133033
0
LINE
8
Layer 1
10
72215.485091
20
20594.133033
11
72223.547216
21
20614.288255
0
LINE
8
Layer 1
10
72223.547216
20
20614.288255
11
72232.098327
21
20634.240932
0
LINE
8
Layer 1
10
72232.098327
20
20634.240932
11
72241.134648
21
20653.981945
0
LINE
8
Layer 1
10
72241.134648
20
20653.981945
11
72250.652400
21
20673.502177
0
LINE
8
Layer 1
10
72250.652400
20
20673.502177
11
72260.647808
21
20692.792507
0
LINE
8
Layer 1
10
72260.647808
20
20692.792507
11
72271.117095
21
20711.843819
0
LINE
8
Layer 1
10
72271.117095
20
20711.843819
11
72282.056482
21
20730.646992
0
LINE
8
Layer 1
10
72282.056482
20
20730.646992
11
72293.462193
21
20749.192909
0
LINE
8
Layer 1
10
72293.462193
20
20749.192909
11
72305.330452
21
20767.472450
0
LINE
8
Layer 1
10
72305.330452
20
20767.472450
11
72317.657480
21
20785.476498
0
LINE
8
Layer 1
10
72317.657480
20
20785.476498
11
72330.439502
21
20803.195933
0
LINE
8
Layer 1
10
72330.439502
20
20803.195933
11
72343.672739
21
20820.621636
0
LINE
8
Layer 1
10
72343.672739
20
20820.621636
11
72357.353415
21
20837.744490
0
LINE
8
Layer 1
10
72357.353415
20
20837.744490
11
72371.477752
21
20854.555376
0
LINE
8
Layer 1
10
72371.477752
20
20854.555376
11
72386.041975
21
20871.045174
0
LINE
8
Layer 1
10
72386.041975
20
20871.045174
11
72401.042304
21
20887.204767
0
LINE
8
Layer 1
10
72401.042304
20
20887.204767
11
72416.474965
21
20903.025035
0
LINE
8
Layer 1
10
72416.474965
20
20903.025035
11
72432.295233
21
20918.457696
0
LINE
8
Layer 1
10
72432.295233
20
20918.457696
11
72448.454826
21
20933.458025
0
LINE
8
Layer 1
10
72448.454826
20
20933.458025
11
72464.944624
21
20948.022248
0
LINE
8
Layer 1
10
72464.944624
20
20948.022248
11
72481.755510
21
20962.146585
0
LINE
8
Layer 1
10
72481.755510
20
20962.146585
11
72498.878364
21
20975.827261
0
LINE
8
Layer 1
10
72498.878364
20
20975.827261
11
72516.304067
21
20989.060498
0
LINE
8
Layer 1
10
72516.304067
20
20989.060498
11
72534.023502
21
21001.842520
0
LINE
8
Layer 1
10
72534.023502
20
21001.842520
11
72552.027550
21
21014.169548
0
LINE
8
Layer 1
10
72552.027550
20
21014.169548
11
72570.307091
21
21026.037807
0
LINE
8
Layer 1
10
72570.307091
20
21026.037807
11
72588.853008
21
21037.443518
0
LINE
8
Layer 1
10
72588.853008
20
21037.443518
11
72607.656181
21
21048.382905
0
LINE
8
Layer 1
10
72607.656181
20
21048.382905
11
72626.707493
21
21058.852192
0
LINE
8
Layer 1
10
72626.707493
20
21058.852192
11
72645.997823
21
21068.847600
0
LINE
8
Layer 1
10
72645.997823
20
21068.847600
11
72665.518055
21
21078.365352
0
LINE
8
Layer 1
10
72665.518055
20
21078.365352
11
72685.259068
21
21087.401673
0
LINE
8
Layer 1
10
72685.259068
20
21087.401673
11
72705.211745
21
21095.952784
0
LINE
8
Layer 1
10
72705.211745
20
21095.952784
11
72725.366967
21
21104.014909
0
LINE
8
Layer 1
10
72725.366967
20
21104.014909
11
72745.715615
21
21111.584270
0
LINE
8
Layer 1
10
72745.715615
20
21111.584270
11
72766.248571
21
21118.657090
0
LINE
8
Layer 1
10
72766.248571
20
21118.657090
11
72786.956715
21
21125.229593
0
LINE
8
Layer 1
10
72786.956715
20
21125.229593
11
72807.830930
21
21131.298001
0
LINE
8
Layer 1
10
72807.830930
20
21131.298001
11
72828.862096
21
21136.858537
0
LINE
8
Layer 1
10
72828.862096
20
21136.858537
11
72850.041095
21
21141.907425
0
LINE
8
Layer 1
10
72850.041095
20
21141.907425
11
72871.358809
21
21146.440887
0
LINE
8
Layer 1
10
72871.358809
20
21146.440887
11
72892.806119
21
21150.455145
0
LINE
8
Layer 1
10
72892.806119
20
21150.455145
11
72914.373905
21
21153.946424
0
LINE
8
Layer 1
10
72914.373905
20
21153.946424
11
72936.053050
21
21156.910946
0
LINE
8
Layer 1
10
72936.053050
20
21156.910946
11
72957.834435
21
21159.344933
0
LINE
8
Layer 1
10
72957.834435
20
21159.344933
11
72979.708941
21
21161.244609
0
LINE
8
Layer 1
10
72979.708941
20
21161.244609
11
73001.667450
21
21162.606197
0
LINE
8
Layer 1
10
73001.667450
20
21162.606197
11
73023.700842
21
21163.425920
0
LINE
8
Layer 1
10
73023.700842
20
21163.425920
11
73045.800000
21
21163.700000
0
LINE
8
Layer 1
10
72155.800000
20
14553.700000
11
72155.800000
21
20273.700000
0
LINE
8
Layer 1
10
71265.800000
20
13663.700000
11
71170.800000
21
13663.700000
0
LINE
8
Layer 1
10
72155.800000
20
14553.700000
11
72155.525920
21
14531.600842
0
LINE
8
Layer 1
10
72155.525920
20
14531.600842
11
72154.706197
21
14509.567450
0
LINE
8
Layer 1
10
72154.706197
20
14509.567450
11
72153.344609
21
14487.608941
0
LINE
8
Layer 1
10
72153.344609
20
14487.608941
11
72151.444933
21
14465.734435
0
LINE
8
Layer 1
10
72151.444933
20
14465.734435
11
72149.010946
21
14443.953050
0
LINE
8
Layer 1
10
72149.010946
20
14443.953050
11
72146.046424
21
14422.273905
0
LINE
8
Layer 1
10
72146.046424
20
14422.273905
11
72142.555145
21
14400.706119
0
LINE
8
Layer 1
10
72142.555145
20
14400.706119
11
72138.540887
21
14379.258809
0
LINE
8
Layer 1
10
72138.540887
20
14379.258809
11
72134.007425
21
14357.941095
0
LINE
8
Layer 1
10
72134.007425
20
14357.941095
11
72128.958537
21
14336.762096
0
LINE
8
Layer 1
10
72128.958537
20
14336.762096
11
72123.398001
21
14315.730930
0
LINE
8
Layer 1
10
72123.398001
20
14315.730930
11
72117.329593
21
14294.856715
0
LINE
8
Layer 1
10
72117.329593
20
14294.856715
11
72110.757090
21
14274.148571
0
LINE
8
Layer 1
10
72110.757090
20
14274.148571
11
72103.684270
21
14253.615615
0
LINE
8
Layer 1
10
72103.684270
20
14253.615615
11
72096.114909
21
14233.266967
0
LINE
8
Layer 1
10
72096.114909
20
14233.266967
11
72088.052784
21
14213.111745
0
LINE
8
Layer 1
10
72088.052784
20
14213.111745
11
72079.501673
21
14193.159068
0
LINE
8
Layer 1
10
72079.501673
20
14193.159068
11
72070.465352
21
14173.418055
0
LINE
8
Layer 1
10
72070.465352
20
14173.418055
11
72060.947600
21
14153.897823
0
LINE
8
Layer 1
10
72060.947600
20
14153.897823
11
72050.952192
21
14134.607493
0
LINE
8
Layer 1
10
72050.952192
20
14134.607493
11
72040.482905
21
14115.556181
0
LINE
8
Layer 1
10
72040.482905
20
14115.556181
11
72029.543518
21
14096.753008
0
LINE
8
Layer 1
10
72029.543518
20
14096.753008
11
72018.137807
21
14078.207091
0
LINE
8
Layer 1
10
72018.137807
20
14078.207091
11
72006.269548
21
14059.927550
0
LINE
8
Layer 1
10
72006.269548
20
14059.927550
11
71993.942520
21
14041.923502
0
LINE
8
Layer 1
10
71993.942520
20
14041.923502
11
71981.160498
21
14024.204067
0
LINE
8
Layer 1
10
71981.160498
20
14024.204067
11
71967.927261
21
14006.778364
0
LINE
8
Layer 1
10
71967.927261
20
14006.778364
11
71954.246585
21
13989.655510
0
LINE
8
Layer 1
10
71954.246585
20
13989.655510
11
71940.122248
21
13972.844624
0
LINE
8
Layer 1
10
71940.122248
20
13972.844624
11
71925.558025
21
13956.354826
0
LINE
8
Layer 1
10
71925.558025
20
13956.354826
11
71910.557696
21
13940.195233
0
LINE
8
Layer 1
10
71910.557696
20
13940.195233
11
71895.125035
21
13924.374965
0
LINE
8
Layer 1
10
71895.125035
20
13924.374965
11
71879.304767
21
13908.942304
0
LINE
8
Layer 1
10
71879.304767
20
13908.942304
11
71863.145174
21
13893.941975
0
LINE
8
Layer 1
10
71863.145174
20
13893.941975
11
71846.655376
21
13879.377752
0
LINE
8
Layer 1
10
71846.655376
20
13879.377752
11
71829.844490
21
13865.253415
0
LINE
8
Layer 1
10
71829.844490
20
13865.253415
11
71812.721636
21
13851.572739
0
LINE
8
Layer 1
10
71812.721636
20
13851.572739
11
71795.295933
21
13838.339502
0
LINE
8
Layer 1
10
71795.295933
20
13838.339502
11
71777.576498
21
13825.557480
0
LINE
8
Layer 1
10
71777.576498
20
13825.557480
11
71759.572450
21
13813.230452
0
LINE
8
Layer 1
10
71759.572450
20
13813.230452
11
71741.292909
21
13801.362193
0
LINE
8
Layer 1
10
71741.292909
20
13801.362193
11
71722.746992
21
13789.956482
0
LINE
8
Layer 1
10
71722.746992
20
13789.956482
11
71703.943819
21
13779.017095
0
LINE
8
Layer 1
10
71703.943819
20
13779.017095
11
71684.892507
21
13768.547808
0
LINE
8
Layer 1
10
71684.892507
20
13768.547808
11
71665.602177
21
13758.552400
0
LINE
8
Layer 1
10
71665.602177
20
13758.552400
11
71646.081945
21
13749.034648
0
LINE
8
Layer 1
10
71646.081945
20
13749.034648
11
71626.340932
21
13739.998327
0
LINE
8
Layer 1
10
71626.340932
20
13739.998327
11
71606.388255
21
13731.447216
0
LINE
8
Layer 1
10
71606.388255
20
13731.447216
11
71586.233033
21
13723.385091
0
LINE
8
Layer 1
10
71586.233033
20
13723.385091
11
71565.884385
21
13715.815730
0
LINE
8
Layer 1
10
71565.884385
20
13715.815730
11
71545.351429
21
13708.742910
0
LINE
8
Layer 1
10
71545.351429
20
13708.742910
11
71524.643285
21
13702.170407
0
LINE
8
Layer 1
10
71524.643285
20
13702.170407
11
71503.769070
21
13696.101999
0
LINE
8
Layer 1
10
71503.769070
20
13696.101999
11
71482.737904
21
13690.541463
0
LINE
8
Layer 1
10
71482.737904
20
13690.541463
11
71461.558905
21
13685.492575
0
LINE
8
Layer 1
10
71461.558905
20
13685.492575
11
71440.241191
21
13680.959113
0
LINE
8
Layer 1
10
71440.241191
20
13680.959113
11
71418.793881
21
13676.944855
0
LINE
8
Layer 1
10
71418.793881
20
13676.944855
11
71397.226095
21
13673.453576
0
LINE
8
Layer 1
10
71397.226095
20
13673.453576
11
71375.546950
21
13670.489054
0
LINE
8
Layer 1
10
71375.546950
20
13670.489054
11
71353.765565
21
13668.055067
0
LINE
8
Layer 1
10
71353.765565
20
13668.055067
11
71331.891059
21
13666.155391
0
LINE
8
Layer 1
10
71331.891059
20
13666.155391
11
71309.932550
21
13664.793803
0
LINE
8
Layer 1
10
71309.932550
20
13664.793803
11
71287.899158
21
13663.974080
0
LINE
8
Layer 1
10
71287.899158
20
13663.974080
11
71265.800000
21
13663.700000
0
LINE
8
Layer 1
10
70280.800000
20
12773.700000
11
70281.074080
21
12795.799158
0
LINE
8
Layer 1
10
70281.074080
20
12795.799158
11
70281.893803
21
12817.832550
0
LINE
8
Layer 1
10
70281.893803
20
12817.832550
11
70283.255391
21
12839.791059
0
LINE
8
Layer 1
10
70283.255391
20
12839.791059
11
70285.155067
21
12861.665565
0
LINE
8
Layer 1
10
70285.155067
20
12861.665565
11
70287.589054
21
12883.446950
0
LINE
8
Layer 1
10
70287.589054
20
12883.446950
11
70290.553576
21
12905.126095
0
LINE
8
Layer 1
10
70290.553576
20
12905.126095
11
70294.044855
21
12926.693881
0
LINE
8
Layer 1
10
70294.044855
20
12926.693881
11
70298.059113
21
12948.141191
0
LINE
8
Layer 1
10
70298.059113
20
12948.141191
11
70302.592575
21
12969.458905
0
LINE
8
Layer 1
10
70302.592575
20
12969.458905
11
70307.641463
21
12990.637904
0
LINE
8
Layer 1
10
70307.641463
20
12990.637904
11
70313.201999
21
13011.669070
0
LINE
8
Layer 1
10
70313.201999
20
13011.669070
11
70319.270407
21
13032.543285
0
LINE
8
Layer 1
10
70319.270407
20
13032.543285
11
70325.842910
21
13053.251429
0
LINE
8
Layer 1
10
70325.842910
20
13053.251429
11
70332.915730
21
13073.784385
0
LINE
8
Layer 1
10
70332.915730
20
13073.784385
11
70340.485091
21
13094.133033
0
LINE
8
Layer 1
10
70340.485091
20
13094.133033
11
70348.547216
21
13114.288255
0
LINE
8
Layer 1
10
70348.547216
20
13114.288255
11
70357.098327
21
13134.240932
0
LINE
8
Layer 1
10
70357.098327
20
13134.240932
11
70366.134648
21
13153.981945
0
LINE
8
Layer 1
10
70366.134648
20
13153.981945
11
70375.652400
21
13173.502177
0
LINE
8
Layer 1
10
70375.652400
20
13173.502177
11
70385.647808
21
13192.792507
0
LINE
8
Layer 1
10
70385.647808
20
13192.792507
11
70396.117095
21
13211.843819
0
LINE
8
Layer 1
10
70396.117095
20
13211.843819
11
70407.056482
21
13230.646992
0
LINE
8
Layer 1
10
70407.056482
20
13230.646992
11
70418.462193
21
13249.192909
0
LINE
8
Layer 1
10
70418.462193
20
13249.192909
11
70430.330452
21
13267.472450
0
LINE
8
Layer 1
10
70430.330452
20
13267.472450
11
70442.657480
21
13285.476498
0
LINE
8
Layer 1
10
70442.657480
20
13285.476498
11
70455.439502
21
13303.195933
0
LINE
8
Layer 1
10
70455.439502
20
13303.195933
11
70468.672739
21
13320.621636
0
LINE
8
Layer 1
10
70468.672739
20
13320.621636
11
70482.353415
21
13337.744490
0
LINE
8
Layer 1
10
70482.353415
20
13337.744490
11
70496.477752
21
13354.555376
0
LINE
8
Layer 1
10
70496.477752
20
13354.555376
11
70511.041975
21
13371.045174
0
LINE
8
Layer 1
10
70511.041975
20
13371.045174
11
70526.042304
21
13387.204767
0
LINE
8
Layer 1
10
70526.042304
20
13387.204767
11
70541.474965
21
13403.025035
0
LINE
8
Layer 1
10
70541.474965
20
13403.025035
11
70557.295233
21
13418.457696
0
LINE
8
Layer 1
10
70557.295233
20
13418.457696
11
70573.454826
21
13433.458025
0
LINE
8
Layer 1
10
70573.454826
20
13433.458025
11
70589.944624
21
13448.022248
0
LINE
8
Layer 1
10
70589.944624
20
13448.022248
11
70606.755510
21
13462.146585
0
LINE
8
Layer 1
10
70606.755510
20
13462.146585
11
70623.878364
21
13475.827261
0
LINE
8
Layer 1
10
70623.878364
20
13475.827261
11
70641.304067
21
13489.060498
0
LINE
8
Layer 1
10
70641.304067
20
13489.060498
11
70659.023502
21
13501.842520
0
LINE
8
Layer 1
10
70659.023502
20
13501.842520
11
70677.027550
21
13514.169548
0
LINE
8
Layer 1
10
70677.027550
20
13514.169548
11
70695.307091
21
13526.037807
0
LINE
8
Layer 1
10
70695.307091
20
13526.037807
11
70713.853008
21
13537.443518
0
LINE
8
Layer 1
10
70713.853008
20
13537.443518
11
70732.656181
21
13548.382905
0
LINE
8
Layer 1
10
70732.656181
20
13548.382905
11
70751.707493
21
13558.852192
0
LINE
8
Layer 1
10
70751.707493
20
13558.852192
11
70770.997823
21
13568.847600
0
LINE
8
Layer 1
10
70770.997823
20
13568.847600
11
70790.518055
21
13578.365352
0
LINE
8
Layer 1
10
70790.518055
20
13578.365352
11
70810.259068
21
13587.401673
0
LINE
8
Layer 1
10
70810.259068
20
13587.401673
11
70830.211745
21
13595.952784
0
LINE
8
Layer 1
10
70830.211745
20
13595.952784
11
70850.366967
21
13604.014909
0
LINE
8
Layer 1
10
70850.366967
20
13604.014909
11
70870.715615
21
13611.584270
0
LINE
8
Layer 1
10
70870.715615
20
13611.584270
11
70891.248571
21
13618.657090
0
LINE
8
Layer 1
10
70891.248571
20
13618.657090
11
70911.956715
21
13625.229593
0
LINE
8
Layer 1
10
70911.956715
20
13625.229593
11
70932.830930
21
13631.298001
0
LINE
8
Layer 1
10
70932.830930
20
13631.298001
11
70953.862096
21
13636.858537
0
LINE
8
Layer 1
10
70953.862096
20
13636.858537
11
70975.041095
21
13641.907425
0
LINE
8
Layer 1
10
70975.041095
20
13641.907425
11
70996.358809
21
13646.440887
0
LINE
8
Layer 1
10
70996.358809
20
13646.440887
11
71017.806119
21
13650.455145
0
LINE
8
Layer 1
10
71017.806119
20
13650.455145
11
71039.373905
21
13653.946424
0
LINE
8
Layer 1
10
71039.373905
20
13653.946424
11
71061.053050
21
13656.910946
0
LINE
8
Layer 1
10
71061.053050
20
13656.910946
11
71082.834435
21
13659.344933
0
LINE
8
Layer 1
10
71082.834435
20
13659.344933
11
71104.708941
21
13661.244609
0
LINE
8
Layer 1
10
71104.708941
20
13661.244609
11
71126.667450
21
13662.606197
0
LINE
8
Layer 1
10
71126.667450
20
13662.606197
11
71148.700842
21
13663.425920
0
LINE
8
Layer 1
10
71148.700842
20
13663.425920
11
71170.800000
21
13663.700000
0
LINE
8
Layer 1
10
70280.800000
20
6163.660000
11
70280.800000
21
12773.700000
0
LINE
8
Layer 1
10
70280.800000
20
6163.660000
11
70280.800000
21
3058.660000
0
LINE
8
Layer 1
10
70280.800000
20
2398.660000
11
70280.800000
21
3058.660000
0
LINE
8
Layer 1
10
70515.800000
20
2163.660000
11
70504.147023
21
2163.948813
0
LINE
8
Layer 1
10
70504.147023
20
2163.948813
11
70492.573137
21
2164.809933
0
LINE
8
Layer 1
10
70492.573137
20
2164.809933
11
70481.097604
21
2166.235382
0
LINE
8
Layer 1
10
70481.097604
20
2166.235382
11
70469.739686
21
2168.217182
0
LINE
8
Layer 1
10
70469.739686
20
2168.217182
11
70458.518643
21
2170.747352
0
LINE
8
Layer 1
10
70458.518643
20
2170.747352
11
70447.453739
21
2173.817916
0
LINE
8
Layer 1
10
70447.453739
20
2173.817916
11
70436.564235
21
2177.420895
0
LINE
8
Layer 1
10
70436.564235
20
2177.420895
11
70425.869393
21
2181.548310
0
LINE
8
Layer 1
10
70425.869393
20
2181.548310
11
70415.388475
21
2186.192182
0
LINE
8
Layer 1
10
70415.388475
20
2186.192182
11
70405.140742
21
2191.344534
0
LINE
8
Layer 1
10
70405.140742
20
2191.344534
11
70395.145457
21
2196.997386
0
LINE
8
Layer 1
10
70395.145457
20
2196.997386
11
70385.421881
21
2203.142760
0
LINE
8
Layer 1
10
70385.421881
20
2203.142760
11
70375.989276
21
2209.772677
0
LINE
8
Layer 1
10
70375.989276
20
2209.772677
11
70366.866904
21
2216.879160
0
LINE
8
Layer 1
10
70366.866904
20
2216.879160
11
70358.074027
21
2224.454229
0
LINE
8
Layer 1
10
70358.074027
20
2224.454229
11
70349.629906
21
2232.489906
0
LINE
8
Layer 1
10
70349.629906
20
2232.489906
11
70341.594229
21
2240.934027
0
LINE
8
Layer 1
10
70341.594229
20
2240.934027
11
70334.019160
21
2249.726904
0
LINE
8
Layer 1
10
70334.019160
20
2249.726904
11
70326.912677
21
2258.849276
0
LINE
8
Layer 1
10
70326.912677
20
2258.849276
11
70320.282760
21
2268.281881
0
LINE
8
Layer 1
10
70320.282760
20
2268.281881
11
70314.137386
21
2278.005457
0
LINE
8
Layer 1
10
70314.137386
20
2278.005457
11
70308.484534
21
2288.000742
0
LINE
8
Layer 1
10
70308.484534
20
2288.000742
11
70303.332182
21
2298.248475
0
LINE
8
Layer 1
10
70303.332182
20
2298.248475
11
70298.688310
21
2308.729393
0
LINE
8
Layer 1
10
70298.688310
20
2308.729393
11
70294.560895
21
2319.424235
0
LINE
8
Layer 1
10
70294.560895
20
2319.424235
11
70290.957916
21
2330.313739
0
LINE
8
Layer 1
10
70290.957916
20
2330.313739
11
70287.887352
21
2341.378643
0
LINE
8
Layer 1
10
70287.887352
20
2341.378643
11
70285.357182
21
2352.599686
0
LINE
8
Layer 1
10
70285.357182
20
2352.599686
11
70283.375382
21
2363.957604
0
LINE
8
Layer 1
10
70283.375382
20
2363.957604
11
70281.949933
21
2375.433137
0
LINE
8
Layer 1
10
70281.949933
20
2375.433137
11
70281.088813
21
2387.007023
0
LINE
8
Layer 1
10
70281.088813
20
2387.007023
11
70280.800000
21
2398.660000
0
LINE
8
Layer 1
10
86400.800000
20
7303.660000
11
91095.800000
21
7303.660000
0
LINE
8
Layer 1
10
91095.800000
20
7303.660000
11
91095.800000
21
2163.660000
0
LINE
8
Layer 1
10
70515.800000
20
2163.660000
11
91095.800000
21
2163.660000
0
LINE
8
Layer 1
10
94585.800000
20
2163.660000
11
94585.800000
21
7288.660000
0
LINE
8
Layer 1
10
94585.800000
20
2163.660000
11
127646.000000
21
2163.660000
0
LINE
8
Layer 1
10
128536.000000
20
3053.660000
11
128535.725920
21
3031.560842
0
LINE
8
Layer 1
10
128535.725920
20
3031.560842
11
128534.906197
21
3009.527450
0
LINE
8
Layer 1
10
128534.906197
20
3009.527450
11
128533.544609
21
2987.568941
0
LINE
8
Layer 1
10
128533.544609
20
2987.568941
11
128531.644933
21
2965.694435
0
LINE
8
Layer 1
10
128531.644933
20
2965.694435
11
128529.210946
21
2943.913050
0
LINE
8
Layer 1
10
128529.210946
20
2943.913050
11
128526.246424
21
2922.233905
0
LINE
8
Layer 1
10
128526.246424
20
2922.233905
11
128522.755145
21
2900.666119
0
LINE
8
Layer 1
10
128522.755145
20
2900.666119
11
128518.740887
21
2879.218809
0
LINE
8
Layer 1
10
128518.740887
20
2879.218809
11
128514.207425
21
2857.901095
0
LINE
8
Layer 1
10
128514.207425
20
2857.901095
11
128509.158537
21
2836.722096
0
LINE
8
Layer 1
10
128509.158537
20
2836.722096
11
128503.598001
21
2815.690930
0
LINE
8
Layer 1
10
128503.598001
20
2815.690930
11
128497.529593
21
2794.816715
0
LINE
8
Layer 1
10
128497.529593
20
2794.816715
11
128490.957090
21
2774.108571
0
LINE
8
Layer 1
10
128490.957090
20
2774.108571
11
128483.884270
21
2753.575615
0
LINE
8
Layer 1
10
128483.884270
20
2753.575615
11
128476.314909
21
2733.226967
0
LINE
8
Layer 1
10
128476.314909
20
2733.226967
11
128468.252784
21
2713.071745
0
LINE
8
Layer 1
10
128468.252784
20
2713.071745
11
128459.701673
21
2693.119068
0
LINE
8
Layer 1
10
128459.701673
20
2693.119068
11
128450.665352
21
2673.378055
0
LINE
8
Layer 1
10
128450.665352
20
2673.378055
11
128441.147600
21
2653.857823
0
LINE
8
Layer 1
10
128441.147600
20
2653.857823
11
128431.152192
21
2634.567493
0
LINE
8
Layer 1
10
128431.152192
20
2634.567493
11
128420.682905
21
2615.516181
0
LINE
8
Layer 1
10
128420.682905
20
2615.516181
11
128409.743518
21
2596.713008
0
LINE
8
Layer 1
10
128409.743518
20
2596.713008
11
128398.337807
21
2578.167091
0
LINE
8
Layer 1
10
128398.337807
20
2578.167091
11
128386.469548
21
2559.887550
0
LINE
8
Layer 1
10
128386.469548
20
2559.887550
11
128374.142520
21
2541.883502
0
LINE
8
Layer 1
10
128374.142520
20
2541.883502
11
128361.360498
21
2524.164067
0
LINE
8
Layer 1
10
128361.360498
20
2524.164067
11
128348.127261
21
2506.738364
0
LINE
8
Layer 1
10
128348.127261
20
2506.738364
11
128334.446585
21
2489.615510
0
LINE
8
Layer 1
10
128334.446585
20
2489.615510
11
128320.322248
21
2472.804624
0
LINE
8
Layer 1
10
128320.322248
20
2472.804624
11
128305.758025
21
2456.314826
0
LINE
8
Layer 1
10
128305.758025
20
2456.314826
11
128290.757696
21
2440.155233
0
LINE
8
Layer 1
10
128290.757696
20
2440.155233
11
128275.325035
21
2424.334965
0
LINE
8
Layer 1
10
128275.325035
20
2424.334965
11
128259.504767
21
2408.902304
0
LINE
8
Layer 1
10
128259.504767
20
2408.902304
11
128243.345174
21
2393.901975
0
LINE
8
Layer 1
10
128243.345174
20
2393.901975
11
128226.855376
21
2379.337752
0
LINE
8
Layer 1
10
128226.855376
20
2379.337752
11
128210.044490
21
2365.213415
0
LINE
8
Layer 1
10
128210.044490
20
2365.213415
11
128192.921636
21
2351.532739
0
LINE
8
Layer 1
10
128192.921636
20
2351.532739
11
128175.495933
21
2338.299502
0
LINE
8
Layer 1
10
128175.495933
20
2338.299502
11
128157.776498
21
2325.517480
0
LINE
8
Layer 1
10
128157.776498
20
2325.517480
11
128139.772450
21
2313.190452
0
LINE
8
Layer 1
10
128139.772450
20
2313.190452
11
128121.492909
21
2301.322193
0
LINE
8
Layer 1
10
128121.492909
20
2301.322193
11
128102.946992
21
2289.916482
0
LINE
8
Layer 1
10
128102.946992
20
2289.916482
11
128084.143819
21
2278.977095
0
LINE
8
Layer 1
10
128084.143819
20
2278.977095
11
128065.092507
21
2268.507808
0
LINE
8
Layer 1
10
128065.092507
20
2268.507808
11
128045.802177
21
2258.512400
0
LINE
8
Layer 1
10
128045.802177
20
2258.512400
11
128026.281945
21
2248.994648
0
LINE
8
Layer 1
10
128026.281945
20
2248.994648
11
128006.540932
21
2239.958327
0
LINE
8
Layer 1
10
128006.540932
20
2239.958327
11
127986.588255
21
2231.407216
0
LINE
8
Layer 1
10
127986.588255
20
2231.407216
11
127966.433033
21
2223.345091
0
LINE
8
Layer 1
10
127966.433033
20
2223.345091
11
127946.084385
21
2215.775730
0
LINE
8
Layer 1
10
127946.084385
20
2215.775730
11
127925.551429
21
2208.702910
0
LINE
8
Layer 1
10
127925.551429
20
2208.702910
11
127904.843285
21
2202.130407
0
LINE
8
Layer 1
10
127904.843285
20
2202.130407
11
127883.969070
21
2196.061999
0
LINE
8
Layer 1
10
127883.969070
20
2196.061999
11
127862.937904
21
2190.501463
0
LINE
8
Layer 1
10
127862.937904
20
2190.501463
11
127841.758905
21
2185.452575
0
LINE
8
Layer 1
10
127841.758905
20
2185.452575
11
127820.441191
21
2180.919113
0
LINE
8
Layer 1
10
127820.441191
20
2180.919113
11
127798.993881
21
2176.904855
0
LINE
8
Layer 1
10
127798.993881
20
2176.904855
11
127777.426095
21
2173.413576
0
LINE
8
Layer 1
10
127777.426095
20
2173.413576
11
127755.746950
21
2170.449054
0
LINE
8
Layer 1
10
127755.746950
20
2170.449054
11
127733.965565
21
2168.015067
0
LINE
8
Layer 1
10
127733.965565
20
2168.015067
11
127712.091059
21
2166.115391
0
LINE
8
Layer 1
10
127712.091059
20
2166.115391
11
127690.132550
21
2164.753803
0
LINE
8
Layer 1
10
127690.132550
20
2164.753803
11
127668.099158
21
2163.934080
0
LINE
8
Layer 1
10
127668.099158
20
2163.934080
11
127646.000000
21
2163.660000
0
LINE
8
Layer 1
10
128536.000000
20
6238.660000
11
115066.000000
21
6238.660000
0
LINE
8
Layer 1
10
128536.000000
20
6238.660000
11
128536.000000
21
3053.660000
0
LINE
8
Layer 1
10
86010.800000
20
18138.700000
11
88275.800000
21
18138.700000
0
LINE
8
Layer 1
10
128536.000000
20
13623.700000
11
128536.000000
21
37258.700000
0
LINE
8
Layer 1
10
127646.000000
20
38148.700000
11
127668.099158
21
38148.425920
0
LINE
8
Layer 1
10
127668.099158
20
38148.425920
11
127690.132550
21
38147.606197
0
LINE
8
Layer 1
10
127690.132550
20
38147.606197
11
127712.091059
21
38146.244609
0
LINE
8
Layer 1
10
127712.091059
20
38146.244609
11
127733.965565
21
38144.344933
0
LINE
8
Layer 1
10
127733.965565
20
38144.344933
11
127755.746950
21
38141.910946
0
LINE
8
Layer 1
10
127755.746950
20
38141.910946
11
127777.426095
21
38138.946424
0
LINE
8
Layer 1
10
127777.426095
20
38138.946424
11
127798.993881
21
38135.455145
0
LINE
8
Layer 1
10
127798.993881
20
38135.455145
11
127820.441191
21
38131.440887
0
LINE
8
Layer 1
10
127820.441191
20
38131.440887
11
127841.758905
21
38126.907425
0
LINE
8
Layer 1
10
127841.758905
20
38126.907425
11
127862.937904
21
38121.858537
0
LINE
8
Layer 1
10
127862.937904
20
38121.858537
11
127883.969070
21
38116.298001
0
LINE
8
Layer 1
10
127883.969070
20
38116.298001
11
127904.843285
21
38110.229593
0
LINE
8
Layer 1
10
127904.843285
20
38110.229593
11
127925.551429
21
38103.657090
0
LINE
8
Layer 1
10
127925.551429
20
38103.657090
11
127946.084385
21
38096.584270
0
LINE
8
Layer 1
10
127946.084385
20
38096.584270
11
127966.433033
21
38089.014909
0
LINE
8
Layer 1
10
127966.433033
20
38089.014909
11
127986.588255
21
38080.952784
0
LINE
8
Layer 1
10
127986.588255
20
38080.952784
11
128006.540932
21
38072.401673
0
LINE
8
Layer 1
10
128006.540932
20
38072.401673
11
128026.281945
21
38063.365352
0
LINE
8
Layer 1
10
128026.281945
20
38063.365352
11
128045.802177
21
38053.847600
0
LINE
8
Layer 1
10
128045.802177
20
38053.847600
11
128065.092507
21
38043.852192
0
LINE
8
Layer 1
10
128065.092507
20
38043.852192
11
128084.143819
21
38033.382905
0
LINE
8
Layer 1
10
128084.143819
20
38033.382905
11
128102.946992
21
38022.443518
0
LINE
8
Layer 1
10
128102.946992
20
38022.443518
11
128121.492909
21
38011.037807
0
LINE
8
Layer 1
10
128121.492909
20
38011.037807
11
128139.772450
21
37999.169548
0
LINE
8
Layer 1
10
128139.772450
20
37999.169548
11
128157.776498
21
37986.842520
0
LINE
8
Layer 1
10
128157.776498
20
37986.842520
11
128175.495933
21
37974.060498
0
LINE
8
Layer 1
10
128175.495933
20
37974.060498
11
128192.921636
21
37960.827261
0
LINE
8
Layer 1
10
128192.921636
20
37960.827261
11
128210.044490
21
37947.146585
0
LINE
8
Layer 1
10
128210.044490
20
37947.146585
11
128226.855376
21
37933.022248
0
LINE
8
Layer 1
10
128226.855376
20
37933.022248
11
128243.345174
21
37918.458025
0
LINE
8
Layer 1
10
128243.345174
20
37918.458025
11
128259.504767
21
37903.457696
0
LINE
8
Layer 1
10
128259.504767
20
37903.457696
11
128275.325035
21
37888.025035
0
LINE
8
Layer 1
10
128275.325035
20
37888.025035
11
128290.757696
21
37872.204767
0
LINE
8
Layer 1
10
128290.757696
20
37872.204767
11
128305.758025
21
37856.045174
0
LINE
8
Layer 1
10
128305.758025
20
37856.045174
11
128320.322248
21
37839.555376
0
LINE
8
Layer 1
10
128320.322248
20
37839.555376
11
128334.446585
21
37822.744490
0
LINE
8
Layer 1
10
128334.446585
20
37822.744490
11
128348.127261
21
37805.621636
0
LINE
8
Layer 1
10
128348.127261
20
37805.621636
11
128361.360498
21
37788.195933
0
LINE
8
Layer 1
10
128361.360498
20
37788.195933
11
128374.142520
21
37770.476498
0
LINE
8
Layer 1
10
128374.142520
20
37770.476498
11
128386.469548
21
37752.472450
0
LINE
8
Layer 1
10
128386.469548
20
37752.472450
11
128398.337807
21
37734.192909
0
LINE
8
Layer 1
10
128398.337807
20
37734.192909
11
128409.743518
21
37715.646992
0
LINE
8
Layer 1
10
128409.743518
20
37715.646992
11
128420.682905
21
37696.843819
0
LINE
8
Layer 1
10
128420.682905
20
37696.843819
11
128431.152192
21
37677.792507
0
LINE
8
Layer 1
10
128431.152192
20
37677.792507
11
128441.147600
21
37658.502177
0
LINE
8
Layer 1
10
128441.147600
20
37658.502177
11
128450.665352
21
37638.981945
0
LINE
8
Layer 1
10
128450.665352
20
37638.981945
11
128459.701673
21
37619.240932
0
LINE
8
Layer 1
10
128459.701673
20
37619.240932
11
128468.252784
21
37599.288255
0
LINE
8
Layer 1
10
128468.252784
20
37599.288255
11
128476.314909
21
37579.133033
0
LINE
8
Layer 1
10
128476.314909
20
37579.133033
11
128483.884270
21
37558.784385
0
LINE
8
Layer 1
10
128483.884270
20
37558.784385
11
128490.957090
21
37538.251429
0
LINE
8
Layer 1
10
128490.957090
20
37538.251429
11
128497.529593
21
37517.543285
0
LINE
8
Layer 1
10
128497.529593
20
37517.543285
11
128503.598001
21
37496.669070
0
LINE
8
Layer 1
10
128503.598001
20
37496.669070
11
128509.158537
21
37475.637904
0
LINE
8
Layer 1
10
128509.158537
20
37475.637904
11
128514.207425
21
37454.458905
0
LINE
8
Layer 1
10
128514.207425
20
37454.458905
11
128518.740887
21
37433.141191
0
LINE
8
Layer 1
10
128518.740887
20
37433.141191
11
128522.755145
21
37411.693881
0
LINE
8
Layer 1
10
128522.755145
20
37411.693881
11
128526.246424
21
37390.126095
0
LINE
8
Layer 1
10
128526.246424
20
37390.126095
11
128529.210946
21
37368.446950
0
LINE
8
Layer 1
10
128529.210946
20
37368.446950
11
128531.644933
21
37346.665565
0
LINE
8
Layer 1
10
128531.644933
20
37346.665565
11
128533.544609
21
37324.791059
0
LINE
8
Layer 1
10
128533.544609
20
37324.791059
11
128534.906197
21
37302.832550
0
LINE
8
Layer 1
10
128534.906197
20
37302.832550
11
128535.725920
21
37280.799158
0
LINE
8
Layer 1
10
128535.725920
20
37280.799158
11
128536.000000
21
37258.700000
0
LINE
8
Layer 1
10
120056.000000
20
29798.700000
11
119796.000000
21
29798.700000
0
LINE
8
Layer 1
10
120056.000000
20
27648.700000
11
120056.000000
21
29798.700000
0
LINE
8
Layer 1
10
116216.000000
20
29798.700000
11
116216.000000
21
27648.700000
0
LINE
8
Layer 1
10
116216.000000
20
27648.700000
11
120056.000000
21
27648.700000
0
LINE
8
Layer 1
10
111821.000000
20
29798.700000
11
112216.000000
21
29798.700000
0
LINE
8
Layer 1
10
107981.000000
20
27593.700000
11
111821.000000
21
27593.700000
0
LINE
8
Layer 1
10
111821.000000
20
27593.700000
11
111821.000000
21
29798.700000
0
LINE
8
Layer 1
10
107981.000000
20
29798.700000
11
107981.000000
21
27593.700000
0
LINE
8
Layer 1
10
104426.000000
20
27638.700000
11
104426.000000
21
29783.700000
0
LINE
8
Layer 1
10
100586.000000
20
29783.700000
11
100586.000000
21
27638.700000
0
LINE
8
Layer 1
10
104426.000000
20
29783.700000
11
104796.000000
21
29783.700000
0
LINE
8
Layer 1
10
100586.000000
20
27638.700000
11
104426.000000
21
27638.700000
0
LINE
8
Layer 1
10
97305.800000
20
27618.700000
11
97305.800000
21
28558.700000
0
LINE
8
Layer 1
10
93465.800000
20
29778.700000
11
93465.800000
21
27618.700000
0
LINE
8
Layer 1
10
93465.800000
20
27618.700000
11
97305.800000
21
27618.700000
0
LINE
8
Layer 1
10
90945.800000
20
27563.700000
11
90945.800000
21
28503.700000
0
LINE
8
Layer 1
10
90945.800000
20
28503.700000
11
88230.800000
21
28503.700000
0
LINE
8
Layer 1
10
87105.800000
20
27563.700000
11
90945.800000
21
27563.700000
0
LINE
8
Layer 1
10
87105.800000
20
28503.700000
11
87105.800000
21
27563.700000
0
LINE
8
Layer 1
10
79555.800000
20
28538.700000
11
79555.800000
21
27598.700000
0
LINE
8
Layer 1
10
83395.800000
20
28538.700000
11
79555.800000
21
28538.700000
0
LINE
8
Layer 1
10
83395.800000
20
27598.700000
11
83395.800000
21
28538.700000
0
LINE
8
Layer 1
10
79555.800000
20
27598.700000
11
83395.800000
21
27598.700000
0
LINE
8
Layer 1
10
103866.000000
20
14628.700000
11
103291.000000
21
14628.700000
0
LINE
8
Layer 1
10
107786.000000
20
12588.700000
11
103866.000000
21
12588.700000
0
LINE
8
Layer 1
10
103866.000000
20
12593.700000
11
103866.000000
21
14628.700000
0
LINE
8
Layer 1
10
106646.000000
20
11828.700000
11
108786.000000
21
11828.700000
0
LINE
8
Layer 1
10
99315.800000
20
14748.700000
11
99315.800000
21
12708.700000
0
LINE
8
Layer 1
10
95420.800000
20
14748.700000
11
95760.800000
21
14838.700000
0
LINE
8
Layer 1
10
95420.800000
20
12713.700000
11
95420.800000
21
14748.700000
0
LINE
8
Layer 1
10
99315.800000
20
12708.700000
11
95420.800000
21
12708.700000
0
LINE
8
Layer 1
10
93050.800000
20
12598.700000
11
89155.800000
21
12598.700000
0
LINE
8
Layer 1
10
93050.800000
20
14638.700000
11
93050.800000
21
12598.700000
0
LINE
8
Layer 1
10
89155.800000
20
12603.700000
11
89155.800000
21
14638.700000
0
LINE
8
Layer 1
10
93515.800000
20
14808.700000
11
93050.800000
21
14638.700000
0
LINE
8
Layer 1
10
85365.800000
20
12568.700000
11
81470.800000
21
12568.700000
0
LINE
8
Layer 1
10
86010.800000
20
14808.700000
11
85365.800000
21
14608.700000
0
LINE
8
Layer 1
10
85365.800000
20
14608.700000
11
85365.800000
21
12568.700000
0
LINE
8
Layer 1
10
81470.800000
20
12573.700000
11
81470.800000
21
14608.700000
0
LINE
8
Layer 1
10
77865.800000
20
12638.700000
11
73970.800000
21
12638.700000
0
LINE
8
Layer 1
10
77865.800000
20
14678.700000
11
77865.800000
21
12638.700000
0
LINE
8
Layer 1
10
78525.800000
20
14808.700000
11
77865.800000
21
14678.700000
0
LINE
8
Layer 1
10
73970.800000
20
12643.700000
11
73970.800000
21
14678.700000
0
LINE
8
Layer 1
10
89805.800000
20
34463.700000
11
90710.800000
21
34463.700000
0
LINE
8
Layer 1
10
89805.800000
20
30578.700000
11
89805.800000
21
34463.700000
0
LINE
8
Layer 1
10
90710.800000
20
34463.700000
11
90710.800000
21
30578.700000
0
LINE
8
Layer 1
10
90710.800000
20
30578.700000
11
89805.800000
21
30578.700000
0
LINE
8
Layer 1
10
85090.800000
20
33453.700000
11
79850.800000
21
33453.700000
0
LINE
8
Layer 1
10
79850.800000
20
29803.700000
11
85090.800000
21
29803.700000
0
LINE
8
Layer 1
10
85090.800000
20
29803.700000
11
85090.800000
21
33453.700000
0
LINE
8
Layer 1
10
79850.800000
20
33453.700000
11
79850.800000
21
29803.700000
0
LINE
8
Layer 1
10
97305.800000
20
28558.700000
11
97255.800000
21
33428.700000
0
LINE
8
Layer 1
10
92015.800000
20
33428.700000
11
92015.800000
21
29778.700000
0
LINE
8
Layer 1
10
97255.800000
20
33428.700000
11
92015.800000
21
33428.700000
0
LINE
8
Layer 1
10
92015.800000
20
29778.700000
11
93465.800000
21
29778.700000
0
LINE
8
Layer 1
10
104796.000000
20
29783.700000
11
104796.000000
21
33433.700000
0
LINE
8
Layer 1
10
99555.800000
20
33433.700000
11
99555.800000
21
29783.700000
0
LINE
8
Layer 1
10
104796.000000
20
33433.700000
11
99555.800000
21
33433.700000
0
LINE
8
Layer 1
10
99555.800000
20
29783.700000
11
100585.810000
21
29783.700000
0
LINE
8
Layer 1
10
106976.000000
20
33448.700000
11
106976.000000
21
29798.700000
0
LINE
8
Layer 1
10
112216.000000
20
33448.700000
11
106976.000000
21
33448.700000
0
LINE
8
Layer 1
10
112216.000000
20
29798.700000
11
112216.000000
21
33448.700000
0
LINE
8
Layer 1
10
106976.000000
20
29798.700000
11
107981.000000
21
29798.700000
0
LINE
8
Layer 1
10
114556.000000
20
33448.700000
11
114556.000000
21
29798.700000
0
LINE
8
Layer 1
10
119796.000000
20
33448.700000
11
114556.000000
21
33448.700000
0
LINE
8
Layer 1
10
119796.000000
20
29798.700000
11
119796.000000
21
33448.700000
0
LINE
8
Layer 1
10
114556.000000
20
29798.700000
11
116216.000000
21
29798.700000
0
LINE
8
Layer 1
10
120701.000000
20
22268.700000
11
120701.000000
21
25918.700000
0
LINE
8
Layer 1
10
115461.000000
20
22878.700000
11
112301.000000
21
22878.700000
0
LINE
8
Layer 1
10
115461.000000
20
25918.700000
11
115461.000000
21
22878.700000
0
LINE
8
Layer 1
10
120701.000000
20
25918.700000
11
115461.000000
21
25918.700000
0
LINE
8
Layer 1
10
112301.000000
20
25958.700000
11
107061.000000
21
25958.700000
0
LINE
8
Layer 1
10
112301.000000
20
22878.700000
11
112301.000000
21
25958.700000
0
LINE
8
Layer 1
10
107061.000000
20
25958.700000
11
107061.000000
21
22903.700000
0
LINE
8
Layer 1
10
104776.000000
20
25998.700000
11
99535.800000
21
25998.700000
0
LINE
8
Layer 1
10
104776.000000
20
22903.700000
11
104776.000000
21
25998.700000
0
LINE
8
Layer 1
10
99535.800000
20
25998.700000
11
99535.800000
21
22903.700000
0
LINE
8
Layer 1
10
92045.800000
20
25938.700000
11
92045.800000
21
22888.700000
0
LINE
8
Layer 1
10
97285.800000
20
25938.700000
11
92045.800000
21
25938.700000
0
LINE
8
Layer 1
10
97285.800000
20
22903.700000
11
97285.800000
21
25938.700000
0
LINE
8
Layer 1
10
89750.800000
20
25998.700000
11
84510.800000
21
25998.700000
0
LINE
8
Layer 1
10
84510.800000
20
25998.700000
11
84510.800000
21
22888.700000
0
LINE
8
Layer 1
10
89750.800000
20
22888.700000
11
89750.800000
21
25998.700000
0
LINE
8
Layer 1
10
82265.800000
20
25973.700000
11
77025.800000
21
25973.700000
0
LINE
8
Layer 1
10
77025.800000
20
25973.700000
11
77025.800000
21
18458.700000
0
LINE
8
Layer 1
10
82265.800000
20
22888.700000
11
82265.800000
21
25973.700000
0
LINE
8
Layer 1
10
78525.800000
20
14808.700000
11
78525.800000
21
18138.700000
0
LINE
8
Layer 1
10
73285.800000
20
14808.700000
11
73970.800000
21
14678.700000
0
LINE
8
Layer 1
10
77025.800000
20
18458.700000
11
73285.800000
21
18458.700000
0
LINE
8
Layer 1
10
73285.800000
20
18458.700000
11
73285.800000
21
14808.700000
0
LINE
8
Layer 1
10
86010.800000
20
14808.700000
11
86010.800000
21
18138.700000
0
LINE
8
Layer 1
10
80770.800000
20
14808.700000
11
81470.800000
21
14608.700000
0
LINE
8
Layer 1
10
80770.800000
20
18138.700000
11
78525.800000
21
18138.700000
0
LINE
8
Layer 1
10
80770.800000
20
18138.700000
11
80770.800000
21
14808.700000
0
LINE
8
Layer 1
10
93515.800000
20
14808.700000
11
93515.800000
21
18138.700000
0
LINE
8
Layer 1
10
88275.800000
20
18138.700000
11
88275.800000
21
14808.700000
0
LINE
8
Layer 1
10
88275.800000
20
14808.700000
11
89155.800000
21
14638.700000
0
LINE
8
Layer 1
10
95760.800000
20
18138.700000
11
93515.800000
21
18138.700000
0
LINE
8
Layer 1
10
101001.000000
20
14838.700000
11
101001.000000
21
18138.700000
0
LINE
8
Layer 1
10
95760.800000
20
18138.700000
11
95760.800000
21
14838.700000
0
LINE
8
Layer 1
10
103291.000000
20
18138.700000
11
101001.000000
21
18138.700000
0
LINE
8
Layer 1
10
99315.800000
20
14748.700000
11
101000.810000
21
14838.700000
0
LINE
8
Layer 1
10
103291.000000
20
18138.700000
11
103291.000000
21
14628.700000
0
LINE
8
Layer 1
10
115066.000000
20
13708.700000
11
115066.000000
21
6238.660000
0
LINE
8
Layer 1
10
108901.000000
20
7293.660000
11
114141.000000
21
7293.660000
0
LINE
8
Layer 1
10
101406.000000
20
10943.700000
11
101406.000000
21
7293.660000
0
LINE
8
Layer 1
10
106646.000000
20
11828.700000
11
106646.000000
21
10943.700000
0
LINE
8
Layer 1
10
106646.000000
20
10943.700000
11
101406.000000
21
10943.700000
0
LINE
8
Layer 1
10
101406.000000
20
7293.660000
11
108901.000000
21
7293.660000
0
LINE
8
Layer 1
10
93890.800000
20
10938.700000
11
93890.800000
21
7708.660000
0
LINE
8
Layer 1
10
99130.800000
20
7288.660000
11
99130.800000
21
10938.700000
0
LINE
8
Layer 1
10
99130.800000
20
10938.700000
11
93890.800000
21
10938.700000
0
LINE
8
Layer 1
10
94585.800000
20
7288.660000
11
99130.800000
21
7288.660000
0
LINE
8
Layer 1
10
91640.800000
20
7708.660000
11
91640.800000
21
10953.700000
0
LINE
8
Layer 1
10
86400.800000
20
10953.700000
11
86400.800000
21
7303.660000
0
LINE
8
Layer 1
10
91640.800000
20
10953.700000
11
86400.800000
21
10953.700000
0
LINE
8
Layer 1
10
91640.800000
20
7708.660000
11
93890.800000
21
7708.660000
0
LINE
8
Layer 1
10
78890.800000
20
10938.700000
11
78890.800000
21
7288.660000
0
LINE
8
Layer 1
10
78890.800000
20
7288.660000
11
84130.800000
21
7288.660000
0
LINE
8
Layer 1
10
84130.800000
20
7288.660000
11
84130.800000
21
10938.700000
0
LINE
8
Layer 1
10
84130.800000
20
10938.700000
11
78890.800000
21
10938.700000
0
LINE
8
Layer 1
10
71410.800000
20
10938.700000
11
71410.800000
21
7288.660000
0
LINE
8
Layer 1
10
71410.800000
20
7288.660000
11
76650.800000
21
7288.660000
0
LINE
8
Layer 1
10
76650.800000
20
7288.660000
11
76650.800000
21
10938.700000
0
LINE
8
Layer 1
10
76650.800000
20
10938.700000
11
71410.800000
21
10938.700000
0
LINE
8
Layer 1
10
76620.800000
20
28673.700000
11
78845.800000
21
28673.700000
0
LINE
8
Layer 1
10
86005.800000
20
30853.700000
11
86005.800000
21
28683.700000
0
LINE
8
Layer 1
10
78845.800000
20
28673.700000
11
78845.800000
21
30843.700000
0
LINE
8
Layer 1
10
88230.800000
20
28503.700000
11
88230.800000
21
30853.700000
0
LINE
8
Layer 1
10
88230.800000
20
30853.700000
11
86005.800000
21
30853.700000
0
LINE
8
Layer 1
10
78845.800000
20
30843.700000
11
76620.800000
21
30843.700000
0
LINE
8
Layer 1
10
76620.800000
20
30843.700000
11
76620.800000
21
28673.700000
0
LINE
8
Layer 1
10
86005.800000
20
28683.700000
11
87105.800000
21
28503.700000
0
LINE
8
Layer 1
10
121696.000000
20
21793.700000
11
121696.000000
21
19623.700000
0
LINE
8
Layer 1
10
123921.000000
20
13623.700000
11
123921.000000
21
15793.700000
0
LINE
8
Layer 1
10
123921.000000
20
15793.700000
11
121779.260000
21
15789.337000
0
LINE
8
Layer 1
10
128536.000000
20
13623.700000
11
123921.000000
21
13623.700000
0
LINE
8
Layer 1
10
123881.000000
20
19623.700000
11
123881.000000
21
21793.700000
0
LINE
8
Layer 1
10
123881.000000
20
21793.700000
11
121696.000000
21
21793.700000
0
LINE
8
Layer 1
10
121696.000000
20
19623.700000
11
123881.000000
21
19623.700000
0
LINE
8
Layer 1
10
119016.000000
20
22268.700000
11
120701.000000
21
22268.700000
0
LINE
8
Layer 1
10
76655.800000
20
34593.700000
11
78880.800000
21
34593.700000
0
LINE
8
Layer 1
10
86040.800000
20
36773.700000
11
86040.800000
21
34603.700000
0
LINE
8
Layer 1
10
78880.800000
20
34593.700000
11
78880.800000
21
36763.700000
0
LINE
8
Layer 1
10
88265.800000
20
36773.700000
11
86040.800000
21
36773.700000
0
LINE
8
Layer 1
10
88265.800000
20
34603.700000
11
88265.800000
21
36773.700000
0
LINE
8
Layer 1
10
76655.800000
20
36763.700000
11
76655.800000
21
34593.700000
0
LINE
8
Layer 1
10
78880.800000
20
36763.700000
11
76655.800000
21
36763.700000
0
LINE
8
Layer 1
10
86040.800000
20
34603.700000
11
88265.800000
21
34603.700000
0
LINE
8
Layer 1
10
36615.800000
20
29763.700000
11
34505.800000
21
29763.700000
0
LINE
8
Layer 1
10
36620.800000
20
27633.700000
11
36615.800000
21
29763.700000
0
LINE
8
Layer 1
10
32760.800000
20
27633.700000
11
36620.800000
21
27633.700000
0
LINE
8
Layer 1
10
32760.800000
20
29768.700000
11
32760.800000
21
27633.700000
0
LINE
8
Layer 1
10
40410.800000
20
29798.700000
11
40410.800000
21
27528.700000
0
LINE
8
Layer 1
10
44325.800000
20
27528.700000
11
44325.800000
21
29798.700000
0
LINE
8
Layer 1
10
40410.800000
20
27528.700000
11
44325.800000
21
27528.700000
0
LINE
8
Layer 1
10
38565.800000
20
29798.700000
11
40410.800000
21
29798.700000
0
LINE
8
Layer 1
10
49705.800000
20
28548.700000
11
45790.800000
21
28548.700000
0
LINE
8
Layer 1
10
45790.800000
20
27563.700000
11
49705.800000
21
27563.700000
0
LINE
8
Layer 1
10
49705.800000
20
27563.700000
11
49705.800000
21
28548.700000
0
LINE
8
Layer 1
10
45790.800000
20
28548.700000
11
45790.800000
21
27563.700000
0
LINE
8
Layer 1
10
59300.800000
20
28618.700000
11
55385.800000
21
28618.700000
0
LINE
8
Layer 1
10
55385.800000
20
27633.700000
11
59300.800000
21
27633.700000
0
LINE
8
Layer 1
10
55385.800000
20
28618.700000
11
55385.800000
21
27633.700000
0
LINE
8
Layer 1
10
59300.800000
20
27633.700000
11
59300.800000
21
28618.700000
0
LINE
8
Layer 1
10
61715.800000
20
28578.700000
11
61715.800000
21
27593.700000
0
LINE
8
Layer 1
10
65630.800000
20
28578.700000
11
61715.800000
21
28578.700000
0
LINE
8
Layer 1
10
65630.800000
20
27593.700000
11
65630.800000
21
28578.700000
0
LINE
8
Layer 1
10
61715.800000
20
27593.700000
11
65630.800000
21
27593.700000
0
LINE
8
Layer 1
10
23705.800000
20
14788.700000
11
24145.800000
21
14788.700000
0
LINE
8
Layer 1
10
23705.800000
20
12683.700000
11
23705.800000
21
14788.700000
0
LINE
8
Layer 1
10
19850.800000
20
12683.700000
11
23705.800000
21
12683.700000
0
LINE
8
Layer 1
10
19810.800000
20
14783.700000
11
19850.800000
21
12683.700000
0
LINE
8
Layer 1
10
28870.800000
20
14813.700000
11
28325.800000
21
14813.700000
0
LINE
8
Layer 1
10
28870.800000
20
12593.700000
11
28870.800000
21
14813.700000
0
LINE
8
Layer 1
10
32855.800000
20
12593.700000
11
28870.800000
21
12593.700000
0
LINE
8
Layer 1
10
32855.800000
20
14808.700000
11
32855.800000
21
12593.700000
0
LINE
8
Layer 1
10
36295.800000
20
14778.700000
11
35740.800000
21
14778.700000
0
LINE
8
Layer 1
10
36295.800000
20
12598.700000
11
36295.800000
21
14778.700000
0
LINE
8
Layer 1
10
40180.800000
20
12598.700000
11
36295.800000
21
12598.700000
0
LINE
8
Layer 1
10
40180.800000
20
14778.700000
11
40180.800000
21
12598.700000
0
LINE
8
Layer 1
10
47765.800000
20
14793.700000
11
48515.800000
21
14793.700000
0
LINE
8
Layer 1
10
47765.800000
20
12508.700000
11
47765.800000
21
14793.700000
0
LINE
8
Layer 1
10
43970.800000
20
12508.700000
11
47765.800000
21
12508.700000
0
LINE
8
Layer 1
10
43970.800000
20
14798.700000
11
43970.800000
21
12508.700000
0
LINE
8
Layer 1
10
53720.800000
20
14758.700000
11
55985.800000
21
14758.700000
0
LINE
8
Layer 1
10
53720.800000
20
12498.700000
11
53720.800000
21
14758.700000
0
LINE
8
Layer 1
10
49680.800000
20
12498.700000
11
53720.800000
21
12498.700000
0
LINE
8
Layer 1
10
49680.800000
20
14748.700000
11
49680.800000
21
12498.700000
0
LINE
8
Layer 1
10
55985.800000
20
18398.700000
11
58280.800000
21
18398.700000
0
LINE
8
Layer 1
10
29935.800000
20
26828.700000
11
29935.800000
21
23438.700000
0
LINE
8
Layer 1
10
30905.800000
20
26828.700000
11
29935.800000
21
26828.700000
0
LINE
8
Layer 1
10
30905.800000
20
23373.700000
11
30905.800000
21
26828.700000
0
LINE
8
Layer 1
10
30905.800000
20
23373.700000
11
31990.800000
21
23373.700000
0
LINE
8
Layer 1
10
37230.800000
20
23373.700000
11
39510.800000
21
23373.700000
0
LINE
8
Layer 1
10
44750.800000
20
23373.700000
11
46990.800000
21
23373.700000
0
LINE
8
Layer 1
10
54585.800000
20
23373.700000
11
52230.800000
21
23373.700000
0
LINE
8
Layer 1
10
63520.800000
20
14758.700000
11
63520.800000
21
14768.700000
0
LINE
8
Layer 1
10
61065.800000
20
14758.700000
11
63520.800000
21
14758.700000
0
LINE
8
Layer 1
10
61075.800000
20
12608.700000
11
61065.800000
21
14758.700000
0
LINE
8
Layer 1
10
57155.800000
20
12608.700000
11
61075.800000
21
12608.700000
0
LINE
8
Layer 1
10
57155.800000
20
14768.700000
11
57155.800000
21
12608.700000
0
LINE
8
Layer 1
10
4555.770000
20
37263.700000
11
4555.770000
21
13838.700000
0
LINE
8
Layer 1
10
4555.770000
20
37263.700000
11
4556.044080
21
37285.799158
0
LINE
8
Layer 1
10
4556.044080
20
37285.799158
11
4556.863803
21
37307.832550
0
LINE
8
Layer 1
10
4556.863803
20
37307.832550
11
4558.225391
21
37329.791059
0
LINE
8
Layer 1
10
4558.225391
20
37329.791059
11
4560.125067
21
37351.665565
0
LINE
8
Layer 1
10
4560.125067
20
37351.665565
11
4562.559054
21
37373.446950
0
LINE
8
Layer 1
10
4562.559054
20
37373.446950
11
4565.523576
21
37395.126095
0
LINE
8
Layer 1
10
4565.523576
20
37395.126095
11
4569.014855
21
37416.693881
0
LINE
8
Layer 1
10
4569.014855
20
37416.693881
11
4573.029113
21
37438.141191
0
LINE
8
Layer 1
10
4573.029113
20
37438.141191
11
4577.562575
21
37459.458905
0
LINE
8
Layer 1
10
4577.562575
20
37459.458905
11
4582.611463
21
37480.637904
0
LINE
8
Layer 1
10
4582.611463
20
37480.637904
11
4588.171999
21
37501.669070
0
LINE
8
Layer 1
10
4588.171999
20
37501.669070
11
4594.240407
21
37522.543285
0
LINE
8
Layer 1
10
4594.240407
20
37522.543285
11
4600.812910
21
37543.251429
0
LINE
8
Layer 1
10
4600.812910
20
37543.251429
11
4607.885730
21
37563.784385
0
LINE
8
Layer 1
10
4607.885730
20
37563.784385
11
4615.455091
21
37584.133033
0
LINE
8
Layer 1
10
4615.455091
20
37584.133033
11
4623.517216
21
37604.288255
0
LINE
8
Layer 1
10
4623.517216
20
37604.288255
11
4632.068327
21
37624.240932
0
LINE
8
Layer 1
10
4632.068327
20
37624.240932
11
4641.104648
21
37643.981945
0
LINE
8
Layer 1
10
4641.104648
20
37643.981945
11
4650.622400
21
37663.502177
0
LINE
8
Layer 1
10
4650.622400
20
37663.502177
11
4660.617808
21
37682.792507
0
LINE
8
Layer 1
10
4660.617808
20
37682.792507
11
4671.087095
21
37701.843819
0
LINE
8
Layer 1
10
4671.087095
20
37701.843819
11
4682.026482
21
37720.646992
0
LINE
8
Layer 1
10
4682.026482
20
37720.646992
11
4693.432193
21
37739.192909
0
LINE
8
Layer 1
10
4693.432193
20
37739.192909
11
4705.300452
21
37757.472450
0
LINE
8
Layer 1
10
4705.300452
20
37757.472450
11
4717.627480
21
37775.476498
0
LINE
8
Layer 1
10
4717.627480
20
37775.476498
11
4730.409502
21
37793.195933
0
LINE
8
Layer 1
10
4730.409502
20
37793.195933
11
4743.642739
21
37810.621636
0
LINE
8
Layer 1
10
4743.642739
20
37810.621636
11
4757.323415
21
37827.744490
0
LINE
8
Layer 1
10
4757.323415
20
37827.744490
11
4771.447752
21
37844.555376
0
LINE
8
Layer 1
10
4771.447752
20
37844.555376
11
4786.011975
21
37861.045174
0
LINE
8
Layer 1
10
4786.011975
20
37861.045174
11
4801.012304
21
37877.204767
0
LINE
8
Layer 1
10
4801.012304
20
37877.204767
11
4816.444965
21
37893.025035
0
LINE
8
Layer 1
10
4816.444965
20
37893.025035
11
4832.265233
21
37908.457696
0
LINE
8
Layer 1
10
4832.265233
20
37908.457696
11
4848.424826
21
37923.458025
0
LINE
8
Layer 1
10
4848.424826
20
37923.458025
11
4864.914624
21
37938.022248
0
LINE
8
Layer 1
10
4864.914624
20
37938.022248
11
4881.725510
21
37952.146585
0
LINE
8
Layer 1
10
4881.725510
20
37952.146585
11
4898.848364
21
37965.827261
0
LINE
8
Layer 1
10
4898.848364
20
37965.827261
11
4916.274067
21
37979.060498
0
LINE
8
Layer 1
10
4916.274067
20
37979.060498
11
4933.993502
21
37991.842520
0
LINE
8
Layer 1
10
4933.993502
20
37991.842520
11
4951.997550
21
38004.169548
0
LINE
8
Layer 1
10
4951.997550
20
38004.169548
11
4970.277091
21
38016.037807
0
LINE
8
Layer 1
10
4970.277091
20
38016.037807
11
4988.823008
21
38027.443518
0
LINE
8
Layer 1
10
4988.823008
20
38027.443518
11
5007.626181
21
38038.382905
0
LINE
8
Layer 1
10
5007.626181
20
38038.382905
11
5026.677493
21
38048.852192
0
LINE
8
Layer 1
10
5026.677493
20
38048.852192
11
5045.967823
21
38058.847600
0
LINE
8
Layer 1
10
5045.967823
20
38058.847600
11
5065.488055
21
38068.365352
0
LINE
8
Layer 1
10
5065.488055
20
38068.365352
11
5085.229068
21
38077.401673
0
LINE
8
Layer 1
10
5085.229068
20
38077.401673
11
5105.181745
21
38085.952784
0
LINE
8
Layer 1
10
5105.181745
20
38085.952784
11
5125.336967
21
38094.014909
0
LINE
8
Layer 1
10
5125.336967
20
38094.014909
11
5145.685615
21
38101.584270
0
LINE
8
Layer 1
10
5145.685615
20
38101.584270
11
5166.218571
21
38108.657090
0
LINE
8
Layer 1
10
5166.218571
20
38108.657090
11
5186.926715
21
38115.229593
0
LINE
8
Layer 1
10
5186.926715
20
38115.229593
11
5207.800930
21
38121.298001
0
LINE
8
Layer 1
10
5207.800930
20
38121.298001
11
5228.832096
21
38126.858537
0
LINE
8
Layer 1
10
5228.832096
20
38126.858537
11
5250.011095
21
38131.907425
0
LINE
8
Layer 1
10
5250.011095
20
38131.907425
11
5271.328809
21
38136.440887
0
LINE
8
Layer 1
10
5271.328809
20
38136.440887
11
5292.776119
21
38140.455145
0
LINE
8
Layer 1
10
5292.776119
20
38140.455145
11
5314.343905
21
38143.946424
0
LINE
8
Layer 1
10
5314.343905
20
38143.946424
11
5336.023050
21
38146.910946
0
LINE
8
Layer 1
10
5336.023050
20
38146.910946
11
5357.804435
21
38149.344933
0
LINE
8
Layer 1
10
5357.804435
20
38149.344933
11
5379.678941
21
38151.244609
0
LINE
8
Layer 1
10
5379.678941
20
38151.244609
11
5401.637450
21
38152.606197
0
LINE
8
Layer 1
10
5401.637450
20
38152.606197
11
5423.670842
21
38153.425920
0
LINE
8
Layer 1
10
5423.670842
20
38153.425920
11
5445.770000
21
38153.700000
0
LINE
8
Layer 1
10
66295.800000
20
38153.700000
11
5445.800000
21
38153.700000
0
LINE
8
Layer 1
10
66295.800000
20
38153.700000
11
66307.452977
21
38153.411187
0
LINE
8
Layer 1
10
66307.452977
20
38153.411187
11
66319.026863
21
38152.550067
0
LINE
8
Layer 1
10
66319.026863
20
38152.550067
11
66330.502396
21
38151.124618
0
LINE
8
Layer 1
10
66330.502396
20
38151.124618
11
66341.860314
21
38149.142818
0
LINE
8
Layer 1
10
66341.860314
20
38149.142818
11
66353.081357
21
38146.612648
0
LINE
8
Layer 1
10
66353.081357
20
38146.612648
11
66364.146261
21
38143.542084
0
LINE
8
Layer 1
10
66364.146261
20
38143.542084
11
66375.035765
21
38139.939105
0
LINE
8
Layer 1
10
66375.035765
20
38139.939105
11
66385.730607
21
38135.811690
0
LINE
8
Layer 1
10
66385.730607
20
38135.811690
11
66396.211525
21
38131.167818
0
LINE
8
Layer 1
10
66396.211525
20
38131.167818
11
66406.459258
21
38126.015466
0
LINE
8
Layer 1
10
66406.459258
20
38126.015466
11
66416.454543
21
38120.362614
0
LINE
8
Layer 1
10
66416.454543
20
38120.362614
11
66426.178119
21
38114.217240
0
LINE
8
Layer 1
10
66426.178119
20
38114.217240
11
66435.610724
21
38107.587323
0
LINE
8
Layer 1
10
66435.610724
20
38107.587323
11
66444.733096
21
38100.480840
0
LINE
8
Layer 1
10
66444.733096
20
38100.480840
11
66453.525973
21
38092.905771
0
LINE
8
Layer 1
10
66453.525973
20
38092.905771
11
66461.970094
21
38084.870094
0
LINE
8
Layer 1
10
66461.970094
20
38084.870094
11
66470.005771
21
38076.425973
0
LINE
8
Layer 1
10
66470.005771
20
38076.425973
11
66477.580840
21
38067.633096
0
LINE
8
Layer 1
10
66477.580840
20
38067.633096
11
66484.687323
21
38058.510724
0
LINE
8
Layer 1
10
66484.687323
20
38058.510724
11
66491.317240
21
38049.078119
0
LINE
8
Layer 1
10
66491.317240
20
38049.078119
11
66497.462614
21
38039.354543
0
LINE
8
Layer 1
10
66497.462614
20
38039.354543
11
66503.115466
21
38029.359258
0
LINE
8
Layer 1
10
66503.115466
20
38029.359258
11
66508.267818
21
38019.111525
0
LINE
8
Layer 1
10
66508.267818
20
38019.111525
11
66512.911690
21
38008.630607
0
LINE
8
Layer 1
10
66512.911690
20
38008.630607
11
66517.039105
21
37997.935765
0
LINE
8
Layer 1
10
66517.039105
20
37997.935765
11
66520.642084
21
37987.046261
0
LINE
8
Layer 1
10
66520.642084
20
37987.046261
11
66523.712648
21
37975.981357
0
LINE
8
Layer 1
10
66523.712648
20
37975.981357
11
66526.242818
21
37964.760314
0
LINE
8
Layer 1
10
66526.242818
20
37964.760314
11
66528.224618
21
37953.402396
0
LINE
8
Layer 1
10
66528.224618
20
37953.402396
11
66529.650067
21
37941.926863
0
LINE
8
Layer 1
10
66529.650067
20
37941.926863
11
66530.511187
21
37930.352977
0
LINE
8
Layer 1
10
66530.511187
20
37930.352977
11
66530.800000
21
37918.700000
0
LINE
8
Layer 1
10
66530.800000
20
29553.700000
11
66530.800000
21
37918.700000
0
LINE
8
Layer 1
10
67420.800000
20
28663.700000
11
67515.800000
21
28663.700000
0
LINE
8
Layer 1
10
67420.800000
20
28663.700000
11
67398.700842
21
28663.974080
0
LINE
8
Layer 1
10
67398.700842
20
28663.974080
11
67376.667450
21
28664.793803
0
LINE
8
Layer 1
10
67376.667450
20
28664.793803
11
67354.708941
21
28666.155391
0
LINE
8
Layer 1
10
67354.708941
20
28666.155391
11
67332.834435
21
28668.055067
0
LINE
8
Layer 1
10
67332.834435
20
28668.055067
11
67311.053050
21
28670.489054
0
LINE
8
Layer 1
10
67311.053050
20
28670.489054
11
67289.373905
21
28673.453576
0
LINE
8
Layer 1
10
67289.373905
20
28673.453576
11
67267.806119
21
28676.944855
0
LINE
8
Layer 1
10
67267.806119
20
28676.944855
11
67246.358809
21
28680.959113
0
LINE
8
Layer 1
10
67246.358809
20
28680.959113
11
67225.041095
21
28685.492575
0
LINE
8
Layer 1
10
67225.041095
20
28685.492575
11
67203.862096
21
28690.541463
0
LINE
8
Layer 1
10
67203.862096
20
28690.541463
11
67182.830930
21
28696.101999
0
LINE
8
Layer 1
10
67182.830930
20
28696.101999
11
67161.956715
21
28702.170407
0
LINE
8
Layer 1
10
67161.956715
20
28702.170407
11
67141.248571
21
28708.742910
0
LINE
8
Layer 1
10
67141.248571
20
28708.742910
11
67120.715615
21
28715.815730
0
LINE
8
Layer 1
10
67120.715615
20
28715.815730
11
67100.366967
21
28723.385091
0
LINE
8
Layer 1
10
67100.366967
20
28723.385091
11
67080.211745
21
28731.447216
0
LINE
8
Layer 1
10
67080.211745
20
28731.447216
11
67060.259068
21
28739.998327
0
LINE
8
Layer 1
10
67060.259068
20
28739.998327
11
67040.518055
21
28749.034648
0
LINE
8
Layer 1
10
67040.518055
20
28749.034648
11
67020.997823
21
28758.552400
0
LINE
8
Layer 1
10
67020.997823
20
28758.552400
11
67001.707493
21
28768.547808
0
LINE
8
Layer 1
10
67001.707493
20
28768.547808
11
66982.656181
21
28779.017095
0
LINE
8
Layer 1
10
66982.656181
20
28779.017095
11
66963.853008
21
28789.956482
0
LINE
8
Layer 1
10
66963.853008
20
28789.956482
11
66945.307091
21
28801.362193
0
LINE
8
Layer 1
10
66945.307091
20
28801.362193
11
66927.027550
21
28813.230452
0
LINE
8
Layer 1
10
66927.027550
20
28813.230452
11
66909.023502
21
28825.557480
0
LINE
8
Layer 1
10
66909.023502
20
28825.557480
11
66891.304067
21
28838.339502
0
LINE
8
Layer 1
10
66891.304067
20
28838.339502
11
66873.878364
21
28851.572739
0
LINE
8
Layer 1
10
66873.878364
20
28851.572739
11
66856.755510
21
28865.253415
0
LINE
8
Layer 1
10
66856.755510
20
28865.253415
11
66839.944624
21
28879.377752
0
LINE
8
Layer 1
10
66839.944624
20
28879.377752
11
66823.454826
21
28893.941975
0
LINE
8
Layer 1
10
66823.454826
20
28893.941975
11
66807.295233
21
28908.942304
0
LINE
8
Layer 1
10
66807.295233
20
28908.942304
11
66791.474965
21
28924.374965
0
LINE
8
Layer 1
10
66791.474965
20
28924.374965
11
66776.042304
21
28940.195233
0
LINE
8
Layer 1
10
66776.042304
20
28940.195233
11
66761.041975
21
28956.354826
0
LINE
8
Layer 1
10
66761.041975
20
28956.354826
11
66746.477752
21
28972.844624
0
LINE
8
Layer 1
10
66746.477752
20
28972.844624
11
66732.353415
21
28989.655510
0
LINE
8
Layer 1
10
66732.353415
20
28989.655510
11
66718.672739
21
29006.778364
0
LINE
8
Layer 1
10
66718.672739
20
29006.778364
11
66705.439502
21
29024.204067
0
LINE
8
Layer 1
10
66705.439502
20
29024.204067
11
66692.657480
21
29041.923502
0
LINE
8
Layer 1
10
66692.657480
20
29041.923502
11
66680.330452
21
29059.927550
0
LINE
8
Layer 1
10
66680.330452
20
29059.927550
11
66668.462193
21
29078.207091
0
LINE
8
Layer 1
10
66668.462193
20
29078.207091
11
66657.056482
21
29096.753008
0
LINE
8
Layer 1
10
66657.056482
20
29096.753008
11
66646.117095
21
29115.556181
0
LINE
8
Layer 1
10
66646.117095
20
29115.556181
11
66635.647808
21
29134.607493
0
LINE
8
Layer 1
10
66635.647808
20
29134.607493
11
66625.652400
21
29153.897823
0
LINE
8
Layer 1
10
66625.652400
20
29153.897823
11
66616.134648
21
29173.418055
0
LINE
8
Layer 1
10
66616.134648
20
29173.418055
11
66607.098327
21
29193.159068
0
LINE
8
Layer 1
10
66607.098327
20
29193.159068
11
66598.547216
21
29213.111745
0
LINE
8
Layer 1
10
66598.547216
20
29213.111745
11
66590.485091
21
29233.266967
0
LINE
8
Layer 1
10
66590.485091
20
29233.266967
11
66582.915730
21
29253.615615
0
LINE
8
Layer 1
10
66582.915730
20
29253.615615
11
66575.842910
21
29274.148571
0
LINE
8
Layer 1
10
66575.842910
20
29274.148571
11
66569.270407
21
29294.856715
0
LINE
8
Layer 1
10
66569.270407
20
29294.856715
11
66563.201999
21
29315.730930
0
LINE
8
Layer 1
10
66563.201999
20
29315.730930
11
66557.641463
21
29336.762096
0
LINE
8
Layer 1
10
66557.641463
20
29336.762096
11
66552.592575
21
29357.941095
0
LINE
8
Layer 1
10
66552.592575
20
29357.941095
11
66548.059113
21
29379.258809
0
LINE
8
Layer 1
10
66548.059113
20
29379.258809
11
66544.044855
21
29400.706119
0
LINE
8
Layer 1
10
66544.044855
20
29400.706119
11
66540.553576
21
29422.273905
0
LINE
8
Layer 1
10
66540.553576
20
29422.273905
11
66537.589054
21
29443.953050
0
LINE
8
Layer 1
10
66537.589054
20
29443.953050
11
66535.155067
21
29465.734435
0
LINE
8
Layer 1
10
66535.155067
20
29465.734435
11
66533.255391
21
29487.608941
0
LINE
8
Layer 1
10
66533.255391
20
29487.608941
11
66531.893803
21
29509.567450
0
LINE
8
Layer 1
10
66531.893803
20
29509.567450
11
66531.074080
21
29531.600842
0
LINE
8
Layer 1
10
66531.074080
20
29531.600842
11
66530.800000
21
29553.700000
0
LINE
8
Layer 1
10
67515.800000
20
28663.700000
11
67537.899158
21
28663.425920
0
LINE
8
Layer 1
10
67537.899158
20
28663.425920
11
67559.932550
21
28662.606197
0
LINE
8
Layer 1
10
67559.932550
20
28662.606197
11
67581.891059
21
28661.244609
0
LINE
8
Layer 1
10
67581.891059
20
28661.244609
11
67603.765565
21
28659.344933
0
LINE
8
Layer 1
10
67603.765565
20
28659.344933
11
67625.546950
21
28656.910946
0
LINE
8
Layer 1
10
67625.546950
20
28656.910946
11
67647.226095
21
28653.946424
0
LINE
8
Layer 1
10
67647.226095
20
28653.946424
11
67668.793881
21
28650.455145
0
LINE
8
Layer 1
10
67668.793881
20
28650.455145
11
67690.241191
21
28646.440887
0
LINE
8
Layer 1
10
67690.241191
20
28646.440887
11
67711.558905
21
28641.907425
0
LINE
8
Layer 1
10
67711.558905
20
28641.907425
11
67732.737904
21
28636.858537
0
LINE
8
Layer 1
10
67732.737904
20
28636.858537
11
67753.769070
21
28631.298001
0
LINE
8
Layer 1
10
67753.769070
20
28631.298001
11
67774.643285
21
28625.229593
0
LINE
8
Layer 1
10
67774.643285
20
28625.229593
11
67795.351429
21
28618.657090
0
LINE
8
Layer 1
10
67795.351429
20
28618.657090
11
67815.884385
21
28611.584270
0
LINE
8
Layer 1
10
67815.884385
20
28611.584270
11
67836.233033
21
28604.014909
0
LINE
8
Layer 1
10
67836.233033
20
28604.014909
11
67856.388255
21
28595.952784
0
LINE
8
Layer 1
10
67856.388255
20
28595.952784
11
67876.340932
21
28587.401673
0
LINE
8
Layer 1
10
67876.340932
20
28587.401673
11
67896.081945
21
28578.365352
0
LINE
8
Layer 1
10
67896.081945
20
28578.365352
11
67915.602177
21
28568.847600
0
LINE
8
Layer 1
10
67915.602177
20
28568.847600
11
67934.892507
21
28558.852192
0
LINE
8
Layer 1
10
67934.892507
20
28558.852192
11
67953.943819
21
28548.382905
0
LINE
8
Layer 1
10
67953.943819
20
28548.382905
11
67972.746992
21
28537.443518
0
LINE
8
Layer 1
10
67972.746992
20
28537.443518
11
67991.292909
21
28526.037807
0
LINE
8
Layer 1
10
67991.292909
20
28526.037807
11
68009.572450
21
28514.169548
0
LINE
8
Layer 1
10
68009.572450
20
28514.169548
11
68027.576498
21
28501.842520
0
LINE
8
Layer 1
10
68027.576498
20
28501.842520
11
68045.295933
21
28489.060498
0
LINE
8
Layer 1
10
68045.295933
20
28489.060498
11
68062.721636
21
28475.827261
0
LINE
8
Layer 1
10
68062.721636
20
28475.827261
11
68079.844490
21
28462.146585
0
LINE
8
Layer 1
10
68079.844490
20
28462.146585
11
68096.655376
21
28448.022248
0
LINE
8
Layer 1
10
68096.655376
20
28448.022248
11
68113.145174
21
28433.458025
0
LINE
8
Layer 1
10
68113.145174
20
28433.458025
11
68129.304767
21
28418.457696
0
LINE
8
Layer 1
10
68129.304767
20
28418.457696
11
68145.125035
21
28403.025035
0
LINE
8
Layer 1
10
68145.125035
20
28403.025035
11
68160.557696
21
28387.204767
0
LINE
8
Layer 1
10
68160.557696
20
28387.204767
11
68175.558025
21
28371.045174
0
LINE
8
Layer 1
10
68175.558025
20
28371.045174
11
68190.122248
21
28354.555376
0
LINE
8
Layer 1
10
68190.122248
20
28354.555376
11
68204.246585
21
28337.744490
0
LINE
8
Layer 1
10
68204.246585
20
28337.744490
11
68217.927261
21
28320.621636
0
LINE
8
Layer 1
10
68217.927261
20
28320.621636
11
68231.160498
21
28303.195933
0
LINE
8
Layer 1
10
68231.160498
20
28303.195933
11
68243.942520
21
28285.476498
0
LINE
8
Layer 1
10
68243.942520
20
28285.476498
11
68256.269548
21
28267.472450
0
LINE
8
Layer 1
10
68256.269548
20
28267.472450
11
68268.137807
21
28249.192909
0
LINE
8
Layer 1
10
68268.137807
20
28249.192909
11
68279.543518
21
28230.646992
0
LINE
8
Layer 1
10
68279.543518
20
28230.646992
11
68290.482905
21
28211.843819
0
LINE
8
Layer 1
10
68290.482905
20
28211.843819
11
68300.952192
21
28192.792507
0
LINE
8
Layer 1
10
68300.952192
20
28192.792507
11
68310.947600
21
28173.502177
0
LINE
8
Layer 1
10
68310.947600
20
28173.502177
11
68320.465352
21
28153.981945
0
LINE
8
Layer 1
10
68320.465352
20
28153.981945
11
68329.501673
21
28134.240932
0
LINE
8
Layer 1
10
68329.501673
20
28134.240932
11
68338.052784
21
28114.288255
0
LINE
8
Layer 1
10
68338.052784
20
28114.288255
11
68346.114909
21
28094.133033
0
LINE
8
Layer 1
10
68346.114909
20
28094.133033
11
68353.684270
21
28073.784385
0
LINE
8
Layer 1
10
68353.684270
20
28073.784385
11
68360.757090
21
28053.251429
0
LINE
8
Layer 1
10
68360.757090
20
28053.251429
11
68367.329593
21
28032.543285
0
LINE
8
Layer 1
10
68367.329593
20
28032.543285
11
68373.398001
21
28011.669070
0
LINE
8
Layer 1
10
68373.398001
20
28011.669070
11
68378.958537
21
27990.637904
0
LINE
8
Layer 1
10
68378.958537
20
27990.637904
11
68384.007425
21
27969.458905
0
LINE
8
Layer 1
10
68384.007425
20
27969.458905
11
68388.540887
21
27948.141191
0
LINE
8
Layer 1
10
68388.540887
20
27948.141191
11
68392.555145
21
27926.693881
0
LINE
8
Layer 1
10
68392.555145
20
27926.693881
11
68396.046424
21
27905.126095
0
LINE
8
Layer 1
10
68396.046424
20
27905.126095
11
68399.010946
21
27883.446950
0
LINE
8
Layer 1
10
68399.010946
20
27883.446950
11
68401.444933
21
27861.665565
0
LINE
8
Layer 1
10
68401.444933
20
27861.665565
11
68403.344609
21
27839.791059
0
LINE
8
Layer 1
10
68403.344609
20
27839.791059
11
68404.706197
21
27817.832550
0
LINE
8
Layer 1
10
68404.706197
20
27817.832550
11
68405.525920
21
27795.799158
0
LINE
8
Layer 1
10
68405.525920
20
27795.799158
11
68405.800000
21
27773.700000
0
LINE
8
Layer 1
10
68405.800000
20
22053.700000
11
68405.800000
21
27773.700000
0
LINE
8
Layer 1
10
68405.800000
20
22053.700000
11
68405.525920
21
22031.600842
0
LINE
8
Layer 1
10
68405.525920
20
22031.600842
11
68404.706197
21
22009.567450
0
LINE
8
Layer 1
10
68404.706197
20
22009.567450
11
68403.344609
21
21987.608941
0
LINE
8
Layer 1
10
68403.344609
20
21987.608941
11
68401.444933
21
21965.734435
0
LINE
8
Layer 1
10
68401.444933
20
21965.734435
11
68399.010946
21
21943.953050
0
LINE
8
Layer 1
10
68399.010946
20
21943.953050
11
68396.046424
21
21922.273905
0
LINE
8
Layer 1
10
68396.046424
20
21922.273905
11
68392.555145
21
21900.706119
0
LINE
8
Layer 1
10
68392.555145
20
21900.706119
11
68388.540887
21
21879.258809
0
LINE
8
Layer 1
10
68388.540887
20
21879.258809
11
68384.007425
21
21857.941095
0
LINE
8
Layer 1
10
68384.007425
20
21857.941095
11
68378.958537
21
21836.762096
0
LINE
8
Layer 1
10
68378.958537
20
21836.762096
11
68373.398001
21
21815.730930
0
LINE
8
Layer 1
10
68373.398001
20
21815.730930
11
68367.329593
21
21794.856715
0
LINE
8
Layer 1
10
68367.329593
20
21794.856715
11
68360.757090
21
21774.148571
0
LINE
8
Layer 1
10
68360.757090
20
21774.148571
11
68353.684270
21
21753.615615
0
LINE
8
Layer 1
10
68353.684270
20
21753.615615
11
68346.114909
21
21733.266967
0
LINE
8
Layer 1
10
68346.114909
20
21733.266967
11
68338.052784
21
21713.111745
0
LINE
8
Layer 1
10
68338.052784
20
21713.111745
11
68329.501673
21
21693.159068
0
LINE
8
Layer 1
10
68329.501673
20
21693.159068
11
68320.465352
21
21673.418055
0
LINE
8
Layer 1
10
68320.465352
20
21673.418055
11
68310.947600
21
21653.897823
0
LINE
8
Layer 1
10
68310.947600
20
21653.897823
11
68300.952192
21
21634.607493
0
LINE
8
Layer 1
10
68300.952192
20
21634.607493
11
68290.482905
21
21615.556181
0
LINE
8
Layer 1
10
68290.482905
20
21615.556181
11
68279.543518
21
21596.753008
0
LINE
8
Layer 1
10
68279.543518
20
21596.753008
11
68268.137807
21
21578.207091
0
LINE
8
Layer 1
10
68268.137807
20
21578.207091
11
68256.269548
21
21559.927550
0
LINE
8
Layer 1
10
68256.269548
20
21559.927550
11
68243.942520
21
21541.923502
0
LINE
8
Layer 1
10
68243.942520
20
21541.923502
11
68231.160498
21
21524.204067
0
LINE
8
Layer 1
10
68231.160498
20
21524.204067
11
68217.927261
21
21506.778364
0
LINE
8
Layer 1
10
68217.927261
20
21506.778364
11
68204.246585
21
21489.655510
0
LINE
8
Layer 1
10
68204.246585
20
21489.655510
11
68190.122248
21
21472.844624
0
LINE
8
Layer 1
10
68190.122248
20
21472.844624
11
68175.558025
21
21456.354826
0
LINE
8
Layer 1
10
68175.558025
20
21456.354826
11
68160.557696
21
21440.195233
0
LINE
8
Layer 1
10
68160.557696
20
21440.195233
11
68145.125035
21
21424.374965
0
LINE
8
Layer 1
10
68145.125035
20
21424.374965
11
68129.304767
21
21408.942304
0
LINE
8
Layer 1
10
68129.304767
20
21408.942304
11
68113.145174
21
21393.941975
0
LINE
8
Layer 1
10
68113.145174
20
21393.941975
11
68096.655376
21
21379.377752
0
LINE
8
Layer 1
10
68096.655376
20
21379.377752
11
68079.844490
21
21365.253415
0
LINE
8
Layer 1
10
68079.844490
20
21365.253415
11
68062.721636
21
21351.572739
0
LINE
8
Layer 1
10
68062.721636
20
21351.572739
11
68045.295933
21
21338.339502
0
LINE
8
Layer 1
10
68045.295933
20
21338.339502
11
68027.576498
21
21325.557480
0
LINE
8
Layer 1
10
68027.576498
20
21325.557480
11
68009.572450
21
21313.230452
0
LINE
8
Layer 1
10
68009.572450
20
21313.230452
11
67991.292909
21
21301.362193
0
LINE
8
Layer 1
10
67991.292909
20
21301.362193
11
67972.746992
21
21289.956482
0
LINE
8
Layer 1
10
67972.746992
20
21289.956482
11
67953.943819
21
21279.017095
0
LINE
8
Layer 1
10
67953.943819
20
21279.017095
11
67934.892507
21
21268.547808
0
LINE
8
Layer 1
10
67934.892507
20
21268.547808
11
67915.602177
21
21258.552400
0
LINE
8
Layer 1
10
67915.602177
20
21258.552400
11
67896.081945
21
21249.034648
0
LINE
8
Layer 1
10
67896.081945
20
21249.034648
11
67876.340932
21
21239.998327
0
LINE
8
Layer 1
10
67876.340932
20
21239.998327
11
67856.388255
21
21231.447216
0
LINE
8
Layer 1
10
67856.388255
20
21231.447216
11
67836.233033
21
21223.385091
0
LINE
8
Layer 1
10
67836.233033
20
21223.385091
11
67815.884385
21
21215.815730
0
LINE
8
Layer 1
10
67815.884385
20
21215.815730
11
67795.351429
21
21208.742910
0
LINE
8
Layer 1
10
67795.351429
20
21208.742910
11
67774.643285
21
21202.170407
0
LINE
8
Layer 1
10
67774.643285
20
21202.170407
11
67753.769070
21
21196.101999
0
LINE
8
Layer 1
10
67753.769070
20
21196.101999
11
67732.737904
21
21190.541463
0
LINE
8
Layer 1
10
67732.737904
20
21190.541463
11
67711.558905
21
21185.492575
0
LINE
8
Layer 1
10
67711.558905
20
21185.492575
11
67690.241191
21
21180.959113
0
LINE
8
Layer 1
10
67690.241191
20
21180.959113
11
67668.793881
21
21176.944855
0
LINE
8
Layer 1
10
67668.793881
20
21176.944855
11
67647.226095
21
21173.453576
0
LINE
8
Layer 1
10
67647.226095
20
21173.453576
11
67625.546950
21
21170.489054
0
LINE
8
Layer 1
10
67625.546950
20
21170.489054
11
67603.765565
21
21168.055067
0
LINE
8
Layer 1
10
67603.765565
20
21168.055067
11
67581.891059
21
21166.155391
0
LINE
8
Layer 1
10
67581.891059
20
21166.155391
11
67559.932550
21
21164.793803
0
LINE
8
Layer 1
10
67559.932550
20
21164.793803
11
67537.899158
21
21163.974080
0
LINE
8
Layer 1
10
67537.899158
20
21163.974080
11
67515.800000
21
21163.700000
0
LINE
8
Layer 1
10
65545.800000
20
21163.700000
11
67515.800000
21
21163.700000
0
LINE
8
Layer 1
10
64655.800000
20
20273.700000
11
64656.074080
21
20295.799158
0
LINE
8
Layer 1
10
64656.074080
20
20295.799158
11
64656.893803
21
20317.832550
0
LINE
8
Layer 1
10
64656.893803
20
20317.832550
11
64658.255391
21
20339.791059
0
LINE
8
Layer 1
10
64658.255391
20
20339.791059
11
64660.155067
21
20361.665565
0
LINE
8
Layer 1
10
64660.155067
20
20361.665565
11
64662.589054
21
20383.446950
0
LINE
8
Layer 1
10
64662.589054
20
20383.446950
11
64665.553576
21
20405.126095
0
LINE
8
Layer 1
10
64665.553576
20
20405.126095
11
64669.044855
21
20426.693881
0
LINE
8
Layer 1
10
64669.044855
20
20426.693881
11
64673.059113
21
20448.141191
0
LINE
8
Layer 1
10
64673.059113
20
20448.141191
11
64677.592575
21
20469.458905
0
LINE
8
Layer 1
10
64677.592575
20
20469.458905
11
64682.641463
21
20490.637904
0
LINE
8
Layer 1
10
64682.641463
20
20490.637904
11
64688.201999
21
20511.669070
0
LINE
8
Layer 1
10
64688.201999
20
20511.669070
11
64694.270407
21
20532.543285
0
LINE
8
Layer 1
10
64694.270407
20
20532.543285
11
64700.842910
21
20553.251429
0
LINE
8
Layer 1
10
64700.842910
20
20553.251429
11
64707.915730
21
20573.784385
0
LINE
8
Layer 1
10
64707.915730
20
20573.784385
11
64715.485091
21
20594.133033
0
LINE
8
Layer 1
10
64715.485091
20
20594.133033
11
64723.547216
21
20614.288255
0
LINE
8
Layer 1
10
64723.547216
20
20614.288255
11
64732.098327
21
20634.240932
0
LINE
8
Layer 1
10
64732.098327
20
20634.240932
11
64741.134648
21
20653.981945
0
LINE
8
Layer 1
10
64741.134648
20
20653.981945
11
64750.652400
21
20673.502177
0
LINE
8
Layer 1
10
64750.652400
20
20673.502177
11
64760.647808
21
20692.792507
0
LINE
8
Layer 1
10
64760.647808
20
20692.792507
11
64771.117095
21
20711.843819
0
LINE
8
Layer 1
10
64771.117095
20
20711.843819
11
64782.056482
21
20730.646992
0
LINE
8
Layer 1
10
64782.056482
20
20730.646992
11
64793.462193
21
20749.192909
0
LINE
8
Layer 1
10
64793.462193
20
20749.192909
11
64805.330452
21
20767.472450
0
LINE
8
Layer 1
10
64805.330452
20
20767.472450
11
64817.657480
21
20785.476498
0
LINE
8
Layer 1
10
64817.657480
20
20785.476498
11
64830.439502
21
20803.195933
0
LINE
8
Layer 1
10
64830.439502
20
20803.195933
11
64843.672739
21
20820.621636
0
LINE
8
Layer 1
10
64843.672739
20
20820.621636
11
64857.353415
21
20837.744490
0
LINE
8
Layer 1
10
64857.353415
20
20837.744490
11
64871.477752
21
20854.555376
0
LINE
8
Layer 1
10
64871.477752
20
20854.555376
11
64886.041975
21
20871.045174
0
LINE
8
Layer 1
10
64886.041975
20
20871.045174
11
64901.042304
21
20887.204767
0
LINE
8
Layer 1
10
64901.042304
20
20887.204767
11
64916.474965
21
20903.025035
0
LINE
8
Layer 1
10
64916.474965
20
20903.025035
11
64932.295233
21
20918.457696
0
LINE
8
Layer 1
10
64932.295233
20
20918.457696
11
64948.454826
21
20933.458025
0
LINE
8
Layer 1
10
64948.454826
20
20933.458025
11
64964.944624
21
20948.022248
0
LINE
8
Layer 1
10
64964.944624
20
20948.022248
11
64981.755510
21
20962.146585
0
LINE
8
Layer 1
10
64981.755510
20
20962.146585
11
64998.878364
21
20975.827261
0
LINE
8
Layer 1
10
64998.878364
20
20975.827261
11
65016.304067
21
20989.060498
0
LINE
8
Layer 1
10
65016.304067
20
20989.060498
11
65034.023502
21
21001.842520
0
LINE
8
Layer 1
10
65034.023502
20
21001.842520
11
65052.027550
21
21014.169548
0
LINE
8
Layer 1
10
65052.027550
20
21014.169548
11
65070.307091
21
21026.037807
0
LINE
8
Layer 1
10
65070.307091
20
21026.037807
11
65088.853008
21
21037.443518
0
LINE
8
Layer 1
10
65088.853008
20
21037.443518
11
65107.656181
21
21048.382905
0
LINE
8
Layer 1
10
65107.656181
20
21048.382905
11
65126.707493
21
21058.852192
0
LINE
8
Layer 1
10
65126.707493
20
21058.852192
11
65145.997823
21
21068.847600
0
LINE
8
Layer 1
10
65145.997823
20
21068.847600
11
65165.518055
21
21078.365352
0
LINE
8
Layer 1
10
65165.518055
20
21078.365352
11
65185.259068
21
21087.401673
0
LINE
8
Layer 1
10
65185.259068
20
21087.401673
11
65205.211745
21
21095.952784
0
LINE
8
Layer 1
10
65205.211745
20
21095.952784
11
65225.366967
21
21104.014909
0
LINE
8
Layer 1
10
65225.366967
20
21104.014909
11
65245.715615
21
21111.584270
0
LINE
8
Layer 1
10
65245.715615
20
21111.584270
11
65266.248571
21
21118.657090
0
LINE
8
Layer 1
10
65266.248571
20
21118.657090
11
65286.956715
21
21125.229593
0
LINE
8
Layer 1
10
65286.956715
20
21125.229593
11
65307.830930
21
21131.298001
0
LINE
8
Layer 1
10
65307.830930
20
21131.298001
11
65328.862096
21
21136.858537
0
LINE
8
Layer 1
10
65328.862096
20
21136.858537
11
65350.041095
21
21141.907425
0
LINE
8
Layer 1
10
65350.041095
20
21141.907425
11
65371.358809
21
21146.440887
0
LINE
8
Layer 1
10
65371.358809
20
21146.440887
11
65392.806119
21
21150.455145
0
LINE
8
Layer 1
10
65392.806119
20
21150.455145
11
65414.373905
21
21153.946424
0
LINE
8
Layer 1
10
65414.373905
20
21153.946424
11
65436.053050
21
21156.910946
0
LINE
8
Layer 1
10
65436.053050
20
21156.910946
11
65457.834435
21
21159.344933
0
LINE
8
Layer 1
10
65457.834435
20
21159.344933
11
65479.708941
21
21161.244609
0
LINE
8
Layer 1
10
65479.708941
20
21161.244609
11
65501.667450
21
21162.606197
0
LINE
8
Layer 1
10
65501.667450
20
21162.606197
11
65523.700842
21
21163.425920
0
LINE
8
Layer 1
10
65523.700842
20
21163.425920
11
65545.800000
21
21163.700000
0
LINE
8
Layer 1
10
64655.800000
20
14553.700000
11
64655.800000
21
20273.700000
0
LINE
8
Layer 1
10
63765.800000
20
13663.700000
11
63670.800000
21
13663.700000
0
LINE
8
Layer 1
10
64655.800000
20
14553.700000
11
64655.525920
21
14531.600842
0
LINE
8
Layer 1
10
64655.525920
20
14531.600842
11
64654.706197
21
14509.567450
0
LINE
8
Layer 1
10
64654.706197
20
14509.567450
11
64653.344609
21
14487.608941
0
LINE
8
Layer 1
10
64653.344609
20
14487.608941
11
64651.444933
21
14465.734435
0
LINE
8
Layer 1
10
64651.444933
20
14465.734435
11
64649.010946
21
14443.953050
0
LINE
8
Layer 1
10
64649.010946
20
14443.953050
11
64646.046424
21
14422.273905
0
LINE
8
Layer 1
10
64646.046424
20
14422.273905
11
64642.555145
21
14400.706119
0
LINE
8
Layer 1
10
64642.555145
20
14400.706119
11
64638.540887
21
14379.258809
0
LINE
8
Layer 1
10
64638.540887
20
14379.258809
11
64634.007425
21
14357.941095
0
LINE
8
Layer 1
10
64634.007425
20
14357.941095
11
64628.958537
21
14336.762096
0
LINE
8
Layer 1
10
64628.958537
20
14336.762096
11
64623.398001
21
14315.730930
0
LINE
8
Layer 1
10
64623.398001
20
14315.730930
11
64617.329593
21
14294.856715
0
LINE
8
Layer 1
10
64617.329593
20
14294.856715
11
64610.757090
21
14274.148571
0
LINE
8
Layer 1
10
64610.757090
20
14274.148571
11
64603.684270
21
14253.615615
0
LINE
8
Layer 1
10
64603.684270
20
14253.615615
11
64596.114909
21
14233.266967
0
LINE
8
Layer 1
10
64596.114909
20
14233.266967
11
64588.052784
21
14213.111745
0
LINE
8
Layer 1
10
64588.052784
20
14213.111745
11
64579.501673
21
14193.159068
0
LINE
8
Layer 1
10
64579.501673
20
14193.159068
11
64570.465352
21
14173.418055
0
LINE
8
Layer 1
10
64570.465352
20
14173.418055
11
64560.947600
21
14153.897823
0
LINE
8
Layer 1
10
64560.947600
20
14153.897823
11
64550.952192
21
14134.607493
0
LINE
8
Layer 1
10
64550.952192
20
14134.607493
11
64540.482905
21
14115.556181
0
LINE
8
Layer 1
10
64540.482905
20
14115.556181
11
64529.543518
21
14096.753008
0
LINE
8
Layer 1
10
64529.543518
20
14096.753008
11
64518.137807
21
14078.207091
0
LINE
8
Layer 1
10
64518.137807
20
14078.207091
11
64506.269548
21
14059.927550
0
LINE
8
Layer 1
10
64506.269548
20
14059.927550
11
64493.942520
21
14041.923502
0
LINE
8
Layer 1
10
64493.942520
20
14041.923502
11
64481.160498
21
14024.204067
0
LINE
8
Layer 1
10
64481.160498
20
14024.204067
11
64467.927261
21
14006.778364
0
LINE
8
Layer 1
10
64467.927261
20
14006.778364
11
64454.246585
21
13989.655510
0
LINE
8
Layer 1
10
64454.246585
20
13989.655510
11
64440.122248
21
13972.844624
0
LINE
8
Layer 1
10
64440.122248
20
13972.844624
11
64425.558025
21
13956.354826
0
LINE
8
Layer 1
10
64425.558025
20
13956.354826
11
64410.557696
21
13940.195233
0
LINE
8
Layer 1
10
64410.557696
20
13940.195233
11
64395.125035
21
13924.374965
0
LINE
8
Layer 1
10
64395.125035
20
13924.374965
11
64379.304767
21
13908.942304
0
LINE
8
Layer 1
10
64379.304767
20
13908.942304
11
64363.145174
21
13893.941975
0
LINE
8
Layer 1
10
64363.145174
20
13893.941975
11
64346.655376
21
13879.377752
0
LINE
8
Layer 1
10
64346.655376
20
13879.377752
11
64329.844490
21
13865.253415
0
LINE
8
Layer 1
10
64329.844490
20
13865.253415
11
64312.721636
21
13851.572739
0
LINE
8
Layer 1
10
64312.721636
20
13851.572739
11
64295.295933
21
13838.339502
0
LINE
8
Layer 1
10
64295.295933
20
13838.339502
11
64277.576498
21
13825.557480
0
LINE
8
Layer 1
10
64277.576498
20
13825.557480
11
64259.572450
21
13813.230452
0
LINE
8
Layer 1
10
64259.572450
20
13813.230452
11
64241.292909
21
13801.362193
0
LINE
8
Layer 1
10
64241.292909
20
13801.362193
11
64222.746992
21
13789.956482
0
LINE
8
Layer 1
10
64222.746992
20
13789.956482
11
64203.943819
21
13779.017095
0
LINE
8
Layer 1
10
64203.943819
20
13779.017095
11
64184.892507
21
13768.547808
0
LINE
8
Layer 1
10
64184.892507
20
13768.547808
11
64165.602177
21
13758.552400
0
LINE
8
Layer 1
10
64165.602177
20
13758.552400
11
64146.081945
21
13749.034648
0
LINE
8
Layer 1
10
64146.081945
20
13749.034648
11
64126.340932
21
13739.998327
0
LINE
8
Layer 1
10
64126.340932
20
13739.998327
11
64106.388255
21
13731.447216
0
LINE
8
Layer 1
10
64106.388255
20
13731.447216
11
64086.233033
21
13723.385091
0
LINE
8
Layer 1
10
64086.233033
20
13723.385091
11
64065.884385
21
13715.815730
0
LINE
8
Layer 1
10
64065.884385
20
13715.815730
11
64045.351429
21
13708.742910
0
LINE
8
Layer 1
10
64045.351429
20
13708.742910
11
64024.643285
21
13702.170407
0
LINE
8
Layer 1
10
64024.643285
20
13702.170407
11
64003.769070
21
13696.101999
0
LINE
8
Layer 1
10
64003.769070
20
13696.101999
11
63982.737904
21
13690.541463
0
LINE
8
Layer 1
10
63982.737904
20
13690.541463
11
63961.558905
21
13685.492575
0
LINE
8
Layer 1
10
63961.558905
20
13685.492575
11
63940.241191
21
13680.959113
0
LINE
8
Layer 1
10
63940.241191
20
13680.959113
11
63918.793881
21
13676.944855
0
LINE
8
Layer 1
10
63918.793881
20
13676.944855
11
63897.226095
21
13673.453576
0
LINE
8
Layer 1
10
63897.226095
20
13673.453576
11
63875.546950
21
13670.489054
0
LINE
8
Layer 1
10
63875.546950
20
13670.489054
11
63853.765565
21
13668.055067
0
LINE
8
Layer 1
10
63853.765565
20
13668.055067
11
63831.891059
21
13666.155391
0
LINE
8
Layer 1
10
63831.891059
20
13666.155391
11
63809.932550
21
13664.793803
0
LINE
8
Layer 1
10
63809.932550
20
13664.793803
11
63787.899158
21
13663.974080
0
LINE
8
Layer 1
10
63787.899158
20
13663.974080
11
63765.800000
21
13663.700000
0
LINE
8
Layer 1
10
62780.800000
20
12773.700000
11
62781.074080
21
12795.799158
0
LINE
8
Layer 1
10
62781.074080
20
12795.799158
11
62781.893803
21
12817.832550
0
LINE
8
Layer 1
10
62781.893803
20
12817.832550
11
62783.255391
21
12839.791059
0
LINE
8
Layer 1
10
62783.255391
20
12839.791059
11
62785.155067
21
12861.665565
0
LINE
8
Layer 1
10
62785.155067
20
12861.665565
11
62787.589054
21
12883.446950
0
LINE
8
Layer 1
10
62787.589054
20
12883.446950
11
62790.553576
21
12905.126095
0
LINE
8
Layer 1
10
62790.553576
20
12905.126095
11
62794.044855
21
12926.693881
0
LINE
8
Layer 1
10
62794.044855
20
12926.693881
11
62798.059113
21
12948.141191
0
LINE
8
Layer 1
10
62798.059113
20
12948.141191
11
62802.592575
21
12969.458905
0
LINE
8
Layer 1
10
62802.592575
20
12969.458905
11
62807.641463
21
12990.637904
0
LINE
8
Layer 1
10
62807.641463
20
12990.637904
11
62813.201999
21
13011.669070
0
LINE
8
Layer 1
10
62813.201999
20
13011.669070
11
62819.270407
21
13032.543285
0
LINE
8
Layer 1
10
62819.270407
20
13032.543285
11
62825.842910
21
13053.251429
0
LINE
8
Layer 1
10
62825.842910
20
13053.251429
11
62832.915730
21
13073.784385
0
LINE
8
Layer 1
10
62832.915730
20
13073.784385
11
62840.485091
21
13094.133033
0
LINE
8
Layer 1
10
62840.485091
20
13094.133033
11
62848.547216
21
13114.288255
0
LINE
8
Layer 1
10
62848.547216
20
13114.288255
11
62857.098327
21
13134.240932
0
LINE
8
Layer 1
10
62857.098327
20
13134.240932
11
62866.134648
21
13153.981945
0
LINE
8
Layer 1
10
62866.134648
20
13153.981945
11
62875.652400
21
13173.502177
0
LINE
8
Layer 1
10
62875.652400
20
13173.502177
11
62885.647808
21
13192.792507
0
LINE
8
Layer 1
10
62885.647808
20
13192.792507
11
62896.117095
21
13211.843819
0
LINE
8
Layer 1
10
62896.117095
20
13211.843819
11
62907.056482
21
13230.646992
0
LINE
8
Layer 1
10
62907.056482
20
13230.646992
11
62918.462193
21
13249.192909
0
LINE
8
Layer 1
10
62918.462193
20
13249.192909
11
62930.330452
21
13267.472450
0
LINE
8
Layer 1
10
62930.330452
20
13267.472450
11
62942.657480
21
13285.476498
0
LINE
8
Layer 1
10
62942.657480
20
13285.476498
11
62955.439502
21
13303.195933
0
LINE
8
Layer 1
10
62955.439502
20
13303.195933
11
62968.672739
21
13320.621636
0
LINE
8
Layer 1
10
62968.672739
20
13320.621636
11
62982.353415
21
13337.744490
0
LINE
8
Layer 1
10
62982.353415
20
13337.744490
11
62996.477752
21
13354.555376
0
LINE
8
Layer 1
10
62996.477752
20
13354.555376
11
63011.041975
21
13371.045174
0
LINE
8
Layer 1
10
63011.041975
20
13371.045174
11
63026.042304
21
13387.204767
0
LINE
8
Layer 1
10
63026.042304
20
13387.204767
11
63041.474965
21
13403.025035
0
LINE
8
Layer 1
10
63041.474965
20
13403.025035
11
63057.295233
21
13418.457696
0
LINE
8
Layer 1
10
63057.295233
20
13418.457696
11
63073.454826
21
13433.458025
0
LINE
8
Layer 1
10
63073.454826
20
13433.458025
11
63089.944624
21
13448.022248
0
LINE
8
Layer 1
10
63089.944624
20
13448.022248
11
63106.755510
21
13462.146585
0
LINE
8
Layer 1
10
63106.755510
20
13462.146585
11
63123.878364
21
13475.827261
0
LINE
8
Layer 1
10
63123.878364
20
13475.827261
11
63141.304067
21
13489.060498
0
LINE
8
Layer 1
10
63141.304067
20
13489.060498
11
63159.023502
21
13501.842520
0
LINE
8
Layer 1
10
63159.023502
20
13501.842520
11
63177.027550
21
13514.169548
0
LINE
8
Layer 1
10
63177.027550
20
13514.169548
11
63195.307091
21
13526.037807
0
LINE
8
Layer 1
10
63195.307091
20
13526.037807
11
63213.853008
21
13537.443518
0
LINE
8
Layer 1
10
63213.853008
20
13537.443518
11
63232.656181
21
13548.382905
0
LINE
8
Layer 1
10
63232.656181
20
13548.382905
11
63251.707493
21
13558.852192
0
LINE
8
Layer 1
10
63251.707493
20
13558.852192
11
63270.997823
21
13568.847600
0
LINE
8
Layer 1
10
63270.997823
20
13568.847600
11
63290.518055
21
13578.365352
0
LINE
8
Layer 1
10
63290.518055
20
13578.365352
11
63310.259068
21
13587.401673
0
LINE
8
Layer 1
10
63310.259068
20
13587.401673
11
63330.211745
21
13595.952784
0
LINE
8
Layer 1
10
63330.211745
20
13595.952784
11
63350.366967
21
13604.014909
0
LINE
8
Layer 1
10
63350.366967
20
13604.014909
11
63370.715615
21
13611.584270
0
LINE
8
Layer 1
10
63370.715615
20
13611.584270
11
63391.248571
21
13618.657090
0
LINE
8
Layer 1
10
63391.248571
20
13618.657090
11
63411.956715
21
13625.229593
0
LINE
8
Layer 1
10
63411.956715
20
13625.229593
11
63432.830930
21
13631.298001
0
LINE
8
Layer 1
10
63432.830930
20
13631.298001
11
63453.862096
21
13636.858537
0
LINE
8
Layer 1
10
63453.862096
20
13636.858537
11
63475.041095
21
13641.907425
0
LINE
8
Layer 1
10
63475.041095
20
13641.907425
11
63496.358809
21
13646.440887
0
LINE
8
Layer 1
10
63496.358809
20
13646.440887
11
63517.806119
21
13650.455145
0
LINE
8
Layer 1
10
63517.806119
20
13650.455145
11
63539.373905
21
13653.946424
0
LINE
8
Layer 1
10
63539.373905
20
13653.946424
11
63561.053050
21
13656.910946
0
LINE
8
Layer 1
10
63561.053050
20
13656.910946
11
63582.834435
21
13659.344933
0
LINE
8
Layer 1
10
63582.834435
20
13659.344933
11
63604.708941
21
13661.244609
0
LINE
8
Layer 1
10
63604.708941
20
13661.244609
11
63626.667450
21
13662.606197
0
LINE
8
Layer 1
10
63626.667450
20
13662.606197
11
63648.700842
21
13663.425920
0
LINE
8
Layer 1
10
63648.700842
20
13663.425920
11
63670.800000
21
13663.700000
0
LINE
8
Layer 1
10
62780.800000
20
2398.660000
11
62780.800000
21
12773.700000
0
LINE
8
Layer 1
10
62780.800000
20
2398.660000
11
62780.511187
21
2387.007023
0
LINE
8
Layer 1
10
62780.511187
20
2387.007023
11
62779.650067
21
2375.433137
0
LINE
8
Layer 1
10
62779.650067
20
2375.433137
11
62778.224618
21
2363.957604
0
LINE
8
Layer 1
10
62778.224618
20
2363.957604
11
62776.242818
21
2352.599686
0
LINE
8
Layer 1
10
62776.242818
20
2352.599686
11
62773.712648
21
2341.378643
0
LINE
8
Layer 1
10
62773.712648
20
2341.378643
11
62770.642084
21
2330.313739
0
LINE
8
Layer 1
10
62770.642084
20
2330.313739
11
62767.039105
21
2319.424235
0
LINE
8
Layer 1
10
62767.039105
20
2319.424235
11
62762.911690
21
2308.729393
0
LINE
8
Layer 1
10
62762.911690
20
2308.729393
11
62758.267818
21
2298.248475
0
LINE
8
Layer 1
10
62758.267818
20
2298.248475
11
62753.115466
21
2288.000742
0
LINE
8
Layer 1
10
62753.115466
20
2288.000742
11
62747.462614
21
2278.005457
0
LINE
8
Layer 1
10
62747.462614
20
2278.005457
11
62741.317240
21
2268.281881
0
LINE
8
Layer 1
10
62741.317240
20
2268.281881
11
62734.687323
21
2258.849276
0
LINE
8
Layer 1
10
62734.687323
20
2258.849276
11
62727.580840
21
2249.726904
0
LINE
8
Layer 1
10
62727.580840
20
2249.726904
11
62720.005771
21
2240.934027
0
LINE
8
Layer 1
10
62720.005771
20
2240.934027
11
62711.970094
21
2232.489906
0
LINE
8
Layer 1
10
62711.970094
20
2232.489906
11
62703.525973
21
2224.454229
0
LINE
8
Layer 1
10
62703.525973
20
2224.454229
11
62694.733096
21
2216.879160
0
LINE
8
Layer 1
10
62694.733096
20
2216.879160
11
62685.610724
21
2209.772677
0
LINE
8
Layer 1
10
62685.610724
20
2209.772677
11
62676.178119
21
2203.142760
0
LINE
8
Layer 1
10
62676.178119
20
2203.142760
11
62666.454543
21
2196.997386
0
LINE
8
Layer 1
10
62666.454543
20
2196.997386
11
62656.459258
21
2191.344534
0
LINE
8
Layer 1
10
62656.459258
20
2191.344534
11
62646.211525
21
2186.192182
0
LINE
8
Layer 1
10
62646.211525
20
2186.192182
11
62635.730607
21
2181.548310
0
LINE
8
Layer 1
10
62635.730607
20
2181.548310
11
62625.035765
21
2177.420895
0
LINE
8
Layer 1
10
62625.035765
20
2177.420895
11
62614.146261
21
2173.817916
0
LINE
8
Layer 1
10
62614.146261
20
2173.817916
11
62603.081357
21
2170.747352
0
LINE
8
Layer 1
10
62603.081357
20
2170.747352
11
62591.860314
21
2168.217182
0
LINE
8
Layer 1
10
62591.860314
20
2168.217182
11
62580.502396
21
2166.235382
0
LINE
8
Layer 1
10
62580.502396
20
2166.235382
11
62569.026863
21
2164.809933
0
LINE
8
Layer 1
10
62569.026863
20
2164.809933
11
62557.452977
21
2163.948813
0
LINE
8
Layer 1
10
62557.452977
20
2163.948813
11
62545.800000
21
2163.660000
0
LINE
8
Layer 1
10
42030.800000
20
2163.660000
11
42025.800000
21
7313.660000
0
LINE
8
Layer 1
10
42030.800000
20
2163.660000
11
62545.800000
21
2163.660000
0
LINE
8
Layer 1
10
38465.800000
20
2163.660000
11
38465.800000
21
7338.660000
0
LINE
8
Layer 1
10
5435.770000
20
2163.660000
11
38465.770000
21
2163.660000
0
LINE
8
Layer 1
10
39155.800000
20
8103.660000
11
41420.800000
21
8118.660000
0
LINE
8
Layer 1
10
25560.800000
20
11823.700000
11
24970.800000
21
11823.700000
0
LINE
8
Layer 1
10
18075.800000
20
7343.660000
11
18080.800000
21
13838.660000
0
LINE
8
Layer 1
10
18080.800000
20
13838.700000
11
4555.800000
21
13838.700000
0
LINE
8
Layer 1
10
18075.800000
20
5923.660000
11
18075.800000
21
7343.660000
0
LINE
8
Layer 1
10
4550.770000
20
5923.660000
11
18075.770000
21
5923.660000
0
LINE
8
Layer 1
10
4551.770000
20
3064.660000
11
4550.770000
21
5933.660000
0
LINE
8
Layer 1
10
5435.640000
20
2163.660000
11
5413.415043
21
2163.938891
0
LINE
8
Layer 1
10
5413.415043
20
2163.938891
11
5391.257763
21
2164.772689
0
LINE
8
Layer 1
10
5391.257763
20
2164.772689
11
5369.177516
21
2166.157471
0
LINE
8
Layer 1
10
5369.177516
20
2166.157471
11
5347.183659
21
2168.089314
0
LINE
8
Layer 1
10
5347.183659
20
2168.089314
11
5325.285546
21
2170.564295
0
LINE
8
Layer 1
10
5325.285546
20
2170.564295
11
5303.492535
21
2173.578490
0
LINE
8
Layer 1
10
5303.492535
20
2173.578490
11
5281.813982
21
2177.127975
0
LINE
8
Layer 1
10
5281.813982
20
2177.127975
11
5260.259241
21
2181.208828
0
LINE
8
Layer 1
10
5260.259241
20
2181.208828
11
5238.837670
21
2185.817125
0
LINE
8
Layer 1
10
5238.837670
20
2185.817125
11
5217.558624
21
2190.948943
0
LINE
8
Layer 1
10
5217.558624
20
2190.948943
11
5196.431459
21
2196.600358
0
LINE
8
Layer 1
10
5196.431459
20
2196.600358
11
5175.465532
21
2202.767447
0
LINE
8
Layer 1
10
5175.465532
20
2202.767447
11
5154.670198
21
2209.446286
0
LINE
8
Layer 1
10
5154.670198
20
2209.446286
11
5134.054813
21
2216.632953
0
LINE
8
Layer 1
10
5134.054813
20
2216.632953
11
5113.628733
21
2224.323523
0
LINE
8
Layer 1
10
5113.628733
20
2224.323523
11
5093.401315
21
2232.514075
0
LINE
8
Layer 1
10
5093.401315
20
2232.514075
11
5073.381914
21
2241.200683
0
LINE
8
Layer 1
10
5073.381914
20
2241.200683
11
5053.579887
21
2250.379425
0
LINE
8
Layer 1
10
5053.579887
20
2250.379425
11
5034.004589
21
2260.046377
0
LINE
8
Layer 1
10
5034.004589
20
2260.046377
11
5014.665376
21
2270.197617
0
LINE
8
Layer 1
10
5014.665376
20
2270.197617
11
4995.571604
21
2280.829220
0
LINE
8
Layer 1
10
4995.571604
20
2280.829220
11
4976.732630
21
2291.937264
0
LINE
8
Layer 1
10
4976.732630
20
2291.937264
11
4958.157810
21
2303.517824
0
LINE
8
Layer 1
10
4958.157810
20
2303.517824
11
4939.856498
21
2315.566978
0
LINE
8
Layer 1
10
4939.856498
20
2315.566978
11
4921.838052
21
2328.080803
0
LINE
8
Layer 1
10
4921.838052
20
2328.080803
11
4904.111827
21
2341.055374
0
LINE
8
Layer 1
10
4904.111827
20
2341.055374
11
4886.687180
21
2354.486769
0
LINE
8
Layer 1
10
4886.687180
20
2354.486769
11
4869.573466
21
2368.371064
0
LINE
8
Layer 1
10
4869.573466
20
2368.371064
11
4852.780042
21
2382.704336
0
LINE
8
Layer 1
10
4852.780042
20
2382.704336
11
4836.316263
21
2397.482661
0
LINE
8
Layer 1
10
4836.316263
20
2397.482661
11
4820.191485
21
2412.702116
0
LINE
8
Layer 1
10
4820.191485
20
2412.702116
11
4804.415065
21
2428.358778
0
LINE
8
Layer 1
10
4804.415065
20
2428.358778
11
4789.036301
21
2444.406212
0
LINE
8
Layer 1
10
4789.036301
20
2444.406212
11
4774.100760
21
2460.794314
0
LINE
8
Layer 1
10
4774.100760
20
2460.794314
11
4759.612202
21
2477.513663
0
LINE
8
Layer 1
10
4759.612202
20
2477.513663
11
4745.574387
21
2494.554834
0
LINE
8
Layer 1
10
4745.574387
20
2494.554834
11
4731.991073
21
2511.908405
0
LINE
8
Layer 1
10
4731.991073
20
2511.908405
11
4718.866021
21
2529.564954
0
LINE
8
Layer 1
10
4718.866021
20
2529.564954
11
4706.202989
21
2547.515056
0
LINE
8
Layer 1
10
4706.202989
20
2547.515056
11
4694.005736
21
2565.749288
0
LINE
8
Layer 1
10
4694.005736
20
2565.749288
11
4682.278023
21
2584.258228
0
LINE
8
Layer 1
10
4682.278023
20
2584.258228
11
4671.023608
21
2603.032452
0
LINE
8
Layer 1
10
4671.023608
20
2603.032452
11
4660.246252
21
2622.062538
0
LINE
8
Layer 1
10
4660.246252
20
2622.062538
11
4649.949712
21
2641.339062
0
LINE
8
Layer 1
10
4649.949712
20
2641.339062
11
4640.137750
21
2660.852601
0
LINE
8
Layer 1
10
4640.137750
20
2660.852601
11
4630.814123
21
2680.593732
0
LINE
8
Layer 1
10
4630.814123
20
2680.593732
11
4621.982592
21
2700.553032
0
LINE
8
Layer 1
10
4621.982592
20
2700.553032
11
4613.646916
21
2720.721078
0
LINE
8
Layer 1
10
4613.646916
20
2720.721078
11
4605.810854
21
2741.088447
0
LINE
8
Layer 1
10
4605.810854
20
2741.088447
11
4598.478165
21
2761.645715
0
LINE
8
Layer 1
10
4598.478165
20
2761.645715
11
4591.652610
21
2782.383460
0
LINE
8
Layer 1
10
4591.652610
20
2782.383460
11
4585.337946
21
2803.292258
0
LINE
8
Layer 1
10
4585.337946
20
2803.292258
11
4579.537935
21
2824.362686
0
LINE
8
Layer 1
10
4579.537935
20
2824.362686
11
4574.256334
21
2845.585322
0
LINE
8
Layer 1
10
4574.256334
20
2845.585322
11
4569.496904
21
2866.950742
0
LINE
8
Layer 1
10
4569.496904
20
2866.950742
11
4565.263404
21
2888.449523
0
LINE
8
Layer 1
10
4565.263404
20
2888.449523
11
4561.559593
21
2910.072243
0
LINE
8
Layer 1
10
4561.559593
20
2910.072243
11
4558.389230
21
2931.809477
0
LINE
8
Layer 1
10
4558.389230
20
2931.809477
11
4555.756076
21
2953.651802
0
LINE
8
Layer 1
10
4555.756076
20
2953.651802
11
4553.663888
21
2975.589797
0
LINE
8
Layer 1
10
4553.663888
20
2975.589797
11
4552.116428
21
2997.614037
0
LINE
8
Layer 1
10
4552.116428
20
2997.614037
11
4551.117453
21
3019.715100
0
LINE
8
Layer 1
10
4551.117453
20
3019.715100
11
4550.670724
21
3041.883562
0
LINE
8
Layer 1
10
4550.670724
20
3041.883562
11
4550.780000
21
3064.110000
0
LINE
8
Layer 1
10
13845.800000
20
15513.700000
11
13845.800000
21
19358.700000
0
LINE
8
Layer 1
10
16045.800000
20
15513.700000
11
13845.800000
21
15513.700000
0
LINE
8
Layer 1
10
16045.800000
20
19358.700000
11
16045.800000
21
15513.700000
0
LINE
8
Layer 1
10
13845.800000
20
19358.700000
11
16045.800000
21
19358.700000
0
LINE
8
Layer 1
10
45915.800000
20
30108.700000
11
45915.800000
21
33993.700000
0
LINE
8
Layer 1
10
45915.800000
20
33993.700000
11
46820.800000
21
33993.700000
0
LINE
8
Layer 1
10
46820.800000
20
33993.700000
11
46820.800000
21
30108.700000
0
LINE
8
Layer 1
10
46820.800000
20
30108.700000
11
45915.800000
21
30108.700000
0
LINE
8
Layer 1
10
17675.800000
20
30288.700000
11
16770.800000
21
30288.700000
0
LINE
8
Layer 1
10
17675.800000
20
34173.700000
11
17675.800000
21
30288.700000
0
LINE
8
Layer 1
10
16770.800000
20
34173.700000
11
17675.800000
21
34173.700000
0
LINE
8
Layer 1
10
16770.800000
20
30288.700000
11
16770.800000
21
34173.700000
0
LINE
8
Layer 1
10
18900.800000
20
10993.700000
11
18900.800000
21
7343.660000
0
LINE
8
Layer 1
10
24140.800000
20
10993.700000
11
18900.800000
21
10993.700000
0
LINE
8
Layer 1
10
18900.800000
20
7343.660000
11
24140.800000
21
7343.660000
0
LINE
8
Layer 1
10
24970.800000
20
11823.700000
11
24140.800000
21
10993.700000
0
LINE
8
Layer 1
10
26445.800000
20
10938.700000
11
25560.800000
21
11823.700000
0
LINE
8
Layer 1
10
31685.800000
20
10938.700000
11
26445.800000
21
10938.700000
0
LINE
8
Layer 1
10
31685.800000
20
7288.660000
11
31685.800000
21
10938.700000
0
LINE
8
Layer 1
10
24140.800000
20
7343.660000
11
31685.800000
21
7288.660000
0
LINE
8
Layer 1
10
33915.800000
20
10988.700000
11
33915.800000
21
7338.660000
0
LINE
8
Layer 1
10
39155.800000
20
10988.700000
11
33915.800000
21
10988.700000
0
LINE
8
Layer 1
10
39155.800000
20
8103.660000
11
39155.800000
21
10988.700000
0
LINE
8
Layer 1
10
33915.800000
20
7338.660000
11
38465.800000
21
7338.660000
0
LINE
8
Layer 1
10
42025.800000
20
7313.660000
11
46660.800000
21
7313.660000
0
LINE
8
Layer 1
10
41420.800000
20
10963.700000
11
41420.800000
21
8118.660000
0
LINE
8
Layer 1
10
46660.800000
20
7313.660000
11
46660.800000
21
10963.700000
0
LINE
8
Layer 1
10
46660.800000
20
10963.700000
11
41420.800000
21
10963.700000
0
LINE
8
Layer 1
10
48885.800000
20
7278.660000
11
54125.800000
21
7278.660000
0
LINE
8
Layer 1
10
48885.800000
20
10928.700000
11
48885.800000
21
7278.660000
0
LINE
8
Layer 1
10
54125.800000
20
7278.660000
11
54125.800000
21
10928.700000
0
LINE
8
Layer 1
10
54125.800000
20
10928.700000
11
48885.800000
21
10928.700000
0
LINE
8
Layer 1
10
56370.800000
20
10933.700000
11
56370.800000
21
7283.660000
0
LINE
8
Layer 1
10
61610.800000
20
7283.660000
11
61610.800000
21
10933.700000
0
LINE
8
Layer 1
10
61610.800000
20
10933.700000
11
56370.800000
21
10933.700000
0
LINE
8
Layer 1
10
56370.800000
20
7283.660000
11
61610.800000
21
7283.660000
0
LINE
8
Layer 1
10
58280.800000
20
18398.700000
11
58280.800000
21
14768.700000
0
LINE
8
Layer 1
10
63520.800000
20
14768.700000
11
63520.800000
21
18418.700000
0
LINE
8
Layer 1
10
58280.800000
20
14768.700000
11
57155.800000
21
14768.700000
0
LINE
8
Layer 1
10
63520.800000
20
18418.700000
11
63520.800000
21
22268.700000
0
LINE
8
Layer 1
10
48515.800000
20
18398.700000
11
50745.800000
21
18398.700000
0
LINE
8
Layer 1
10
50745.800000
20
14748.700000
11
49680.800000
21
14748.700000
0
LINE
8
Layer 1
10
50745.800000
20
18398.700000
11
50745.800000
21
14748.700000
0
LINE
8
Layer 1
10
55985.800000
20
14758.700000
11
55985.800000
21
18398.700000
0
LINE
8
Layer 1
10
40980.800000
20
18448.700000
11
43275.800000
21
18448.700000
0
LINE
8
Layer 1
10
48515.800000
20
14793.700000
11
48515.800000
21
18398.700000
0
LINE
8
Layer 1
10
43275.800000
20
14798.700000
11
43970.800000
21
14798.700000
0
LINE
8
Layer 1
10
43275.800000
20
18448.700000
11
43275.800000
21
14798.700000
0
LINE
8
Layer 1
10
35740.800000
20
18428.700000
11
35740.800000
21
14778.700000
0
LINE
8
Layer 1
10
40180.800000
20
14778.700000
11
40980.800000
21
14778.700000
0
LINE
8
Layer 1
10
40980.800000
20
14778.700000
11
40980.800000
21
18448.700000
0
LINE
8
Layer 1
10
33565.800000
20
18428.700000
11
35740.800000
21
18428.700000
0
LINE
8
Layer 1
10
32855.800000
20
14808.700000
11
33565.800000
21
14808.700000
0
LINE
8
Layer 1
10
24145.800000
20
18458.700000
11
28325.800000
21
18458.700000
0
LINE
8
Layer 1
10
28325.800000
20
18458.700000
11
28325.800000
21
14813.700000
0
LINE
8
Layer 1
10
33565.800000
20
14808.700000
11
33565.800000
21
18428.700000
0
LINE
8
Layer 1
10
18905.800000
20
14783.700000
11
19810.800000
21
14783.700000
0
LINE
8
Layer 1
10
18905.800000
20
18433.700000
11
18905.800000
21
14783.700000
0
LINE
8
Layer 1
10
24145.800000
20
14788.700000
11
24145.800000
21
18458.700000
0
LINE
8
Layer 1
10
20795.800000
20
18433.700000
11
18905.800000
21
18433.700000
0
LINE
8
Layer 1
10
7630.770000
20
18453.700000
11
7630.770000
21
14803.700000
0
LINE
8
Layer 1
10
7630.770000
20
14803.700000
11
12870.770000
21
14803.700000
0
LINE
8
Layer 1
10
12870.800000
20
14803.700000
11
12870.800000
21
18453.700000
0
LINE
8
Layer 1
10
12870.800000
20
18453.700000
11
7630.800000
21
18453.700000
0
LINE
8
Layer 1
10
17575.800000
20
23428.700000
11
17575.800000
21
21258.700000
0
LINE
8
Layer 1
10
29185.800000
20
23438.700000
11
26035.800000
21
23438.700000
0
LINE
8
Layer 1
10
19800.800000
20
23428.700000
11
17575.800000
21
23428.700000
0
LINE
8
Layer 1
10
17575.800000
20
21258.700000
11
19800.800000
21
21258.700000
0
LINE
8
Layer 1
10
19800.800000
20
21258.700000
11
19800.800000
21
23428.700000
0
LINE
8
Layer 1
10
29935.800000
20
23438.700000
11
29185.800000
21
23438.700000
0
LINE
8
Layer 1
10
50410.800000
20
30973.700000
11
50410.800000
21
28803.700000
0
LINE
8
Layer 1
10
59795.800000
20
28813.700000
11
62020.800000
21
28813.700000
0
LINE
8
Layer 1
10
62020.800000
20
30983.700000
11
59795.800000
21
30983.700000
0
LINE
8
Layer 1
10
52635.800000
20
30973.700000
11
50410.800000
21
30973.700000
0
LINE
8
Layer 1
10
50410.800000
20
28803.700000
11
52635.800000
21
28803.700000
0
LINE
8
Layer 1
10
59795.800000
20
30983.700000
11
59795.800000
21
28813.700000
0
LINE
8
Layer 1
10
52635.800000
20
28803.700000
11
52635.800000
21
30973.700000
0
LINE
8
Layer 1
10
62020.800000
20
28813.700000
11
62020.800000
21
30983.700000
0
LINE
8
Layer 1
10
61980.800000
20
36858.700000
11
59755.800000
21
36858.700000
0
LINE
8
Layer 1
10
61980.800000
20
34688.700000
11
61980.800000
21
36858.700000
0
LINE
8
Layer 1
10
59755.800000
20
36858.700000
11
59755.800000
21
34688.700000
0
LINE
8
Layer 1
10
59755.800000
20
34688.700000
11
61980.800000
21
34688.700000
0
LINE
8
Layer 1
10
52595.800000
20
36848.700000
11
50370.800000
21
36848.700000
0
LINE
8
Layer 1
10
50370.800000
20
36848.700000
11
50370.800000
21
34678.700000
0
LINE
8
Layer 1
10
50370.800000
20
34678.700000
11
52595.800000
21
34678.700000
0
LINE
8
Layer 1
10
52595.800000
20
34678.700000
11
52595.800000
21
36848.700000
0
LINE
8
Layer 1
10
29175.800000
20
29338.700000
11
26950.800000
21
29338.700000
0
LINE
8
Layer 1
10
26950.800000
20
29338.700000
11
26950.800000
21
27168.700000
0
LINE
8
Layer 1
10
26950.800000
20
27168.700000
11
29175.800000
21
27168.700000
0
LINE
8
Layer 1
10
29175.800000
20
27168.700000
11
29175.800000
21
29338.700000
0
LINE
8
Layer 1
10
17565.800000
20
29328.700000
11
17565.800000
21
27158.700000
0
LINE
8
Layer 1
10
19790.800000
20
29328.700000
11
17565.800000
21
29328.700000
0
LINE
8
Layer 1
10
19790.800000
20
27158.700000
11
19790.800000
21
29328.700000
0
LINE
8
Layer 1
10
17565.800000
20
27158.700000
11
19790.800000
21
27158.700000
0
LINE
8
Layer 1
10
37230.800000
20
26043.700000
11
31990.800000
21
26043.700000
0
LINE
8
Layer 1
10
37230.800000
20
23373.700000
11
37230.800000
21
26043.700000
0
LINE
8
Layer 1
10
31990.800000
20
26043.700000
11
31990.800000
21
23373.700000
0
LINE
8
Layer 1
10
26035.800000
20
25998.700000
11
20795.800000
21
25998.700000
0
LINE
8
Layer 1
10
20795.800000
20
25998.700000
11
20795.800000
21
18433.700000
0
LINE
8
Layer 1
10
26035.800000
20
23438.700000
11
26035.800000
21
25998.700000
0
LINE
8
Layer 1
10
52230.800000
20
25958.700000
11
46990.800000
21
25958.700000
0
LINE
8
Layer 1
10
52230.800000
20
23373.700000
11
52230.800000
21
25958.700000
0
LINE
8
Layer 1
10
46990.800000
20
25958.700000
11
46990.800000
21
23373.700000
0
LINE
8
Layer 1
10
44750.800000
20
25978.700000
11
39510.800000
21
25978.700000
0
LINE
8
Layer 1
10
39510.800000
20
25978.700000
11
39510.800000
21
23373.700000
0
LINE
8
Layer 1
10
44750.800000
20
23373.700000
11
44750.800000
21
25978.700000
0
LINE
8
Layer 1
10
59825.800000
20
25938.700000
11
54585.800000
21
25938.700000
0
LINE
8
Layer 1
10
59825.800000
20
23373.700000
11
59825.800000
21
25938.700000
0
LINE
8
Layer 1
10
62065.800000
20
23373.700000
11
59825.800000
21
23373.700000
0
LINE
8
Layer 1
10
54585.800000
20
25938.700000
11
54585.800000
21
23373.700000
0
LINE
8
Layer 1
10
67305.800000
20
25918.700000
11
62065.800000
21
25918.700000
0
LINE
8
Layer 1
10
67305.800000
20
22268.700000
11
67305.800000
21
25918.700000
0
LINE
8
Layer 1
10
63520.800000
20
22268.700000
11
67305.800000
21
22268.700000
0
LINE
8
Layer 1
10
62065.800000
20
25918.700000
11
62065.800000
21
23373.700000
0
LINE
8
Layer 1
10
58805.800000
20
29763.700000
11
58805.800000
21
33413.700000
0
LINE
8
Layer 1
10
53565.800000
20
29763.700000
11
58805.800000
21
29763.700000
0
LINE
8
Layer 1
10
53565.800000
20
33413.700000
11
53565.800000
21
29763.700000
0
LINE
8
Layer 1
10
58805.800000
20
33413.700000
11
53565.800000
21
33413.700000
0
LINE
8
Layer 1
10
43805.800000
20
29798.700000
11
43805.800000
21
33448.700000
0
LINE
8
Layer 1
10
44325.800000
20
29798.700000
11
43805.800000
21
29798.700000
0
LINE
8
Layer 1
10
38565.800000
20
33448.700000
11
38565.800000
21
29798.700000
0
LINE
8
Layer 1
10
43805.800000
20
33448.700000
11
38565.800000
21
33448.700000
0
LINE
8
Layer 1
10
29265.800000
20
33418.700000
11
29265.800000
21
29768.700000
0
LINE
8
Layer 1
10
34505.800000
20
29763.700000
11
34505.800000
21
33418.700000
0
LINE
8
Layer 1
10
29265.800000
20
29768.700000
11
32760.800000
21
29768.700000
0
LINE
8
Layer 1
10
34505.800000
20
33418.700000
11
29265.800000
21
33418.700000
0
LINE
8
Layer 1
10
19835.800000
20
29748.700000
11
25075.800000
21
29748.700000
0
LINE
8
Layer 1
10
25075.800000
20
29748.700000
11
25075.800000
21
33398.700000
0
LINE
8
Layer 1
10
25075.800000
20
33398.700000
11
19835.800000
21
33398.700000
0
LINE
8
Layer 1
10
19835.800000
20
33398.700000
11
19835.800000
21
29748.700000
0
LINE
8
Layer 1
10
12885.800000
20
25938.700000
11
7645.800000
21
25938.700000
0
LINE
8
Layer 1
10
12885.800000
20
22288.700000
11
12885.800000
21
25938.700000
0
LINE
8
Layer 1
10
7645.770000
20
22288.700000
11
12885.770000
21
22288.700000
0
LINE
8
Layer 1
10
7645.770000
20
25938.700000
11
7645.770000
21
22288.700000
0
LINE
8
Layer 1
10
13095.800000
20
33473.700000
11
7620.800000
21
33473.700000
0
LINE
8
Layer 1
10
13095.800000
20
27548.700000
11
13095.800000
21
33473.700000
0
LINE
8
Layer 1
10
9050.760000
20
27548.700000
11
13095.760000
21
27548.700000
0
LINE
8
Layer 1
10
9050.760000
20
30498.700000
11
9050.760000
21
27548.700000
0
LINE
8
Layer 1
10
7620.770000
20
30498.700000
11
9050.770000
21
30498.700000
0
LINE
8
Layer 1
10
7620.770000
20
33473.700000
11
7620.770000
21
30498.700000
 0 
ENDSEC
 0 
EOF